<?xml version="1.0" encoding="us-ascii" standalone="no"?><svg xmlns="http://www.w3.org/2000/svg" xmlns:xlink="http://www.w3.org/1999/xlink" contentStyleType="text/css" height="1203px" preserveAspectRatio="none" style="width:3210px;height:1203px;background:#FFFFFF;" version="1.1" viewBox="0 0 3210 1203" width="3210px" zoomAndPan="magnify"><defs/><g><!--class C_0000471141963319712659--><g id="elem_C_0000471141963319712659"><rect codeLine="2" fill="#F1F1F1" height="96.8906" id="C_0000471141963319712659" rx="2.5" ry="2.5" style="stroke:#181818;stroke-width:0.5;" width="70" x="414.8374" y="876"/><ellipse cx="429.8374" cy="892" fill="#EB937F" rx="11" ry="11" style="stroke:#181818;stroke-width:1.0;"/><path d="M428.6343,892.875 L430.0874,892.875 L430.0874,892.9844 C430.0874,893.3906 430.1187,893.5469 430.1968,893.7031 C430.353,893.9531 430.6343,894.1094 430.9312,894.1094 C431.1812,894.1094 431.4468,893.9688 431.603,893.75 C431.728,893.5938 431.7593,893.4375 431.7593,892.9844 L431.7593,891.0625 C431.7593,890.9063 431.7593,890.8594 431.7437,890.7031 C431.6812,890.2344 431.3687,889.9219 430.9155,889.9219 C430.6655,889.9219 430.3999,890.0625 430.228,890.2813 C430.1187,890.4531 430.0874,890.6094 430.0874,891.0625 L430.0874,891.1875 L428.6343,891.1875 L428.6343,888.7813 L432.6187,888.7813 L432.6187,889.6406 C432.6187,890.0469 432.6499,890.2188 432.728,890.375 C432.8999,890.625 433.1812,890.7813 433.4624,890.7813 C433.728,890.7813 433.9937,890.6406 434.1655,890.4219 C434.2749,890.25 434.3062,890.1094 434.3062,889.6406 L434.3062,887.0938 L426.6812,887.0938 C426.2437,887.0938 426.1187,887.1094 425.9624,887.2031 C425.7124,887.3594 425.5562,887.6563 425.5562,887.9375 C425.5562,888.2188 425.6968,888.4688 425.9155,888.6406 C426.0718,888.75 426.2593,888.7813 426.6812,888.7813 L426.9312,888.7813 L426.9312,895.2969 L426.6812,895.2969 C426.2749,895.2969 426.1187,895.3125 425.9624,895.4219 C425.7124,895.5938 425.5562,895.8594 425.5562,896.1563 C425.5562,896.4219 425.6968,896.6719 425.9155,896.8281 C426.0562,896.9531 426.2905,897 426.6812,897 L434.6812,897 L434.6812,894.4219 C434.6812,893.9844 434.6499,893.8438 434.5718,893.6875 C434.3999,893.4375 434.1187,893.2813 433.8374,893.2813 C433.5718,893.2813 433.3062,893.3906 433.1343,893.6406 C433.0249,893.7969 432.9937,893.9375 432.9937,894.4219 L432.9937,895.2969 L428.6343,895.2969 L428.6343,892.875 Z " fill="#000000"/><text fill="#000000" font-family="sans-serif" font-size="14" lengthAdjust="spacing" textLength="38" x="443.8374" y="896.8467">Color</text><line style="stroke:#181818;stroke-width:0.5;" x1="415.8374" x2="483.8374" y1="908" y2="908"/><text fill="#000000" font-family="sans-serif" font-size="14" lengthAdjust="spacing" textLength="30" x="420.8374" y="924.9951">RED</text><text fill="#000000" font-family="sans-serif" font-size="14" lengthAdjust="spacing" textLength="49" x="420.8374" y="941.292">GREEN</text><text fill="#000000" font-family="sans-serif" font-size="14" lengthAdjust="spacing" textLength="36" x="420.8374" y="957.5889">BLUE</text><line style="stroke:#181818;stroke-width:0.5;" x1="415.8374" x2="483.8374" y1="964.8906" y2="964.8906"/></g><!--class C_0000336698138643470184--><g id="elem_C_0000336698138643470184"><rect codeLine="8" fill="#F1F1F1" height="162.0781" id="C_0000336698138643470184" rx="2.5" ry="2.5" style="stroke:#181818;stroke-width:0.5;" width="272" x="1899.8424" y="843.5"/><ellipse cx="1963.5924" cy="859.5" fill="#A9DCDF" rx="11" ry="11" style="stroke:#181818;stroke-width:1.0;"/><path d="M1965.6705,861.3125 L1966.0612,862.2969 L1965.6705,862.2969 C1965.2174,862.2969 1965.108,862.3125 1964.9518,862.4219 C1964.7018,862.5781 1964.5455,862.8594 1964.5455,863.1563 C1964.5455,863.4219 1964.6862,863.6719 1964.9049,863.8281 C1965.0455,863.9531 1965.2487,864 1965.6705,864 L1968.0299,864 C1968.3893,864 1968.608,863.9688 1968.7487,863.875 C1968.9987,863.7344 1969.1549,863.4375 1969.1549,863.1563 C1969.1549,862.875 1969.0143,862.625 1968.7955,862.4688 C1968.6237,862.3281 1968.4674,862.2969 1967.9987,862.2969 L1964.608,854.0938 L1960.9362,854.0938 C1960.483,854.0938 1960.358,854.1094 1960.2018,854.2031 C1959.9518,854.375 1959.7955,854.6563 1959.7955,854.9375 C1959.7955,855.2188 1959.9362,855.4688 1960.1549,855.6406 C1960.3268,855.75 1960.4987,855.7813 1960.9362,855.7813 L1962.0143,855.7813 L1959.3737,862.2969 C1958.9518,862.2969 1958.7955,862.3125 1958.6393,862.4219 C1958.3893,862.5781 1958.233,862.8594 1958.233,863.1563 C1958.233,863.7188 1958.608,864 1959.358,864 L1961.6237,864 C1961.983,864 1962.2018,863.9688 1962.3268,863.875 C1962.5924,863.7344 1962.733,863.4375 1962.733,863.1563 C1962.733,862.875 1962.608,862.625 1962.3893,862.4531 C1962.2174,862.3281 1962.0768,862.2969 1961.6237,862.2969 L1961.233,862.2969 L1961.6237,861.3125 L1965.6705,861.3125 Z M1964.9674,859.6094 L1962.2955,859.6094 L1963.6393,856.3438 L1964.9674,859.6094 Z " fill="#000000"/><text fill="#000000" font-family="sans-serif" font-size="14" font-style="italic" lengthAdjust="spacing" textLength="136" x="1984.0924" y="864.3467">CarModule::Engine</text><line style="stroke:#181818;stroke-width:0.5;" x1="1900.8424" x2="2170.8424" y1="875.5" y2="875.5"/><polygon fill="none" points="1910.8424,884.1484,1914.8424,888.1484,1910.8424,892.1484,1906.8424,888.1484" style="stroke:#B38D22;stroke-width:1.0;"/><text fill="#000000" font-family="sans-serif" font-size="14" lengthAdjust="spacing" textLength="100" x="1919.8424" y="892.4951">power : size_t</text><polygon fill="none" points="1910.8424,900.4453,1914.8424,904.4453,1910.8424,908.4453,1906.8424,904.4453" style="stroke:#B38D22;stroke-width:1.0;"/><text fill="#000000" font-family="sans-serif" font-size="14" lengthAdjust="spacing" textLength="116" x="1919.8424" y="908.792">capacity : size_t</text><line style="stroke:#181818;stroke-width:0.5;" x1="1900.8424" x2="2170.8424" y1="916.0938" y2="916.0938"/><ellipse cx="1910.8424" cy="929.7422" fill="#84BE84" rx="3" ry="3" style="stroke:#038048;stroke-width:1.0;"/><text fill="#000000" font-family="sans-serif" font-size="14" lengthAdjust="spacing" textLength="211" x="1919.8424" y="933.0889">setPower(size_t power) : void</text><ellipse cx="1910.8424" cy="946.0391" fill="#84BE84" rx="3" ry="3" style="stroke:#038048;stroke-width:1.0;"/><text fill="#000000" font-family="sans-serif" font-size="14" lengthAdjust="spacing" textLength="156" x="1919.8424" y="949.3857">getPower() const : int</text><ellipse cx="1910.8424" cy="962.3359" fill="#84BE84" rx="3" ry="3" style="stroke:#038048;stroke-width:1.0;"/><text fill="#000000" font-family="sans-serif" font-size="14" lengthAdjust="spacing" textLength="246" x="1919.8424" y="965.6826">setCapacity(size_t capacity) : void</text><ellipse cx="1910.8424" cy="978.6328" fill="#84BE84" rx="3" ry="3" style="stroke:#038048;stroke-width:1.0;"/><text fill="#000000" font-family="sans-serif" font-size="14" lengthAdjust="spacing" textLength="175" x="1919.8424" y="981.9795">getCapacity() const : int</text><ellipse cx="1910.8424" cy="994.9297" fill="#84BE84" rx="3" ry="3" style="stroke:#038048;stroke-width:1.0;"/><text fill="#000000" font-family="sans-serif" font-size="14" font-style="italic" lengthAdjust="spacing" textLength="188" x="1919.8424" y="998.2764">getString() = 0 : std::string</text></g><!--class C_0000059837350897900270--><g id="elem_C_0000059837350897900270"><rect codeLine="18" fill="#F1F1F1" height="113.1875" id="C_0000059837350897900270" rx="2.5" ry="2.5" style="stroke:#181818;stroke-width:0.5;" width="254" x="731.8374" y="868"/><ellipse cx="765.2874" cy="884" fill="#A9DCDF" rx="11" ry="11" style="stroke:#181818;stroke-width:1.0;"/><path d="M767.3655,885.8125 L767.7562,886.7969 L767.3655,886.7969 C766.9124,886.7969 766.803,886.8125 766.6468,886.9219 C766.3968,887.0781 766.2405,887.3594 766.2405,887.6563 C766.2405,887.9219 766.3812,888.1719 766.5999,888.3281 C766.7405,888.4531 766.9437,888.5 767.3655,888.5 L769.7249,888.5 C770.0843,888.5 770.303,888.4688 770.4437,888.375 C770.6937,888.2344 770.8499,887.9375 770.8499,887.6563 C770.8499,887.375 770.7093,887.125 770.4905,886.9688 C770.3187,886.8281 770.1624,886.7969 769.6937,886.7969 L766.303,878.5938 L762.6312,878.5938 C762.178,878.5938 762.053,878.6094 761.8968,878.7031 C761.6468,878.875 761.4905,879.1563 761.4905,879.4375 C761.4905,879.7188 761.6312,879.9688 761.8499,880.1406 C762.0218,880.25 762.1937,880.2813 762.6312,880.2813 L763.7093,880.2813 L761.0687,886.7969 C760.6468,886.7969 760.4905,886.8125 760.3343,886.9219 C760.0843,887.0781 759.928,887.3594 759.928,887.6563 C759.928,888.2188 760.303,888.5 761.053,888.5 L763.3187,888.5 C763.678,888.5 763.8968,888.4688 764.0218,888.375 C764.2874,888.2344 764.428,887.9375 764.428,887.6563 C764.428,887.375 764.303,887.125 764.0843,886.9531 C763.9124,886.8281 763.7718,886.7969 763.3187,886.7969 L762.928,886.7969 L763.3187,885.8125 L767.3655,885.8125 Z M766.6624,884.1094 L763.9905,884.1094 L765.3343,880.8438 L766.6624,884.1094 Z " fill="#000000"/><text fill="#000000" font-family="sans-serif" font-size="14" font-style="italic" lengthAdjust="spacing" textLength="181" x="783.3874" y="888.8467">CarModule::Transmission</text><line style="stroke:#181818;stroke-width:0.5;" x1="732.8374" x2="984.8374" y1="900" y2="900"/><polygon fill="none" points="742.8374,908.6484,746.8374,912.6484,742.8374,916.6484,738.8374,912.6484" style="stroke:#B38D22;stroke-width:1.0;"/><text fill="#000000" font-family="sans-serif" font-size="14" lengthAdjust="spacing" textLength="94" x="751.8374" y="916.9951">gears : size_t</text><line style="stroke:#181818;stroke-width:0.5;" x1="732.8374" x2="984.8374" y1="924.2969" y2="924.2969"/><ellipse cx="742.8374" cy="937.9453" fill="#84BE84" rx="3" ry="3" style="stroke:#038048;stroke-width:1.0;"/><text fill="#000000" font-family="sans-serif" font-size="14" font-style="italic" lengthAdjust="spacing" textLength="228" x="751.8374" y="941.292">setGears(size_t gears) = 0 : void</text><ellipse cx="742.8374" cy="954.2422" fill="#84BE84" rx="3" ry="3" style="stroke:#038048;stroke-width:1.0;"/><text fill="#000000" font-family="sans-serif" font-size="14" font-style="italic" lengthAdjust="spacing" textLength="198" x="751.8374" y="957.5889">getGears() const = 0 : size_t</text><ellipse cx="742.8374" cy="970.5391" fill="#84BE84" rx="3" ry="3" style="stroke:#038048;stroke-width:1.0;"/><text fill="#000000" font-family="sans-serif" font-size="14" lengthAdjust="spacing" textLength="211" x="751.8374" y="973.8857">getString() const : std::string</text></g><!--class C_0000087108136300294608--><g id="elem_C_0000087108136300294608"><rect codeLine="25" fill="#F1F1F1" height="194.6719" id="C_0000087108136300294608" rx="2.5" ry="2.5" style="stroke:#181818;stroke-width:0.5;" width="512" x="2253.8424" y="827"/><ellipse cx="2437.0924" cy="843" fill="#ADD1B2" rx="11" ry="11" style="stroke:#181818;stroke-width:1.0;"/><path d="M2439.4362,838.6719 C2438.4987,838.2344 2437.9049,838.0938 2437.0299,838.0938 C2434.4049,838.0938 2432.4049,840.1719 2432.4049,842.8906 L2432.4049,844.0156 C2432.4049,846.5938 2434.5143,848.4844 2437.4049,848.4844 C2438.6237,848.4844 2439.7799,848.1875 2440.5299,847.6406 C2441.108,847.2344 2441.4362,846.7813 2441.4362,846.3906 C2441.4362,845.9375 2441.0455,845.5469 2440.5768,845.5469 C2440.358,845.5469 2440.1549,845.625 2439.9674,845.8125 C2439.5143,846.2969 2439.5143,846.2969 2439.3268,846.3906 C2438.9049,846.6563 2438.2174,846.7813 2437.4518,846.7813 C2435.4049,846.7813 2434.108,845.6875 2434.108,843.9844 L2434.108,842.8906 C2434.108,841.1094 2435.358,839.7969 2437.0924,839.7969 C2437.6705,839.7969 2438.2799,839.9531 2438.7487,840.2031 C2439.233,840.4844 2439.4049,840.7031 2439.4987,841.1094 C2439.5612,841.5156 2439.5924,841.6406 2439.733,841.7656 C2439.8737,841.9063 2440.108,842.0156 2440.3268,842.0156 C2440.5924,842.0156 2440.858,841.875 2441.0299,841.6563 C2441.1393,841.5 2441.1705,841.3125 2441.1705,840.8906 L2441.1705,839.4688 C2441.1705,839.0313 2441.1549,838.9063 2441.0612,838.75 C2440.9049,838.4844 2440.6237,838.3438 2440.3268,838.3438 C2440.0299,838.3438 2439.8268,838.4375 2439.608,838.75 L2439.4362,838.6719 Z " fill="#000000"/><text fill="#000000" font-family="sans-serif" font-size="14" lengthAdjust="spacing" textLength="137" x="2457.5924" y="847.8467">CarModule::Wheels</text><line style="stroke:#181818;stroke-width:0.5;" x1="2254.8424" x2="2764.8424" y1="859" y2="859"/><rect fill="none" height="6" style="stroke:#C82930;stroke-width:1.0;" width="6" x="2261.8424" y="869.6484"/><text fill="#000000" font-family="sans-serif" font-size="14" lengthAdjust="spacing" textLength="278" x="2273.8424" y="875.9951">material : CarModule::Wheels::Material</text><rect fill="none" height="6" style="stroke:#C82930;stroke-width:1.0;" width="6" x="2261.8424" y="885.9453"/><text fill="#000000" font-family="sans-serif" font-size="14" lengthAdjust="spacing" textLength="113" x="2273.8424" y="892.292">diameter : float</text><line style="stroke:#181818;stroke-width:0.5;" x1="2254.8424" x2="2764.8424" y1="899.5938" y2="899.5938"/><ellipse cx="2264.8424" cy="913.2422" fill="#84BE84" rx="3" ry="3" style="stroke:#038048;stroke-width:1.0;"/><text fill="#000000" font-family="sans-serif" font-size="14" lengthAdjust="spacing" textLength="105" x="2273.8424" y="916.5889">Wheels() : void</text><ellipse cx="2264.8424" cy="929.5391" fill="#84BE84" rx="3" ry="3" style="stroke:#038048;stroke-width:1.0;"/><text fill="#000000" font-family="sans-serif" font-size="14" lengthAdjust="spacing" textLength="486" x="2273.8424" y="932.8857">Wheels(CarModule::Wheels::Material material, float diameter) : void</text><ellipse cx="2264.8424" cy="945.8359" fill="#84BE84" rx="3" ry="3" style="stroke:#038048;stroke-width:1.0;"/><text fill="#000000" font-family="sans-serif" font-size="14" lengthAdjust="spacing" textLength="430" x="2273.8424" y="949.1826">setMaterial(CarModule::Wheels::Material newMaterial) : void</text><ellipse cx="2264.8424" cy="962.1328" fill="#84BE84" rx="3" ry="3" style="stroke:#038048;stroke-width:1.0;"/><text fill="#000000" font-family="sans-serif" font-size="14" lengthAdjust="spacing" textLength="355" x="2273.8424" y="965.4795">getMaterial() const : CarModule::Wheels::Material</text><ellipse cx="2264.8424" cy="978.4297" fill="#84BE84" rx="3" ry="3" style="stroke:#038048;stroke-width:1.0;"/><text fill="#000000" font-family="sans-serif" font-size="14" lengthAdjust="spacing" textLength="248" x="2273.8424" y="981.7764">setDiameter(float diameter) : void</text><ellipse cx="2264.8424" cy="994.7266" fill="#84BE84" rx="3" ry="3" style="stroke:#038048;stroke-width:1.0;"/><text fill="#000000" font-family="sans-serif" font-size="14" lengthAdjust="spacing" textLength="194" x="2273.8424" y="998.0732">getDiameter() const : float</text><ellipse cx="2264.8424" cy="1011.0234" fill="#84BE84" rx="3" ry="3" style="stroke:#038048;stroke-width:1.0;"/><text fill="#000000" font-family="sans-serif" font-size="14" lengthAdjust="spacing" textLength="204" x="2273.8424" y="1014.3701">getSring() const : std::string</text></g><!--class C_0001314992114024565492--><g id="elem_C_0001314992114024565492"><rect codeLine="37" fill="#F1F1F1" height="80.5938" id="C_0001314992114024565492" rx="2.5" ry="2.5" style="stroke:#181818;stroke-width:0.5;" width="237" x="2312.3424" y="563.5"/><ellipse cx="2327.3424" cy="579.5" fill="#EB937F" rx="11" ry="11" style="stroke:#181818;stroke-width:1.0;"/><path d="M2326.1393,580.375 L2327.5924,580.375 L2327.5924,580.4844 C2327.5924,580.8906 2327.6237,581.0469 2327.7018,581.2031 C2327.858,581.4531 2328.1393,581.6094 2328.4362,581.6094 C2328.6862,581.6094 2328.9518,581.4688 2329.108,581.25 C2329.233,581.0938 2329.2643,580.9375 2329.2643,580.4844 L2329.2643,578.5625 C2329.2643,578.4063 2329.2643,578.3594 2329.2487,578.2031 C2329.1862,577.7344 2328.8737,577.4219 2328.4205,577.4219 C2328.1705,577.4219 2327.9049,577.5625 2327.733,577.7813 C2327.6237,577.9531 2327.5924,578.1094 2327.5924,578.5625 L2327.5924,578.6875 L2326.1393,578.6875 L2326.1393,576.2813 L2330.1237,576.2813 L2330.1237,577.1406 C2330.1237,577.5469 2330.1549,577.7188 2330.233,577.875 C2330.4049,578.125 2330.6862,578.2813 2330.9674,578.2813 C2331.233,578.2813 2331.4987,578.1406 2331.6705,577.9219 C2331.7799,577.75 2331.8112,577.6094 2331.8112,577.1406 L2331.8112,574.5938 L2324.1862,574.5938 C2323.7487,574.5938 2323.6237,574.6094 2323.4674,574.7031 C2323.2174,574.8594 2323.0612,575.1563 2323.0612,575.4375 C2323.0612,575.7188 2323.2018,575.9688 2323.4205,576.1406 C2323.5768,576.25 2323.7643,576.2813 2324.1862,576.2813 L2324.4362,576.2813 L2324.4362,582.7969 L2324.1862,582.7969 C2323.7799,582.7969 2323.6237,582.8125 2323.4674,582.9219 C2323.2174,583.0938 2323.0612,583.3594 2323.0612,583.6563 C2323.0612,583.9219 2323.2018,584.1719 2323.4205,584.3281 C2323.5612,584.4531 2323.7955,584.5 2324.1862,584.5 L2332.1862,584.5 L2332.1862,581.9219 C2332.1862,581.4844 2332.1549,581.3438 2332.0768,581.1875 C2331.9049,580.9375 2331.6237,580.7813 2331.3424,580.7813 C2331.0768,580.7813 2330.8112,580.8906 2330.6393,581.1406 C2330.5299,581.2969 2330.4987,581.4375 2330.4987,581.9219 L2330.4987,582.7969 L2326.1393,582.7969 L2326.1393,580.375 Z " fill="#000000"/><text fill="#000000" font-family="sans-serif" font-size="14" lengthAdjust="spacing" textLength="205" x="2341.3424" y="584.3467">CarModule::Wheels::Material</text><line style="stroke:#181818;stroke-width:0.5;" x1="2313.3424" x2="2548.3424" y1="595.5" y2="595.5"/><text fill="#000000" font-family="sans-serif" font-size="14" lengthAdjust="spacing" textLength="44" x="2318.3424" y="612.4951">STEEL</text><text fill="#000000" font-family="sans-serif" font-size="14" lengthAdjust="spacing" textLength="95" x="2318.3424" y="628.792">LIGHT_ALLOY</text><line style="stroke:#181818;stroke-width:0.5;" x1="2313.3424" x2="2548.3424" y1="636.0938" y2="636.0938"/></g><!--class C_0000247247234458333579--><g id="elem_C_0000247247234458333579"><rect codeLine="42" fill="#F1F1F1" height="292.4531" id="C_0000247247234458333579" rx="2.5" ry="2.5" style="stroke:#181818;stroke-width:0.5;" width="530" x="1177.8424" y="458"/><ellipse cx="1382.5924" cy="474" fill="#A9DCDF" rx="11" ry="11" style="stroke:#181818;stroke-width:1.0;"/><path d="M1384.6705,475.8125 L1385.0612,476.7969 L1384.6705,476.7969 C1384.2174,476.7969 1384.108,476.8125 1383.9518,476.9219 C1383.7018,477.0781 1383.5455,477.3594 1383.5455,477.6563 C1383.5455,477.9219 1383.6862,478.1719 1383.9049,478.3281 C1384.0455,478.4531 1384.2487,478.5 1384.6705,478.5 L1387.0299,478.5 C1387.3893,478.5 1387.608,478.4688 1387.7487,478.375 C1387.9987,478.2344 1388.1549,477.9375 1388.1549,477.6563 C1388.1549,477.375 1388.0143,477.125 1387.7955,476.9688 C1387.6237,476.8281 1387.4674,476.7969 1386.9987,476.7969 L1383.608,468.5938 L1379.9362,468.5938 C1379.483,468.5938 1379.358,468.6094 1379.2018,468.7031 C1378.9518,468.875 1378.7955,469.1563 1378.7955,469.4375 C1378.7955,469.7188 1378.9362,469.9688 1379.1549,470.1406 C1379.3268,470.25 1379.4987,470.2813 1379.9362,470.2813 L1381.0143,470.2813 L1378.3737,476.7969 C1377.9518,476.7969 1377.7955,476.8125 1377.6393,476.9219 C1377.3893,477.0781 1377.233,477.3594 1377.233,477.6563 C1377.233,478.2188 1377.608,478.5 1378.358,478.5 L1380.6237,478.5 C1380.983,478.5 1381.2018,478.4688 1381.3268,478.375 C1381.5924,478.2344 1381.733,477.9375 1381.733,477.6563 C1381.733,477.375 1381.608,477.125 1381.3893,476.9531 C1381.2174,476.8281 1381.0768,476.7969 1380.6237,476.7969 L1380.233,476.7969 L1380.6237,475.8125 L1384.6705,475.8125 Z M1383.9674,474.1094 L1381.2955,474.1094 L1382.6393,470.8438 L1383.9674,474.1094 Z " fill="#000000"/><text fill="#000000" font-family="sans-serif" font-size="14" font-style="italic" lengthAdjust="spacing" textLength="112" x="1403.0924" y="478.8467">CarModule::Car</text><line style="stroke:#181818;stroke-width:0.5;" x1="1178.8424" x2="1706.8424" y1="490" y2="490"/><polygon fill="none" points="1188.8424,498.6484,1192.8424,502.6484,1188.8424,506.6484,1184.8424,502.6484" style="stroke:#B38D22;stroke-width:1.0;"/><text fill="#000000" font-family="sans-serif" font-size="14" lengthAdjust="spacing" textLength="87" x="1197.8424" y="506.9951">color : Color</text><polygon fill="none" points="1188.8424,514.9453,1192.8424,518.9453,1188.8424,522.9453,1184.8424,518.9453" style="stroke:#B38D22;stroke-width:1.0;"/><text fill="#000000" font-family="sans-serif" font-size="14" lengthAdjust="spacing" textLength="243" x="1197.8424" y="523.292">engine : std::unique_ptr&lt;Engine&gt;</text><polygon fill="none" points="1188.8424,531.2422,1192.8424,535.2422,1188.8424,539.2422,1184.8424,535.2422" style="stroke:#B38D22;stroke-width:1.0;"/><text fill="#000000" font-family="sans-serif" font-size="14" lengthAdjust="spacing" textLength="329" x="1197.8424" y="539.5889">transmission : std::unique_ptr&lt;Transmission&gt;</text><polygon fill="none" points="1188.8424,547.5391,1192.8424,551.5391,1188.8424,555.5391,1184.8424,551.5391" style="stroke:#B38D22;stroke-width:1.0;"/><text fill="#000000" font-family="sans-serif" font-size="14" lengthAdjust="spacing" textLength="246" x="1197.8424" y="555.8857">wheels : std::unique_ptr&lt;Wheels&gt;</text><line style="stroke:#181818;stroke-width:0.5;" x1="1178.8424" x2="1706.8424" y1="563.1875" y2="563.1875"/><ellipse cx="1188.8424" cy="576.8359" fill="#84BE84" rx="3" ry="3" style="stroke:#038048;stroke-width:1.0;"/><text fill="#000000" font-family="sans-serif" font-size="14" lengthAdjust="spacing" textLength="192" x="1197.8424" y="580.1826">setColor(Color color) : void</text><ellipse cx="1188.8424" cy="593.1328" fill="#84BE84" rx="3" ry="3" style="stroke:#038048;stroke-width:1.0;"/><text fill="#000000" font-family="sans-serif" font-size="14" lengthAdjust="spacing" textLength="374" x="1197.8424" y="596.4795">setEngine(std::unique_ptr&lt;Engine&gt; &amp; engine) : void</text><ellipse cx="1188.8424" cy="609.4297" fill="#84BE84" rx="3" ry="3" style="stroke:#038048;stroke-width:1.0;"/><text fill="#000000" font-family="sans-serif" font-size="14" lengthAdjust="spacing" textLength="504" x="1197.8424" y="612.7764">setTransmission(std::unique_ptr&lt;Transmission&gt; &amp; transmission) : void</text><ellipse cx="1188.8424" cy="625.7266" fill="#84BE84" rx="3" ry="3" style="stroke:#038048;stroke-width:1.0;"/><text fill="#000000" font-family="sans-serif" font-size="14" lengthAdjust="spacing" textLength="380" x="1197.8424" y="629.0732">setWheels(std::unique_ptr&lt;Wheels&gt; &amp; wheels) : void</text><ellipse cx="1188.8424" cy="642.0234" fill="#84BE84" rx="3" ry="3" style="stroke:#038048;stroke-width:1.0;"/><text fill="#000000" font-family="sans-serif" font-size="14" lengthAdjust="spacing" textLength="168" x="1197.8424" y="645.3701">getColor() const : Color</text><ellipse cx="1188.8424" cy="658.3203" fill="#84BE84" rx="3" ry="3" style="stroke:#038048;stroke-width:1.0;"/><text fill="#000000" font-family="sans-serif" font-size="14" lengthAdjust="spacing" textLength="278" x="1197.8424" y="661.667">getEngine() : std::unique_ptr&lt;Engine&gt;</text><ellipse cx="1188.8424" cy="674.6172" fill="#84BE84" rx="3" ry="3" style="stroke:#038048;stroke-width:1.0;"/><text fill="#000000" font-family="sans-serif" font-size="14" lengthAdjust="spacing" textLength="366" x="1197.8424" y="677.9639">getTransmission() : std::unique_ptr&lt;Transmission&gt;</text><ellipse cx="1188.8424" cy="690.9141" fill="#84BE84" rx="3" ry="3" style="stroke:#038048;stroke-width:1.0;"/><text fill="#000000" font-family="sans-serif" font-size="14" lengthAdjust="spacing" textLength="284" x="1197.8424" y="694.2607">getWheels() : std::unique_ptr&lt;Wheels&gt;</text><ellipse cx="1188.8424" cy="707.2109" fill="#84BE84" rx="3" ry="3" style="stroke:#038048;stroke-width:1.0;"/><text fill="#000000" font-family="sans-serif" font-size="14" font-style="italic" lengthAdjust="spacing" textLength="230" x="1197.8424" y="710.5576">getString() const = 0 : std::string</text><polygon fill="#FFFF44" points="1188.8424,718.5078,1192.8424,722.5078,1188.8424,726.5078,1184.8424,722.5078" style="stroke:#B38D22;stroke-width:1.0;"/><text fill="#000000" font-family="sans-serif" font-size="14" font-style="italic" lengthAdjust="spacing" textLength="255" x="1197.8424" y="726.8545">getCarName() const = 0 : std::string</text><polygon fill="#FFFF44" points="1188.8424,734.8047,1192.8424,738.8047,1188.8424,742.8047,1184.8424,738.8047" style="stroke:#B38D22;stroke-width:1.0;"/><text fill="#000000" font-family="sans-serif" font-size="14" lengthAdjust="spacing" textLength="304" x="1197.8424" y="743.1514">getComponentsString() const : std::string</text></g><!--class C_0001034290336565215592--><g id="elem_C_0001034290336565215592"><rect codeLine="60" fill="#F1F1F1" height="80.5938" id="C_0001034290336565215592" rx="2.5" ry="2.5" style="stroke:#181818;stroke-width:0.5;" width="258" x="1606.8424" y="884"/><ellipse cx="1639.8424" cy="900" fill="#ADD1B2" rx="11" ry="11" style="stroke:#181818;stroke-width:1.0;"/><path d="M1642.1862,895.6719 C1641.2487,895.2344 1640.6549,895.0938 1639.7799,895.0938 C1637.1549,895.0938 1635.1549,897.1719 1635.1549,899.8906 L1635.1549,901.0156 C1635.1549,903.5938 1637.2643,905.4844 1640.1549,905.4844 C1641.3737,905.4844 1642.5299,905.1875 1643.2799,904.6406 C1643.858,904.2344 1644.1862,903.7813 1644.1862,903.3906 C1644.1862,902.9375 1643.7955,902.5469 1643.3268,902.5469 C1643.108,902.5469 1642.9049,902.625 1642.7174,902.8125 C1642.2643,903.2969 1642.2643,903.2969 1642.0768,903.3906 C1641.6549,903.6563 1640.9674,903.7813 1640.2018,903.7813 C1638.1549,903.7813 1636.858,902.6875 1636.858,900.9844 L1636.858,899.8906 C1636.858,898.1094 1638.108,896.7969 1639.8424,896.7969 C1640.4205,896.7969 1641.0299,896.9531 1641.4987,897.2031 C1641.983,897.4844 1642.1549,897.7031 1642.2487,898.1094 C1642.3112,898.5156 1642.3424,898.6406 1642.483,898.7656 C1642.6237,898.9063 1642.858,899.0156 1643.0768,899.0156 C1643.3424,899.0156 1643.608,898.875 1643.7799,898.6563 C1643.8893,898.5 1643.9205,898.3125 1643.9205,897.8906 L1643.9205,896.4688 C1643.9205,896.0313 1643.9049,895.9063 1643.8112,895.75 C1643.6549,895.4844 1643.3737,895.3438 1643.0768,895.3438 C1642.7799,895.3438 1642.5768,895.4375 1642.358,895.75 L1642.1862,895.6719 Z " fill="#000000"/><text fill="#000000" font-family="sans-serif" font-size="14" lengthAdjust="spacing" textLength="186" x="1657.8424" y="904.8467">CarModule::CarHatchback</text><line style="stroke:#181818;stroke-width:0.5;" x1="1607.8424" x2="1863.8424" y1="916" y2="916"/><line style="stroke:#181818;stroke-width:0.5;" x1="1607.8424" x2="1863.8424" y1="924" y2="924"/><polygon fill="#FFFF44" points="1617.8424,932.6484,1621.8424,936.6484,1617.8424,940.6484,1613.8424,936.6484" style="stroke:#B38D22;stroke-width:1.0;"/><text fill="#000000" font-family="sans-serif" font-size="14" lengthAdjust="spacing" textLength="232" x="1626.8424" y="940.9951">getCarName() const : std::string</text><polygon fill="#FFFF44" points="1617.8424,948.9453,1621.8424,952.9453,1617.8424,956.9453,1613.8424,952.9453" style="stroke:#B38D22;stroke-width:1.0;"/><text fill="#000000" font-family="sans-serif" font-size="14" lengthAdjust="spacing" textLength="211" x="1626.8424" y="957.292">getString() const : std::string</text></g><!--class C_0000087706807380340900--><g id="elem_C_0000087706807380340900"><rect codeLine="65" fill="#F1F1F1" height="80.5938" id="C_0000087706807380340900" rx="2.5" ry="2.5" style="stroke:#181818;stroke-width:0.5;" width="258" x="1020.8374" y="884"/><ellipse cx="1069.0874" cy="900" fill="#ADD1B2" rx="11" ry="11" style="stroke:#181818;stroke-width:1.0;"/><path d="M1071.4312,895.6719 C1070.4937,895.2344 1069.8999,895.0938 1069.0249,895.0938 C1066.3999,895.0938 1064.3999,897.1719 1064.3999,899.8906 L1064.3999,901.0156 C1064.3999,903.5938 1066.5093,905.4844 1069.3999,905.4844 C1070.6187,905.4844 1071.7749,905.1875 1072.5249,904.6406 C1073.103,904.2344 1073.4312,903.7813 1073.4312,903.3906 C1073.4312,902.9375 1073.0405,902.5469 1072.5718,902.5469 C1072.353,902.5469 1072.1499,902.625 1071.9624,902.8125 C1071.5093,903.2969 1071.5093,903.2969 1071.3218,903.3906 C1070.8999,903.6563 1070.2124,903.7813 1069.4468,903.7813 C1067.3999,903.7813 1066.103,902.6875 1066.103,900.9844 L1066.103,899.8906 C1066.103,898.1094 1067.353,896.7969 1069.0874,896.7969 C1069.6655,896.7969 1070.2749,896.9531 1070.7437,897.2031 C1071.228,897.4844 1071.3999,897.7031 1071.4937,898.1094 C1071.5562,898.5156 1071.5874,898.6406 1071.728,898.7656 C1071.8687,898.9063 1072.103,899.0156 1072.3218,899.0156 C1072.5874,899.0156 1072.853,898.875 1073.0249,898.6563 C1073.1343,898.5 1073.1655,898.3125 1073.1655,897.8906 L1073.1655,896.4688 C1073.1655,896.0313 1073.1499,895.9063 1073.0562,895.75 C1072.8999,895.4844 1072.6187,895.3438 1072.3218,895.3438 C1072.0249,895.3438 1071.8218,895.4375 1071.603,895.75 L1071.4312,895.6719 Z " fill="#000000"/><text fill="#000000" font-family="sans-serif" font-size="14" lengthAdjust="spacing" textLength="153" x="1089.5874" y="904.8467">CarModule::CarSedan</text><line style="stroke:#181818;stroke-width:0.5;" x1="1021.8374" x2="1277.8374" y1="916" y2="916"/><line style="stroke:#181818;stroke-width:0.5;" x1="1021.8374" x2="1277.8374" y1="924" y2="924"/><polygon fill="#FFFF44" points="1031.8374,932.6484,1035.8374,936.6484,1031.8374,940.6484,1027.8374,936.6484" style="stroke:#B38D22;stroke-width:1.0;"/><text fill="#000000" font-family="sans-serif" font-size="14" lengthAdjust="spacing" textLength="232" x="1040.8374" y="940.9951">getCarName() const : std::string</text><polygon fill="#FFFF44" points="1031.8374,948.9453,1035.8374,952.9453,1031.8374,956.9453,1027.8374,952.9453" style="stroke:#B38D22;stroke-width:1.0;"/><text fill="#000000" font-family="sans-serif" font-size="14" lengthAdjust="spacing" textLength="211" x="1040.8374" y="957.292">getString() const : std::string</text></g><!--class C_0000207362027608485168--><g id="elem_C_0000207362027608485168"><rect codeLine="70" fill="#F1F1F1" height="80.5938" id="C_0000207362027608485168" rx="2.5" ry="2.5" style="stroke:#181818;stroke-width:0.5;" width="258" x="1313.8424" y="884"/><ellipse cx="1371.5924" cy="900" fill="#ADD1B2" rx="11" ry="11" style="stroke:#181818;stroke-width:1.0;"/><path d="M1373.9362,895.6719 C1372.9987,895.2344 1372.4049,895.0938 1371.5299,895.0938 C1368.9049,895.0938 1366.9049,897.1719 1366.9049,899.8906 L1366.9049,901.0156 C1366.9049,903.5938 1369.0143,905.4844 1371.9049,905.4844 C1373.1237,905.4844 1374.2799,905.1875 1375.0299,904.6406 C1375.608,904.2344 1375.9362,903.7813 1375.9362,903.3906 C1375.9362,902.9375 1375.5455,902.5469 1375.0768,902.5469 C1374.858,902.5469 1374.6549,902.625 1374.4674,902.8125 C1374.0143,903.2969 1374.0143,903.2969 1373.8268,903.3906 C1373.4049,903.6563 1372.7174,903.7813 1371.9518,903.7813 C1369.9049,903.7813 1368.608,902.6875 1368.608,900.9844 L1368.608,899.8906 C1368.608,898.1094 1369.858,896.7969 1371.5924,896.7969 C1372.1705,896.7969 1372.7799,896.9531 1373.2487,897.2031 C1373.733,897.4844 1373.9049,897.7031 1373.9987,898.1094 C1374.0612,898.5156 1374.0924,898.6406 1374.233,898.7656 C1374.3737,898.9063 1374.608,899.0156 1374.8268,899.0156 C1375.0924,899.0156 1375.358,898.875 1375.5299,898.6563 C1375.6393,898.5 1375.6705,898.3125 1375.6705,897.8906 L1375.6705,896.4688 C1375.6705,896.0313 1375.6549,895.9063 1375.5612,895.75 C1375.4049,895.4844 1375.1237,895.3438 1374.8268,895.3438 C1374.5299,895.3438 1374.3268,895.4375 1374.108,895.75 L1373.9362,895.6719 Z " fill="#000000"/><text fill="#000000" font-family="sans-serif" font-size="14" lengthAdjust="spacing" textLength="134" x="1392.0924" y="904.8467">CarModule::CarSuv</text><line style="stroke:#181818;stroke-width:0.5;" x1="1314.8424" x2="1570.8424" y1="916" y2="916"/><line style="stroke:#181818;stroke-width:0.5;" x1="1314.8424" x2="1570.8424" y1="924" y2="924"/><polygon fill="#FFFF44" points="1324.8424,932.6484,1328.8424,936.6484,1324.8424,940.6484,1320.8424,936.6484" style="stroke:#B38D22;stroke-width:1.0;"/><text fill="#000000" font-family="sans-serif" font-size="14" lengthAdjust="spacing" textLength="232" x="1333.8424" y="940.9951">getCarName() const : std::string</text><polygon fill="#FFFF44" points="1324.8424,948.9453,1328.8424,952.9453,1324.8424,956.9453,1320.8424,952.9453" style="stroke:#B38D22;stroke-width:1.0;"/><text fill="#000000" font-family="sans-serif" font-size="14" lengthAdjust="spacing" textLength="211" x="1333.8424" y="957.292">getString() const : std::string</text></g><!--class C_0000812020827501335339--><g id="elem_C_0000812020827501335339"><rect codeLine="75" fill="#F1F1F1" height="64.2969" id="C_0000812020827501335339" rx="2.5" ry="2.5" style="stroke:#181818;stroke-width:0.5;" width="210" x="2184.8424" y="1107.5"/><ellipse cx="2199.8424" cy="1123.5" fill="#ADD1B2" rx="11" ry="11" style="stroke:#181818;stroke-width:1.0;"/><path d="M2202.1862,1119.1719 C2201.2487,1118.7344 2200.6549,1118.5938 2199.7799,1118.5938 C2197.1549,1118.5938 2195.1549,1120.6719 2195.1549,1123.3906 L2195.1549,1124.5156 C2195.1549,1127.0938 2197.2643,1128.9844 2200.1549,1128.9844 C2201.3737,1128.9844 2202.5299,1128.6875 2203.2799,1128.1406 C2203.858,1127.7344 2204.1862,1127.2813 2204.1862,1126.8906 C2204.1862,1126.4375 2203.7955,1126.0469 2203.3268,1126.0469 C2203.108,1126.0469 2202.9049,1126.125 2202.7174,1126.3125 C2202.2643,1126.7969 2202.2643,1126.7969 2202.0768,1126.8906 C2201.6549,1127.1563 2200.9674,1127.2813 2200.2018,1127.2813 C2198.1549,1127.2813 2196.858,1126.1875 2196.858,1124.4844 L2196.858,1123.3906 C2196.858,1121.6094 2198.108,1120.2969 2199.8424,1120.2969 C2200.4205,1120.2969 2201.0299,1120.4531 2201.4987,1120.7031 C2201.983,1120.9844 2202.1549,1121.2031 2202.2487,1121.6094 C2202.3112,1122.0156 2202.3424,1122.1406 2202.483,1122.2656 C2202.6237,1122.4063 2202.858,1122.5156 2203.0768,1122.5156 C2203.3424,1122.5156 2203.608,1122.375 2203.7799,1122.1563 C2203.8893,1122 2203.9205,1121.8125 2203.9205,1121.3906 L2203.9205,1119.9688 C2203.9205,1119.5313 2203.9049,1119.4063 2203.8112,1119.25 C2203.6549,1118.9844 2203.3737,1118.8438 2203.0768,1118.8438 C2202.7799,1118.8438 2202.5768,1118.9375 2202.358,1119.25 L2202.1862,1119.1719 Z " fill="#000000"/><text fill="#000000" font-family="sans-serif" font-size="14" lengthAdjust="spacing" textLength="178" x="2213.8424" y="1128.3467">CarModule::DieselEngine</text><line style="stroke:#181818;stroke-width:0.5;" x1="2185.8424" x2="2393.8424" y1="1139.5" y2="1139.5"/><line style="stroke:#181818;stroke-width:0.5;" x1="2185.8424" x2="2393.8424" y1="1147.5" y2="1147.5"/><ellipse cx="2195.8424" cy="1161.1484" fill="#84BE84" rx="3" ry="3" style="stroke:#038048;stroke-width:1.0;"/><text fill="#000000" font-family="sans-serif" font-size="14" lengthAdjust="spacing" textLength="167" x="2204.8424" y="1164.4951">getString() : std::string</text></g><!--class C_0001616301117620478983--><g id="elem_C_0001616301117620478983"><rect codeLine="79" fill="#F1F1F1" height="113.1875" id="C_0001616301117620478983" rx="2.5" ry="2.5" style="stroke:#181818;stroke-width:0.5;" width="282" x="1604.8424" y="1083"/><ellipse cx="1647.2924" cy="1099" fill="#ADD1B2" rx="11" ry="11" style="stroke:#181818;stroke-width:1.0;"/><path d="M1649.6362,1094.6719 C1648.6987,1094.2344 1648.1049,1094.0938 1647.2299,1094.0938 C1644.6049,1094.0938 1642.6049,1096.1719 1642.6049,1098.8906 L1642.6049,1100.0156 C1642.6049,1102.5938 1644.7143,1104.4844 1647.6049,1104.4844 C1648.8237,1104.4844 1649.9799,1104.1875 1650.7299,1103.6406 C1651.308,1103.2344 1651.6362,1102.7813 1651.6362,1102.3906 C1651.6362,1101.9375 1651.2455,1101.5469 1650.7768,1101.5469 C1650.558,1101.5469 1650.3549,1101.625 1650.1674,1101.8125 C1649.7143,1102.2969 1649.7143,1102.2969 1649.5268,1102.3906 C1649.1049,1102.6563 1648.4174,1102.7813 1647.6518,1102.7813 C1645.6049,1102.7813 1644.308,1101.6875 1644.308,1099.9844 L1644.308,1098.8906 C1644.308,1097.1094 1645.558,1095.7969 1647.2924,1095.7969 C1647.8705,1095.7969 1648.4799,1095.9531 1648.9487,1096.2031 C1649.433,1096.4844 1649.6049,1096.7031 1649.6987,1097.1094 C1649.7612,1097.5156 1649.7924,1097.6406 1649.933,1097.7656 C1650.0737,1097.9063 1650.308,1098.0156 1650.5268,1098.0156 C1650.7924,1098.0156 1651.058,1097.875 1651.2299,1097.6563 C1651.3393,1097.5 1651.3705,1097.3125 1651.3705,1096.8906 L1651.3705,1095.4688 C1651.3705,1095.0313 1651.3549,1094.9063 1651.2612,1094.75 C1651.1049,1094.4844 1650.8237,1094.3438 1650.5268,1094.3438 C1650.2299,1094.3438 1650.0268,1094.4375 1649.808,1094.75 L1649.6362,1094.6719 Z " fill="#000000"/><text fill="#000000" font-family="sans-serif" font-size="14" lengthAdjust="spacing" textLength="189" x="1667.3924" y="1103.8467">CarModule::ElectricEngine</text><line style="stroke:#181818;stroke-width:0.5;" x1="1605.8424" x2="1885.8424" y1="1115" y2="1115"/><rect fill="none" height="6" style="stroke:#C82930;stroke-width:1.0;" width="6" x="1612.8424" y="1125.6484"/><text fill="#000000" font-family="sans-serif" font-size="14" lengthAdjust="spacing" textLength="153" x="1624.8424" y="1131.9951">chargingTime : size_t</text><line style="stroke:#181818;stroke-width:0.5;" x1="1605.8424" x2="1885.8424" y1="1139.2969" y2="1139.2969"/><ellipse cx="1615.8424" cy="1152.9453" fill="#84BE84" rx="3" ry="3" style="stroke:#038048;stroke-width:1.0;"/><text fill="#000000" font-family="sans-serif" font-size="14" lengthAdjust="spacing" textLength="256" x="1624.8424" y="1156.292">setChargingTime(size_t time) : void</text><ellipse cx="1615.8424" cy="1169.2422" fill="#84BE84" rx="3" ry="3" style="stroke:#038048;stroke-width:1.0;"/><text fill="#000000" font-family="sans-serif" font-size="14" lengthAdjust="spacing" textLength="234" x="1624.8424" y="1172.5889">getChargingTime() const : size_t</text><ellipse cx="1615.8424" cy="1185.5391" fill="#84BE84" rx="3" ry="3" style="stroke:#038048;stroke-width:1.0;"/><text fill="#000000" font-family="sans-serif" font-size="14" lengthAdjust="spacing" textLength="167" x="1624.8424" y="1188.8857">getString() : std::string</text></g><!--class C_0000854154229237074381--><g id="elem_C_0000854154229237074381"><rect codeLine="86" fill="#F1F1F1" height="64.2969" id="C_0000854154229237074381" rx="2.5" ry="2.5" style="stroke:#181818;stroke-width:0.5;" width="227" x="1922.3424" y="1107.5"/><ellipse cx="1937.3424" cy="1123.5" fill="#ADD1B2" rx="11" ry="11" style="stroke:#181818;stroke-width:1.0;"/><path d="M1939.6862,1119.1719 C1938.7487,1118.7344 1938.1549,1118.5938 1937.2799,1118.5938 C1934.6549,1118.5938 1932.6549,1120.6719 1932.6549,1123.3906 L1932.6549,1124.5156 C1932.6549,1127.0938 1934.7643,1128.9844 1937.6549,1128.9844 C1938.8737,1128.9844 1940.0299,1128.6875 1940.7799,1128.1406 C1941.358,1127.7344 1941.6862,1127.2813 1941.6862,1126.8906 C1941.6862,1126.4375 1941.2955,1126.0469 1940.8268,1126.0469 C1940.608,1126.0469 1940.4049,1126.125 1940.2174,1126.3125 C1939.7643,1126.7969 1939.7643,1126.7969 1939.5768,1126.8906 C1939.1549,1127.1563 1938.4674,1127.2813 1937.7018,1127.2813 C1935.6549,1127.2813 1934.358,1126.1875 1934.358,1124.4844 L1934.358,1123.3906 C1934.358,1121.6094 1935.608,1120.2969 1937.3424,1120.2969 C1937.9205,1120.2969 1938.5299,1120.4531 1938.9987,1120.7031 C1939.483,1120.9844 1939.6549,1121.2031 1939.7487,1121.6094 C1939.8112,1122.0156 1939.8424,1122.1406 1939.983,1122.2656 C1940.1237,1122.4063 1940.358,1122.5156 1940.5768,1122.5156 C1940.8424,1122.5156 1941.108,1122.375 1941.2799,1122.1563 C1941.3893,1122 1941.4205,1121.8125 1941.4205,1121.3906 L1941.4205,1119.9688 C1941.4205,1119.5313 1941.4049,1119.4063 1941.3112,1119.25 C1941.1549,1118.9844 1940.8737,1118.8438 1940.5768,1118.8438 C1940.2799,1118.8438 1940.0768,1118.9375 1939.858,1119.25 L1939.6862,1119.1719 Z " fill="#000000"/><text fill="#000000" font-family="sans-serif" font-size="14" lengthAdjust="spacing" textLength="195" x="1951.3424" y="1128.3467">CarModule::GasolineEngine</text><line style="stroke:#181818;stroke-width:0.5;" x1="1923.3424" x2="2148.3424" y1="1139.5" y2="1139.5"/><line style="stroke:#181818;stroke-width:0.5;" x1="1923.3424" x2="2148.3424" y1="1147.5" y2="1147.5"/><ellipse cx="1933.3424" cy="1161.1484" fill="#84BE84" rx="3" ry="3" style="stroke:#038048;stroke-width:1.0;"/><text fill="#000000" font-family="sans-serif" font-size="14" lengthAdjust="spacing" textLength="167" x="1942.3424" y="1164.4951">getString() : std::string</text></g><!--class C_0000283259973254639846--><g id="elem_C_0000283259973254639846"><rect codeLine="90" fill="#F1F1F1" height="80.5938" id="C_0000283259973254639846" rx="2.5" ry="2.5" style="stroke:#181818;stroke-width:0.5;" width="289" x="873.3374" y="1099"/><ellipse cx="888.3374" cy="1115" fill="#ADD1B2" rx="11" ry="11" style="stroke:#181818;stroke-width:1.0;"/><path d="M890.6812,1110.6719 C889.7437,1110.2344 889.1499,1110.0938 888.2749,1110.0938 C885.6499,1110.0938 883.6499,1112.1719 883.6499,1114.8906 L883.6499,1116.0156 C883.6499,1118.5938 885.7593,1120.4844 888.6499,1120.4844 C889.8687,1120.4844 891.0249,1120.1875 891.7749,1119.6406 C892.353,1119.2344 892.6812,1118.7813 892.6812,1118.3906 C892.6812,1117.9375 892.2905,1117.5469 891.8218,1117.5469 C891.603,1117.5469 891.3999,1117.625 891.2124,1117.8125 C890.7593,1118.2969 890.7593,1118.2969 890.5718,1118.3906 C890.1499,1118.6563 889.4624,1118.7813 888.6968,1118.7813 C886.6499,1118.7813 885.353,1117.6875 885.353,1115.9844 L885.353,1114.8906 C885.353,1113.1094 886.603,1111.7969 888.3374,1111.7969 C888.9155,1111.7969 889.5249,1111.9531 889.9937,1112.2031 C890.478,1112.4844 890.6499,1112.7031 890.7437,1113.1094 C890.8062,1113.5156 890.8374,1113.6406 890.978,1113.7656 C891.1187,1113.9063 891.353,1114.0156 891.5718,1114.0156 C891.8374,1114.0156 892.103,1113.875 892.2749,1113.6563 C892.3843,1113.5 892.4155,1113.3125 892.4155,1112.8906 L892.4155,1111.4688 C892.4155,1111.0313 892.3999,1110.9063 892.3062,1110.75 C892.1499,1110.4844 891.8687,1110.3438 891.5718,1110.3438 C891.2749,1110.3438 891.0718,1110.4375 890.853,1110.75 L890.6812,1110.6719 Z " fill="#000000"/><text fill="#000000" font-family="sans-serif" font-size="14" lengthAdjust="spacing" textLength="257" x="902.3374" y="1119.8467">CarModule::MechanicalTransmission</text><line style="stroke:#181818;stroke-width:0.5;" x1="874.3374" x2="1161.3374" y1="1131" y2="1131"/><line style="stroke:#181818;stroke-width:0.5;" x1="874.3374" x2="1161.3374" y1="1139" y2="1139"/><ellipse cx="884.3374" cy="1152.6484" fill="#84BE84" rx="3" ry="3" style="stroke:#038048;stroke-width:1.0;"/><text fill="#000000" font-family="sans-serif" font-size="14" lengthAdjust="spacing" textLength="202" x="893.3374" y="1155.9951">setGears(size_t gears) : void</text><ellipse cx="884.3374" cy="1168.9453" fill="#84BE84" rx="3" ry="3" style="stroke:#038048;stroke-width:1.0;"/><text fill="#000000" font-family="sans-serif" font-size="14" lengthAdjust="spacing" textLength="175" x="893.3374" y="1172.292">getGears() const : size_t</text></g><!--class C_0000015081686383480194--><g id="elem_C_0000015081686383480194"><rect codeLine="95" fill="#F1F1F1" height="80.5938" id="C_0000015081686383480194" rx="2.5" ry="2.5" style="stroke:#181818;stroke-width:0.5;" width="275" x="563.3374" y="1099"/><ellipse cx="578.3374" cy="1115" fill="#ADD1B2" rx="11" ry="11" style="stroke:#181818;stroke-width:1.0;"/><path d="M580.6812,1110.6719 C579.7437,1110.2344 579.1499,1110.0938 578.2749,1110.0938 C575.6499,1110.0938 573.6499,1112.1719 573.6499,1114.8906 L573.6499,1116.0156 C573.6499,1118.5938 575.7593,1120.4844 578.6499,1120.4844 C579.8687,1120.4844 581.0249,1120.1875 581.7749,1119.6406 C582.353,1119.2344 582.6812,1118.7813 582.6812,1118.3906 C582.6812,1117.9375 582.2905,1117.5469 581.8218,1117.5469 C581.603,1117.5469 581.3999,1117.625 581.2124,1117.8125 C580.7593,1118.2969 580.7593,1118.2969 580.5718,1118.3906 C580.1499,1118.6563 579.4624,1118.7813 578.6968,1118.7813 C576.6499,1118.7813 575.353,1117.6875 575.353,1115.9844 L575.353,1114.8906 C575.353,1113.1094 576.603,1111.7969 578.3374,1111.7969 C578.9155,1111.7969 579.5249,1111.9531 579.9937,1112.2031 C580.478,1112.4844 580.6499,1112.7031 580.7437,1113.1094 C580.8062,1113.5156 580.8374,1113.6406 580.978,1113.7656 C581.1187,1113.9063 581.353,1114.0156 581.5718,1114.0156 C581.8374,1114.0156 582.103,1113.875 582.2749,1113.6563 C582.3843,1113.5 582.4155,1113.3125 582.4155,1112.8906 L582.4155,1111.4688 C582.4155,1111.0313 582.3999,1110.9063 582.3062,1110.75 C582.1499,1110.4844 581.8687,1110.3438 581.5718,1110.3438 C581.2749,1110.3438 581.0718,1110.4375 580.853,1110.75 L580.6812,1110.6719 Z " fill="#000000"/><text fill="#000000" font-family="sans-serif" font-size="14" lengthAdjust="spacing" textLength="243" x="592.3374" y="1119.8467">CarModule::HydraulicTransmission</text><line style="stroke:#181818;stroke-width:0.5;" x1="564.3374" x2="837.3374" y1="1131" y2="1131"/><line style="stroke:#181818;stroke-width:0.5;" x1="564.3374" x2="837.3374" y1="1139" y2="1139"/><ellipse cx="574.3374" cy="1152.6484" fill="#84BE84" rx="3" ry="3" style="stroke:#038048;stroke-width:1.0;"/><text fill="#000000" font-family="sans-serif" font-size="14" lengthAdjust="spacing" textLength="202" x="583.3374" y="1155.9951">setGears(size_t gears) : void</text><ellipse cx="574.3374" cy="1168.9453" fill="#84BE84" rx="3" ry="3" style="stroke:#038048;stroke-width:1.0;"/><text fill="#000000" font-family="sans-serif" font-size="14" lengthAdjust="spacing" textLength="175" x="583.3374" y="1172.292">getGears() const : size_t</text></g><!--class C_0002027020897226418852--><g id="elem_C_0002027020897226418852"><rect codeLine="100" fill="#F1F1F1" height="178.375" id="C_0002027020897226418852" rx="2.5" ry="2.5" style="stroke:#181818;stroke-width:0.5;" width="671" x="1106.3424" y="105"/><ellipse cx="1331.5924" cy="121" fill="#ADD1B2" rx="11" ry="11" style="stroke:#181818;stroke-width:1.0;"/><path d="M1333.9362,116.6719 C1332.9987,116.2344 1332.4049,116.0938 1331.5299,116.0938 C1328.9049,116.0938 1326.9049,118.1719 1326.9049,120.8906 L1326.9049,122.0156 C1326.9049,124.5938 1329.0143,126.4844 1331.9049,126.4844 C1333.1237,126.4844 1334.2799,126.1875 1335.0299,125.6406 C1335.608,125.2344 1335.9362,124.7813 1335.9362,124.3906 C1335.9362,123.9375 1335.5455,123.5469 1335.0768,123.5469 C1334.858,123.5469 1334.6549,123.625 1334.4674,123.8125 C1334.0143,124.2969 1334.0143,124.2969 1333.8268,124.3906 C1333.4049,124.6563 1332.7174,124.7813 1331.9518,124.7813 C1329.9049,124.7813 1328.608,123.6875 1328.608,121.9844 L1328.608,120.8906 C1328.608,119.1094 1329.858,117.7969 1331.5924,117.7969 C1332.1705,117.7969 1332.7799,117.9531 1333.2487,118.2031 C1333.733,118.4844 1333.9049,118.7031 1333.9987,119.1094 C1334.0612,119.5156 1334.0924,119.6406 1334.233,119.7656 C1334.3737,119.9063 1334.608,120.0156 1334.8268,120.0156 C1335.0924,120.0156 1335.358,119.875 1335.5299,119.6563 C1335.6393,119.5 1335.6705,119.3125 1335.6705,118.8906 L1335.6705,117.4688 C1335.6705,117.0313 1335.6549,116.9063 1335.5612,116.75 C1335.4049,116.4844 1335.1237,116.3438 1334.8268,116.3438 C1334.5299,116.3438 1334.3268,116.4375 1334.108,116.75 L1333.9362,116.6719 Z " fill="#000000"/><text fill="#000000" font-family="sans-serif" font-size="14" lengthAdjust="spacing" textLength="159" x="1352.0924" y="125.8467">CarModule::CarBuilder</text><rect fill="#FFFFFF" height="15.9688" style="stroke:#181818;stroke-width:1.0;stroke-dasharray:2.0,2.0;" width="51" x="1729.3424" y="102"/><text fill="#000000" font-family="sans-serif" font-size="12" font-style="italic" lengthAdjust="spacing" textLength="49" x="1730.3424" y="114.1387">CarType</text><line style="stroke:#181818;stroke-width:0.5;" x1="1107.3424" x2="1776.3424" y1="137" y2="137"/><polygon fill="none" points="1117.3424,145.6484,1121.3424,149.6484,1117.3424,153.6484,1113.3424,149.6484" style="stroke:#B38D22;stroke-width:1.0;"/><text fill="#000000" font-family="sans-serif" font-size="14" lengthAdjust="spacing" textLength="191" x="1126.3424" y="153.9951">car : std::unique_ptr&lt;Car&gt;</text><line style="stroke:#181818;stroke-width:0.5;" x1="1107.3424" x2="1776.3424" y1="161.2969" y2="161.2969"/><ellipse cx="1117.3424" cy="174.9453" fill="#84BE84" rx="3" ry="3" style="stroke:#038048;stroke-width:1.0;"/><text fill="#000000" font-family="sans-serif" font-size="14" lengthAdjust="spacing" textLength="209" x="1126.3424" y="178.292">CarBuilder&lt;CarType&gt;() : void</text><ellipse cx="1117.3424" cy="191.2422" fill="#84BE84" rx="3" ry="3" style="stroke:#038048;stroke-width:1.0;"/><text fill="#000000" font-family="sans-serif" font-size="14" lengthAdjust="spacing" textLength="91" x="1126.3424" y="194.5889">reset() : void</text><ellipse cx="1117.3424" cy="207.5391" fill="#84BE84" rx="3" ry="3" style="stroke:#038048;stroke-width:1.0;"/><text fill="#000000" font-family="sans-serif" font-size="14" lengthAdjust="spacing" textLength="228" x="1126.3424" y="210.8857">getCar() : std::unique_ptr&lt;Car&gt;</text><ellipse cx="1117.3424" cy="223.8359" fill="#84BE84" rx="3" ry="3" style="stroke:#038048;stroke-width:1.0;"/><text fill="#000000" font-family="sans-serif" font-size="14" lengthAdjust="spacing" textLength="333" x="1126.3424" y="227.1826">setColor(Color color) : CarBuilder&lt;CarType&gt; &amp;</text><ellipse cx="1117.3424" cy="240.1328" fill="#84BE84" rx="3" ry="3" style="stroke:#038048;stroke-width:1.0;"/><text fill="#000000" font-family="sans-serif" font-size="14" lengthAdjust="spacing" textLength="515" x="1126.3424" y="243.4795">setEngine(std::unique_ptr&lt;Engine&gt; &amp; engine) : CarBuilder&lt;CarType&gt; &amp;</text><ellipse cx="1117.3424" cy="256.4297" fill="#84BE84" rx="3" ry="3" style="stroke:#038048;stroke-width:1.0;"/><text fill="#000000" font-family="sans-serif" font-size="14" lengthAdjust="spacing" textLength="645" x="1126.3424" y="259.7764">setTransmission(std::unique_ptr&lt;Transmission&gt; &amp; transmission) : CarBuilder&lt;CarType&gt; &amp;</text><ellipse cx="1117.3424" cy="272.7266" fill="#84BE84" rx="3" ry="3" style="stroke:#038048;stroke-width:1.0;"/><text fill="#000000" font-family="sans-serif" font-size="14" lengthAdjust="spacing" textLength="521" x="1126.3424" y="276.0732">setWheels(std::unique_ptr&lt;Wheels&gt; &amp; wheels) : CarBuilder&lt;CarType&gt; &amp;</text></g><!--class C_0001716168950022345612--><g id="elem_C_0001716168950022345612"><rect codeLine="111" fill="#F1F1F1" height="145.7813" id="C_0001716168950022345612" rx="2.5" ry="2.5" style="stroke:#181818;stroke-width:0.5;" width="463" x="1814.3424" y="531"/><ellipse cx="1912.0924" cy="547" fill="#ADD1B2" rx="11" ry="11" style="stroke:#181818;stroke-width:1.0;"/><path d="M1914.4362,542.6719 C1913.4987,542.2344 1912.9049,542.0938 1912.0299,542.0938 C1909.4049,542.0938 1907.4049,544.1719 1907.4049,546.8906 L1907.4049,548.0156 C1907.4049,550.5938 1909.5143,552.4844 1912.4049,552.4844 C1913.6237,552.4844 1914.7799,552.1875 1915.5299,551.6406 C1916.108,551.2344 1916.4362,550.7813 1916.4362,550.3906 C1916.4362,549.9375 1916.0455,549.5469 1915.5768,549.5469 C1915.358,549.5469 1915.1549,549.625 1914.9674,549.8125 C1914.5143,550.2969 1914.5143,550.2969 1914.3268,550.3906 C1913.9049,550.6563 1913.2174,550.7813 1912.4518,550.7813 C1910.4049,550.7813 1909.108,549.6875 1909.108,547.9844 L1909.108,546.8906 C1909.108,545.1094 1910.358,543.7969 1912.0924,543.7969 C1912.6705,543.7969 1913.2799,543.9531 1913.7487,544.2031 C1914.233,544.4844 1914.4049,544.7031 1914.4987,545.1094 C1914.5612,545.5156 1914.5924,545.6406 1914.733,545.7656 C1914.8737,545.9063 1915.108,546.0156 1915.3268,546.0156 C1915.5924,546.0156 1915.858,545.875 1916.0299,545.6563 C1916.1393,545.5 1916.1705,545.3125 1916.1705,544.8906 L1916.1705,543.4688 C1916.1705,543.0313 1916.1549,542.9063 1916.0612,542.75 C1915.9049,542.4844 1915.6237,542.3438 1915.3268,542.3438 C1915.0299,542.3438 1914.8268,542.4375 1914.608,542.75 L1914.4362,542.6719 Z " fill="#000000"/><text fill="#000000" font-family="sans-serif" font-size="14" lengthAdjust="spacing" textLength="184" x="1932.5924" y="551.8467">CarModule::EngineBuilder</text><rect fill="#FFFFFF" height="15.9688" style="stroke:#181818;stroke-width:1.0;stroke-dasharray:2.0,2.0;" width="73" x="2207.3424" y="528"/><text fill="#000000" font-family="sans-serif" font-size="12" font-style="italic" lengthAdjust="spacing" textLength="71" x="2208.3424" y="540.1387">EngineType</text><line style="stroke:#181818;stroke-width:0.5;" x1="1815.3424" x2="2276.3424" y1="563" y2="563"/><polygon fill="none" points="1825.3424,571.6484,1829.3424,575.6484,1825.3424,579.6484,1821.3424,575.6484" style="stroke:#B38D22;stroke-width:1.0;"/><text fill="#000000" font-family="sans-serif" font-size="14" lengthAdjust="spacing" textLength="251" x="1834.3424" y="579.9951">product : std::unique_ptr&lt;Engine&gt;</text><line style="stroke:#181818;stroke-width:0.5;" x1="1815.3424" x2="2276.3424" y1="587.2969" y2="587.2969"/><ellipse cx="1825.3424" cy="600.9453" fill="#84BE84" rx="3" ry="3" style="stroke:#038048;stroke-width:1.0;"/><text fill="#000000" font-family="sans-serif" font-size="14" lengthAdjust="spacing" textLength="259" x="1834.3424" y="604.292">EngineBuilder&lt;EngineType&gt;() : void</text><ellipse cx="1825.3424" cy="617.2422" fill="#84BE84" rx="3" ry="3" style="stroke:#038048;stroke-width:1.0;"/><text fill="#000000" font-family="sans-serif" font-size="14" lengthAdjust="spacing" textLength="239" x="1834.3424" y="620.5889">build() : std::unique_ptr&lt;Engine&gt;</text><ellipse cx="1825.3424" cy="633.5391" fill="#84BE84" rx="3" ry="3" style="stroke:#038048;stroke-width:1.0;"/><text fill="#000000" font-family="sans-serif" font-size="14" lengthAdjust="spacing" textLength="91" x="1834.3424" y="636.8857">reset() : void</text><ellipse cx="1825.3424" cy="649.8359" fill="#84BE84" rx="3" ry="3" style="stroke:#038048;stroke-width:1.0;"/><text fill="#000000" font-family="sans-serif" font-size="14" lengthAdjust="spacing" textLength="437" x="1834.3424" y="653.1826">setCapacity(size_t capacity) : EngineBuilder&lt;EngineType&gt; &amp;</text><ellipse cx="1825.3424" cy="666.1328" fill="#84BE84" rx="3" ry="3" style="stroke:#038048;stroke-width:1.0;"/><text fill="#000000" font-family="sans-serif" font-size="14" lengthAdjust="spacing" textLength="402" x="1834.3424" y="669.4795">setPower(size_t power) : EngineBuilder&lt;EngineType&gt; &amp;</text></g><!--class C_0000823042727912688878--><g id="elem_C_0000823042727912688878"><rect codeLine="120" fill="#F1F1F1" height="129.4844" id="C_0000823042727912688878" rx="2.5" ry="2.5" style="stroke:#181818;stroke-width:0.5;" width="507" x="564.3374" y="539.5"/><ellipse cx="644.0874" cy="555.5" fill="#ADD1B2" rx="11" ry="11" style="stroke:#181818;stroke-width:1.0;"/><path d="M646.4312,551.1719 C645.4937,550.7344 644.8999,550.5938 644.0249,550.5938 C641.3999,550.5938 639.3999,552.6719 639.3999,555.3906 L639.3999,556.5156 C639.3999,559.0938 641.5093,560.9844 644.3999,560.9844 C645.6187,560.9844 646.7749,560.6875 647.5249,560.1406 C648.103,559.7344 648.4312,559.2813 648.4312,558.8906 C648.4312,558.4375 648.0405,558.0469 647.5718,558.0469 C647.353,558.0469 647.1499,558.125 646.9624,558.3125 C646.5093,558.7969 646.5093,558.7969 646.3218,558.8906 C645.8999,559.1563 645.2124,559.2813 644.4468,559.2813 C642.3999,559.2813 641.103,558.1875 641.103,556.4844 L641.103,555.3906 C641.103,553.6094 642.353,552.2969 644.0874,552.2969 C644.6655,552.2969 645.2749,552.4531 645.7437,552.7031 C646.228,552.9844 646.3999,553.2031 646.4937,553.6094 C646.5562,554.0156 646.5874,554.1406 646.728,554.2656 C646.8687,554.4063 647.103,554.5156 647.3218,554.5156 C647.5874,554.5156 647.853,554.375 648.0249,554.1563 C648.1343,554 648.1655,553.8125 648.1655,553.3906 L648.1655,551.9688 C648.1655,551.5313 648.1499,551.4063 648.0562,551.25 C647.8999,550.9844 647.6187,550.8438 647.3218,550.8438 C647.0249,550.8438 646.8218,550.9375 646.603,551.25 L646.4312,551.1719 Z " fill="#000000"/><text fill="#000000" font-family="sans-serif" font-size="14" lengthAdjust="spacing" textLength="228" x="664.5874" y="560.3467">CarModule::TransmissionBuilder</text><rect fill="#FFFFFF" height="15.9688" style="stroke:#181818;stroke-width:1.0;stroke-dasharray:2.0,2.0;" width="109" x="965.3374" y="536.5"/><text fill="#000000" font-family="sans-serif" font-size="12" font-style="italic" lengthAdjust="spacing" textLength="107" x="966.3374" y="548.6387">TransmissionType</text><line style="stroke:#181818;stroke-width:0.5;" x1="565.3374" x2="1070.3374" y1="571.5" y2="571.5"/><polygon fill="none" points="575.3374,580.1484,579.3374,584.1484,575.3374,588.1484,571.3374,584.1484" style="stroke:#B38D22;stroke-width:1.0;"/><text fill="#000000" font-family="sans-serif" font-size="14" lengthAdjust="spacing" textLength="295" x="584.3374" y="588.4951">product : std::unique_ptr&lt;Transmission&gt;</text><line style="stroke:#181818;stroke-width:0.5;" x1="565.3374" x2="1070.3374" y1="595.7969" y2="595.7969"/><ellipse cx="575.3374" cy="609.4453" fill="#84BE84" rx="3" ry="3" style="stroke:#038048;stroke-width:1.0;"/><text fill="#000000" font-family="sans-serif" font-size="14" lengthAdjust="spacing" textLength="347" x="584.3374" y="612.792">TransmissionBuilder&lt;TransmissionType&gt;() : void</text><ellipse cx="575.3374" cy="625.7422" fill="#84BE84" rx="3" ry="3" style="stroke:#038048;stroke-width:1.0;"/><text fill="#000000" font-family="sans-serif" font-size="14" lengthAdjust="spacing" textLength="283" x="584.3374" y="629.0889">build() : std::unique_ptr&lt;Transmission&gt;</text><ellipse cx="575.3374" cy="642.0391" fill="#84BE84" rx="3" ry="3" style="stroke:#038048;stroke-width:1.0;"/><text fill="#000000" font-family="sans-serif" font-size="14" lengthAdjust="spacing" textLength="91" x="584.3374" y="645.3857">reset() : void</text><ellipse cx="575.3374" cy="658.3359" fill="#84BE84" rx="3" ry="3" style="stroke:#038048;stroke-width:1.0;"/><text fill="#000000" font-family="sans-serif" font-size="14" lengthAdjust="spacing" textLength="481" x="584.3374" y="661.6826">setGears(size_t gears) : TransmissionBuilder&lt;TransmissionType&gt; &amp;</text></g><!--class C_0000015011568924697258--><g id="elem_C_0000015011568924697258"><rect codeLine="128" fill="#F1F1F1" height="145.7813" id="C_0000015011568924697258" rx="2.5" ry="2.5" style="stroke:#181818;stroke-width:0.5;" width="516" x="2584.8424" y="531"/><ellipse cx="2745.0924" cy="547" fill="#ADD1B2" rx="11" ry="11" style="stroke:#181818;stroke-width:1.0;"/><path d="M2747.4362,542.6719 C2746.4987,542.2344 2745.9049,542.0938 2745.0299,542.0938 C2742.4049,542.0938 2740.4049,544.1719 2740.4049,546.8906 L2740.4049,548.0156 C2740.4049,550.5938 2742.5143,552.4844 2745.4049,552.4844 C2746.6237,552.4844 2747.7799,552.1875 2748.5299,551.6406 C2749.108,551.2344 2749.4362,550.7813 2749.4362,550.3906 C2749.4362,549.9375 2749.0455,549.5469 2748.5768,549.5469 C2748.358,549.5469 2748.1549,549.625 2747.9674,549.8125 C2747.5143,550.2969 2747.5143,550.2969 2747.3268,550.3906 C2746.9049,550.6563 2746.2174,550.7813 2745.4518,550.7813 C2743.4049,550.7813 2742.108,549.6875 2742.108,547.9844 L2742.108,546.8906 C2742.108,545.1094 2743.358,543.7969 2745.0924,543.7969 C2745.6705,543.7969 2746.2799,543.9531 2746.7487,544.2031 C2747.233,544.4844 2747.4049,544.7031 2747.4987,545.1094 C2747.5612,545.5156 2747.5924,545.6406 2747.733,545.7656 C2747.8737,545.9063 2748.108,546.0156 2748.3268,546.0156 C2748.5924,546.0156 2748.858,545.875 2749.0299,545.6563 C2749.1393,545.5 2749.1705,545.3125 2749.1705,544.8906 L2749.1705,543.4688 C2749.1705,543.0313 2749.1549,542.9063 2749.0612,542.75 C2748.9049,542.4844 2748.6237,542.3438 2748.3268,542.3438 C2748.0299,542.3438 2747.8268,542.4375 2747.608,542.75 L2747.4362,542.6719 Z " fill="#000000"/><text fill="#000000" font-family="sans-serif" font-size="14" lengthAdjust="spacing" textLength="187" x="2765.5924" y="551.8467">CarModule::WheelsBuilder</text><line style="stroke:#181818;stroke-width:0.5;" x1="2585.8424" x2="3099.8424" y1="563" y2="563"/><rect fill="none" height="6" style="stroke:#C82930;stroke-width:1.0;" width="6" x="2592.8424" y="573.6484"/><text fill="#000000" font-family="sans-serif" font-size="14" lengthAdjust="spacing" textLength="254" x="2604.8424" y="579.9951">product : std::unique_ptr&lt;Wheels&gt;</text><line style="stroke:#181818;stroke-width:0.5;" x1="2585.8424" x2="3099.8424" y1="587.2969" y2="587.2969"/><ellipse cx="2595.8424" cy="600.9453" fill="#84BE84" rx="3" ry="3" style="stroke:#038048;stroke-width:1.0;"/><text fill="#000000" font-family="sans-serif" font-size="14" lengthAdjust="spacing" textLength="155" x="2604.8424" y="604.292">WheelsBuilder() : void</text><ellipse cx="2595.8424" cy="617.2422" fill="#84BE84" rx="3" ry="3" style="stroke:#038048;stroke-width:1.0;"/><text fill="#000000" font-family="sans-serif" font-size="14" lengthAdjust="spacing" textLength="91" x="2604.8424" y="620.5889">reset() : void</text><ellipse cx="2595.8424" cy="633.5391" fill="#84BE84" rx="3" ry="3" style="stroke:#038048;stroke-width:1.0;"/><text fill="#000000" font-family="sans-serif" font-size="14" lengthAdjust="spacing" textLength="242" x="2604.8424" y="636.8857">build() : std::unique_ptr&lt;Wheels&gt;</text><ellipse cx="2595.8424" cy="649.8359" fill="#84BE84" rx="3" ry="3" style="stroke:#038048;stroke-width:1.0;"/><text fill="#000000" font-family="sans-serif" font-size="14" lengthAdjust="spacing" textLength="490" x="2604.8424" y="653.1826">setMaterial(Wheels::Material material) : CarModule::WheelsBuilder &amp;</text><ellipse cx="2595.8424" cy="666.1328" fill="#84BE84" rx="3" ry="3" style="stroke:#038048;stroke-width:1.0;"/><text fill="#000000" font-family="sans-serif" font-size="14" lengthAdjust="spacing" textLength="420" x="2604.8424" y="669.4795">setDiameter(float diameter) : CarModule::WheelsBuilder &amp;</text></g><!--class C_0000057718222796152048--><g id="elem_C_0000057718222796152048"><rect codeLine="137" fill="#F1F1F1" height="373.9375" id="C_0000057718222796152048" rx="2.5" ry="2.5" style="stroke:#181818;stroke-width:0.5;" width="372" x="123.8377" y="7"/><ellipse cx="233.0877" cy="23" fill="#ADD1B2" rx="11" ry="11" style="stroke:#181818;stroke-width:1.0;"/><path d="M235.4314,18.6719 C234.4939,18.2344 233.9002,18.0938 233.0252,18.0938 C230.4002,18.0938 228.4002,20.1719 228.4002,22.8906 L228.4002,24.0156 C228.4002,26.5938 230.5096,28.4844 233.4002,28.4844 C234.6189,28.4844 235.7752,28.1875 236.5252,27.6406 C237.1033,27.2344 237.4314,26.7813 237.4314,26.3906 C237.4314,25.9375 237.0408,25.5469 236.5721,25.5469 C236.3533,25.5469 236.1502,25.625 235.9627,25.8125 C235.5096,26.2969 235.5096,26.2969 235.3221,26.3906 C234.9002,26.6563 234.2127,26.7813 233.4471,26.7813 C231.4002,26.7813 230.1033,25.6875 230.1033,23.9844 L230.1033,22.8906 C230.1033,21.1094 231.3533,19.7969 233.0877,19.7969 C233.6658,19.7969 234.2752,19.9531 234.7439,20.2031 C235.2283,20.4844 235.4002,20.7031 235.4939,21.1094 C235.5564,21.5156 235.5877,21.6406 235.7283,21.7656 C235.8689,21.9063 236.1033,22.0156 236.3221,22.0156 C236.5877,22.0156 236.8533,21.875 237.0252,21.6563 C237.1346,21.5 237.1658,21.3125 237.1658,20.8906 L237.1658,19.4688 C237.1658,19.0313 237.1502,18.9063 237.0564,18.75 C236.9002,18.4844 236.6189,18.3438 236.3221,18.3438 C236.0252,18.3438 235.8221,18.4375 235.6033,18.75 L235.4314,18.6719 Z " fill="#000000"/><text fill="#000000" font-family="sans-serif" font-size="14" lengthAdjust="spacing" textLength="145" x="253.5877" y="27.8467">CarModule::Director</text><line style="stroke:#181818;stroke-width:0.5;" x1="124.8377" x2="494.8377" y1="39" y2="39"/><rect fill="none" height="6" style="stroke:#C82930;stroke-width:1.0;" width="6" x="131.8377" y="49.6484"/><text fill="#000000" font-family="sans-serif" font-size="14" lengthAdjust="spacing" text-decoration="underline" textLength="255" x="143.8377" y="55.9951">standardEnginePower : const size_t</text><rect fill="none" height="6" style="stroke:#C82930;stroke-width:1.0;" width="6" x="131.8377" y="65.9453"/><text fill="#000000" font-family="sans-serif" font-size="14" lengthAdjust="spacing" text-decoration="underline" textLength="274" x="143.8377" y="72.292">standardEngineCapacity : const size_t</text><rect fill="none" height="6" style="stroke:#C82930;stroke-width:1.0;" width="6" x="131.8377" y="82.2422"/><text fill="#000000" font-family="sans-serif" font-size="14" lengthAdjust="spacing" text-decoration="underline" textLength="257" x="143.8377" y="88.5889">premiumEnginePower : const size_t</text><rect fill="none" height="6" style="stroke:#C82930;stroke-width:1.0;" width="6" x="131.8377" y="98.5391"/><text fill="#000000" font-family="sans-serif" font-size="14" lengthAdjust="spacing" text-decoration="underline" textLength="276" x="143.8377" y="104.8857">premiumEngineCapacity : const size_t</text><rect fill="none" height="6" style="stroke:#C82930;stroke-width:1.0;" width="6" x="131.8377" y="114.8359"/><text fill="#000000" font-family="sans-serif" font-size="14" lengthAdjust="spacing" text-decoration="underline" textLength="209" x="143.8377" y="121.1826">hatchbackColor : const Color</text><rect fill="none" height="6" style="stroke:#C82930;stroke-width:1.0;" width="6" x="131.8377" y="131.1328"/><text fill="#000000" font-family="sans-serif" font-size="14" lengthAdjust="spacing" text-decoration="underline" textLength="175" x="143.8377" y="137.4795">sedanColor : const Color</text><rect fill="none" height="6" style="stroke:#C82930;stroke-width:1.0;" width="6" x="131.8377" y="147.4297"/><text fill="#000000" font-family="sans-serif" font-size="14" lengthAdjust="spacing" text-decoration="underline" textLength="156" x="143.8377" y="153.7764">suvColor : const Color</text><rect fill="none" height="6" style="stroke:#C82930;stroke-width:1.0;" width="6" x="131.8377" y="163.7266"/><text fill="#000000" font-family="sans-serif" font-size="14" lengthAdjust="spacing" text-decoration="underline" textLength="298" x="143.8377" y="170.0732">standardMaterial : const Wheels::Material</text><rect fill="none" height="6" style="stroke:#C82930;stroke-width:1.0;" width="6" x="131.8377" y="180.0234"/><text fill="#000000" font-family="sans-serif" font-size="14" lengthAdjust="spacing" text-decoration="underline" textLength="300" x="143.8377" y="186.3701">premiumMaterial : const Wheels::Material</text><rect fill="none" height="6" style="stroke:#C82930;stroke-width:1.0;" width="6" x="131.8377" y="196.3203"/><text fill="#000000" font-family="sans-serif" font-size="14" lengthAdjust="spacing" text-decoration="underline" textLength="222" x="143.8377" y="202.667">standardDiameter : const float</text><rect fill="none" height="6" style="stroke:#C82930;stroke-width:1.0;" width="6" x="131.8377" y="212.6172"/><text fill="#000000" font-family="sans-serif" font-size="14" lengthAdjust="spacing" text-decoration="underline" textLength="224" x="143.8377" y="218.9639">premiumDiameter : const float</text><line style="stroke:#181818;stroke-width:0.5;" x1="124.8377" x2="494.8377" y1="226.2656" y2="226.2656"/><ellipse cx="134.8377" cy="239.9141" fill="#84BE84" rx="3" ry="3" style="stroke:#038048;stroke-width:1.0;"/><text fill="#000000" font-family="sans-serif" font-size="14" lengthAdjust="spacing" textLength="346" x="143.8377" y="243.2607">getStandardHatchback() : std::unique_ptr&lt;Car&gt;</text><ellipse cx="134.8377" cy="256.2109" fill="#84BE84" rx="3" ry="3" style="stroke:#038048;stroke-width:1.0;"/><text fill="#000000" font-family="sans-serif" font-size="14" lengthAdjust="spacing" textLength="345" x="143.8377" y="259.5576">getPremiumHatchback() : std::unique_ptr&lt;Car&gt;</text><ellipse cx="134.8377" cy="272.5078" fill="#84BE84" rx="3" ry="3" style="stroke:#038048;stroke-width:1.0;"/><text fill="#000000" font-family="sans-serif" font-size="14" lengthAdjust="spacing" textLength="336" x="143.8377" y="275.8545">getElectricHatchback() : std::unique_ptr&lt;Car&gt;</text><ellipse cx="134.8377" cy="288.8047" fill="#84BE84" rx="3" ry="3" style="stroke:#038048;stroke-width:1.0;"/><text fill="#000000" font-family="sans-serif" font-size="14" lengthAdjust="spacing" textLength="313" x="143.8377" y="292.1514">getStandardSedan() : std::unique_ptr&lt;Car&gt;</text><ellipse cx="134.8377" cy="305.1016" fill="#84BE84" rx="3" ry="3" style="stroke:#038048;stroke-width:1.0;"/><text fill="#000000" font-family="sans-serif" font-size="14" lengthAdjust="spacing" textLength="312" x="143.8377" y="308.4482">getPremiumSedan() : std::unique_ptr&lt;Car&gt;</text><ellipse cx="134.8377" cy="321.3984" fill="#84BE84" rx="3" ry="3" style="stroke:#038048;stroke-width:1.0;"/><text fill="#000000" font-family="sans-serif" font-size="14" lengthAdjust="spacing" textLength="303" x="143.8377" y="324.7451">getElectricSedan() : std::unique_ptr&lt;Car&gt;</text><ellipse cx="134.8377" cy="337.6953" fill="#84BE84" rx="3" ry="3" style="stroke:#038048;stroke-width:1.0;"/><text fill="#000000" font-family="sans-serif" font-size="14" lengthAdjust="spacing" textLength="294" x="143.8377" y="341.042">getStandardSuv() : std::unique_ptr&lt;Car&gt;</text><ellipse cx="134.8377" cy="353.9922" fill="#84BE84" rx="3" ry="3" style="stroke:#038048;stroke-width:1.0;"/><text fill="#000000" font-family="sans-serif" font-size="14" lengthAdjust="spacing" textLength="293" x="143.8377" y="357.3389">getPremiumSuv() : std::unique_ptr&lt;Car&gt;</text><ellipse cx="134.8377" cy="370.2891" fill="#84BE84" rx="3" ry="3" style="stroke:#038048;stroke-width:1.0;"/><text fill="#000000" font-family="sans-serif" font-size="14" lengthAdjust="spacing" textLength="284" x="143.8377" y="373.6357">getElectricSuv() : std::unique_ptr&lt;Car&gt;</text></g><!--link C_0001314992114024565492 to C_0000087108136300294608--><g id="link_C_0001314992114024565492_C_0000087108136300294608"><path codeLine="159" d="M2440.6824,644.694 C2451.0324,686.432 2467.7924,753.989 2482.2224,812.148 " fill="none" id="C_0001314992114024565492-to-C_0000087108136300294608" style="stroke:#181818;stroke-width:1.0;"/><ellipse cx="2483.9061" cy="818.9464" fill="#FFFFFF" rx="8" ry="8" style="stroke:#181818;stroke-width:1.0;"/><line style="stroke:#181818;stroke-width:1.0;" x1="2481.9798" x2="2485.8324" y1="811.1818" y2="826.711"/><line style="stroke:#181818;stroke-width:1.0;" x1="2491.6707" x2="2476.1415" y1="817.0201" y2="820.8727"/></g><!--link C_0000247247234458333579 to C_0000471141963319712659--><g id="link_C_0000247247234458333579_C_0000471141963319712659"><path codeLine="160" d="M1177.4524,717.911 C1147.7524,729.287 1117.7824,740.228 1088.8424,750 C1012.5344,775.759 992.6754,780.556 913.8374,797 C825.8484,815.353 800.9344,804.792 713.8374,827 C632.2984,847.791 540.8254,884.357 489.7964,906.013 " fill="none" id="C_0000247247234458333579-to-C_0000471141963319712659" style="stroke:#181818;stroke-width:1.0;stroke-dasharray:7.0,7.0;"/><polygon fill="#181818" points="484.9864,908.061,494.834,908.2156,489.5868,906.1023,491.7001,900.855,484.9864,908.061" style="stroke:#181818;stroke-width:1.0;"/></g><!--reverse link C_0000247247234458333579 to C_0000471141963319712659--><g id="link_C_0000247247234458333579_C_0000471141963319712659"><path codeLine="164" d="M1164.9424,727.513 C1139.5124,736.069 1113.9024,743.759 1088.8424,750 C958.3814,782.485 918.0854,746.685 787.8374,780 C672.3434,809.542 545.2274,872.494 485.0944,904.283 " fill="none" id="C_0000247247234458333579-backto-C_0000471141963319712659" style="stroke:#181818;stroke-width:1.0;"/><polygon fill="none" points="1177.4024,723.246,1170.4297,721.407,1166.0504,727.1359,1173.023,728.975,1177.4024,723.246" style="stroke:#181818;stroke-width:1.0;"/><polygon fill="none" points="793.8374,784.0664,797.8374,788.0664,793.8374,792.0664,789.8374,788.0664" style="stroke:#B38D22;stroke-width:1.0;"/><text fill="#000000" font-family="sans-serif" font-size="13" lengthAdjust="spacing" textLength="31" x="800.8374" y="793.0669">color</text></g><!--link C_0000247247234458333579 to C_0000336698138643470184--><g id="link_C_0000247247234458333579_C_0000336698138643470184"><path codeLine="161" d="M1572.6324,750.089 C1595.0324,768.407 1619.3724,784.927 1644.8424,797 C1741.1724,842.672 1782.4724,791.039 1882.8424,827 C1893.8324,830.939 1904.8624,835.77 1915.6824,841.151 " fill="none" id="C_0000247247234458333579-to-C_0000336698138643470184" style="stroke:#181818;stroke-width:1.0;stroke-dasharray:7.0,7.0;"/><polygon fill="#181818" points="1920.3024,843.489,1914.0764,835.8577,1915.8406,841.2324,1910.4659,842.9965,1920.3024,843.489" style="stroke:#181818;stroke-width:1.0;"/></g><!--reverse link C_0000247247234458333579 to C_0000336698138643470184--><g id="link_C_0000247247234458333579_C_0000336698138643470184"><path codeLine="165" d="M1608.1224,757.59 C1630.4324,772.781 1653.9124,786.454 1677.8424,797 C1762.0924,834.141 1796.4624,795.079 1882.8424,827 C1895.0624,831.518 1907.3424,837.107 1919.3424,843.301 " fill="none" id="C_0000247247234458333579-backto-C_0000336698138643470184" style="stroke:#181818;stroke-width:1.0;"/><polygon fill="none" points="1597.2624,750.017,1599.8929,756.7312,1607.1023,756.8854,1604.4719,750.1712,1597.2624,750.017" style="stroke:#181818;stroke-width:1.0;"/><polygon fill="none" points="1683.8424,784.0664,1687.8424,788.0664,1683.8424,792.0664,1679.8424,788.0664" style="stroke:#B38D22;stroke-width:1.0;"/><text fill="#000000" font-family="sans-serif" font-size="13" lengthAdjust="spacing" textLength="43" x="1690.8424" y="793.0669">engine</text></g><!--link C_0000247247234458333579 to C_0000059837350897900270--><g id="link_C_0000247247234458333579_C_0000059837350897900270"><path codeLine="162" d="M1371.8424,750.434 C1357.3224,768.642 1340.3724,785.039 1320.8424,797 C1260.3024,834.064 1069.7024,803.18 1002.8374,827 C977.8554,835.9 953.0084,850.108 931.1644,864.915 " fill="none" id="C_0000247247234458333579-to-C_0000059837350897900270" style="stroke:#181818;stroke-width:1.0;stroke-dasharray:7.0,7.0;"/><polygon fill="#181818" points="926.8364,867.883,936.5214,866.0937,930.9605,865.056,931.9981,859.4951,926.8364,867.883" style="stroke:#181818;stroke-width:1.0;"/></g><!--reverse link C_0000247247234458333579 to C_0000059837350897900270--><g id="link_C_0000247247234458333579_C_0000059837350897900270"><path codeLine="166" d="M1249.1924,757.831 C1223.4324,775.919 1200.5324,790.335 1184.8424,797 C1109.3824,829.043 1079.0624,796.829 1002.8374,827 C977.0944,837.189 951.2554,852.518 928.7164,867.977 " fill="none" id="C_0000247247234458333579-backto-C_0000059837350897900270" style="stroke:#181818;stroke-width:1.0;"/><polygon fill="none" points="1259.9924,750.156,1252.7845,750.3701,1250.2098,757.1059,1257.4177,756.8918,1259.9924,750.156" style="stroke:#181818;stroke-width:1.0;"/><polygon fill="none" points="1219.8424,784.0664,1223.8424,788.0664,1219.8424,792.0664,1215.8424,788.0664" style="stroke:#B38D22;stroke-width:1.0;"/><text fill="#000000" font-family="sans-serif" font-size="13" lengthAdjust="spacing" textLength="82" x="1226.8424" y="793.0669">transmission</text></g><!--link C_0000247247234458333579 to C_0000087108136300294608--><g id="link_C_0000247247234458333579_C_0000087108136300294608"><path codeLine="163" d="M1707.8424,719.088 C1737.6024,730.243 1767.7024,740.811 1796.8424,750 C1887.2224,778.505 1911.7924,778.962 2004.8424,797 C2086.6124,812.854 2108.6724,808.268 2189.8424,827 C2208.9924,831.421 2228.6824,836.362 2248.4324,841.608 " fill="none" id="C_0000247247234458333579-to-C_0000087108136300294608" style="stroke:#181818;stroke-width:1.0;stroke-dasharray:7.0,7.0;"/><polygon fill="#181818" points="2253.4524,842.948,2245.7842,836.7675,2248.6207,841.6618,2243.7263,844.4983,2253.4524,842.948" style="stroke:#181818;stroke-width:1.0;"/></g><!--reverse link C_0000247247234458333579 to C_0000087108136300294608--><g id="link_C_0000247247234458333579_C_0000087108136300294608"><path codeLine="167" d="M1720.7424,725.779 C1746.2124,734.731 1771.8324,742.986 1796.8424,750 C1878.3024,772.854 1902.7724,759.387 1984.8424,780 C2007.1924,785.616 2011.5724,791.03 2033.8424,797 C2102.0324,815.285 2121.2824,810.119 2189.8424,827 C2210.6824,832.133 2232.1924,837.799 2253.7324,843.735 " fill="none" id="C_0000247247234458333579-backto-C_0000087108136300294608" style="stroke:#181818;stroke-width:1.0;"/><polygon fill="none" points="1708.2524,721.331,1712.5643,727.1109,1719.5581,725.3537,1715.2461,719.5738,1708.2524,721.331" style="stroke:#181818;stroke-width:1.0;"/><polygon fill="none" points="2039.8424,784.0664,2043.8424,788.0664,2039.8424,792.0664,2035.8424,788.0664" style="stroke:#B38D22;stroke-width:1.0;"/><text fill="#000000" font-family="sans-serif" font-size="13" lengthAdjust="spacing" textLength="45" x="2046.8424" y="793.0669">wheels</text></g><!--reverse link C_0000247247234458333579 to C_0001034290336565215592--><g id="link_C_0000247247234458333579_C_0001034290336565215592"><path codeLine="168" d="M1575.1224,765.459 C1584.7124,776.249 1594.3424,786.853 1603.8424,797 C1632.1424,827.245 1665.8924,859.527 1692.1724,883.909 " fill="none" id="C_0000247247234458333579-backto-C_0001034290336565215592" style="stroke:#181818;stroke-width:1.0;"/><polygon fill="none" points="1569.5724,769.749,1561.6124,750.11,1580.0824,760.501,1569.5724,769.749" style="stroke:#181818;stroke-width:1.0;"/></g><!--reverse link C_0000247247234458333579 to C_0000087706807380340900--><g id="link_C_0000247247234458333579_C_0000087706807380340900"><path codeLine="169" d="M1385.3724,767.431 C1378.3524,778.06 1370.5324,788.066 1361.8424,797 C1339.3724,820.094 1324.0324,811.402 1295.8424,827 C1265.0024,844.062 1232.1324,865.475 1205.4024,883.793 " fill="none" id="C_0000247247234458333579-backto-C_0000087706807380340900" style="stroke:#181818;stroke-width:1.0;"/><polygon fill="none" points="1379.4124,763.755,1395.7724,750.28,1391.3924,771.012,1379.4124,763.755" style="stroke:#181818;stroke-width:1.0;"/></g><!--reverse link C_0000247247234458333579 to C_0000207362027608485168--><g id="link_C_0000247247234458333579_C_0000207362027608485168"><path codeLine="170" d="M1442.8424,770.442 C1442.8424,812.908 1442.8424,854.786 1442.8424,883.972 " fill="none" id="C_0000247247234458333579-backto-C_0000207362027608485168" style="stroke:#181818;stroke-width:1.0;"/><polygon fill="none" points="1435.8424,770.269,1442.8424,750.269,1449.8424,770.269,1435.8424,770.269" style="stroke:#181818;stroke-width:1.0;"/></g><!--reverse link C_0000336698138643470184 to C_0000812020827501335339--><g id="link_C_0000336698138643470184_C_0000812020827501335339"><path codeLine="171" d="M2147.0124,1018.726 C2184.8724,1050.48 2224.6524,1083.833 2252.5824,1107.2552 " fill="none" id="C_0000336698138643470184-backto-C_0000812020827501335339" style="stroke:#181818;stroke-width:1.0;"/><polygon fill="none" points="2142.3324,1023.937,2131.5024,1005.723,2151.3224,1013.21,2142.3324,1023.937" style="stroke:#181818;stroke-width:1.0;"/></g><!--reverse link C_0000336698138643470184 to C_0001616301117620478983--><g id="link_C_0000336698138643470184_C_0001616301117620478983"><path codeLine="172" d="M1910.4424,1017.601 C1880.1824,1039.827 1848.7624,1062.906 1821.5824,1082.868 " fill="none" id="C_0000336698138643470184-backto-C_0001616301117620478983" style="stroke:#181818;stroke-width:1.0;"/><polygon fill="none" points="1906.3524,1011.92,1926.6124,1005.723,1914.6424,1023.204,1906.3524,1011.92" style="stroke:#181818;stroke-width:1.0;"/></g><!--reverse link C_0000336698138643470184 to C_0000854154229237074381--><g id="link_C_0000336698138643470184_C_0000854154229237074381"><path codeLine="173" d="M2035.8424,1025.946 C2035.8424,1055.463 2035.8424,1085.603 2035.8424,1107.2552 " fill="none" id="C_0000336698138643470184-backto-C_0000854154229237074381" style="stroke:#181818;stroke-width:1.0;"/><polygon fill="none" points="2028.8424,1025.723,2035.8424,1005.723,2042.8424,1025.723,2028.8424,1025.723" style="stroke:#181818;stroke-width:1.0;"/></g><!--reverse link C_0000059837350897900270 to C_0000283259973254639846--><g id="link_C_0000059837350897900270_C_0000283259973254639846"><path codeLine="174" d="M912.4714,997.349 C937.7994,1031.279 967.0594,1070.476 988.3084,1098.9414 " fill="none" id="C_0000059837350897900270-backto-C_0000283259973254639846" style="stroke:#181818;stroke-width:1.0;"/><polygon fill="none" points="906.7594,1001.399,900.4054,981.185,917.9784,993.025,906.7594,1001.399" style="stroke:#181818;stroke-width:1.0;"/></g><!--reverse link C_0000059837350897900270 to C_0000015081686383480194--><g id="link_C_0000059837350897900270_C_0000015081686383480194"><path codeLine="175" d="M805.5414,997.349 C780.3724,1031.279 751.2974,1070.476 730.1814,1098.9414 " fill="none" id="C_0000059837350897900270-backto-C_0000015081686383480194" style="stroke:#181818;stroke-width:1.0;"/><polygon fill="none" points="799.9944,993.078,817.5314,981.185,811.2384,1001.419,799.9944,993.078" style="stroke:#181818;stroke-width:1.0;"/></g><!--link C_0002027020897226418852 to C_0000247247234458333579--><g id="link_C_0002027020897226418852_C_0000247247234458333579"><path codeLine="176" d="M1446.4524,283.224 C1448.2224,326.793 1449.6624,380.152 1448.8424,428 C1448.7024,436.055 1448.5224,444.317 1448.3224,452.658 " fill="none" id="C_0002027020897226418852-to-C_0000247247234458333579" style="stroke:#181818;stroke-width:1.0;stroke-dasharray:7.0,7.0;"/><polygon fill="#181818" points="1448.1924,457.86,1452.4148,448.9622,1448.3166,452.8615,1444.4173,448.7634,1448.1924,457.86" style="stroke:#181818;stroke-width:1.0;"/></g><!--reverse link C_0002027020897226418852 to C_0000247247234458333579--><g id="link_C_0002027020897226418852_C_0000247247234458333579"><path codeLine="182" d="M1415.4524,296.262 C1407.7424,337.076 1402.4224,384.669 1406.8424,428 C1407.8224,437.72 1409.1224,447.698 1410.6224,457.723 " fill="none" id="C_0002027020897226418852-backto-C_0000247247234458333579" style="stroke:#181818;stroke-width:1.0;"/><polygon fill="none" points="1418.0324,283.262,1412.9422,288.3698,1415.6993,295.033,1420.7895,289.9252,1418.0324,283.262" style="stroke:#181818;stroke-width:1.0;"/><polygon fill="none" points="1412.8424,415.0664,1416.8424,419.0664,1412.8424,423.0664,1408.8424,419.0664" style="stroke:#B38D22;stroke-width:1.0;"/><text fill="#000000" font-family="sans-serif" font-size="13" lengthAdjust="spacing" textLength="20" x="1419.8424" y="424.0669">car</text></g><!--link C_0002027020897226418852 to C_0000471141963319712659--><g id="link_C_0002027020897226418852_C_0000471141963319712659"><path codeLine="177" d="M1106.2624,256.08 C885.4524,303.07 623.5624,374.062 546.8374,458 C457.5684,555.662 516.2374,620.555 488.8374,750 C480.2454,790.591 469.9264,836.379 462.0624,870.721 " fill="none" id="C_0002027020897226418852-to-C_0000471141963319712659" style="stroke:#181818;stroke-width:1.0;stroke-dasharray:7.0,7.0;"/><polygon fill="#181818" points="460.9194,875.703,466.8289,867.8241,462.0364,870.8294,459.0311,866.0369,460.9194,875.703" style="stroke:#181818;stroke-width:1.0;"/></g><!--link C_0002027020897226418852 to C_0002027020897226418852--><g id="link_C_0002027020897226418852_C_0002027020897226418852"><path codeLine="178" d="M1777.5124,164.2 C1799.2224,171.16 1812.3424,181.09 1812.3424,194 C1812.3424,205.898 1801.1924,215.268 1782.4424,222.11 " fill="none" id="C_0002027020897226418852-to-C_0002027020897226418852" style="stroke:#181818;stroke-width:1.0;stroke-dasharray:7.0,7.0;"/><polygon fill="#181818" points="1777.5124,223.795,1787.3219,224.6746,1782.2446,222.1805,1784.7387,217.1031,1777.5124,223.795" style="stroke:#181818;stroke-width:1.0;"/></g><!--link C_0002027020897226418852 to C_0000336698138643470184--><g id="link_C_0002027020897226418852_C_0000336698138643470184"><path codeLine="179" d="M1565.6124,283.001 C1621.9724,329.1 1684.8724,390.077 1724.8424,458 C1792.6224,573.2 1722.2124,639.105 1796.8424,750 C1812.4324,773.176 1858.0524,808.054 1905.3124,840.475 " fill="none" id="C_0002027020897226418852-to-C_0000336698138643470184" style="stroke:#181818;stroke-width:1.0;stroke-dasharray:7.0,7.0;"/><polygon fill="#181818" points="1909.5924,843.403,1904.4299,835.0156,1905.4681,840.5764,1899.9073,841.6145,1909.5924,843.403" style="stroke:#181818;stroke-width:1.0;"/></g><!--link C_0002027020897226418852 to C_0000059837350897900270--><g id="link_C_0002027020897226418852_C_0000059837350897900270"><path codeLine="180" d="M1318.4124,283.027 C1262.2324,329.131 1199.5624,390.106 1159.8424,458 C1092.3924,573.277 1162.2024,638.394 1088.8424,750 C1069.9224,778.769 1004.8444,826.769 948.7164,864.997 " fill="none" id="C_0002027020897226418852-to-C_0000059837350897900270" style="stroke:#181818;stroke-width:1.0;stroke-dasharray:7.0,7.0;"/><polygon fill="#181818" points="944.3494,867.965,954.0416,866.2156,948.4851,865.155,949.5457,859.5985,944.3494,867.965" style="stroke:#181818;stroke-width:1.0;"/></g><!--link C_0002027020897226418852 to C_0000087108136300294608--><g id="link_C_0002027020897226418852_C_0000087108136300294608"><path codeLine="181" d="M1777.6624,198.158 C2216.6824,210.234 2949.7824,260.364 3118.8424,458 C3203.1924,556.62 3197.0324,646.422 3118.8424,750 C3075.3024,807.665 2915.9324,851.853 2771.1424,881.202 " fill="none" id="C_0002027020897226418852-to-C_0000087108136300294608" style="stroke:#181818;stroke-width:1.0;stroke-dasharray:7.0,7.0;"/><polygon fill="#181818" points="2766.0024,882.24,2775.6204,884.3601,2770.9015,881.2405,2774.0211,876.5216,2766.0024,882.24" style="stroke:#181818;stroke-width:1.0;"/></g><!--link C_0001716168950022345612 to C_0000336698138643470184--><g id="link_C_0001716168950022345612_C_0000336698138643470184"><path codeLine="183" d="M2013.8924,677.258 C2001.6824,712.96 1991.9424,756.887 1997.8424,797 C1999.8224,810.538 2002.9524,824.638 2006.5824,838.302 " fill="none" id="C_0001716168950022345612-to-C_0000336698138643470184" style="stroke:#181818;stroke-width:1.0;stroke-dasharray:7.0,7.0;"/><polygon fill="#181818" points="2007.9324,843.315,2009.4417,833.5825,2006.6259,838.4887,2001.7196,835.6729,2007.9324,843.315" style="stroke:#181818;stroke-width:1.0;"/></g><!--reverse link C_0001716168950022345612 to C_0000336698138643470184--><g id="link_C_0001716168950022345612_C_0000336698138643470184"><path codeLine="184" d="M2089.5824,689.589 C2101.6724,722.898 2109.4024,761.587 2100.8424,797 C2097.0624,812.6 2091.0124,828.433 2084.0924,843.375 " fill="none" id="C_0001716168950022345612-backto-C_0000336698138643470184" style="stroke:#181818;stroke-width:1.0;"/><polygon fill="none" points="2084.7524,677.104,2083.1827,684.1422,2089.0758,688.2981,2090.6455,681.2599,2084.7524,677.104" style="stroke:#181818;stroke-width:1.0;"/><polygon fill="none" points="2108.8424,784.0664,2112.8424,788.0664,2108.8424,792.0664,2104.8424,788.0664" style="stroke:#B38D22;stroke-width:1.0;"/><text fill="#000000" font-family="sans-serif" font-size="13" lengthAdjust="spacing" textLength="49" x="2115.8424" y="793.0669">product</text></g><!--link C_0000823042727912688878 to C_0000059837350897900270--><g id="link_C_0000823042727912688878_C_0000059837350897900270"><path codeLine="185" d="M819.7554,668.815 C821.4794,706.295 824.7314,754.505 830.8374,797 C833.9474,818.643 838.7334,842.089 843.4734,862.848 " fill="none" id="C_0000823042727912688878-to-C_0000059837350897900270" style="stroke:#181818;stroke-width:1.0;stroke-dasharray:7.0,7.0;"/><polygon fill="#181818" points="844.6114,867.786,846.4883,858.1176,843.4887,862.9137,838.6926,859.914,844.6114,867.786" style="stroke:#181818;stroke-width:1.0;"/></g><!--reverse link C_0000823042727912688878 to C_0000059837350897900270--><g id="link_C_0000823042727912688878_C_0000059837350897900270"><path codeLine="186" d="M827.7144,681.724 C835.1054,739.143 845.0434,816.34 851.6804,867.903 " fill="none" id="C_0000823042727912688878-backto-C_0000059837350897900270" style="stroke:#181818;stroke-width:1.0;"/><polygon fill="none" points="826.0364,668.688,822.8353,675.1497,827.5688,680.5898,830.7698,674.1281,826.0364,668.688" style="stroke:#181818;stroke-width:1.0;"/><polygon fill="none" points="848.8374,784.0664,852.8374,788.0664,848.8374,792.0664,844.8374,788.0664" style="stroke:#B38D22;stroke-width:1.0;"/><text fill="#000000" font-family="sans-serif" font-size="13" lengthAdjust="spacing" textLength="49" x="855.8374" y="793.0669">product</text></g><!--link C_0000015011568924697258 to C_0000087108136300294608--><g id="link_C_0000015011568924697258_C_0000087108136300294608"><path codeLine="187" d="M2767.2724,677.273 C2722.2024,720.382 2664.3024,775.758 2614.8324,823.073 " fill="none" id="C_0000015011568924697258-to-C_0000087108136300294608" style="stroke:#181818;stroke-width:1.0;stroke-dasharray:7.0,7.0;"/><polygon fill="#181818" points="2610.9924,826.754,2620.2611,823.4236,2614.6056,823.2979,2614.7313,817.6424,2610.9924,826.754" style="stroke:#181818;stroke-width:1.0;"/></g><!--reverse link C_0000015011568924697258 to C_0000087108136300294608--><g id="link_C_0000015011568924697258_C_0000087108136300294608"><path codeLine="188" d="M2689.1124,684.275 C2648.2224,710.645 2606.6424,742.904 2574.8424,780 C2563.0024,793.807 2552.9224,810.124 2544.4924,826.715 " fill="none" id="C_0000015011568924697258-backto-C_0000087108136300294608" style="stroke:#181818;stroke-width:1.0;"/><polygon fill="none" points="2700.3324,677.172,2693.1233,677.0037,2690.1951,683.5935,2697.4043,683.7618,2700.3324,677.172" style="stroke:#181818;stroke-width:1.0;"/><rect fill="none" height="6" style="stroke:#C82930;stroke-width:1.0;" width="6" x="2577.8424" y="786.0664"/><text fill="#000000" font-family="sans-serif" font-size="13" lengthAdjust="spacing" textLength="49" x="2587.8424" y="793.0669">product</text></g><!--link C_0000057718222796152048 to C_0000247247234458333579--><g id="link_C_0000057718222796152048_C_0000247247234458333579"><path codeLine="189" d="M495.9384,254.171 C654.4904,305.454 887.9024,383.014 1088.8424,458 C1116.1924,468.207 1144.5824,479.184 1172.8624,490.365 " fill="none" id="C_0000057718222796152048-to-C_0000247247234458333579" style="stroke:#181818;stroke-width:1.0;stroke-dasharray:7.0,7.0;"/><polygon fill="#181818" points="1177.7624,492.308,1170.87,485.2728,1173.1143,490.4653,1167.9217,492.7097,1177.7624,492.308" style="stroke:#181818;stroke-width:1.0;"/></g><!--link C_0000057718222796152048 to C_0000471141963319712659--><g id="link_C_0000057718222796152048_C_0000471141963319712659"><path codeLine="190" d="M123.7766,371.358 C104.2934,398.44 87.4105,427.583 75.8377,458 C29.6886,579.295 6,640.615 75.8377,750 C151.1244,867.919 329.4694,906.915 409.6124,918.764 " fill="none" id="C_0000057718222796152048-to-C_0000471141963319712659" style="stroke:#181818;stroke-width:1.0;"/><polygon fill="#181818" points="414.7464,919.506,406.4116,914.2589,409.7979,918.7903,405.2665,922.1765,414.7464,919.506" style="stroke:#181818;stroke-width:1.0;"/><rect fill="none" height="6" style="stroke:#C82930;stroke-width:1.0;" width="6" x="78.8377" y="601.5664"/><text fill="#000000" font-family="sans-serif" font-size="13" lengthAdjust="spacing" textLength="99" x="88.8377" y="608.5669">hatchbackColor</text></g><!--link C_0000057718222796152048 to C_0000471141963319712659--><g id="link_C_0000057718222796152048_C_0000471141963319712659"><path codeLine="191" d="M248.2374,381.12 C221.9824,492.565 207.7314,634.532 258.8374,750 C289.6634,819.647 363.7874,873.309 410.1034,901.5 " fill="none" id="C_0000057718222796152048-to-C_0000471141963319712659-1" style="stroke:#181818;stroke-width:1.0;"/><polygon fill="#181818" points="414.4964,904.149,408.8531,896.0772,410.2141,901.5679,404.7234,902.9289,414.4964,904.149" style="stroke:#181818;stroke-width:1.0;"/><rect fill="none" height="6" style="stroke:#C82930;stroke-width:1.0;" width="6" x="261.8374" y="601.5664"/><text fill="#000000" font-family="sans-serif" font-size="13" lengthAdjust="spacing" textLength="72" x="271.8374" y="608.5669">sedanColor</text></g><!--link C_0000057718222796152048 to C_0000471141963319712659--><g id="link_C_0000057718222796152048_C_0000471141963319712659"><path codeLine="192" d="M344.4574,381.057 C364.6634,488.873 390.8304,627.171 414.8374,750 C422.7594,790.529 432.0094,836.32 439.0094,870.679 " fill="none" id="C_0000057718222796152048-to-C_0000471141963319712659-2" style="stroke:#181818;stroke-width:1.0;"/><polygon fill="#181818" points="440.0264,875.663,442.1481,866.0454,439.0277,870.7638,434.3093,867.6433,440.0264,875.663" style="stroke:#181818;stroke-width:1.0;"/><rect fill="none" height="6" style="stroke:#C82930;stroke-width:1.0;" width="6" x="417.8374" y="601.5664"/><text fill="#000000" font-family="sans-serif" font-size="13" lengthAdjust="spacing" textLength="56" x="427.8374" y="608.5669">suvColor</text></g><!--SRC=[jLXjRzis4FwkNo7KGEiWjIjAb4WPNO0rCP81JbSqsOPz2cI9SRJ9iYV92Rek_tsdDukKI4bPro0m9Dqh7nwFTyVYmrP_TRwBTiahtKlrypi3_Z1122FNiIpa4cGwjgknd555rRzgdvSNskNdvVAZzc7ror9xrhnrcYMUdu5sBxdU1OU8BHRBU1F6ZBDaMOxZKcHH1rkO68ZYHb350TPEKvPzsZsnP9g6VxExJD_dBoVwGd_SXO5skgd99xg_YzCC266S5MBdtjxpm-nBBUbNxuBmaKcK_rhxzgpdN3TP4iORuFb1Du0ZpOB58Ys-QPF2eVnZOKMRr6QQJmg8RXClJhTXceQxc0FAi5rg4Sisg4jSmp29qGQgom50yHx3uY-PbwJroZVvI-ryiVJM-ahk6e9gaQNpml9hY0G02ktyQlt8IrDXgRyzC1Qb_28fGGRijME1_ovs35f9gSXvA9HQfit-LHywXXQBQozZIUX5-hPwUAlVHpilquFGsxACZo00g-RkrHIpf_fPYA2ZS0DFZvh2taNbn5JbquRZQTGMtEM6zEp7h5xoW2EpsknHytDvzb_rI3LRY2o4NTU4166Os7Pix9fSwf1GOGTlRfVBbRRwwVBgzkx7rUhdtrL70nwvO34noVyjZ6rgMPPDtFQ9w79KgQF8TzFY5y22Ns7VooGrBT0xnE5V1tQtpvBtvUSp_RNEYYT1XZ-r7KcUcCjdtBkWfOhSjdpvEPTyAfx4L5MiXOko_BsWLEiugIEXkvQ2JN1TnYouNuXmHqxXgp9L2hc4Yq-EVr8auEGZn66FGC6rs-vtCOkpj3yN5Njyn6PIxbyFB1D-XmOHcPIxqWE6BFd1uvMN-Gzhp_-JEp-6XKqtl_JWU9Z8jk7yS2bGGeQGbW7M1QiN8eM7DopmOZ514yEX1h4eU6B0DTDEq2toz_NkyCZd0p3hc73lmRs0gOqSyVBeah-VRnSXIrdKANOe0li6DOaDcT2oBSiLFEoIytJ5sn-sl8oO3rI_RHiv26vDX101332XK2e8STKbrwdomKj0rUOs18YgmY63Pp47yKmSJ99QeNKh-PnaVx5mwQMx2DRKHTN6oCQcwPeMCGYsA19HxP1VZker0p_ZqFSYHNLcKikqNPV0BtOibs97ZBqEkK9NLeznk8e5M2yyLr-2n3j4eQ-g7n4KXX3qZaKjJ0taOl7aTiZ_kuVm-E4GHW5BtiFZxPSzEslyomzc7lmkCKq78qfj8Uz9oBb_4fLS7PZ08SochRe-aTvQyFrCNHb8pEYlNregg9LyK-sWLlk2OaAk17gMH8MLDFSKQwqLbM-jRKOappJKjM5BeIwp7IHURrrolirAnTpchdDgVwtJZeU1Pb1fjS9Ntd_sIKts2K3bPprEod3bGw1Mp7zhOGmtY6LWavZ4XUQSKah4Yx1BpZ4UPMGKtgroKOAwFAUCyg0VHT6qkkMirBVI8q8sn9w97SWoDksaHv7ST9wLifx4eyQgBX25TbFPhPx8UhVAV1MKFJraZ-HC3MbV2NiH9b1j29CZmoO4KTE4w7AG3RL42ySE-NWPUt7W9S6n9Ev9q_bm9s7RyB0ToLqNHIFPQr-AudUK7oCuQnz6i1xj7nx7MH_YEzhkO_oQPbuM-i_wBAtibpdfKpN8Ac_uwdvNCPytKou5_xxqUPHkWNTOzKEzlUTLkrVobKqVvt6-0mCiXyS1XchLryrGfMJip5Cwgtc9I6tcefd9b3BbPAQZMy7th2cdBxFPgNhsffoYpETdwadn22d9r7U4b6G4EaRg1UlQpMRg6VT2B-S8OyGbGsiGBul1CVAIMIx8yxNVA2tTUIbeASi-jVpxVse5ic74237Pb62CcAI1LwB9YKcwwX5YiePubBLkjwdSCdvjtGPnZ9YaQrFsGqt8IoQZ8wHKHxbNIjQtZR2bIW3zKge4C22bI00ogURiI48rJm1UTVnbdShmycHIGqcZAiqqPV4-8a5Af8PoZMXMKl-EoB0IgO7aD6kPxPQBmr4kavhDpleIUwjq-EzwcjhY6tHKnOUclRbaCKkWB0Zqfp1xqA6IZZUpmpPwgp-of9XD6tDhZhKtgzMlryTl1Tln3TbpOqxqwKEMxTF5ktSRq7HOp_tTzbqKFPO_EUn_G8qu1w9EW_l0zycQhEyT1zAEHnoq3cZ0Sg2nmUuTod20l9D_0G00]--></g></svg>