<?xml version="1.0" encoding="us-ascii" standalone="no"?><svg xmlns="http://www.w3.org/2000/svg" xmlns:xlink="http://www.w3.org/1999/xlink" contentStyleType="text/css" height="1707px" preserveAspectRatio="none" style="width:3140px;height:1707px;background:#FFFFFF;" version="1.1" viewBox="0 0 3140 1707" width="3140px" zoomAndPan="magnify"><defs/><g><rect fill="#FFFFFF" height="1586.9844" style="stroke:#181818;stroke-width:1.0;" width="10" x="61" y="67.4297"/><rect fill="#FFFFFF" height="1500.7188" style="stroke:#181818;stroke-width:1.0;" width="10" x="246" y="96.5625"/><rect fill="#FFFFFF" height="73.1328" style="stroke:#181818;stroke-width:1.0;" width="10" x="534.5" y="125.6953"/><rect fill="#FFFFFF" height="73.1328" style="stroke:#181818;stroke-width:1.0;" width="10" x="534.5" y="227.9609"/><rect fill="#FFFFFF" height="86.1328" style="stroke:#181818;stroke-width:1.0;" width="10" x="534.5" y="330.2266"/><rect fill="#FFFFFF" height="28" style="stroke:#181818;stroke-width:1.0;" width="10" x="539.5" y="367.3594"/><rect fill="#FFFFFF" height="30" style="stroke:#181818;stroke-width:1.0;" width="10" x="817.5" y="154.8281"/><rect fill="#FFFFFF" height="30" style="stroke:#181818;stroke-width:1.0;" width="10" x="817.5" y="257.0938"/><rect fill="#FFFFFF" height="250.5313" style="stroke:#181818;stroke-width:1.0;" width="10" x="1162" y="445.4922"/><rect fill="#FFFFFF" height="86.1328" style="stroke:#181818;stroke-width:1.0;" width="10" x="1162" y="725.1563"/><rect fill="#FFFFFF" height="28" style="stroke:#181818;stroke-width:1.0;" width="10" x="1167" y="762.2891"/><rect fill="#FFFFFF" height="30" style="stroke:#181818;stroke-width:1.0;" width="10" x="1528.5" y="474.625"/><rect fill="#FFFFFF" height="30" style="stroke:#181818;stroke-width:1.0;" width="10" x="1528.5" y="652.0234"/><rect fill="#FFFFFF" height="30" style="stroke:#181818;stroke-width:1.0;" width="10" x="1831" y="533.7578"/><rect fill="#FFFFFF" height="30" style="stroke:#181818;stroke-width:1.0;" width="10" x="1831" y="592.8906"/><rect fill="#FFFFFF" height="73.1328" style="stroke:#181818;stroke-width:1.0;" width="10" x="2138" y="840.4219"/><rect fill="#FFFFFF" height="73.1328" style="stroke:#181818;stroke-width:1.0;" width="10" x="2138" y="942.6875"/><rect fill="#FFFFFF" height="86.1328" style="stroke:#181818;stroke-width:1.0;" width="10" x="2138" y="1044.9531"/><rect fill="#FFFFFF" height="28" style="stroke:#181818;stroke-width:1.0;" width="10" x="2143" y="1082.0859"/><rect fill="#FFFFFF" height="30" style="stroke:#181818;stroke-width:1.0;" width="10" x="2431" y="869.5547"/><rect fill="#FFFFFF" height="30" style="stroke:#181818;stroke-width:1.0;" width="10" x="2431" y="971.8203"/><rect fill="#FFFFFF" height="73.1328" style="stroke:#181818;stroke-width:1.0;" width="10" x="2707" y="1160.2188"/><rect fill="#FFFFFF" height="73.1328" style="stroke:#181818;stroke-width:1.0;" width="10" x="2707" y="1262.4844"/><rect fill="#FFFFFF" height="73.1328" style="stroke:#181818;stroke-width:1.0;" width="10" x="2707" y="1364.75"/><rect fill="#FFFFFF" height="73.1328" style="stroke:#181818;stroke-width:1.0;" width="10" x="2707" y="1467.0156"/><rect fill="#FFFFFF" height="14" style="stroke:#181818;stroke-width:1.0;" width="10" x="2707" y="1569.2813"/><rect fill="#FFFFFF" height="30" style="stroke:#181818;stroke-width:1.0;" width="10" x="3068" y="1189.3516"/><rect fill="#FFFFFF" height="30" style="stroke:#181818;stroke-width:1.0;" width="10" x="3068" y="1291.6172"/><rect fill="#FFFFFF" height="30" style="stroke:#181818;stroke-width:1.0;" width="10" x="3068" y="1393.8828"/><rect fill="#FFFFFF" height="30" style="stroke:#181818;stroke-width:1.0;" width="10" x="3068" y="1496.1484"/><rect fill="#FFFFFF" height="14" style="stroke:#181818;stroke-width:1.0;" width="10" x="3068" y="1626.4141"/><line style="stroke:#181818;stroke-width:0.5;stroke-dasharray:5.0,5.0;" x1="66" x2="66" y1="36.2969" y2="1672.4141"/><line style="stroke:#181818;stroke-width:0.5;stroke-dasharray:5.0,5.0;" x1="250.5" x2="250.5" y1="36.2969" y2="1672.4141"/><line style="stroke:#181818;stroke-width:0.5;stroke-dasharray:5.0,5.0;" x1="539.5" x2="539.5" y1="36.2969" y2="1672.4141"/><line style="stroke:#181818;stroke-width:0.5;stroke-dasharray:5.0,5.0;" x1="822.5" x2="822.5" y1="36.2969" y2="1672.4141"/><line style="stroke:#181818;stroke-width:0.5;stroke-dasharray:5.0,5.0;" x1="1166.5" x2="1166.5" y1="36.2969" y2="1672.4141"/><line style="stroke:#181818;stroke-width:0.5;stroke-dasharray:5.0,5.0;" x1="1533.5" x2="1533.5" y1="36.2969" y2="1672.4141"/><line style="stroke:#181818;stroke-width:0.5;stroke-dasharray:5.0,5.0;" x1="1835.5" x2="1835.5" y1="36.2969" y2="1672.4141"/><line style="stroke:#181818;stroke-width:0.5;stroke-dasharray:5.0,5.0;" x1="2142.5" x2="2142.5" y1="36.2969" y2="1672.4141"/><line style="stroke:#181818;stroke-width:0.5;stroke-dasharray:5.0,5.0;" x1="2435.5" x2="2435.5" y1="36.2969" y2="1672.4141"/><line style="stroke:#181818;stroke-width:0.5;stroke-dasharray:5.0,5.0;" x1="2711.5" x2="2711.5" y1="36.2969" y2="1672.4141"/><line style="stroke:#181818;stroke-width:0.5;stroke-dasharray:5.0,5.0;" x1="3072.5" x2="3072.5" y1="36.2969" y2="1672.4141"/><rect fill="#E2E2F0" height="30.2969" rx="2.5" ry="2.5" style="stroke:#181818;stroke-width:0.5;" width="82" x="25" y="5"/><text fill="#000000" font-family="sans-serif" font-size="14" lengthAdjust="spacing" textLength="68" x="32" y="24.9951">main.cpp</text><rect fill="#E2E2F0" height="30.2969" rx="2.5" ry="2.5" style="stroke:#181818;stroke-width:0.5;" width="82" x="25" y="1671.4141"/><text fill="#000000" font-family="sans-serif" font-size="14" lengthAdjust="spacing" textLength="68" x="32" y="1691.4092">main.cpp</text><rect fill="#E2E2F0" height="30.2969" rx="2.5" ry="2.5" style="stroke:#181818;stroke-width:0.5;" width="159" x="171.5" y="5"/><text fill="#000000" font-family="sans-serif" font-size="14" lengthAdjust="spacing" textLength="145" x="178.5" y="24.9951">CarModule::Director</text><rect fill="#E2E2F0" height="30.2969" rx="2.5" ry="2.5" style="stroke:#181818;stroke-width:0.5;" width="159" x="171.5" y="1671.4141"/><text fill="#000000" font-family="sans-serif" font-size="14" lengthAdjust="spacing" textLength="145" x="178.5" y="1691.4092">CarModule::Director</text><rect fill="#E2E2F0" height="30.2969" rx="2.5" ry="2.5" style="stroke:#181818;stroke-width:0.5;" width="398" x="340.5" y="5"/><text fill="#000000" font-family="sans-serif" font-size="14" lengthAdjust="spacing" textLength="384" x="347.5" y="24.9951">CarModule::EngineBuilder&lt;CarModule::DieselEngine&gt;</text><rect fill="#E2E2F0" height="30.2969" rx="2.5" ry="2.5" style="stroke:#181818;stroke-width:0.5;" width="398" x="340.5" y="1671.4141"/><text fill="#000000" font-family="sans-serif" font-size="14" lengthAdjust="spacing" textLength="384" x="347.5" y="1691.4092">CarModule::EngineBuilder&lt;CarModule::DieselEngine&gt;</text><rect fill="#E2E2F0" height="30.2969" rx="2.5" ry="2.5" style="stroke:#181818;stroke-width:0.5;" width="148" x="748.5" y="5"/><text fill="#000000" font-family="sans-serif" font-size="14" lengthAdjust="spacing" textLength="134" x="755.5" y="24.9951">CarModule::Engine</text><rect fill="#E2E2F0" height="30.2969" rx="2.5" ry="2.5" style="stroke:#181818;stroke-width:0.5;" width="148" x="748.5" y="1671.4141"/><text fill="#000000" font-family="sans-serif" font-size="14" lengthAdjust="spacing" textLength="134" x="755.5" y="1691.4092">CarModule::Engine</text><rect fill="#E2E2F0" height="30.2969" rx="2.5" ry="2.5" style="stroke:#181818;stroke-width:0.5;" width="521" x="906.5" y="5"/><text fill="#000000" font-family="sans-serif" font-size="14" lengthAdjust="spacing" textLength="507" x="913.5" y="24.9951">CarModule::TransmissionBuilder&lt;CarModule::MechanicalTransmission&gt;</text><rect fill="#E2E2F0" height="30.2969" rx="2.5" ry="2.5" style="stroke:#181818;stroke-width:0.5;" width="521" x="906.5" y="1671.4141"/><text fill="#000000" font-family="sans-serif" font-size="14" lengthAdjust="spacing" textLength="507" x="913.5" y="1691.4092">CarModule::TransmissionBuilder&lt;CarModule::MechanicalTransmission&gt;</text><rect fill="#E2E2F0" height="30.2969" rx="2.5" ry="2.5" style="stroke:#181818;stroke-width:0.5;" width="192" x="1437.5" y="5"/><text fill="#000000" font-family="sans-serif" font-size="14" lengthAdjust="spacing" textLength="178" x="1444.5" y="24.9951">CarModule::Transmission</text><rect fill="#E2E2F0" height="30.2969" rx="2.5" ry="2.5" style="stroke:#181818;stroke-width:0.5;" width="192" x="1437.5" y="1671.4141"/><text fill="#000000" font-family="sans-serif" font-size="14" lengthAdjust="spacing" textLength="178" x="1444.5" y="1691.4092">CarModule::Transmission</text><rect fill="#E2E2F0" height="30.2969" rx="2.5" ry="2.5" style="stroke:#181818;stroke-width:0.5;" width="393" x="1639.5" y="5"/><text fill="#000000" font-family="sans-serif" font-size="14" lengthAdjust="spacing" textLength="379" x="1646.5" y="24.9951">CarModule::TransmissionBuilder&lt;TransmissionType&gt;</text><rect fill="#E2E2F0" height="30.2969" rx="2.5" ry="2.5" style="stroke:#181818;stroke-width:0.5;" width="393" x="1639.5" y="1671.4141"/><text fill="#000000" font-family="sans-serif" font-size="14" lengthAdjust="spacing" textLength="379" x="1646.5" y="1691.4092">CarModule::TransmissionBuilder&lt;TransmissionType&gt;</text><rect fill="#E2E2F0" height="30.2969" rx="2.5" ry="2.5" style="stroke:#181818;stroke-width:0.5;" width="201" x="2042.5" y="5"/><text fill="#000000" font-family="sans-serif" font-size="14" lengthAdjust="spacing" textLength="187" x="2049.5" y="24.9951">CarModule::WheelsBuilder</text><rect fill="#E2E2F0" height="30.2969" rx="2.5" ry="2.5" style="stroke:#181818;stroke-width:0.5;" width="201" x="2042.5" y="1671.4141"/><text fill="#000000" font-family="sans-serif" font-size="14" lengthAdjust="spacing" textLength="187" x="2049.5" y="1691.4092">CarModule::WheelsBuilder</text><rect fill="#E2E2F0" height="30.2969" rx="2.5" ry="2.5" style="stroke:#181818;stroke-width:0.5;" width="151" x="2360.5" y="5"/><text fill="#000000" font-family="sans-serif" font-size="14" lengthAdjust="spacing" textLength="137" x="2367.5" y="24.9951">CarModule::Wheels</text><rect fill="#E2E2F0" height="30.2969" rx="2.5" ry="2.5" style="stroke:#181818;stroke-width:0.5;" width="151" x="2360.5" y="1671.4141"/><text fill="#000000" font-family="sans-serif" font-size="14" lengthAdjust="spacing" textLength="137" x="2367.5" y="1691.4092">CarModule::Wheels</text><rect fill="#E2E2F0" height="30.2969" rx="2.5" ry="2.5" style="stroke:#181818;stroke-width:0.5;" width="381" x="2521.5" y="5"/><text fill="#000000" font-family="sans-serif" font-size="14" lengthAdjust="spacing" textLength="367" x="2528.5" y="24.9951">CarModule::CarBuilder&lt;CarModule::CarHatchback&gt;</text><rect fill="#E2E2F0" height="30.2969" rx="2.5" ry="2.5" style="stroke:#181818;stroke-width:0.5;" width="381" x="2521.5" y="1671.4141"/><text fill="#000000" font-family="sans-serif" font-size="14" lengthAdjust="spacing" textLength="367" x="2528.5" y="1691.4092">CarModule::CarBuilder&lt;CarModule::CarHatchback&gt;</text><rect fill="#E2E2F0" height="30.2969" rx="2.5" ry="2.5" style="stroke:#181818;stroke-width:0.5;" width="123" x="3011.5" y="5"/><text fill="#000000" font-family="sans-serif" font-size="14" lengthAdjust="spacing" textLength="109" x="3018.5" y="24.9951">CarModule::Car</text><rect fill="#E2E2F0" height="30.2969" rx="2.5" ry="2.5" style="stroke:#181818;stroke-width:0.5;" width="123" x="3011.5" y="1671.4141"/><text fill="#000000" font-family="sans-serif" font-size="14" lengthAdjust="spacing" textLength="109" x="3018.5" y="1691.4092">CarModule::Car</text><rect fill="#FFFFFF" height="1586.9844" style="stroke:#181818;stroke-width:1.0;" width="10" x="61" y="67.4297"/><rect fill="#FFFFFF" height="1500.7188" style="stroke:#181818;stroke-width:1.0;" width="10" x="246" y="96.5625"/><rect fill="#FFFFFF" height="73.1328" style="stroke:#181818;stroke-width:1.0;" width="10" x="534.5" y="125.6953"/><rect fill="#FFFFFF" height="73.1328" style="stroke:#181818;stroke-width:1.0;" width="10" x="534.5" y="227.9609"/><rect fill="#FFFFFF" height="86.1328" style="stroke:#181818;stroke-width:1.0;" width="10" x="534.5" y="330.2266"/><rect fill="#FFFFFF" height="28" style="stroke:#181818;stroke-width:1.0;" width="10" x="539.5" y="367.3594"/><rect fill="#FFFFFF" height="30" style="stroke:#181818;stroke-width:1.0;" width="10" x="817.5" y="154.8281"/><rect fill="#FFFFFF" height="30" style="stroke:#181818;stroke-width:1.0;" width="10" x="817.5" y="257.0938"/><rect fill="#FFFFFF" height="250.5313" style="stroke:#181818;stroke-width:1.0;" width="10" x="1162" y="445.4922"/><rect fill="#FFFFFF" height="86.1328" style="stroke:#181818;stroke-width:1.0;" width="10" x="1162" y="725.1563"/><rect fill="#FFFFFF" height="28" style="stroke:#181818;stroke-width:1.0;" width="10" x="1167" y="762.2891"/><rect fill="#FFFFFF" height="30" style="stroke:#181818;stroke-width:1.0;" width="10" x="1528.5" y="474.625"/><rect fill="#FFFFFF" height="30" style="stroke:#181818;stroke-width:1.0;" width="10" x="1528.5" y="652.0234"/><rect fill="#FFFFFF" height="30" style="stroke:#181818;stroke-width:1.0;" width="10" x="1831" y="533.7578"/><rect fill="#FFFFFF" height="30" style="stroke:#181818;stroke-width:1.0;" width="10" x="1831" y="592.8906"/><rect fill="#FFFFFF" height="73.1328" style="stroke:#181818;stroke-width:1.0;" width="10" x="2138" y="840.4219"/><rect fill="#FFFFFF" height="73.1328" style="stroke:#181818;stroke-width:1.0;" width="10" x="2138" y="942.6875"/><rect fill="#FFFFFF" height="86.1328" style="stroke:#181818;stroke-width:1.0;" width="10" x="2138" y="1044.9531"/><rect fill="#FFFFFF" height="28" style="stroke:#181818;stroke-width:1.0;" width="10" x="2143" y="1082.0859"/><rect fill="#FFFFFF" height="30" style="stroke:#181818;stroke-width:1.0;" width="10" x="2431" y="869.5547"/><rect fill="#FFFFFF" height="30" style="stroke:#181818;stroke-width:1.0;" width="10" x="2431" y="971.8203"/><rect fill="#FFFFFF" height="73.1328" style="stroke:#181818;stroke-width:1.0;" width="10" x="2707" y="1160.2188"/><rect fill="#FFFFFF" height="73.1328" style="stroke:#181818;stroke-width:1.0;" width="10" x="2707" y="1262.4844"/><rect fill="#FFFFFF" height="73.1328" style="stroke:#181818;stroke-width:1.0;" width="10" x="2707" y="1364.75"/><rect fill="#FFFFFF" height="73.1328" style="stroke:#181818;stroke-width:1.0;" width="10" x="2707" y="1467.0156"/><rect fill="#FFFFFF" height="14" style="stroke:#181818;stroke-width:1.0;" width="10" x="2707" y="1569.2813"/><rect fill="#FFFFFF" height="30" style="stroke:#181818;stroke-width:1.0;" width="10" x="3068" y="1189.3516"/><rect fill="#FFFFFF" height="30" style="stroke:#181818;stroke-width:1.0;" width="10" x="3068" y="1291.6172"/><rect fill="#FFFFFF" height="30" style="stroke:#181818;stroke-width:1.0;" width="10" x="3068" y="1393.8828"/><rect fill="#FFFFFF" height="30" style="stroke:#181818;stroke-width:1.0;" width="10" x="3068" y="1496.1484"/><rect fill="#FFFFFF" height="14" style="stroke:#181818;stroke-width:1.0;" width="10" x="3068" y="1626.4141"/><polygon fill="#181818" points="49,63.4297,59,67.4297,49,71.4297,53,67.4297" style="stroke:#181818;stroke-width:1.0;"/><line style="stroke:#181818;stroke-width:1.0;" x1="0" x2="55" y1="67.4297" y2="67.4297"/><text fill="#000000" font-family="sans-serif" font-size="13" lengthAdjust="spacing" textLength="42" x="7" y="62.3638">main()</text><polygon fill="#181818" points="234,92.5625,244,96.5625,234,100.5625,238,96.5625" style="stroke:#181818;stroke-width:1.0;"/><line style="stroke:#181818;stroke-width:1.0;" x1="71" x2="240" y1="96.5625" y2="96.5625"/><text fill="#000000" font-family="sans-serif" font-size="13" lengthAdjust="spacing" textLength="156" x="78" y="91.4966">getStandardHatchback()</text><polygon fill="#181818" points="522.5,121.6953,532.5,125.6953,522.5,129.6953,526.5,125.6953" style="stroke:#181818;stroke-width:1.0;"/><line style="stroke:#181818;stroke-width:1.0;" x1="256" x2="528.5" y1="125.6953" y2="125.6953"/><text fill="#000000" font-family="sans-serif" font-size="13" lengthAdjust="spacing" textLength="107" x="263" y="120.6294">setPower(size_t)</text><polygon fill="#181818" points="805.5,150.8281,815.5,154.8281,805.5,158.8281,809.5,154.8281" style="stroke:#181818;stroke-width:1.0;"/><line style="stroke:#181818;stroke-width:1.0;" x1="544.5" x2="811.5" y1="154.8281" y2="154.8281"/><text fill="#000000" font-family="sans-serif" font-size="13" lengthAdjust="spacing" textLength="107" x="551.5" y="149.7622">setPower(size_t)</text><polygon fill="#181818" points="267,194.8281,257,198.8281,267,202.8281,263,198.8281" style="stroke:#181818;stroke-width:1.0;"/><line style="stroke:#181818;stroke-width:1.0;stroke-dasharray:2.0,2.0;" x1="261" x2="538.5" y1="198.8281" y2="198.8281"/><polygon fill="#181818" points="522.5,223.9609,532.5,227.9609,522.5,231.9609,526.5,227.9609" style="stroke:#181818;stroke-width:1.0;"/><line style="stroke:#181818;stroke-width:1.0;" x1="256" x2="528.5" y1="227.9609" y2="227.9609"/><text fill="#000000" font-family="sans-serif" font-size="13" lengthAdjust="spacing" textLength="123" x="263" y="222.895">setCapacity(size_t)</text><polygon fill="#181818" points="805.5,253.0938,815.5,257.0938,805.5,261.0938,809.5,257.0938" style="stroke:#181818;stroke-width:1.0;"/><line style="stroke:#181818;stroke-width:1.0;" x1="544.5" x2="811.5" y1="257.0938" y2="257.0938"/><text fill="#000000" font-family="sans-serif" font-size="13" lengthAdjust="spacing" textLength="123" x="551.5" y="252.0278">setCapacity(size_t)</text><polygon fill="#181818" points="267,297.0938,257,301.0938,267,305.0938,263,301.0938" style="stroke:#181818;stroke-width:1.0;"/><line style="stroke:#181818;stroke-width:1.0;stroke-dasharray:2.0,2.0;" x1="261" x2="538.5" y1="301.0938" y2="301.0938"/><polygon fill="#181818" points="522.5,326.2266,532.5,330.2266,522.5,334.2266,526.5,330.2266" style="stroke:#181818;stroke-width:1.0;"/><line style="stroke:#181818;stroke-width:1.0;" x1="256" x2="528.5" y1="330.2266" y2="330.2266"/><text fill="#000000" font-family="sans-serif" font-size="13" lengthAdjust="spacing" textLength="40" x="263" y="325.1606">build()</text><line style="stroke:#181818;stroke-width:1.0;" x1="549.5" x2="591.5" y1="359.3594" y2="359.3594"/><line style="stroke:#181818;stroke-width:1.0;" x1="591.5" x2="591.5" y1="359.3594" y2="372.3594"/><line style="stroke:#181818;stroke-width:1.0;" x1="550.5" x2="591.5" y1="372.3594" y2="372.3594"/><polygon fill="#181818" points="560.5,368.3594,550.5,372.3594,560.5,376.3594,556.5,372.3594" style="stroke:#181818;stroke-width:1.0;"/><text fill="#000000" font-family="sans-serif" font-size="13" lengthAdjust="spacing" textLength="43" x="556.5" y="354.2935">reset()</text><polygon fill="#181818" points="267,412.3594,257,416.3594,267,420.3594,263,416.3594" style="stroke:#181818;stroke-width:1.0;"/><line style="stroke:#181818;stroke-width:1.0;stroke-dasharray:2.0,2.0;" x1="261" x2="538.5" y1="416.3594" y2="416.3594"/><polygon fill="#181818" points="1150,441.4922,1160,445.4922,1150,449.4922,1154,445.4922" style="stroke:#181818;stroke-width:1.0;"/><line style="stroke:#181818;stroke-width:1.0;" x1="256" x2="1156" y1="445.4922" y2="445.4922"/><text fill="#000000" font-family="sans-serif" font-size="13" lengthAdjust="spacing" textLength="105" x="263" y="440.4263">setGears(size_t)</text><polygon fill="#181818" points="1516.5,470.625,1526.5,474.625,1516.5,478.625,1520.5,474.625" style="stroke:#181818;stroke-width:1.0;"/><line style="stroke:#181818;stroke-width:1.0;" x1="1172" x2="1522.5" y1="474.625" y2="474.625"/><text fill="#000000" font-family="sans-serif" font-size="13" lengthAdjust="spacing" textLength="105" x="1179" y="469.5591">setGears(size_t)</text><polygon fill="#181818" points="1819,529.7578,1829,533.7578,1819,537.7578,1823,533.7578" style="stroke:#181818;stroke-width:1.0;"/><line style="stroke:#181818;stroke-width:1.0;" x1="1172" x2="1825" y1="533.7578" y2="533.7578"/><text fill="#000000" font-family="sans-serif" font-size="13" lengthAdjust="spacing" textLength="43" x="1179" y="528.6919">reset()</text><polygon fill="#181818" points="1819,588.8906,1829,592.8906,1819,596.8906,1823,592.8906" style="stroke:#181818;stroke-width:1.0;"/><line style="stroke:#181818;stroke-width:1.0;" x1="1172" x2="1825" y1="592.8906" y2="592.8906"/><text fill="#000000" font-family="sans-serif" font-size="13" lengthAdjust="spacing" textLength="43" x="1179" y="587.8247">reset()</text><polygon fill="#181818" points="1516.5,648.0234,1526.5,652.0234,1516.5,656.0234,1520.5,652.0234" style="stroke:#181818;stroke-width:1.0;"/><line style="stroke:#181818;stroke-width:1.0;" x1="1172" x2="1522.5" y1="652.0234" y2="652.0234"/><text fill="#000000" font-family="sans-serif" font-size="13" lengthAdjust="spacing" textLength="105" x="1179" y="646.9575">setGears(size_t)</text><polygon fill="#181818" points="267,692.0234,257,696.0234,267,700.0234,263,696.0234" style="stroke:#181818;stroke-width:1.0;"/><line style="stroke:#181818;stroke-width:1.0;stroke-dasharray:2.0,2.0;" x1="261" x2="1166" y1="696.0234" y2="696.0234"/><polygon fill="#181818" points="1150,721.1563,1160,725.1563,1150,729.1563,1154,725.1563" style="stroke:#181818;stroke-width:1.0;"/><line style="stroke:#181818;stroke-width:1.0;" x1="256" x2="1156" y1="725.1563" y2="725.1563"/><text fill="#000000" font-family="sans-serif" font-size="13" lengthAdjust="spacing" textLength="40" x="263" y="720.0903">build()</text><line style="stroke:#181818;stroke-width:1.0;" x1="1177" x2="1219" y1="754.2891" y2="754.2891"/><line style="stroke:#181818;stroke-width:1.0;" x1="1219" x2="1219" y1="754.2891" y2="767.2891"/><line style="stroke:#181818;stroke-width:1.0;" x1="1178" x2="1219" y1="767.2891" y2="767.2891"/><polygon fill="#181818" points="1188,763.2891,1178,767.2891,1188,771.2891,1184,767.2891" style="stroke:#181818;stroke-width:1.0;"/><text fill="#000000" font-family="sans-serif" font-size="13" lengthAdjust="spacing" textLength="43" x="1184" y="749.2231">reset()</text><polygon fill="#181818" points="267,807.2891,257,811.2891,267,815.2891,263,811.2891" style="stroke:#181818;stroke-width:1.0;"/><line style="stroke:#181818;stroke-width:1.0;stroke-dasharray:2.0,2.0;" x1="261" x2="1166" y1="811.2891" y2="811.2891"/><polygon fill="#181818" points="2126,836.4219,2136,840.4219,2126,844.4219,2130,840.4219" style="stroke:#181818;stroke-width:1.0;"/><line style="stroke:#181818;stroke-width:1.0;" x1="256" x2="2132" y1="840.4219" y2="840.4219"/><text fill="#000000" font-family="sans-serif" font-size="13" lengthAdjust="spacing" textLength="119" x="263" y="835.356">setDiameter(float)</text><polygon fill="#181818" points="2419,865.5547,2429,869.5547,2419,873.5547,2423,869.5547" style="stroke:#181818;stroke-width:1.0;"/><line style="stroke:#181818;stroke-width:1.0;" x1="2148" x2="2425" y1="869.5547" y2="869.5547"/><text fill="#000000" font-family="sans-serif" font-size="13" lengthAdjust="spacing" textLength="119" x="2155" y="864.4888">setDiameter(float)</text><polygon fill="#181818" points="267,909.5547,257,913.5547,267,917.5547,263,913.5547" style="stroke:#181818;stroke-width:1.0;"/><line style="stroke:#181818;stroke-width:1.0;stroke-dasharray:2.0,2.0;" x1="261" x2="2142" y1="913.5547" y2="913.5547"/><polygon fill="#181818" points="2126,938.6875,2136,942.6875,2126,946.6875,2130,942.6875" style="stroke:#181818;stroke-width:1.0;"/><line style="stroke:#181818;stroke-width:1.0;" x1="256" x2="2132" y1="942.6875" y2="942.6875"/><text fill="#000000" font-family="sans-serif" font-size="13" lengthAdjust="spacing" textLength="187" x="263" y="937.6216">setMaterial(Wheels::Material)</text><polygon fill="#181818" points="2419,967.8203,2429,971.8203,2419,975.8203,2423,971.8203" style="stroke:#181818;stroke-width:1.0;"/><line style="stroke:#181818;stroke-width:1.0;" x1="2148" x2="2425" y1="971.8203" y2="971.8203"/><text fill="#000000" font-family="sans-serif" font-size="13" lengthAdjust="spacing" textLength="264" x="2155" y="966.7544">setMaterial(CarModule::Wheels::Material)</text><polygon fill="#181818" points="267,1011.8203,257,1015.8203,267,1019.8203,263,1015.8203" style="stroke:#181818;stroke-width:1.0;"/><line style="stroke:#181818;stroke-width:1.0;stroke-dasharray:2.0,2.0;" x1="261" x2="2142" y1="1015.8203" y2="1015.8203"/><polygon fill="#181818" points="2126,1040.9531,2136,1044.9531,2126,1048.9531,2130,1044.9531" style="stroke:#181818;stroke-width:1.0;"/><line style="stroke:#181818;stroke-width:1.0;" x1="256" x2="2132" y1="1044.9531" y2="1044.9531"/><text fill="#000000" font-family="sans-serif" font-size="13" lengthAdjust="spacing" textLength="40" x="263" y="1039.8872">build()</text><line style="stroke:#181818;stroke-width:1.0;" x1="2153" x2="2195" y1="1074.0859" y2="1074.0859"/><line style="stroke:#181818;stroke-width:1.0;" x1="2195" x2="2195" y1="1074.0859" y2="1087.0859"/><line style="stroke:#181818;stroke-width:1.0;" x1="2154" x2="2195" y1="1087.0859" y2="1087.0859"/><polygon fill="#181818" points="2164,1083.0859,2154,1087.0859,2164,1091.0859,2160,1087.0859" style="stroke:#181818;stroke-width:1.0;"/><text fill="#000000" font-family="sans-serif" font-size="13" lengthAdjust="spacing" textLength="43" x="2160" y="1069.02">reset()</text><polygon fill="#181818" points="267,1127.0859,257,1131.0859,267,1135.0859,263,1131.0859" style="stroke:#181818;stroke-width:1.0;"/><line style="stroke:#181818;stroke-width:1.0;stroke-dasharray:2.0,2.0;" x1="261" x2="2142" y1="1131.0859" y2="1131.0859"/><polygon fill="#181818" points="2695,1156.2188,2705,1160.2188,2695,1164.2188,2699,1160.2188" style="stroke:#181818;stroke-width:1.0;"/><line style="stroke:#181818;stroke-width:1.0;" x1="256" x2="2701" y1="1160.2188" y2="1160.2188"/><text fill="#000000" font-family="sans-serif" font-size="13" lengthAdjust="spacing" textLength="96" x="263" y="1155.1528">setColor(Color)</text><polygon fill="#181818" points="3056,1185.3516,3066,1189.3516,3056,1193.3516,3060,1189.3516" style="stroke:#181818;stroke-width:1.0;"/><line style="stroke:#181818;stroke-width:1.0;" x1="2717" x2="3062" y1="1189.3516" y2="1189.3516"/><text fill="#000000" font-family="sans-serif" font-size="13" lengthAdjust="spacing" textLength="96" x="2724" y="1184.2856">setColor(Color)</text><polygon fill="#181818" points="267,1229.3516,257,1233.3516,267,1237.3516,263,1233.3516" style="stroke:#181818;stroke-width:1.0;"/><line style="stroke:#181818;stroke-width:1.0;stroke-dasharray:2.0,2.0;" x1="261" x2="2711" y1="1233.3516" y2="1233.3516"/><polygon fill="#181818" points="2695,1258.4844,2705,1262.4844,2695,1266.4844,2699,1262.4844" style="stroke:#181818;stroke-width:1.0;"/><line style="stroke:#181818;stroke-width:1.0;" x1="256" x2="2701" y1="1262.4844" y2="1262.4844"/><text fill="#000000" font-family="sans-serif" font-size="13" lengthAdjust="spacing" textLength="248" x="263" y="1257.4185">setEngine(std::unique_ptr&lt;Engine&gt; &amp;)</text><polygon fill="#181818" points="3056,1287.6172,3066,1291.6172,3056,1295.6172,3060,1291.6172" style="stroke:#181818;stroke-width:1.0;"/><line style="stroke:#181818;stroke-width:1.0;" x1="2717" x2="3062" y1="1291.6172" y2="1291.6172"/><text fill="#000000" font-family="sans-serif" font-size="13" lengthAdjust="spacing" textLength="248" x="2724" y="1286.5513">setEngine(std::unique_ptr&lt;Engine&gt; &amp;)</text><polygon fill="#181818" points="267,1331.6172,257,1335.6172,267,1339.6172,263,1335.6172" style="stroke:#181818;stroke-width:1.0;"/><line style="stroke:#181818;stroke-width:1.0;stroke-dasharray:2.0,2.0;" x1="261" x2="2711" y1="1335.6172" y2="1335.6172"/><polygon fill="#181818" points="2695,1360.75,2705,1364.75,2695,1368.75,2699,1364.75" style="stroke:#181818;stroke-width:1.0;"/><line style="stroke:#181818;stroke-width:1.0;" x1="256" x2="2701" y1="1364.75" y2="1364.75"/><text fill="#000000" font-family="sans-serif" font-size="13" lengthAdjust="spacing" textLength="332" x="263" y="1359.6841">setTransmission(std::unique_ptr&lt;Transmission&gt; &amp;)</text><polygon fill="#181818" points="3056,1389.8828,3066,1393.8828,3056,1397.8828,3060,1393.8828" style="stroke:#181818;stroke-width:1.0;"/><line style="stroke:#181818;stroke-width:1.0;" x1="2717" x2="3062" y1="1393.8828" y2="1393.8828"/><text fill="#000000" font-family="sans-serif" font-size="13" lengthAdjust="spacing" textLength="332" x="2724" y="1388.8169">setTransmission(std::unique_ptr&lt;Transmission&gt; &amp;)</text><polygon fill="#181818" points="267,1433.8828,257,1437.8828,267,1441.8828,263,1437.8828" style="stroke:#181818;stroke-width:1.0;"/><line style="stroke:#181818;stroke-width:1.0;stroke-dasharray:2.0,2.0;" x1="261" x2="2711" y1="1437.8828" y2="1437.8828"/><polygon fill="#181818" points="2695,1463.0156,2705,1467.0156,2695,1471.0156,2699,1467.0156" style="stroke:#181818;stroke-width:1.0;"/><line style="stroke:#181818;stroke-width:1.0;" x1="256" x2="2701" y1="1467.0156" y2="1467.0156"/><text fill="#000000" font-family="sans-serif" font-size="13" lengthAdjust="spacing" textLength="256" x="263" y="1461.9497">setWheels(std::unique_ptr&lt;Wheels&gt; &amp;)</text><polygon fill="#181818" points="3056,1492.1484,3066,1496.1484,3056,1500.1484,3060,1496.1484" style="stroke:#181818;stroke-width:1.0;"/><line style="stroke:#181818;stroke-width:1.0;" x1="2717" x2="3062" y1="1496.1484" y2="1496.1484"/><text fill="#000000" font-family="sans-serif" font-size="13" lengthAdjust="spacing" textLength="256" x="2724" y="1491.0825">setWheels(std::unique_ptr&lt;Wheels&gt; &amp;)</text><polygon fill="#181818" points="267,1536.1484,257,1540.1484,267,1544.1484,263,1540.1484" style="stroke:#181818;stroke-width:1.0;"/><line style="stroke:#181818;stroke-width:1.0;stroke-dasharray:2.0,2.0;" x1="261" x2="2711" y1="1540.1484" y2="1540.1484"/><polygon fill="#181818" points="2695,1565.2813,2705,1569.2813,2695,1573.2813,2699,1569.2813" style="stroke:#181818;stroke-width:1.0;"/><line style="stroke:#181818;stroke-width:1.0;" x1="256" x2="2701" y1="1569.2813" y2="1569.2813"/><text fill="#000000" font-family="sans-serif" font-size="13" lengthAdjust="spacing" textLength="53" x="263" y="1564.2153">getCar()</text><polygon fill="#181818" points="267,1579.2813,257,1583.2813,267,1587.2813,263,1583.2813" style="stroke:#181818;stroke-width:1.0;"/><line style="stroke:#181818;stroke-width:1.0;stroke-dasharray:2.0,2.0;" x1="261" x2="2711" y1="1583.2813" y2="1583.2813"/><polygon fill="#181818" points="82,1593.2813,72,1597.2813,82,1601.2813,78,1597.2813" style="stroke:#181818;stroke-width:1.0;"/><line style="stroke:#181818;stroke-width:1.0;stroke-dasharray:2.0,2.0;" x1="76" x2="250" y1="1597.2813" y2="1597.2813"/><polygon fill="#181818" points="3056,1622.4141,3066,1626.4141,3056,1630.4141,3060,1626.4141" style="stroke:#181818;stroke-width:1.0;"/><line style="stroke:#181818;stroke-width:1.0;" x1="71" x2="3062" y1="1626.4141" y2="1626.4141"/><text fill="#000000" font-family="sans-serif" font-size="13" lengthAdjust="spacing" textLength="68" x="78" y="1621.3481">getString()</text><polygon fill="#181818" points="82,1636.4141,72,1640.4141,82,1644.4141,78,1640.4141" style="stroke:#181818;stroke-width:1.0;"/><line style="stroke:#181818;stroke-width:1.0;stroke-dasharray:2.0,2.0;" x1="76" x2="3072" y1="1640.4141" y2="1640.4141"/><polygon fill="#181818" points="11,1650.4141,1,1654.4141,11,1658.4141,7,1654.4141" style="stroke:#181818;stroke-width:1.0;"/><line style="stroke:#181818;stroke-width:1.0;stroke-dasharray:2.0,2.0;" x1="5" x2="65" y1="1654.4141" y2="1654.4141"/><!--SRC=[tLXTRzem57tdLqHzM3DfK2TsR0TLVLWxTGz5chHgU-X3PH83taAIEQPLz-jdFahJsOQ4mgGX8GYExptddklhhv999H9Hibnv9rCcybvIbYSUgxpBUm10G680CI6O01J494GawDnrBvmllRutT-A_xx14YGUckDjFMOU-P79GfBECz_jNGl945VA51G0H8G4Dmv34E8X2W6Z7oU2PdSL8injpzLMnF6Ko_SnKCXcovAV1reRdOlif7ukSVvo9BENo_5KOlEBPylL5JL6A20nZ_OCWY28SqRZZvBjMsZJIiLHSVIaUkVGhyPlVAqDp2zBcA6gAGuXnJ0D8COA8p7rrd4pMYfj6srdQa5A-lO-RpOO1O7ZURpOkMSaIePvQ96HtKRU07Oskmtbf-NlHqWuWTPsgHW2Depo8VgxQlPKihwQYgaIHM-QX0KycB1S9o-eTwpDIiA24eYYcC4OX38C6kJADbiFocZDPkGh0WjGagbShWJObC08qrdC_20deEFdK1F_RQ3jN6v9HFvO-RR9KRxjzAklB1A0X12WaMleWn9HIGXi4QXevnxSDm8Zl_oNnBrFkPjEgvFTNXeufqmMmIKWxW6FAj00qZl8W-hcAyVk4ywnQbM5zTWaYxIV2D0uHrll9Y6vFWSLeETIk19jofJS-ewnWbi5cOcscM-T9IG3qkesX7e4nmc3Dq-JomjCmQiRJn3ABeWsVDadTRqO6sgyKBFENWkgrSTNG93cx2xo6DLAwYS6Ho6wVYtOKs0RWM5ai02sYF81-hkBMZvPTctvSdq_hsm8I489GXBHB72Ez0946YJ6DLaU88Ykal_WszBC0ROYWnb0VmkSVg8qfX30Yppj_2uirGzDeEqCBa967LcHQPNYlYLWUl_rAfVt-B1U_Plo-LF9yTNdWlMkIdTr5Rer-HChNj-260gyEJ8VEmfkO7556bYkZeS2o-U1PQ8r-BCgFvpTAqd-RkeVZlk7EsNP6s-6ws3eY5jV5KkHZlqdYdOxQqRTulZllTfjxiFNfd5xpd4lT9_KUXPfuISRoSNSspJvu3rpE9nOFz60FTKvlRhuDrcsBRkj_GTG3FUBv4wNAgdzsDjQUPiDUKapFiknX-TKjPV639wgdNteq7QL9GePaECAOGiG83eOfJVayE0Ju25EEqe2z_mC0]--></g></svg>