<?xml version="1.0" encoding="us-ascii" standalone="no"?><svg xmlns="http://www.w3.org/2000/svg" xmlns:xlink="http://www.w3.org/1999/xlink" contentStyleType="text/css" height="392px" preserveAspectRatio="none" style="width:684px;height:392px;background:#FFFFFF;" version="1.1" viewBox="0 0 684 392" width="684px" zoomAndPan="magnify"><defs/><g><rect fill="#FFFFFF" height="271.6641" style="stroke:#181818;stroke-width:1.0;" width="10" x="61" y="67.4297"/><rect fill="#FFFFFF" height="228.5313" style="stroke:#181818;stroke-width:1.0;" width="10" x="177" y="96.5625"/><rect fill="#FFFFFF" height="185.3984" style="stroke:#181818;stroke-width:1.0;" width="10" x="391" y="125.6953"/><rect fill="#FFFFFF" height="25" style="stroke:#181818;stroke-width:1.0;" width="10" x="396" y="162.8281"/><rect fill="#FFFFFF" height="30" style="stroke:#181818;stroke-width:1.0;" width="10" x="631" y="223.9609"/><rect fill="#FFFFFF" height="14" style="stroke:#181818;stroke-width:1.0;" width="10" x="631" y="283.0938"/><line style="stroke:#181818;stroke-width:0.5;stroke-dasharray:5.0,5.0;" x1="66" x2="66" y1="36.2969" y2="357.0938"/><line style="stroke:#181818;stroke-width:0.5;stroke-dasharray:5.0,5.0;" x1="182" x2="182" y1="36.2969" y2="357.0938"/><line style="stroke:#181818;stroke-width:0.5;stroke-dasharray:5.0,5.0;" x1="395.5" x2="395.5" y1="36.2969" y2="357.0938"/><line style="stroke:#181818;stroke-width:0.5;stroke-dasharray:5.0,5.0;" x1="635.5" x2="635.5" y1="36.2969" y2="357.0938"/><rect fill="#E2E2F0" height="30.2969" rx="2.5" ry="2.5" style="stroke:#181818;stroke-width:0.5;" width="82" x="25" y="5"/><text fill="#000000" font-family="sans-serif" font-size="14" lengthAdjust="spacing" textLength="68" x="32" y="24.9951">main.cpp</text><rect fill="#E2E2F0" height="30.2969" rx="2.5" ry="2.5" style="stroke:#181818;stroke-width:0.5;" width="82" x="25" y="356.0938"/><text fill="#000000" font-family="sans-serif" font-size="14" lengthAdjust="spacing" textLength="68" x="32" y="376.0889">main.cpp</text><rect fill="#E2E2F0" height="30.2969" rx="2.5" ry="2.5" style="stroke:#181818;stroke-width:0.5;" width="130" x="117" y="5"/><text fill="#000000" font-family="sans-serif" font-size="14" lengthAdjust="spacing" textLength="116" x="124" y="24.9951">TrafficSimulator</text><rect fill="#E2E2F0" height="30.2969" rx="2.5" ry="2.5" style="stroke:#181818;stroke-width:0.5;" width="130" x="117" y="356.0938"/><text fill="#000000" font-family="sans-serif" font-size="14" lengthAdjust="spacing" textLength="116" x="124" y="376.0889">TrafficSimulator</text><rect fill="#E2E2F0" height="30.2969" rx="2.5" ry="2.5" style="stroke:#181818;stroke-width:0.5;" width="77" x="357.5" y="5"/><text fill="#000000" font-family="sans-serif" font-size="14" lengthAdjust="spacing" textLength="63" x="364.5" y="24.9951">Logistics</text><rect fill="#E2E2F0" height="30.2969" rx="2.5" ry="2.5" style="stroke:#181818;stroke-width:0.5;" width="77" x="357.5" y="356.0938"/><text fill="#000000" font-family="sans-serif" font-size="14" lengthAdjust="spacing" textLength="63" x="364.5" y="376.0889">Logistics</text><rect fill="#E2E2F0" height="30.2969" rx="2.5" ry="2.5" style="stroke:#181818;stroke-width:0.5;" width="85" x="593.5" y="5"/><text fill="#000000" font-family="sans-serif" font-size="14" lengthAdjust="spacing" textLength="71" x="600.5" y="24.9951">Transport</text><rect fill="#E2E2F0" height="30.2969" rx="2.5" ry="2.5" style="stroke:#181818;stroke-width:0.5;" width="85" x="593.5" y="356.0938"/><text fill="#000000" font-family="sans-serif" font-size="14" lengthAdjust="spacing" textLength="71" x="600.5" y="376.0889">Transport</text><rect fill="#FFFFFF" height="271.6641" style="stroke:#181818;stroke-width:1.0;" width="10" x="61" y="67.4297"/><rect fill="#FFFFFF" height="228.5313" style="stroke:#181818;stroke-width:1.0;" width="10" x="177" y="96.5625"/><rect fill="#FFFFFF" height="185.3984" style="stroke:#181818;stroke-width:1.0;" width="10" x="391" y="125.6953"/><rect fill="#FFFFFF" height="25" style="stroke:#181818;stroke-width:1.0;" width="10" x="396" y="162.8281"/><rect fill="#FFFFFF" height="30" style="stroke:#181818;stroke-width:1.0;" width="10" x="631" y="223.9609"/><rect fill="#FFFFFF" height="14" style="stroke:#181818;stroke-width:1.0;" width="10" x="631" y="283.0938"/><polygon fill="#181818" points="49,63.4297,59,67.4297,49,71.4297,53,67.4297" style="stroke:#181818;stroke-width:1.0;"/><line style="stroke:#181818;stroke-width:1.0;" x1="0" x2="55" y1="67.4297" y2="67.4297"/><text fill="#000000" font-family="sans-serif" font-size="13" lengthAdjust="spacing" textLength="42" x="7" y="62.3638">main()</text><polygon fill="#181818" points="165,92.5625,175,96.5625,165,100.5625,169,96.5625" style="stroke:#181818;stroke-width:1.0;"/><line style="stroke:#181818;stroke-width:1.0;" x1="71" x2="171" y1="96.5625" y2="96.5625"/><text fill="#000000" font-family="sans-serif" font-size="13" lengthAdjust="spacing" textLength="65" x="78" y="91.4966">simulate()</text><polygon fill="#181818" points="379,121.6953,389,125.6953,379,129.6953,383,125.6953" style="stroke:#181818;stroke-width:1.0;"/><line style="stroke:#181818;stroke-width:1.0;" x1="187" x2="385" y1="125.6953" y2="125.6953"/><text fill="#000000" font-family="sans-serif" font-size="13" lengthAdjust="spacing" textLength="185" x="194" y="120.6294">planDelivery(float,float,float)</text><line style="stroke:#181818;stroke-width:1.0;" x1="401" x2="448" y1="149.8281" y2="149.8281"/><line style="stroke:#181818;stroke-width:1.0;" x1="448" x2="448" y1="149.8281" y2="162.8281"/><line style="stroke:#181818;stroke-width:1.0;" x1="407" x2="448" y1="162.8281" y2="162.8281"/><polygon fill="#181818" points="417,158.8281,407,162.8281,417,166.8281,413,162.8281" style="stroke:#181818;stroke-width:1.0;"/><text fill="#000000" font-family="sans-serif" font-size="13" lengthAdjust="spacing" textLength="93" x="413" y="144.7622">getTransport()</text><line style="stroke:#181818;stroke-width:1.0;stroke-dasharray:2.0,2.0;" x1="406" x2="448" y1="186.8281" y2="186.8281"/><line style="stroke:#181818;stroke-width:1.0;stroke-dasharray:2.0,2.0;" x1="448" x2="448" y1="186.8281" y2="199.8281"/><line style="stroke:#181818;stroke-width:1.0;stroke-dasharray:2.0,2.0;" x1="401" x2="448" y1="199.8281" y2="199.8281"/><polygon fill="#181818" points="411,195.8281,401,199.8281,411,203.8281,407,199.8281" style="stroke:#181818;stroke-width:1.0;"/><polygon fill="#181818" points="619,219.9609,629,223.9609,619,227.9609,623,223.9609" style="stroke:#181818;stroke-width:1.0;"/><line style="stroke:#181818;stroke-width:1.0;" x1="401" x2="625" y1="223.9609" y2="223.9609"/><text fill="#000000" font-family="sans-serif" font-size="13" lengthAdjust="spacing" textLength="141" x="408" y="218.895">setCostPerTone(float)</text><polygon fill="#181818" points="619,279.0938,629,283.0938,619,287.0938,623,283.0938" style="stroke:#181818;stroke-width:1.0;"/><line style="stroke:#181818;stroke-width:1.0;" x1="401" x2="625" y1="283.0938" y2="283.0938"/><text fill="#000000" font-family="sans-serif" font-size="13" lengthAdjust="spacing" textLength="211" x="408" y="278.0278">computeDeliveryCost(float,float)</text><polygon fill="#181818" points="412,293.0938,402,297.0938,412,301.0938,408,297.0938" style="stroke:#181818;stroke-width:1.0;"/><line style="stroke:#181818;stroke-width:1.0;stroke-dasharray:2.0,2.0;" x1="406" x2="635" y1="297.0938" y2="297.0938"/><polygon fill="#181818" points="198,307.0938,188,311.0938,198,315.0938,194,311.0938" style="stroke:#181818;stroke-width:1.0;"/><line style="stroke:#181818;stroke-width:1.0;stroke-dasharray:2.0,2.0;" x1="192" x2="395" y1="311.0938" y2="311.0938"/><polygon fill="#181818" points="82,321.0938,72,325.0938,82,329.0938,78,325.0938" style="stroke:#181818;stroke-width:1.0;"/><line style="stroke:#181818;stroke-width:1.0;stroke-dasharray:2.0,2.0;" x1="76" x2="181" y1="325.0938" y2="325.0938"/><polygon fill="#181818" points="11,335.0938,1,339.0938,11,343.0938,7,339.0938" style="stroke:#181818;stroke-width:1.0;"/><line style="stroke:#181818;stroke-width:1.0;stroke-dasharray:2.0,2.0;" x1="5" x2="65" y1="339.0938" y2="339.0938"/><!--SRC=[hPHDIyCm6CVl_HJ1YnLibxHvwn0l2buc28eN3vAbwHRfcj1c4x-zcSDjkhHEz198a-V__pqlgHMjqr9RqJXmiX2wIQMr9q1quEePGeXuZZB2MPvpabDACeQZf-Iozn2CmLeaFek4T7ebdEhNiVlM3wseAYtlzM9P2sVQ7O8FBlAiO1WpHd1HSCIZNljFj42GH-iswke0B-Jn1MzYPhhpsswFYnC62- -Eie9ad506erxlBTTXaEUojMYkLQrNgdsBgze8Txwt7i3s6WV4Xurdold2DvqrhOl_vZDW59NgP-Nlqx21sfKxomX1CACOhkCOvUY8h0D1wp5Gxifqxawr3wPHSR388RllQVmZaZGBktJgSmZMUF702FGwXzH_rPhVvJJmt8vgUlzx6VZ772e7t9ykakHuXT2TwFH6DQhrTqhmgjqSIFzAPyboKPy3twDEcmR0D4znT3gPFDvkltrSs-uGIM7AG3ntpdRZqMZcbPRJrFTxLDUhpPBOrhmewL9_27XPbLAoAPjMbF8S2qRHjEIbmfXm35L5kS8b4cVl]--></g></svg>