<?xml version="1.0" encoding="us-ascii" standalone="no"?><svg xmlns="http://www.w3.org/2000/svg" xmlns:xlink="http://www.w3.org/1999/xlink" contentStyleType="text/css" height="484px" preserveAspectRatio="none" style="width:1204px;height:484px;background:#FFFFFF;" version="1.1" viewBox="0 0 1204 484" width="1204px" zoomAndPan="magnify"><defs/><g><!--class C_0002255102640733176810--><g id="elem_C_0002255102640733176810"><rect codeLine="2" fill="#F1F1F1" height="96.8906" id="C_0002255102640733176810" rx="2.5" ry="2.5" style="stroke:#181818;stroke-width:0.5;" width="425" x="236.394" y="272"/><ellipse cx="409.144" cy="288" fill="#ADD1B2" rx="11" ry="11" style="stroke:#181818;stroke-width:1.0;"/><path d="M411.4878,283.6719 C410.5503,283.2344 409.9565,283.0938 409.0815,283.0938 C406.4565,283.0938 404.4565,285.1719 404.4565,287.8906 L404.4565,289.0156 C404.4565,291.5938 406.5659,293.4844 409.4565,293.4844 C410.6753,293.4844 411.8315,293.1875 412.5815,292.6406 C413.1596,292.2344 413.4878,291.7813 413.4878,291.3906 C413.4878,290.9375 413.0971,290.5469 412.6284,290.5469 C412.4096,290.5469 412.2065,290.625 412.019,290.8125 C411.5659,291.2969 411.5659,291.2969 411.3784,291.3906 C410.9565,291.6563 410.269,291.7813 409.5034,291.7813 C407.4565,291.7813 406.1596,290.6875 406.1596,288.9844 L406.1596,287.8906 C406.1596,286.1094 407.4096,284.7969 409.144,284.7969 C409.7221,284.7969 410.3315,284.9531 410.8003,285.2031 C411.2846,285.4844 411.4565,285.7031 411.5503,286.1094 C411.6128,286.5156 411.644,286.6406 411.7846,286.7656 C411.9253,286.9063 412.1596,287.0156 412.3784,287.0156 C412.644,287.0156 412.9096,286.875 413.0815,286.6563 C413.1909,286.5 413.2221,286.3125 413.2221,285.8906 L413.2221,284.4688 C413.2221,284.0313 413.2065,283.9063 413.1128,283.75 C412.9565,283.4844 412.6753,283.3438 412.3784,283.3438 C412.0815,283.3438 411.8784,283.4375 411.6596,283.75 L411.4878,283.6719 Z " fill="#000000"/><text fill="#000000" font-family="sans-serif" font-size="14" lengthAdjust="spacing" textLength="71" x="429.644" y="292.8467">Transport</text><line style="stroke:#181818;stroke-width:0.5;" x1="237.394" x2="660.394" y1="304" y2="304"/><polygon fill="none" points="247.394,312.6484,251.394,316.6484,247.394,320.6484,243.394,316.6484" style="stroke:#B38D22;stroke-width:1.0;"/><text fill="#000000" font-family="sans-serif" font-size="14" lengthAdjust="spacing" textLength="138" x="256.394" y="320.9951">costPerTone : float</text><line style="stroke:#181818;stroke-width:0.5;" x1="237.394" x2="660.394" y1="328.2969" y2="328.2969"/><ellipse cx="247.394" cy="341.9453" fill="#84BE84" rx="3" ry="3" style="stroke:#038048;stroke-width:1.0;"/><text fill="#000000" font-family="sans-serif" font-size="14" lengthAdjust="spacing" textLength="269" x="256.394" y="345.292">setCostPerTone(float newCost) : void</text><ellipse cx="247.394" cy="358.2422" fill="#84BE84" rx="3" ry="3" style="stroke:#038048;stroke-width:1.0;"/><text fill="#000000" font-family="sans-serif" font-size="14" lengthAdjust="spacing" textLength="399" x="256.394" y="361.5889">computeDeliveryCost(float distance, float cargo) : float</text></g><!--class C_0000857097331295285670--><g id="elem_C_0000857097331295285670"><rect codeLine="8" fill="#F1F1F1" height="80.5938" id="C_0000857097331295285670" rx="2.5" ry="2.5" style="stroke:#181818;stroke-width:0.5;" width="495" x="201.394" y="7"/><ellipse cx="414.144" cy="23" fill="#A9DCDF" rx="11" ry="11" style="stroke:#181818;stroke-width:1.0;"/><path d="M416.2221,24.8125 L416.6128,25.7969 L416.2221,25.7969 C415.769,25.7969 415.6596,25.8125 415.5034,25.9219 C415.2534,26.0781 415.0971,26.3594 415.0971,26.6563 C415.0971,26.9219 415.2378,27.1719 415.4565,27.3281 C415.5971,27.4531 415.8003,27.5 416.2221,27.5 L418.5815,27.5 C418.9409,27.5 419.1596,27.4688 419.3003,27.375 C419.5503,27.2344 419.7065,26.9375 419.7065,26.6563 C419.7065,26.375 419.5659,26.125 419.3471,25.9688 C419.1753,25.8281 419.019,25.7969 418.5503,25.7969 L415.1596,17.5938 L411.4878,17.5938 C411.0346,17.5938 410.9096,17.6094 410.7534,17.7031 C410.5034,17.875 410.3471,18.1563 410.3471,18.4375 C410.3471,18.7188 410.4878,18.9688 410.7065,19.1406 C410.8784,19.25 411.0503,19.2813 411.4878,19.2813 L412.5659,19.2813 L409.9253,25.7969 C409.5034,25.7969 409.3471,25.8125 409.1909,25.9219 C408.9409,26.0781 408.7846,26.3594 408.7846,26.6563 C408.7846,27.2188 409.1596,27.5 409.9096,27.5 L412.1753,27.5 C412.5346,27.5 412.7534,27.4688 412.8784,27.375 C413.144,27.2344 413.2846,26.9375 413.2846,26.6563 C413.2846,26.375 413.1596,26.125 412.9409,25.9531 C412.769,25.8281 412.6284,25.7969 412.1753,25.7969 L411.7846,25.7969 L412.1753,24.8125 L416.2221,24.8125 Z M415.519,23.1094 L412.8471,23.1094 L414.1909,19.8438 L415.519,23.1094 Z " fill="#000000"/><text fill="#000000" font-family="sans-serif" font-size="14" font-style="italic" lengthAdjust="spacing" textLength="61" x="434.644" y="27.8467">Logistics</text><line style="stroke:#181818;stroke-width:0.5;" x1="202.394" x2="695.394" y1="39" y2="39"/><line style="stroke:#181818;stroke-width:0.5;" x1="202.394" x2="695.394" y1="47" y2="47"/><ellipse cx="212.394" cy="60.6484" fill="#84BE84" rx="3" ry="3" style="stroke:#038048;stroke-width:1.0;"/><text fill="#000000" font-family="sans-serif" font-size="14" lengthAdjust="spacing" textLength="469" x="221.394" y="63.9951">planDelivery(float distance, float cargo, float costPerTone) : float</text><polygon fill="#FFFF44" points="212.394,71.9453,216.394,75.9453,212.394,79.9453,208.394,75.9453" style="stroke:#B38D22;stroke-width:1.0;"/><text fill="#000000" font-family="sans-serif" font-size="14" font-style="italic" lengthAdjust="spacing" textLength="344" x="221.394" y="80.292">getTransport() = 0 : std::unique_ptr&lt;Transport&gt;</text></g><!--class C_0000682389359091253573--><g id="elem_C_0000682389359091253573"><rect codeLine="13" fill="#F1F1F1" height="48" id="C_0000682389359091253573" rx="2.5" ry="2.5" style="stroke:#181818;stroke-width:0.5;" width="72" x="309.894" y="429"/><ellipse cx="324.894" cy="445" fill="#ADD1B2" rx="11" ry="11" style="stroke:#181818;stroke-width:1.0;"/><path d="M327.2378,440.6719 C326.3003,440.2344 325.7065,440.0938 324.8315,440.0938 C322.2065,440.0938 320.2065,442.1719 320.2065,444.8906 L320.2065,446.0156 C320.2065,448.5938 322.3159,450.4844 325.2065,450.4844 C326.4253,450.4844 327.5815,450.1875 328.3315,449.6406 C328.9096,449.2344 329.2378,448.7813 329.2378,448.3906 C329.2378,447.9375 328.8471,447.5469 328.3784,447.5469 C328.1596,447.5469 327.9565,447.625 327.769,447.8125 C327.3159,448.2969 327.3159,448.2969 327.1284,448.3906 C326.7065,448.6563 326.019,448.7813 325.2534,448.7813 C323.2065,448.7813 321.9096,447.6875 321.9096,445.9844 L321.9096,444.8906 C321.9096,443.1094 323.1596,441.7969 324.894,441.7969 C325.4721,441.7969 326.0815,441.9531 326.5503,442.2031 C327.0346,442.4844 327.2065,442.7031 327.3003,443.1094 C327.3628,443.5156 327.394,443.6406 327.5346,443.7656 C327.6753,443.9063 327.9096,444.0156 328.1284,444.0156 C328.394,444.0156 328.6596,443.875 328.8315,443.6563 C328.9409,443.5 328.9721,443.3125 328.9721,442.8906 L328.9721,441.4688 C328.9721,441.0313 328.9565,440.9063 328.8628,440.75 C328.7065,440.4844 328.4253,440.3438 328.1284,440.3438 C327.8315,440.3438 327.6284,440.4375 327.4096,440.75 L327.2378,440.6719 Z " fill="#000000"/><text fill="#000000" font-family="sans-serif" font-size="14" lengthAdjust="spacing" textLength="40" x="338.894" y="449.8467">Truck</text><line style="stroke:#181818;stroke-width:0.5;" x1="310.894" x2="380.894" y1="461" y2="461"/><line style="stroke:#181818;stroke-width:0.5;" x1="310.894" x2="380.894" y1="469" y2="469"/></g><!--class C_0000209283120725333794--><g id="elem_C_0000209283120725333794"><rect codeLine="16" fill="#F1F1F1" height="64.2969" id="C_0000209283120725333794" rx="2.5" ry="2.5" style="stroke:#181818;stroke-width:0.5;" width="348" x="83.8938" y="148"/><ellipse cx="204.1438" cy="164" fill="#ADD1B2" rx="11" ry="11" style="stroke:#181818;stroke-width:1.0;"/><path d="M206.4876,159.6719 C205.5501,159.2344 204.9563,159.0938 204.0813,159.0938 C201.4563,159.0938 199.4563,161.1719 199.4563,163.8906 L199.4563,165.0156 C199.4563,167.5938 201.5657,169.4844 204.4563,169.4844 C205.6751,169.4844 206.8313,169.1875 207.5813,168.6406 C208.1594,168.2344 208.4876,167.7813 208.4876,167.3906 C208.4876,166.9375 208.0969,166.5469 207.6282,166.5469 C207.4094,166.5469 207.2063,166.625 207.0188,166.8125 C206.5657,167.2969 206.5657,167.2969 206.3782,167.3906 C205.9563,167.6563 205.2688,167.7813 204.5032,167.7813 C202.4563,167.7813 201.1594,166.6875 201.1594,164.9844 L201.1594,163.8906 C201.1594,162.1094 202.4094,160.7969 204.1438,160.7969 C204.7219,160.7969 205.3313,160.9531 205.8001,161.2031 C206.2844,161.4844 206.4563,161.7031 206.5501,162.1094 C206.6126,162.5156 206.6438,162.6406 206.7844,162.7656 C206.9251,162.9063 207.1594,163.0156 207.3782,163.0156 C207.6438,163.0156 207.9094,162.875 208.0813,162.6563 C208.1907,162.5 208.2219,162.3125 208.2219,161.8906 L208.2219,160.4688 C208.2219,160.0313 208.2063,159.9063 208.1126,159.75 C207.9563,159.4844 207.6751,159.3438 207.3782,159.3438 C207.0813,159.3438 206.8782,159.4375 206.6594,159.75 L206.4876,159.6719 Z " fill="#000000"/><text fill="#000000" font-family="sans-serif" font-size="14" lengthAdjust="spacing" textLength="99" x="224.6438" y="168.8467">RoadLogistics</text><line style="stroke:#181818;stroke-width:0.5;" x1="84.8938" x2="430.8938" y1="180" y2="180"/><line style="stroke:#181818;stroke-width:0.5;" x1="84.8938" x2="430.8938" y1="188" y2="188"/><polygon fill="#FFFF44" points="94.8938,196.6484,98.8938,200.6484,94.8938,204.6484,90.8938,200.6484" style="stroke:#B38D22;stroke-width:1.0;"/><text fill="#000000" font-family="sans-serif" font-size="14" lengthAdjust="spacing" textLength="322" x="103.8938" y="204.9951">getTransport() : std::unique_ptr&lt;Transport&gt;</text></g><!--class C_0001022260372930947319--><g id="elem_C_0001022260372930947319"><rect codeLine="20" fill="#F1F1F1" height="48" id="C_0001022260372930947319" rx="2.5" ry="2.5" style="stroke:#181818;stroke-width:0.5;" width="64" x="416.894" y="429"/><ellipse cx="431.894" cy="445" fill="#ADD1B2" rx="11" ry="11" style="stroke:#181818;stroke-width:1.0;"/><path d="M434.2378,440.6719 C433.3003,440.2344 432.7065,440.0938 431.8315,440.0938 C429.2065,440.0938 427.2065,442.1719 427.2065,444.8906 L427.2065,446.0156 C427.2065,448.5938 429.3159,450.4844 432.2065,450.4844 C433.4253,450.4844 434.5815,450.1875 435.3315,449.6406 C435.9096,449.2344 436.2378,448.7813 436.2378,448.3906 C436.2378,447.9375 435.8471,447.5469 435.3784,447.5469 C435.1596,447.5469 434.9565,447.625 434.769,447.8125 C434.3159,448.2969 434.3159,448.2969 434.1284,448.3906 C433.7065,448.6563 433.019,448.7813 432.2534,448.7813 C430.2065,448.7813 428.9096,447.6875 428.9096,445.9844 L428.9096,444.8906 C428.9096,443.1094 430.1596,441.7969 431.894,441.7969 C432.4721,441.7969 433.0815,441.9531 433.5503,442.2031 C434.0346,442.4844 434.2065,442.7031 434.3003,443.1094 C434.3628,443.5156 434.394,443.6406 434.5346,443.7656 C434.6753,443.9063 434.9096,444.0156 435.1284,444.0156 C435.394,444.0156 435.6596,443.875 435.8315,443.6563 C435.9409,443.5 435.9721,443.3125 435.9721,442.8906 L435.9721,441.4688 C435.9721,441.0313 435.9565,440.9063 435.8628,440.75 C435.7065,440.4844 435.4253,440.3438 435.1284,440.3438 C434.8315,440.3438 434.6284,440.4375 434.4096,440.75 L434.2378,440.6719 Z " fill="#000000"/><text fill="#000000" font-family="sans-serif" font-size="14" lengthAdjust="spacing" textLength="32" x="445.894" y="449.8467">Ship</text><line style="stroke:#181818;stroke-width:0.5;" x1="417.894" x2="479.894" y1="461" y2="461"/><line style="stroke:#181818;stroke-width:0.5;" x1="417.894" x2="479.894" y1="469" y2="469"/></g><!--class C_0000633512686750851859--><g id="elem_C_0000633512686750851859"><rect codeLine="23" fill="#F1F1F1" height="64.2969" id="C_0000633512686750851859" rx="2.5" ry="2.5" style="stroke:#181818;stroke-width:0.5;" width="348" x="466.894" y="148"/><ellipse cx="592.144" cy="164" fill="#ADD1B2" rx="11" ry="11" style="stroke:#181818;stroke-width:1.0;"/><path d="M594.4878,159.6719 C593.5503,159.2344 592.9565,159.0938 592.0815,159.0938 C589.4565,159.0938 587.4565,161.1719 587.4565,163.8906 L587.4565,165.0156 C587.4565,167.5938 589.5659,169.4844 592.4565,169.4844 C593.6753,169.4844 594.8315,169.1875 595.5815,168.6406 C596.1596,168.2344 596.4878,167.7813 596.4878,167.3906 C596.4878,166.9375 596.0971,166.5469 595.6284,166.5469 C595.4096,166.5469 595.2065,166.625 595.019,166.8125 C594.5659,167.2969 594.5659,167.2969 594.3784,167.3906 C593.9565,167.6563 593.269,167.7813 592.5034,167.7813 C590.4565,167.7813 589.1596,166.6875 589.1596,164.9844 L589.1596,163.8906 C589.1596,162.1094 590.4096,160.7969 592.144,160.7969 C592.7221,160.7969 593.3315,160.9531 593.8003,161.2031 C594.2846,161.4844 594.4565,161.7031 594.5503,162.1094 C594.6128,162.5156 594.644,162.6406 594.7846,162.7656 C594.9253,162.9063 595.1596,163.0156 595.3784,163.0156 C595.644,163.0156 595.9096,162.875 596.0815,162.6563 C596.1909,162.5 596.2221,162.3125 596.2221,161.8906 L596.2221,160.4688 C596.2221,160.0313 596.2065,159.9063 596.1128,159.75 C595.9565,159.4844 595.6753,159.3438 595.3784,159.3438 C595.0815,159.3438 594.8784,159.4375 594.6596,159.75 L594.4878,159.6719 Z " fill="#000000"/><text fill="#000000" font-family="sans-serif" font-size="14" lengthAdjust="spacing" textLength="89" x="612.644" y="168.8467">SeaLogistics</text><line style="stroke:#181818;stroke-width:0.5;" x1="467.894" x2="813.894" y1="180" y2="180"/><line style="stroke:#181818;stroke-width:0.5;" x1="467.894" x2="813.894" y1="188" y2="188"/><polygon fill="#FFFF44" points="477.894,196.6484,481.894,200.6484,477.894,204.6484,473.894,200.6484" style="stroke:#B38D22;stroke-width:1.0;"/><text fill="#000000" font-family="sans-serif" font-size="14" lengthAdjust="spacing" textLength="322" x="486.894" y="204.9951">getTransport() : std::unique_ptr&lt;Transport&gt;</text></g><!--class C_0000176870970706819094--><g id="elem_C_0000176870970706819094"><rect codeLine="27" fill="#F1F1F1" height="48" id="C_0000176870970706819094" rx="2.5" ry="2.5" style="stroke:#181818;stroke-width:0.5;" width="71" x="516.394" y="429"/><ellipse cx="531.394" cy="445" fill="#ADD1B2" rx="11" ry="11" style="stroke:#181818;stroke-width:1.0;"/><path d="M533.7378,440.6719 C532.8003,440.2344 532.2065,440.0938 531.3315,440.0938 C528.7065,440.0938 526.7065,442.1719 526.7065,444.8906 L526.7065,446.0156 C526.7065,448.5938 528.8159,450.4844 531.7065,450.4844 C532.9253,450.4844 534.0815,450.1875 534.8315,449.6406 C535.4096,449.2344 535.7378,448.7813 535.7378,448.3906 C535.7378,447.9375 535.3471,447.5469 534.8784,447.5469 C534.6596,447.5469 534.4565,447.625 534.269,447.8125 C533.8159,448.2969 533.8159,448.2969 533.6284,448.3906 C533.2065,448.6563 532.519,448.7813 531.7534,448.7813 C529.7065,448.7813 528.4096,447.6875 528.4096,445.9844 L528.4096,444.8906 C528.4096,443.1094 529.6596,441.7969 531.394,441.7969 C531.9721,441.7969 532.5815,441.9531 533.0503,442.2031 C533.5346,442.4844 533.7065,442.7031 533.8003,443.1094 C533.8628,443.5156 533.894,443.6406 534.0346,443.7656 C534.1753,443.9063 534.4096,444.0156 534.6284,444.0156 C534.894,444.0156 535.1596,443.875 535.3315,443.6563 C535.4409,443.5 535.4721,443.3125 535.4721,442.8906 L535.4721,441.4688 C535.4721,441.0313 535.4565,440.9063 535.3628,440.75 C535.2065,440.4844 534.9253,440.3438 534.6284,440.3438 C534.3315,440.3438 534.1284,440.4375 533.9096,440.75 L533.7378,440.6719 Z " fill="#000000"/><text fill="#000000" font-family="sans-serif" font-size="14" lengthAdjust="spacing" textLength="39" x="545.394" y="449.8467">Plane</text><line style="stroke:#181818;stroke-width:0.5;" x1="517.394" x2="586.394" y1="461" y2="461"/><line style="stroke:#181818;stroke-width:0.5;" x1="517.394" x2="586.394" y1="469" y2="469"/></g><!--class C_0001091568464015586913--><g id="elem_C_0001091568464015586913"><rect codeLine="30" fill="#F1F1F1" height="64.2969" id="C_0001091568464015586913" rx="2.5" ry="2.5" style="stroke:#181818;stroke-width:0.5;" width="348" x="849.894" y="148"/><ellipse cx="978.144" cy="164" fill="#ADD1B2" rx="11" ry="11" style="stroke:#181818;stroke-width:1.0;"/><path d="M980.4878,159.6719 C979.5503,159.2344 978.9565,159.0938 978.0815,159.0938 C975.4565,159.0938 973.4565,161.1719 973.4565,163.8906 L973.4565,165.0156 C973.4565,167.5938 975.5659,169.4844 978.4565,169.4844 C979.6753,169.4844 980.8315,169.1875 981.5815,168.6406 C982.1596,168.2344 982.4878,167.7813 982.4878,167.3906 C982.4878,166.9375 982.0971,166.5469 981.6284,166.5469 C981.4096,166.5469 981.2065,166.625 981.019,166.8125 C980.5659,167.2969 980.5659,167.2969 980.3784,167.3906 C979.9565,167.6563 979.269,167.7813 978.5034,167.7813 C976.4565,167.7813 975.1596,166.6875 975.1596,164.9844 L975.1596,163.8906 C975.1596,162.1094 976.4096,160.7969 978.144,160.7969 C978.7221,160.7969 979.3315,160.9531 979.8003,161.2031 C980.2846,161.4844 980.4565,161.7031 980.5503,162.1094 C980.6128,162.5156 980.644,162.6406 980.7846,162.7656 C980.9253,162.9063 981.1596,163.0156 981.3784,163.0156 C981.644,163.0156 981.9096,162.875 982.0815,162.6563 C982.1909,162.5 982.2221,162.3125 982.2221,161.8906 L982.2221,160.4688 C982.2221,160.0313 982.2065,159.9063 982.1128,159.75 C981.9565,159.4844 981.6753,159.3438 981.3784,159.3438 C981.0815,159.3438 980.8784,159.4375 980.6596,159.75 L980.4878,159.6719 Z " fill="#000000"/><text fill="#000000" font-family="sans-serif" font-size="14" lengthAdjust="spacing" textLength="83" x="998.644" y="168.8467">AirLogistics</text><line style="stroke:#181818;stroke-width:0.5;" x1="850.894" x2="1196.894" y1="180" y2="180"/><line style="stroke:#181818;stroke-width:0.5;" x1="850.894" x2="1196.894" y1="188" y2="188"/><polygon fill="#FFFF44" points="860.894,196.6484,864.894,200.6484,860.894,204.6484,856.894,200.6484" style="stroke:#B38D22;stroke-width:1.0;"/><text fill="#000000" font-family="sans-serif" font-size="14" lengthAdjust="spacing" textLength="322" x="869.894" y="204.9951">getTransport() : std::unique_ptr&lt;Transport&gt;</text></g><!--class C_0000019329744775499818--><g id="elem_C_0000019329744775499818"><rect codeLine="34" fill="#F1F1F1" height="64.2969" id="C_0000019329744775499818" rx="2.5" ry="2.5" style="stroke:#181818;stroke-width:0.5;" width="148" x="731.894" y="15.5"/><ellipse cx="746.894" cy="31.5" fill="#ADD1B2" rx="11" ry="11" style="stroke:#181818;stroke-width:1.0;"/><path d="M749.2378,27.1719 C748.3003,26.7344 747.7065,26.5938 746.8315,26.5938 C744.2065,26.5938 742.2065,28.6719 742.2065,31.3906 L742.2065,32.5156 C742.2065,35.0938 744.3159,36.9844 747.2065,36.9844 C748.4253,36.9844 749.5815,36.6875 750.3315,36.1406 C750.9096,35.7344 751.2378,35.2813 751.2378,34.8906 C751.2378,34.4375 750.8471,34.0469 750.3784,34.0469 C750.1596,34.0469 749.9565,34.125 749.769,34.3125 C749.3159,34.7969 749.3159,34.7969 749.1284,34.8906 C748.7065,35.1563 748.019,35.2813 747.2534,35.2813 C745.2065,35.2813 743.9096,34.1875 743.9096,32.4844 L743.9096,31.3906 C743.9096,29.6094 745.1596,28.2969 746.894,28.2969 C747.4721,28.2969 748.0815,28.4531 748.5503,28.7031 C749.0346,28.9844 749.2065,29.2031 749.3003,29.6094 C749.3628,30.0156 749.394,30.1406 749.5346,30.2656 C749.6753,30.4063 749.9096,30.5156 750.1284,30.5156 C750.394,30.5156 750.6596,30.375 750.8315,30.1563 C750.9409,30 750.9721,29.8125 750.9721,29.3906 L750.9721,27.9688 C750.9721,27.5313 750.9565,27.4063 750.8628,27.25 C750.7065,26.9844 750.4253,26.8438 750.1284,26.8438 C749.8315,26.8438 749.6284,26.9375 749.4096,27.25 L749.2378,27.1719 Z " fill="#000000"/><text fill="#000000" font-family="sans-serif" font-size="14" lengthAdjust="spacing" textLength="116" x="760.894" y="36.3467">TrafficSimulator</text><line style="stroke:#181818;stroke-width:0.5;" x1="732.894" x2="878.894" y1="47.5" y2="47.5"/><line style="stroke:#181818;stroke-width:0.5;" x1="732.894" x2="878.894" y1="55.5" y2="55.5"/><ellipse cx="742.894" cy="69.1484" fill="#84BE84" rx="3" ry="3" style="stroke:#038048;stroke-width:1.0;"/><text fill="#000000" font-family="sans-serif" font-size="14" lengthAdjust="spacing" textLength="118" x="751.894" y="72.4951">simulate() : float</text></g><!--link C_0000857097331295285670 to C_0002255102640733176810--><g id="link_C_0000857097331295285670_C_0002255102640733176810"><path codeLine="37" d="M202.03,88.031 C139.8315,103.229 85.1749,123.07 65.8938,148 C6,225.442 114.5128,268.837 231.138,292.591 " fill="none" id="C_0000857097331295285670-to-C_0002255102640733176810" style="stroke:#181818;stroke-width:1.0;stroke-dasharray:7.0,7.0;"/><polygon fill="#181818" points="236.344,293.638,228.3093,287.9421,231.4421,292.6522,226.732,295.785,236.344,293.638" style="stroke:#181818;stroke-width:1.0;"/></g><!--reverse link C_0002255102640733176810 to C_0000682389359091253573--><g id="link_C_0002255102640733176810_C_0000682389359091253573"><path codeLine="38" d="M398.518,385.326 C386.279,400.8325 373.955,416.4463 364.314,428.6622 " fill="none" id="C_0002255102640733176810-backto-C_0000682389359091253573" style="stroke:#181818;stroke-width:1.0;"/><polygon fill="none" points="393.24,380.7147,411.125,369.352,404.229,389.3884,393.24,380.7147" style="stroke:#181818;stroke-width:1.0;"/></g><!--link C_0000209283120725333794 to C_0002255102640733176810--><g id="link_C_0000209283120725333794_C_0002255102640733176810"><path codeLine="39" d="M300.758,212.082 C323.831,228.813 352.864,249.866 379.101,268.891 " fill="none" id="C_0000209283120725333794-to-C_0002255102640733176810" style="stroke:#181818;stroke-width:1.0;stroke-dasharray:7.0,7.0;"/><polygon fill="#181818" points="383.287,271.926,378.3471,263.4056,379.2385,268.9918,373.6523,269.8832,383.287,271.926" style="stroke:#181818;stroke-width:1.0;"/></g><!--reverse link C_0000857097331295285670 to C_0000209283120725333794--><g id="link_C_0000857097331295285670_C_0000209283120725333794"><path codeLine="40" d="M374.445,99.367 C350.473,115.745 324.64,133.396 303.4,147.908 " fill="none" id="C_0000857097331295285670-backto-C_0000209283120725333794" style="stroke:#181818;stroke-width:1.0;"/><polygon fill="none" points="370.607,93.512,391.069,88.008,378.505,105.071,370.607,93.512" style="stroke:#181818;stroke-width:1.0;"/></g><!--reverse link C_0002255102640733176810 to C_0001022260372930947319--><g id="link_C_0002255102640733176810_C_0001022260372930947319"><path codeLine="41" d="M448.894,389.733 C448.894,403.7604 448.894,417.6036 448.894,428.6622 " fill="none" id="C_0002255102640733176810-backto-C_0001022260372930947319" style="stroke:#181818;stroke-width:1.0;"/><polygon fill="none" points="441.894,389.3524,448.894,369.352,455.894,389.3523,441.894,389.3524" style="stroke:#181818;stroke-width:1.0;"/></g><!--link C_0000633512686750851859 to C_0002255102640733176810--><g id="link_C_0000633512686750851859_C_0002255102640733176810"><path codeLine="42" d="M597.805,212.082 C574.612,228.813 545.426,249.866 519.052,268.891 " fill="none" id="C_0000633512686750851859-to-C_0002255102640733176810" style="stroke:#181818;stroke-width:1.0;stroke-dasharray:7.0,7.0;"/><polygon fill="#181818" points="514.844,271.926,524.4833,269.9053,518.8992,269.0011,519.8034,263.4169,514.844,271.926" style="stroke:#181818;stroke-width:1.0;"/></g><!--reverse link C_0000857097331295285670 to C_0000633512686750851859--><g id="link_C_0000857097331295285670_C_0000633512686750851859"><path codeLine="43" d="M523.733,99.367 C547.83,115.745 573.799,133.396 595.149,147.908 " fill="none" id="C_0000857097331295285670-backto-C_0000633512686750851859" style="stroke:#181818;stroke-width:1.0;"/><polygon fill="none" points="519.627,105.04,507.021,88.008,527.497,93.462,519.627,105.04" style="stroke:#181818;stroke-width:1.0;"/></g><!--reverse link C_0002255102640733176810 to C_0000176870970706819094--><g id="link_C_0002255102640733176810_C_0000176870970706819094"><path codeLine="44" d="M499.27,385.326 C511.509,400.8325 523.832,416.4463 533.474,428.6622 " fill="none" id="C_0002255102640733176810-backto-C_0000176870970706819094" style="stroke:#181818;stroke-width:1.0;"/><polygon fill="none" points="493.559,389.3884,486.662,369.352,504.548,380.7147,493.559,389.3884" style="stroke:#181818;stroke-width:1.0;"/></g><!--link C_0001091568464015586913 to C_0002255102640733176810--><g id="link_C_0001091568464015586913_C_0002255102640733176810"><path codeLine="45" d="M894.853,212.082 C823.168,229.349 732.37,251.219 651.439,270.713 " fill="none" id="C_0001091568464015586913-to-C_0002255102640733176810" style="stroke:#181818;stroke-width:1.0;stroke-dasharray:7.0,7.0;"/><polygon fill="#181818" points="646.123,271.993,655.8096,273.7734,650.9839,270.8217,653.9355,265.996,646.123,271.993" style="stroke:#181818;stroke-width:1.0;"/></g><!--reverse link C_0000857097331295285670 to C_0001091568464015586913--><g id="link_C_0000857097331295285670_C_0001091568464015586913"><path codeLine="46" d="M642.565,92.455 C722.739,110.651 813.845,131.328 886.897,147.908 " fill="none" id="C_0000857097331295285670-backto-C_0001091568464015586913" style="stroke:#181818;stroke-width:1.0;"/><polygon fill="none" points="640.928,99.261,622.973,88.008,644.026,85.609,640.928,99.261" style="stroke:#181818;stroke-width:1.0;"/></g><!--SRC=[fLLDJzj04BtxLwpWG2A8sU-FY29LLEg5IgYWNj5clKdSEbxNNeCguBzt7Hh7QUmsWekbsJSxCs_cpTfakgh0qLsfywfmfJy2kW9Nzn12Z1b347CA1I58S8bWPDRUGp1uYauhwwzSvMziUUToEvfdJdkGsyVcS0ocuC6bINHgtAgelVrai_J1bhyQy8zhabPUvyQUWLVRw7BXcejhCpess-3juKkaPvKljV7WwDejGeJKL5iYK381LLCbLWnBnWNSNXZoQBWKcSut9VwhlDROrhQj-6cJwWKSBwnl6pqQWmy01hVA9zDfdQS_QtjV-FAYzRWCnCncFBNvqM749IPI4QQWGfWH9aXtD3rmeDC6- -fqqjSc31MMeGLGX3k424LtWkx38UZVb0wZSxjCYstYe2ACEIG2Am8L5GIfRk8UkClcrke-CfmGXZ2NNB0mNIIPsktG7lncCZT19RQJkTc5HarGX3cWC8BTDkx3NJOVqxA73GfpP5pIi6o8CSaL8hiTseFVp2QSpUUfkKrNTQQzApl48584Aq6f48mg9P7S8ROFhz-3rq1sDEwiw-3InV7byECp-EnSF4ycmuingDx_9-ihiPEiPs4EgB5FxeEYV7UDFNjmI1zxH3mejVVMsAVkwEIppMqPX9E0nzGlGL1QlfZKg-mCXEUuIbqEO4nY6frSNt_xqfwjtLeBiHZ60eoMtXVLzFny4IBLipZyVSwpxE7rCobAzzqQ7mSGo6IU62DcOZRdN1Ag1KUpH2QMKYOfj7CkBKsG7ly6]--></g></svg>