<?xml version="1.0" encoding="us-ascii" standalone="no"?><svg xmlns="http://www.w3.org/2000/svg" xmlns:xlink="http://www.w3.org/1999/xlink" contentStyleType="text/css" height="377px" preserveAspectRatio="none" style="width:2116px;height:377px;background:#FFFFFF;" version="1.1" viewBox="0 0 2116 377" width="2116px" zoomAndPan="magnify"><defs/><g><!--class C_0001305010940079038128--><g id="elem_C_0001305010940079038128"><rect codeLine="2" fill="#F1F1F1" height="64.2969" id="C_0001305010940079038128" rx="2.5" ry="2.5" style="stroke:#181818;stroke-width:0.5;" width="256" x="405.5" y="181"/><ellipse cx="491.25" cy="197" fill="#A9DCDF" rx="11" ry="11" style="stroke:#181818;stroke-width:1.0;"/><path d="M493.3281,198.8125 L493.7188,199.7969 L493.3281,199.7969 C492.875,199.7969 492.7656,199.8125 492.6094,199.9219 C492.3594,200.0781 492.2031,200.3594 492.2031,200.6563 C492.2031,200.9219 492.3438,201.1719 492.5625,201.3281 C492.7031,201.4531 492.9063,201.5 493.3281,201.5 L495.6875,201.5 C496.0469,201.5 496.2656,201.4688 496.4063,201.375 C496.6563,201.2344 496.8125,200.9375 496.8125,200.6563 C496.8125,200.375 496.6719,200.125 496.4531,199.9688 C496.2813,199.8281 496.125,199.7969 495.6563,199.7969 L492.2656,191.5938 L488.5938,191.5938 C488.1406,191.5938 488.0156,191.6094 487.8594,191.7031 C487.6094,191.875 487.4531,192.1563 487.4531,192.4375 C487.4531,192.7188 487.5938,192.9688 487.8125,193.1406 C487.9844,193.25 488.1563,193.2813 488.5938,193.2813 L489.6719,193.2813 L487.0313,199.7969 C486.6094,199.7969 486.4531,199.8125 486.2969,199.9219 C486.0469,200.0781 485.8906,200.3594 485.8906,200.6563 C485.8906,201.2188 486.2656,201.5 487.0156,201.5 L489.2813,201.5 C489.6406,201.5 489.8594,201.4688 489.9844,201.375 C490.25,201.2344 490.3906,200.9375 490.3906,200.6563 C490.3906,200.375 490.2656,200.125 490.0469,199.9531 C489.875,199.8281 489.7344,199.7969 489.2813,199.7969 L488.8906,199.7969 L489.2813,198.8125 L493.3281,198.8125 Z M492.625,197.1094 L489.9531,197.1094 L491.2969,193.8438 L492.625,197.1094 Z " fill="#000000"/><text fill="#000000" font-family="sans-serif" font-size="14" font-style="italic" lengthAdjust="spacing" textLength="76" x="511.75" y="201.8467">ButtonSize</text><line style="stroke:#181818;stroke-width:0.5;" x1="406.5" x2="660.5" y1="213" y2="213"/><line style="stroke:#181818;stroke-width:0.5;" x1="406.5" x2="660.5" y1="221" y2="221"/><ellipse cx="416.5" cy="234.6484" fill="#84BE84" rx="3" ry="3" style="stroke:#038048;stroke-width:1.0;"/><text fill="#000000" font-family="sans-serif" font-size="14" font-style="italic" lengthAdjust="spacing" textLength="230" x="425.5" y="237.9951">getString() const = 0 : std::string</text></g><!--class C_0000027675729826892586--><g id="elem_C_0000027675729826892586"><rect codeLine="6" fill="#F1F1F1" height="96.8906" id="C_0000027675729826892586" rx="2.5" ry="2.5" style="stroke:#181818;stroke-width:0.5;" width="321" x="1009" y="7"/><ellipse cx="1141.75" cy="23" fill="#A9DCDF" rx="11" ry="11" style="stroke:#181818;stroke-width:1.0;"/><path d="M1143.8281,24.8125 L1144.2188,25.7969 L1143.8281,25.7969 C1143.375,25.7969 1143.2656,25.8125 1143.1094,25.9219 C1142.8594,26.0781 1142.7031,26.3594 1142.7031,26.6563 C1142.7031,26.9219 1142.8438,27.1719 1143.0625,27.3281 C1143.2031,27.4531 1143.4063,27.5 1143.8281,27.5 L1146.1875,27.5 C1146.5469,27.5 1146.7656,27.4688 1146.9063,27.375 C1147.1563,27.2344 1147.3125,26.9375 1147.3125,26.6563 C1147.3125,26.375 1147.1719,26.125 1146.9531,25.9688 C1146.7813,25.8281 1146.625,25.7969 1146.1563,25.7969 L1142.7656,17.5938 L1139.0938,17.5938 C1138.6406,17.5938 1138.5156,17.6094 1138.3594,17.7031 C1138.1094,17.875 1137.9531,18.1563 1137.9531,18.4375 C1137.9531,18.7188 1138.0938,18.9688 1138.3125,19.1406 C1138.4844,19.25 1138.6563,19.2813 1139.0938,19.2813 L1140.1719,19.2813 L1137.5313,25.7969 C1137.1094,25.7969 1136.9531,25.8125 1136.7969,25.9219 C1136.5469,26.0781 1136.3906,26.3594 1136.3906,26.6563 C1136.3906,27.2188 1136.7656,27.5 1137.5156,27.5 L1139.7813,27.5 C1140.1406,27.5 1140.3594,27.4688 1140.4844,27.375 C1140.75,27.2344 1140.8906,26.9375 1140.8906,26.6563 C1140.8906,26.375 1140.7656,26.125 1140.5469,25.9531 C1140.375,25.8281 1140.2344,25.7969 1139.7813,25.7969 L1139.3906,25.7969 L1139.7813,24.8125 L1143.8281,24.8125 Z M1143.125,23.1094 L1140.4531,23.1094 L1141.7969,19.8438 L1143.125,23.1094 Z " fill="#000000"/><text fill="#000000" font-family="sans-serif" font-size="14" font-style="italic" lengthAdjust="spacing" textLength="47" x="1162.25" y="27.8467">Button</text><line style="stroke:#181818;stroke-width:0.5;" x1="1010" x2="1329" y1="39" y2="39"/><polygon fill="none" points="1020,47.6484,1024,51.6484,1020,55.6484,1016,51.6484" style="stroke:#B38D22;stroke-width:1.0;"/><text fill="#000000" font-family="sans-serif" font-size="14" lengthAdjust="spacing" textLength="184" x="1029" y="55.9951">buttonSize : ButtonSize *</text><line style="stroke:#181818;stroke-width:0.5;" x1="1010" x2="1329" y1="63.2969" y2="63.2969"/><ellipse cx="1020" cy="76.9453" fill="#84BE84" rx="3" ry="3" style="stroke:#038048;stroke-width:1.0;"/><text fill="#000000" font-family="sans-serif" font-size="14" font-style="italic" lengthAdjust="spacing" textLength="295" x="1029" y="80.292">draw(Canvas * canvasPtr) const = 0 : void</text><ellipse cx="1020" cy="93.2422" fill="#84BE84" rx="3" ry="3" style="stroke:#038048;stroke-width:1.0;"/><text fill="#000000" font-family="sans-serif" font-size="14" lengthAdjust="spacing" textLength="229" x="1029" y="96.5889">setSize(ButtonSize * size) : void</text></g><!--class C_0001639220266335640521--><g id="elem_C_0001639220266335640521"><rect codeLine="12" fill="#F1F1F1" height="64.2969" id="C_0001639220266335640521" rx="2.5" ry="2.5" style="stroke:#181818;stroke-width:0.5;" width="292" x="696.5" y="181"/><ellipse cx="777.25" cy="197" fill="#ADD1B2" rx="11" ry="11" style="stroke:#181818;stroke-width:1.0;"/><path d="M779.5938,192.6719 C778.6563,192.2344 778.0625,192.0938 777.1875,192.0938 C774.5625,192.0938 772.5625,194.1719 772.5625,196.8906 L772.5625,198.0156 C772.5625,200.5938 774.6719,202.4844 777.5625,202.4844 C778.7813,202.4844 779.9375,202.1875 780.6875,201.6406 C781.2656,201.2344 781.5938,200.7813 781.5938,200.3906 C781.5938,199.9375 781.2031,199.5469 780.7344,199.5469 C780.5156,199.5469 780.3125,199.625 780.125,199.8125 C779.6719,200.2969 779.6719,200.2969 779.4844,200.3906 C779.0625,200.6563 778.375,200.7813 777.6094,200.7813 C775.5625,200.7813 774.2656,199.6875 774.2656,197.9844 L774.2656,196.8906 C774.2656,195.1094 775.5156,193.7969 777.25,193.7969 C777.8281,193.7969 778.4375,193.9531 778.9063,194.2031 C779.3906,194.4844 779.5625,194.7031 779.6563,195.1094 C779.7188,195.5156 779.75,195.6406 779.8906,195.7656 C780.0313,195.9063 780.2656,196.0156 780.4844,196.0156 C780.75,196.0156 781.0156,195.875 781.1875,195.6563 C781.2969,195.5 781.3281,195.3125 781.3281,194.8906 L781.3281,193.4688 C781.3281,193.0313 781.3125,192.9063 781.2188,192.75 C781.0625,192.4844 780.7813,192.3438 780.4844,192.3438 C780.1875,192.3438 779.9844,192.4375 779.7656,192.75 L779.5938,192.6719 Z " fill="#000000"/><text fill="#000000" font-family="sans-serif" font-size="14" lengthAdjust="spacing" textLength="122" x="797.75" y="201.8467">CheckboxButton</text><line style="stroke:#181818;stroke-width:0.5;" x1="697.5" x2="987.5" y1="213" y2="213"/><line style="stroke:#181818;stroke-width:0.5;" x1="697.5" x2="987.5" y1="221" y2="221"/><ellipse cx="707.5" cy="234.6484" fill="#84BE84" rx="3" ry="3" style="stroke:#038048;stroke-width:1.0;"/><text fill="#000000" font-family="sans-serif" font-size="14" lengthAdjust="spacing" textLength="266" x="716.5" y="237.9951">draw(Canvas * canvasPtr) const : void</text></g><!--class C_0001435921923766874689--><g id="elem_C_0001435921923766874689"><rect codeLine="16" fill="#F1F1F1" height="64.2969" id="C_0001435921923766874689" rx="2.5" ry="2.5" style="stroke:#181818;stroke-width:0.5;" width="292" x="1023.5" y="181"/><ellipse cx="1103.25" cy="197" fill="#ADD1B2" rx="11" ry="11" style="stroke:#181818;stroke-width:1.0;"/><path d="M1105.5938,192.6719 C1104.6563,192.2344 1104.0625,192.0938 1103.1875,192.0938 C1100.5625,192.0938 1098.5625,194.1719 1098.5625,196.8906 L1098.5625,198.0156 C1098.5625,200.5938 1100.6719,202.4844 1103.5625,202.4844 C1104.7813,202.4844 1105.9375,202.1875 1106.6875,201.6406 C1107.2656,201.2344 1107.5938,200.7813 1107.5938,200.3906 C1107.5938,199.9375 1107.2031,199.5469 1106.7344,199.5469 C1106.5156,199.5469 1106.3125,199.625 1106.125,199.8125 C1105.6719,200.2969 1105.6719,200.2969 1105.4844,200.3906 C1105.0625,200.6563 1104.375,200.7813 1103.6094,200.7813 C1101.5625,200.7813 1100.2656,199.6875 1100.2656,197.9844 L1100.2656,196.8906 C1100.2656,195.1094 1101.5156,193.7969 1103.25,193.7969 C1103.8281,193.7969 1104.4375,193.9531 1104.9063,194.2031 C1105.3906,194.4844 1105.5625,194.7031 1105.6563,195.1094 C1105.7188,195.5156 1105.75,195.6406 1105.8906,195.7656 C1106.0313,195.9063 1106.2656,196.0156 1106.4844,196.0156 C1106.75,196.0156 1107.0156,195.875 1107.1875,195.6563 C1107.2969,195.5 1107.3281,195.3125 1107.3281,194.8906 L1107.3281,193.4688 C1107.3281,193.0313 1107.3125,192.9063 1107.2188,192.75 C1107.0625,192.4844 1106.7813,192.3438 1106.4844,192.3438 C1106.1875,192.3438 1105.9844,192.4375 1105.7656,192.75 L1105.5938,192.6719 Z " fill="#000000"/><text fill="#000000" font-family="sans-serif" font-size="14" lengthAdjust="spacing" textLength="124" x="1123.75" y="201.8467">DropdownButton</text><line style="stroke:#181818;stroke-width:0.5;" x1="1024.5" x2="1314.5" y1="213" y2="213"/><line style="stroke:#181818;stroke-width:0.5;" x1="1024.5" x2="1314.5" y1="221" y2="221"/><ellipse cx="1034.5" cy="234.6484" fill="#84BE84" rx="3" ry="3" style="stroke:#038048;stroke-width:1.0;"/><text fill="#000000" font-family="sans-serif" font-size="14" lengthAdjust="spacing" textLength="266" x="1043.5" y="237.9951">draw(Canvas * canvasPtr) const : void</text></g><!--class C_0002146871902483591308--><g id="elem_C_0002146871902483591308"><rect codeLine="20" fill="#F1F1F1" height="64.2969" id="C_0002146871902483591308" rx="2.5" ry="2.5" style="stroke:#181818;stroke-width:0.5;" width="292" x="1350.5" y="181"/><ellipse cx="1445.25" cy="197" fill="#ADD1B2" rx="11" ry="11" style="stroke:#181818;stroke-width:1.0;"/><path d="M1447.5938,192.6719 C1446.6563,192.2344 1446.0625,192.0938 1445.1875,192.0938 C1442.5625,192.0938 1440.5625,194.1719 1440.5625,196.8906 L1440.5625,198.0156 C1440.5625,200.5938 1442.6719,202.4844 1445.5625,202.4844 C1446.7813,202.4844 1447.9375,202.1875 1448.6875,201.6406 C1449.2656,201.2344 1449.5938,200.7813 1449.5938,200.3906 C1449.5938,199.9375 1449.2031,199.5469 1448.7344,199.5469 C1448.5156,199.5469 1448.3125,199.625 1448.125,199.8125 C1447.6719,200.2969 1447.6719,200.2969 1447.4844,200.3906 C1447.0625,200.6563 1446.375,200.7813 1445.6094,200.7813 C1443.5625,200.7813 1442.2656,199.6875 1442.2656,197.9844 L1442.2656,196.8906 C1442.2656,195.1094 1443.5156,193.7969 1445.25,193.7969 C1445.8281,193.7969 1446.4375,193.9531 1446.9063,194.2031 C1447.3906,194.4844 1447.5625,194.7031 1447.6563,195.1094 C1447.7188,195.5156 1447.75,195.6406 1447.8906,195.7656 C1448.0313,195.9063 1448.2656,196.0156 1448.4844,196.0156 C1448.75,196.0156 1449.0156,195.875 1449.1875,195.6563 C1449.2969,195.5 1449.3281,195.3125 1449.3281,194.8906 L1449.3281,193.4688 C1449.3281,193.0313 1449.3125,192.9063 1449.2188,192.75 C1449.0625,192.4844 1448.7813,192.3438 1448.4844,192.3438 C1448.1875,192.3438 1447.9844,192.4375 1447.7656,192.75 L1447.5938,192.6719 Z " fill="#000000"/><text fill="#000000" font-family="sans-serif" font-size="14" lengthAdjust="spacing" textLength="94" x="1465.75" y="201.8467">ImageButton</text><line style="stroke:#181818;stroke-width:0.5;" x1="1351.5" x2="1641.5" y1="213" y2="213"/><line style="stroke:#181818;stroke-width:0.5;" x1="1351.5" x2="1641.5" y1="221" y2="221"/><ellipse cx="1361.5" cy="234.6484" fill="#84BE84" rx="3" ry="3" style="stroke:#038048;stroke-width:1.0;"/><text fill="#000000" font-family="sans-serif" font-size="14" lengthAdjust="spacing" textLength="266" x="1370.5" y="237.9951">draw(Canvas * canvasPtr) const : void</text></g><!--class C_0001752007702003154302--><g id="elem_C_0001752007702003154302"><rect codeLine="24" fill="#F1F1F1" height="64.2969" id="C_0001752007702003154302" rx="2.5" ry="2.5" style="stroke:#181818;stroke-width:0.5;" width="292" x="1677.5" y="181"/><ellipse cx="1774.25" cy="197" fill="#ADD1B2" rx="11" ry="11" style="stroke:#181818;stroke-width:1.0;"/><path d="M1776.5938,192.6719 C1775.6563,192.2344 1775.0625,192.0938 1774.1875,192.0938 C1771.5625,192.0938 1769.5625,194.1719 1769.5625,196.8906 L1769.5625,198.0156 C1769.5625,200.5938 1771.6719,202.4844 1774.5625,202.4844 C1775.7813,202.4844 1776.9375,202.1875 1777.6875,201.6406 C1778.2656,201.2344 1778.5938,200.7813 1778.5938,200.3906 C1778.5938,199.9375 1778.2031,199.5469 1777.7344,199.5469 C1777.5156,199.5469 1777.3125,199.625 1777.125,199.8125 C1776.6719,200.2969 1776.6719,200.2969 1776.4844,200.3906 C1776.0625,200.6563 1775.375,200.7813 1774.6094,200.7813 C1772.5625,200.7813 1771.2656,199.6875 1771.2656,197.9844 L1771.2656,196.8906 C1771.2656,195.1094 1772.5156,193.7969 1774.25,193.7969 C1774.8281,193.7969 1775.4375,193.9531 1775.9063,194.2031 C1776.3906,194.4844 1776.5625,194.7031 1776.6563,195.1094 C1776.7188,195.5156 1776.75,195.6406 1776.8906,195.7656 C1777.0313,195.9063 1777.2656,196.0156 1777.4844,196.0156 C1777.75,196.0156 1778.0156,195.875 1778.1875,195.6563 C1778.2969,195.5 1778.3281,195.3125 1778.3281,194.8906 L1778.3281,193.4688 C1778.3281,193.0313 1778.3125,192.9063 1778.2188,192.75 C1778.0625,192.4844 1777.7813,192.3438 1777.4844,192.3438 C1777.1875,192.3438 1776.9844,192.4375 1776.7656,192.75 L1776.5938,192.6719 Z " fill="#000000"/><text fill="#000000" font-family="sans-serif" font-size="14" lengthAdjust="spacing" textLength="90" x="1794.75" y="201.8467">RadioButton</text><line style="stroke:#181818;stroke-width:0.5;" x1="1678.5" x2="1968.5" y1="213" y2="213"/><line style="stroke:#181818;stroke-width:0.5;" x1="1678.5" x2="1968.5" y1="221" y2="221"/><ellipse cx="1688.5" cy="234.6484" fill="#84BE84" rx="3" ry="3" style="stroke:#038048;stroke-width:1.0;"/><text fill="#000000" font-family="sans-serif" font-size="14" lengthAdjust="spacing" textLength="266" x="1697.5" y="237.9951">draw(Canvas * canvasPtr) const : void</text></g><!--class C_0001757066655047634755--><g id="elem_C_0001757066655047634755"><rect codeLine="28" fill="#F1F1F1" height="64.2969" id="C_0001757066655047634755" rx="2.5" ry="2.5" style="stroke:#181818;stroke-width:0.5;" width="237" x="7" y="306"/><ellipse cx="61.75" cy="322" fill="#ADD1B2" rx="11" ry="11" style="stroke:#181818;stroke-width:1.0;"/><path d="M64.0938,317.6719 C63.1563,317.2344 62.5625,317.0938 61.6875,317.0938 C59.0625,317.0938 57.0625,319.1719 57.0625,321.8906 L57.0625,323.0156 C57.0625,325.5938 59.1719,327.4844 62.0625,327.4844 C63.2813,327.4844 64.4375,327.1875 65.1875,326.6406 C65.7656,326.2344 66.0938,325.7813 66.0938,325.3906 C66.0938,324.9375 65.7031,324.5469 65.2344,324.5469 C65.0156,324.5469 64.8125,324.625 64.625,324.8125 C64.1719,325.2969 64.1719,325.2969 63.9844,325.3906 C63.5625,325.6563 62.875,325.7813 62.1094,325.7813 C60.0625,325.7813 58.7656,324.6875 58.7656,322.9844 L58.7656,321.8906 C58.7656,320.1094 60.0156,318.7969 61.75,318.7969 C62.3281,318.7969 62.9375,318.9531 63.4063,319.2031 C63.8906,319.4844 64.0625,319.7031 64.1563,320.1094 C64.2188,320.5156 64.25,320.6406 64.3906,320.7656 C64.5313,320.9063 64.7656,321.0156 64.9844,321.0156 C65.25,321.0156 65.5156,320.875 65.6875,320.6563 C65.7969,320.5 65.8281,320.3125 65.8281,319.8906 L65.8281,318.4688 C65.8281,318.0313 65.8125,317.9063 65.7188,317.75 C65.5625,317.4844 65.2813,317.3438 64.9844,317.3438 C64.6875,317.3438 64.4844,317.4375 64.2656,317.75 L64.0938,317.6719 Z " fill="#000000"/><text fill="#000000" font-family="sans-serif" font-size="14" lengthAdjust="spacing" textLength="119" x="82.25" y="326.8467">SmallButtonSize</text><line style="stroke:#181818;stroke-width:0.5;" x1="8" x2="243" y1="338" y2="338"/><line style="stroke:#181818;stroke-width:0.5;" x1="8" x2="243" y1="346" y2="346"/><ellipse cx="18" cy="359.6484" fill="#84BE84" rx="3" ry="3" style="stroke:#038048;stroke-width:1.0;"/><text fill="#000000" font-family="sans-serif" font-size="14" lengthAdjust="spacing" textLength="211" x="27" y="362.9951">getString() const : std::string</text></g><!--class C_0001571449664567929418--><g id="elem_C_0001571449664567929418"><rect codeLine="32" fill="#F1F1F1" height="64.2969" id="C_0001571449664567929418" rx="2.5" ry="2.5" style="stroke:#181818;stroke-width:0.5;" width="237" x="279" y="306"/><ellipse cx="325.25" cy="322" fill="#ADD1B2" rx="11" ry="11" style="stroke:#181818;stroke-width:1.0;"/><path d="M327.5938,317.6719 C326.6563,317.2344 326.0625,317.0938 325.1875,317.0938 C322.5625,317.0938 320.5625,319.1719 320.5625,321.8906 L320.5625,323.0156 C320.5625,325.5938 322.6719,327.4844 325.5625,327.4844 C326.7813,327.4844 327.9375,327.1875 328.6875,326.6406 C329.2656,326.2344 329.5938,325.7813 329.5938,325.3906 C329.5938,324.9375 329.2031,324.5469 328.7344,324.5469 C328.5156,324.5469 328.3125,324.625 328.125,324.8125 C327.6719,325.2969 327.6719,325.2969 327.4844,325.3906 C327.0625,325.6563 326.375,325.7813 325.6094,325.7813 C323.5625,325.7813 322.2656,324.6875 322.2656,322.9844 L322.2656,321.8906 C322.2656,320.1094 323.5156,318.7969 325.25,318.7969 C325.8281,318.7969 326.4375,318.9531 326.9063,319.2031 C327.3906,319.4844 327.5625,319.7031 327.6563,320.1094 C327.7188,320.5156 327.75,320.6406 327.8906,320.7656 C328.0313,320.9063 328.2656,321.0156 328.4844,321.0156 C328.75,321.0156 329.0156,320.875 329.1875,320.6563 C329.2969,320.5 329.3281,320.3125 329.3281,319.8906 L329.3281,318.4688 C329.3281,318.0313 329.3125,317.9063 329.2188,317.75 C329.0625,317.4844 328.7813,317.3438 328.4844,317.3438 C328.1875,317.3438 327.9844,317.4375 327.7656,317.75 L327.5938,317.6719 Z " fill="#000000"/><text fill="#000000" font-family="sans-serif" font-size="14" lengthAdjust="spacing" textLength="136" x="345.75" y="326.8467">MediumButtonSize</text><line style="stroke:#181818;stroke-width:0.5;" x1="280" x2="515" y1="338" y2="338"/><line style="stroke:#181818;stroke-width:0.5;" x1="280" x2="515" y1="346" y2="346"/><ellipse cx="290" cy="359.6484" fill="#84BE84" rx="3" ry="3" style="stroke:#038048;stroke-width:1.0;"/><text fill="#000000" font-family="sans-serif" font-size="14" lengthAdjust="spacing" textLength="211" x="299" y="362.9951">getString() const : std::string</text></g><!--class C_0000383115058158751564--><g id="elem_C_0000383115058158751564"><rect codeLine="36" fill="#F1F1F1" height="64.2969" id="C_0000383115058158751564" rx="2.5" ry="2.5" style="stroke:#181818;stroke-width:0.5;" width="237" x="551" y="306"/><ellipse cx="605.25" cy="322" fill="#ADD1B2" rx="11" ry="11" style="stroke:#181818;stroke-width:1.0;"/><path d="M607.5938,317.6719 C606.6563,317.2344 606.0625,317.0938 605.1875,317.0938 C602.5625,317.0938 600.5625,319.1719 600.5625,321.8906 L600.5625,323.0156 C600.5625,325.5938 602.6719,327.4844 605.5625,327.4844 C606.7813,327.4844 607.9375,327.1875 608.6875,326.6406 C609.2656,326.2344 609.5938,325.7813 609.5938,325.3906 C609.5938,324.9375 609.2031,324.5469 608.7344,324.5469 C608.5156,324.5469 608.3125,324.625 608.125,324.8125 C607.6719,325.2969 607.6719,325.2969 607.4844,325.3906 C607.0625,325.6563 606.375,325.7813 605.6094,325.7813 C603.5625,325.7813 602.2656,324.6875 602.2656,322.9844 L602.2656,321.8906 C602.2656,320.1094 603.5156,318.7969 605.25,318.7969 C605.8281,318.7969 606.4375,318.9531 606.9063,319.2031 C607.3906,319.4844 607.5625,319.7031 607.6563,320.1094 C607.7188,320.5156 607.75,320.6406 607.8906,320.7656 C608.0313,320.9063 608.2656,321.0156 608.4844,321.0156 C608.75,321.0156 609.0156,320.875 609.1875,320.6563 C609.2969,320.5 609.3281,320.3125 609.3281,319.8906 L609.3281,318.4688 C609.3281,318.0313 609.3125,317.9063 609.2188,317.75 C609.0625,317.4844 608.7813,317.3438 608.4844,317.3438 C608.1875,317.3438 607.9844,317.4375 607.7656,317.75 L607.5938,317.6719 Z " fill="#000000"/><text fill="#000000" font-family="sans-serif" font-size="14" lengthAdjust="spacing" textLength="120" x="625.75" y="326.8467">LargeButtonSize</text><line style="stroke:#181818;stroke-width:0.5;" x1="552" x2="787" y1="338" y2="338"/><line style="stroke:#181818;stroke-width:0.5;" x1="552" x2="787" y1="346" y2="346"/><ellipse cx="562" cy="359.6484" fill="#84BE84" rx="3" ry="3" style="stroke:#038048;stroke-width:1.0;"/><text fill="#000000" font-family="sans-serif" font-size="14" lengthAdjust="spacing" textLength="211" x="571" y="362.9951">getString() const : std::string</text></g><!--class C_0002050029126032468901--><g id="elem_C_0002050029126032468901"><rect codeLine="40" fill="#F1F1F1" height="64.2969" id="C_0002050029126032468901" rx="2.5" ry="2.5" style="stroke:#181818;stroke-width:0.5;" width="237" x="823" y="306"/><ellipse cx="869.75" cy="322" fill="#ADD1B2" rx="11" ry="11" style="stroke:#181818;stroke-width:1.0;"/><path d="M872.0938,317.6719 C871.1563,317.2344 870.5625,317.0938 869.6875,317.0938 C867.0625,317.0938 865.0625,319.1719 865.0625,321.8906 L865.0625,323.0156 C865.0625,325.5938 867.1719,327.4844 870.0625,327.4844 C871.2813,327.4844 872.4375,327.1875 873.1875,326.6406 C873.7656,326.2344 874.0938,325.7813 874.0938,325.3906 C874.0938,324.9375 873.7031,324.5469 873.2344,324.5469 C873.0156,324.5469 872.8125,324.625 872.625,324.8125 C872.1719,325.2969 872.1719,325.2969 871.9844,325.3906 C871.5625,325.6563 870.875,325.7813 870.1094,325.7813 C868.0625,325.7813 866.7656,324.6875 866.7656,322.9844 L866.7656,321.8906 C866.7656,320.1094 868.0156,318.7969 869.75,318.7969 C870.3281,318.7969 870.9375,318.9531 871.4063,319.2031 C871.8906,319.4844 872.0625,319.7031 872.1563,320.1094 C872.2188,320.5156 872.25,320.6406 872.3906,320.7656 C872.5313,320.9063 872.7656,321.0156 872.9844,321.0156 C873.25,321.0156 873.5156,320.875 873.6875,320.6563 C873.7969,320.5 873.8281,320.3125 873.8281,319.8906 L873.8281,318.4688 C873.8281,318.0313 873.8125,317.9063 873.7188,317.75 C873.5625,317.4844 873.2813,317.3438 872.9844,317.3438 C872.6875,317.3438 872.4844,317.4375 872.2656,317.75 L872.0938,317.6719 Z " fill="#000000"/><text fill="#000000" font-family="sans-serif" font-size="14" lengthAdjust="spacing" textLength="135" x="890.25" y="326.8467">CustomButtonSize</text><line style="stroke:#181818;stroke-width:0.5;" x1="824" x2="1059" y1="338" y2="338"/><line style="stroke:#181818;stroke-width:0.5;" x1="824" x2="1059" y1="346" y2="346"/><ellipse cx="834" cy="359.6484" fill="#84BE84" rx="3" ry="3" style="stroke:#038048;stroke-width:1.0;"/><text fill="#000000" font-family="sans-serif" font-size="14" lengthAdjust="spacing" textLength="211" x="843" y="362.9951">getString() const : std::string</text></g><!--class C_0001441085325082240382--><g id="elem_C_0001441085325082240382"><rect codeLine="44" fill="#F1F1F1" height="64.2969" id="C_0001441085325082240382" rx="2.5" ry="2.5" style="stroke:#181818;stroke-width:0.5;" width="102" x="1445.5" y="306"/><ellipse cx="1469.5" cy="322" fill="#ADD1B2" rx="11" ry="11" style="stroke:#181818;stroke-width:1.0;"/><path d="M1471.8438,317.6719 C1470.9063,317.2344 1470.3125,317.0938 1469.4375,317.0938 C1466.8125,317.0938 1464.8125,319.1719 1464.8125,321.8906 L1464.8125,323.0156 C1464.8125,325.5938 1466.9219,327.4844 1469.8125,327.4844 C1471.0313,327.4844 1472.1875,327.1875 1472.9375,326.6406 C1473.5156,326.2344 1473.8438,325.7813 1473.8438,325.3906 C1473.8438,324.9375 1473.4531,324.5469 1472.9844,324.5469 C1472.7656,324.5469 1472.5625,324.625 1472.375,324.8125 C1471.9219,325.2969 1471.9219,325.2969 1471.7344,325.3906 C1471.3125,325.6563 1470.625,325.7813 1469.8594,325.7813 C1467.8125,325.7813 1466.5156,324.6875 1466.5156,322.9844 L1466.5156,321.8906 C1466.5156,320.1094 1467.7656,318.7969 1469.5,318.7969 C1470.0781,318.7969 1470.6875,318.9531 1471.1563,319.2031 C1471.6406,319.4844 1471.8125,319.7031 1471.9063,320.1094 C1471.9688,320.5156 1472,320.6406 1472.1406,320.7656 C1472.2813,320.9063 1472.5156,321.0156 1472.7344,321.0156 C1473,321.0156 1473.2656,320.875 1473.4375,320.6563 C1473.5469,320.5 1473.5781,320.3125 1473.5781,319.8906 L1473.5781,318.4688 C1473.5781,318.0313 1473.5625,317.9063 1473.4688,317.75 C1473.3125,317.4844 1473.0313,317.3438 1472.7344,317.3438 C1472.4375,317.3438 1472.2344,317.4375 1472.0156,317.75 L1471.8438,317.6719 Z " fill="#000000"/><text fill="#000000" font-family="sans-serif" font-size="14" lengthAdjust="spacing" textLength="50" x="1485.5" y="326.8467">Canvas</text><line style="stroke:#181818;stroke-width:0.5;" x1="1446.5" x2="1546.5" y1="338" y2="338"/><line style="stroke:#181818;stroke-width:0.5;" x1="1446.5" x2="1546.5" y1="346" y2="346"/><ellipse cx="1456.5" cy="359.6484" fill="#84BE84" rx="3" ry="3" style="stroke:#038048;stroke-width:1.0;"/><text fill="#000000" font-family="sans-serif" font-size="14" lengthAdjust="spacing" textLength="76" x="1465.5" y="362.9951">run() : void</text></g><!--link C_0000027675729826892586 to C_0001441085325082240382--><g id="link_C_0000027675729826892586_C_0001441085325082240382"><path codeLine="47" d="M1330.09,57.175 C1543.8,61.879 1904.47,84.375 1987.5,181 C2109.2,322.6255 1705.85,337.0054 1552.89,337.4912 " fill="none" id="C_0000027675729826892586-to-C_0001441085325082240382" style="stroke:#181818;stroke-width:1.0;stroke-dasharray:7.0,7.0;"/><polygon fill="#181818" points="1547.55,337.5028,1556.5614,341.4771,1552.55,337.4885,1556.5385,333.4771,1547.55,337.5028" style="stroke:#181818;stroke-width:1.0;"/></g><!--link C_0000027675729826892586 to C_0001305010940079038128--><g id="link_C_0000027675729826892586_C_0001305010940079038128"><path codeLine="48" d="M1008.93,70.823 C915.341,82.074 795.943,101.467 693.5,134 C658.553,145.098 621.63,162.665 592.07,178.319 " fill="none" id="C_0000027675729826892586-to-C_0001305010940079038128" style="stroke:#181818;stroke-width:1.0;stroke-dasharray:7.0,7.0;"/><polygon fill="#181818" points="587.39,180.814,597.2136,180.1093,591.802,178.4616,593.4497,173.05,587.39,180.814" style="stroke:#181818;stroke-width:1.0;"/></g><!--link C_0000027675729826892586 to C_0001305010940079038128--><g id="link_C_0000027675729826892586_C_0001305010940079038128"><path codeLine="49" d="M1008.6,95.84 C902.475,121.787 765.176,155.356 665.487,179.73 " fill="none" id="C_0000027675729826892586-to-C_0001305010940079038128-1" style="stroke:#181818;stroke-width:1.0;"/><polygon fill="#181818" points="660.471,180.956,670.164,182.7015,665.3276,179.7672,668.2619,174.9309,660.471,180.956" style="stroke:#181818;stroke-width:1.0;"/><polygon fill="none" points="857.5,138.0664,861.5,142.0664,857.5,146.0664,853.5,142.0664" style="stroke:#B38D22;stroke-width:1.0;"/><text fill="#000000" font-family="sans-serif" font-size="13" lengthAdjust="spacing" textLength="68" x="864.5" y="147.0669">buttonSize</text></g><!--link C_0001639220266335640521 to C_0001441085325082240382--><g id="link_C_0001639220266335640521_C_0001441085325082240382"><path codeLine="50" d="M988.674,241.82 C994.356,242.895 999.98,243.958 1005.5,245 C1162.95,274.7235 1348.88,309.4629 1440.17,326.4964 " fill="none" id="C_0001639220266335640521-to-C_0001441085325082240382" style="stroke:#181818;stroke-width:1.0;stroke-dasharray:7.0,7.0;"/><polygon fill="#181818" points="1445.24,327.4433,1437.1233,321.8649,1440.3243,326.5289,1435.6603,329.7299,1445.24,327.4433" style="stroke:#181818;stroke-width:1.0;"/></g><!--reverse link C_0000027675729826892586 to C_0001639220266335640521--><g id="link_C_0000027675729826892586_C_0001639220266335640521"><path codeLine="51" d="M1051.38,112.671 C1002.965,135.693 948.786,161.457 907.74,180.976 " fill="none" id="C_0000027675729826892586-backto-C_0001639220266335640521" style="stroke:#181818;stroke-width:1.0;"/><polygon fill="none" points="1048.54,106.268,1069.61,104,1054.56,118.911,1048.54,106.268" style="stroke:#181818;stroke-width:1.0;"/></g><!--link C_0001435921923766874689 to C_0001441085325082240382--><g id="link_C_0001435921923766874689_C_0001441085325082240382"><path codeLine="52" d="M1252.02,245.038 C1310.85,267.169 1388.41,296.3405 1440.24,315.8365 " fill="none" id="C_0001435921923766874689-to-C_0001441085325082240382" style="stroke:#181818;stroke-width:1.0;stroke-dasharray:7.0,7.0;"/><polygon fill="#181818" points="1445.17,317.6925,1438.1689,310.7654,1440.4938,315.9225,1435.3368,318.2474,1445.17,317.6925" style="stroke:#181818;stroke-width:1.0;"/></g><!--reverse link C_0000027675729826892586 to C_0001435921923766874689--><g id="link_C_0000027675729826892586_C_0001435921923766874689"><path codeLine="53" d="M1169.5,124.108 C1169.5,143.926 1169.5,164.639 1169.5,180.976 " fill="none" id="C_0000027675729826892586-backto-C_0001435921923766874689" style="stroke:#181818;stroke-width:1.0;"/><polygon fill="none" points="1162.5,124,1169.5,104,1176.5,124,1162.5,124" style="stroke:#181818;stroke-width:1.0;"/></g><!--link C_0002146871902483591308 to C_0001441085325082240382--><g id="link_C_0002146871902483591308_C_0001441085325082240382"><path codeLine="54" d="M1496.5,245.038 C1496.5,261.936 1496.5,282.9385 1496.5,300.6046 " fill="none" id="C_0002146871902483591308-to-C_0001441085325082240382" style="stroke:#181818;stroke-width:1.0;stroke-dasharray:7.0,7.0;"/><polygon fill="#181818" points="1496.5,305.9718,1500.5,296.9718,1496.5,300.9718,1492.5,296.9718,1496.5,305.9718" style="stroke:#181818;stroke-width:1.0;"/></g><!--reverse link C_0000027675729826892586 to C_0002146871902483591308--><g id="link_C_0000027675729826892586_C_0002146871902483591308"><path codeLine="55" d="M1287.62,112.671 C1336.04,135.693 1390.21,161.457 1431.26,180.976 " fill="none" id="C_0000027675729826892586-backto-C_0002146871902483591308" style="stroke:#181818;stroke-width:1.0;"/><polygon fill="none" points="1284.44,118.911,1269.39,104,1290.46,106.268,1284.44,118.911" style="stroke:#181818;stroke-width:1.0;"/></g><!--link C_0001752007702003154302 to C_0001441085325082240382--><g id="link_C_0001752007702003154302_C_0001441085325082240382"><path codeLine="56" d="M1740.98,245.038 C1682.15,267.169 1604.59,296.3405 1552.76,315.8365 " fill="none" id="C_0001752007702003154302-to-C_0001441085325082240382" style="stroke:#181818;stroke-width:1.0;stroke-dasharray:7.0,7.0;"/><polygon fill="#181818" points="1547.83,317.6925,1557.6632,318.2474,1552.5062,315.9225,1554.8311,310.7654,1547.83,317.6925" style="stroke:#181818;stroke-width:1.0;"/></g><!--reverse link C_0000027675729826892586 to C_0001752007702003154302--><g id="link_C_0000027675729826892586_C_0001752007702003154302"><path codeLine="57" d="M1349.94,99.404 C1458.66,125.254 1594.63,157.582 1692.95,180.96 " fill="none" id="C_0000027675729826892586-backto-C_0001752007702003154302" style="stroke:#181818;stroke-width:1.0;"/><polygon fill="none" points="1348.16,106.175,1330.32,94.739,1351.4,92.555,1348.16,106.175" style="stroke:#181818;stroke-width:1.0;"/></g><!--reverse link C_0001305010940079038128 to C_0001757066655047634755--><g id="link_C_0001305010940079038128_C_0001757066655047634755"><path codeLine="58" d="M411.221,250.863 C352.935,268.435 283.986,289.2213 228.423,305.9718 " fill="none" id="C_0001305010940079038128-backto-C_0001757066655047634755" style="stroke:#181818;stroke-width:1.0;"/><polygon fill="none" points="409.375,244.109,430.544,245.038,413.416,257.513,409.375,244.109" style="stroke:#181818;stroke-width:1.0;"/></g><!--reverse link C_0001305010940079038128 to C_0001571449664567929418--><g id="link_C_0001305010940079038128_C_0001571449664567929418"><path codeLine="59" d="M484.182,258.604 C466.808,274.3167 447.671,291.6246 431.808,305.9718 " fill="none" id="C_0001305010940079038128-backto-C_0001571449664567929418" style="stroke:#181818;stroke-width:1.0;"/><polygon fill="none" points="479.653,253.262,499.181,245.038,489.044,263.645,479.653,253.262" style="stroke:#181818;stroke-width:1.0;"/></g><!--reverse link C_0001305010940079038128 to C_0000383115058158751564--><g id="link_C_0001305010940079038128_C_0000383115058158751564"><path codeLine="60" d="M582.818,258.604 C600.192,274.3167 619.329,291.6246 635.192,305.9718 " fill="none" id="C_0001305010940079038128-backto-C_0000383115058158751564" style="stroke:#181818;stroke-width:1.0;"/><polygon fill="none" points="577.956,263.645,567.819,245.038,587.347,253.262,577.956,263.645" style="stroke:#181818;stroke-width:1.0;"/></g><!--reverse link C_0001305010940079038128 to C_0002050029126032468901--><g id="link_C_0001305010940079038128_C_0002050029126032468901"><path codeLine="61" d="M655.779,250.863 C714.065,268.435 783.014,289.2213 838.577,305.9718 " fill="none" id="C_0001305010940079038128-backto-C_0002050029126032468901" style="stroke:#181818;stroke-width:1.0;"/><polygon fill="none" points="653.584,257.513,636.456,245.038,657.625,244.109,653.584,257.513" style="stroke:#181818;stroke-width:1.0;"/></g><!--SRC=[fPJRRjD048Rl_HIhSD644dVsl8w02uA4a5e9KObRjBOtYI6nAtkJ84hVdMr8cjXUYnnkdCC_iz_CUkRNSMLBdLZK-x2qjiZliz-cXtI5njy105FWW25Y0382gZ1HWTvbT4MWn-1n5_I4hgV6tjioowVz0KgAlBBe7G8qGfLDHwDgemHF-rEtTUnh021II2v9f8XG4U5AD6hmH3HgI4kzxezrldA7laR9viiNMzOBMXLP6bnNhbnt1_tzTRYCodqCTY6luhqqGeTnhezahgiAzSOpa_oCYr_DPh2W4I50XA2K2mQSu6rAb-mw-L_vsxfUu1_BuY4jrdaBpYYF28u8bK8eoTnTrU1j-GpuvuMUcYQPO7UQn14GfXp43Oqw97laCyXVTPeLhPub9suq9RWdnPnH8BMUs_8PvFk5di-z- -Ec4eGGd0EJWZB9UOFUb9_fxOrfRikMUsVIRBdmWhd4Z4L2C2vaH2A6QnVkaKy2t-fozvBhNES056CEN66k9CTkY0-v7laaxdXPsSBRC74s12J2H00bpwCBjSNooAU1DoDmk4eCW-AKS524CDTNVQpQyZEkNERzmNvwEiqh3DztOux8yhXsPzPms9tbIZqmkw3Jeiwhz-sVuR3R5JijwMAOnmKxNUXIcC_uEetduiuyNjVvQcjfBPCw9irZCKUa-HpYY3JVVWTNdqnkIcrDYjQPdI6tWVbqk5pCtw2LAQkio164D6J1rUtjjxkN_pPXBxym3o6Kg3-pzg4QtTnCtKdBE4oAnSryllht63wKnG-JsD29IAMJD4baBEE96o3Aj1GuJbLg6EEAWPa8PLYAzU0l]--></g></svg>