<?xml version="1.0" encoding="us-ascii" standalone="no"?><svg xmlns="http://www.w3.org/2000/svg" xmlns:xlink="http://www.w3.org/1999/xlink" contentStyleType="text/css" height="636px" preserveAspectRatio="none" style="width:351px;height:636px;background:#FFFFFF;" version="1.1" viewBox="0 0 351 636" width="351px" zoomAndPan="magnify"><defs/><g><rect fill="#FFFFFF" height="516.1953" style="stroke:#181818;stroke-width:1.0;" width="10" x="61" y="67.4297"/><rect fill="#FFFFFF" height="473.0625" style="stroke:#181818;stroke-width:1.0;" width="10" x="144" y="96.5625"/><rect fill="#FFFFFF" height="30" style="stroke:#181818;stroke-width:1.0;" width="10" x="308" y="125.6953"/><rect fill="#FFFFFF" height="30" style="stroke:#181818;stroke-width:1.0;" width="10" x="308" y="184.8281"/><rect fill="#FFFFFF" height="30" style="stroke:#181818;stroke-width:1.0;" width="10" x="308" y="243.9609"/><rect fill="#FFFFFF" height="30" style="stroke:#181818;stroke-width:1.0;" width="10" x="308" y="303.0938"/><rect fill="#FFFFFF" height="30" style="stroke:#181818;stroke-width:1.0;" width="10" x="308" y="362.2266"/><rect fill="#FFFFFF" height="30" style="stroke:#181818;stroke-width:1.0;" width="10" x="308" y="421.3594"/><rect fill="#FFFFFF" height="30" style="stroke:#181818;stroke-width:1.0;" width="10" x="308" y="480.4922"/><rect fill="#FFFFFF" height="30" style="stroke:#181818;stroke-width:1.0;" width="10" x="308" y="539.625"/><line style="stroke:#181818;stroke-width:0.5;stroke-dasharray:5.0,5.0;" x1="66" x2="66" y1="36.2969" y2="601.625"/><line style="stroke:#181818;stroke-width:0.5;stroke-dasharray:5.0,5.0;" x1="149" x2="149" y1="36.2969" y2="601.625"/><line style="stroke:#181818;stroke-width:0.5;stroke-dasharray:5.0,5.0;" x1="313" x2="313" y1="36.2969" y2="601.625"/><rect fill="#E2E2F0" height="30.2969" rx="2.5" ry="2.5" style="stroke:#181818;stroke-width:0.5;" width="82" x="25" y="5"/><text fill="#000000" font-family="sans-serif" font-size="14" lengthAdjust="spacing" textLength="68" x="32" y="24.9951">main.cpp</text><rect fill="#E2E2F0" height="30.2969" rx="2.5" ry="2.5" style="stroke:#181818;stroke-width:0.5;" width="82" x="25" y="600.625"/><text fill="#000000" font-family="sans-serif" font-size="14" lengthAdjust="spacing" textLength="68" x="32" y="620.6201">main.cpp</text><rect fill="#E2E2F0" height="30.2969" rx="2.5" ry="2.5" style="stroke:#181818;stroke-width:0.5;" width="64" x="117" y="5"/><text fill="#000000" font-family="sans-serif" font-size="14" lengthAdjust="spacing" textLength="50" x="124" y="24.9951">Canvas</text><rect fill="#E2E2F0" height="30.2969" rx="2.5" ry="2.5" style="stroke:#181818;stroke-width:0.5;" width="64" x="117" y="600.625"/><text fill="#000000" font-family="sans-serif" font-size="14" lengthAdjust="spacing" textLength="50" x="124" y="620.6201">Canvas</text><rect fill="#E2E2F0" height="30.2969" rx="2.5" ry="2.5" style="stroke:#181818;stroke-width:0.5;" width="64" x="281" y="5"/><text fill="#000000" font-family="sans-serif" font-size="14" lengthAdjust="spacing" textLength="50" x="288" y="24.9951">Button</text><rect fill="#E2E2F0" height="30.2969" rx="2.5" ry="2.5" style="stroke:#181818;stroke-width:0.5;" width="64" x="281" y="600.625"/><text fill="#000000" font-family="sans-serif" font-size="14" lengthAdjust="spacing" textLength="50" x="288" y="620.6201">Button</text><rect fill="#FFFFFF" height="516.1953" style="stroke:#181818;stroke-width:1.0;" width="10" x="61" y="67.4297"/><rect fill="#FFFFFF" height="473.0625" style="stroke:#181818;stroke-width:1.0;" width="10" x="144" y="96.5625"/><rect fill="#FFFFFF" height="30" style="stroke:#181818;stroke-width:1.0;" width="10" x="308" y="125.6953"/><rect fill="#FFFFFF" height="30" style="stroke:#181818;stroke-width:1.0;" width="10" x="308" y="184.8281"/><rect fill="#FFFFFF" height="30" style="stroke:#181818;stroke-width:1.0;" width="10" x="308" y="243.9609"/><rect fill="#FFFFFF" height="30" style="stroke:#181818;stroke-width:1.0;" width="10" x="308" y="303.0938"/><rect fill="#FFFFFF" height="30" style="stroke:#181818;stroke-width:1.0;" width="10" x="308" y="362.2266"/><rect fill="#FFFFFF" height="30" style="stroke:#181818;stroke-width:1.0;" width="10" x="308" y="421.3594"/><rect fill="#FFFFFF" height="30" style="stroke:#181818;stroke-width:1.0;" width="10" x="308" y="480.4922"/><rect fill="#FFFFFF" height="30" style="stroke:#181818;stroke-width:1.0;" width="10" x="308" y="539.625"/><polygon fill="#181818" points="49,63.4297,59,67.4297,49,71.4297,53,67.4297" style="stroke:#181818;stroke-width:1.0;"/><line style="stroke:#181818;stroke-width:1.0;" x1="0" x2="55" y1="67.4297" y2="67.4297"/><text fill="#000000" font-family="sans-serif" font-size="13" lengthAdjust="spacing" textLength="42" x="7" y="62.3638">main()</text><polygon fill="#181818" points="132,92.5625,142,96.5625,132,100.5625,136,96.5625" style="stroke:#181818;stroke-width:1.0;"/><line style="stroke:#181818;stroke-width:1.0;" x1="71" x2="138" y1="96.5625" y2="96.5625"/><text fill="#000000" font-family="sans-serif" font-size="13" lengthAdjust="spacing" textLength="31" x="78" y="91.4966">run()</text><polygon fill="#181818" points="296,121.6953,306,125.6953,296,129.6953,300,125.6953" style="stroke:#181818;stroke-width:1.0;"/><line style="stroke:#181818;stroke-width:1.0;" x1="154" x2="302" y1="125.6953" y2="125.6953"/><text fill="#000000" font-family="sans-serif" font-size="13" lengthAdjust="spacing" textLength="135" x="161" y="120.6294">setSize(ButtonSize *)</text><polygon fill="#181818" points="296,180.8281,306,184.8281,296,188.8281,300,184.8281" style="stroke:#181818;stroke-width:1.0;"/><line style="stroke:#181818;stroke-width:1.0;" x1="154" x2="302" y1="184.8281" y2="184.8281"/><text fill="#000000" font-family="sans-serif" font-size="13" lengthAdjust="spacing" textLength="101" x="161" y="179.7622">draw(Canvas *)</text><polygon fill="#181818" points="296,239.9609,306,243.9609,296,247.9609,300,243.9609" style="stroke:#181818;stroke-width:1.0;"/><line style="stroke:#181818;stroke-width:1.0;" x1="154" x2="302" y1="243.9609" y2="243.9609"/><text fill="#000000" font-family="sans-serif" font-size="13" lengthAdjust="spacing" textLength="135" x="161" y="238.895">setSize(ButtonSize *)</text><polygon fill="#181818" points="296,299.0938,306,303.0938,296,307.0938,300,303.0938" style="stroke:#181818;stroke-width:1.0;"/><line style="stroke:#181818;stroke-width:1.0;" x1="154" x2="302" y1="303.0938" y2="303.0938"/><text fill="#000000" font-family="sans-serif" font-size="13" lengthAdjust="spacing" textLength="101" x="161" y="298.0278">draw(Canvas *)</text><polygon fill="#181818" points="296,358.2266,306,362.2266,296,366.2266,300,362.2266" style="stroke:#181818;stroke-width:1.0;"/><line style="stroke:#181818;stroke-width:1.0;" x1="154" x2="302" y1="362.2266" y2="362.2266"/><text fill="#000000" font-family="sans-serif" font-size="13" lengthAdjust="spacing" textLength="135" x="161" y="357.1606">setSize(ButtonSize *)</text><polygon fill="#181818" points="296,417.3594,306,421.3594,296,425.3594,300,421.3594" style="stroke:#181818;stroke-width:1.0;"/><line style="stroke:#181818;stroke-width:1.0;" x1="154" x2="302" y1="421.3594" y2="421.3594"/><text fill="#000000" font-family="sans-serif" font-size="13" lengthAdjust="spacing" textLength="101" x="161" y="416.2935">draw(Canvas *)</text><polygon fill="#181818" points="296,476.4922,306,480.4922,296,484.4922,300,480.4922" style="stroke:#181818;stroke-width:1.0;"/><line style="stroke:#181818;stroke-width:1.0;" x1="154" x2="302" y1="480.4922" y2="480.4922"/><text fill="#000000" font-family="sans-serif" font-size="13" lengthAdjust="spacing" textLength="135" x="161" y="475.4263">setSize(ButtonSize *)</text><polygon fill="#181818" points="296,535.625,306,539.625,296,543.625,300,539.625" style="stroke:#181818;stroke-width:1.0;"/><line style="stroke:#181818;stroke-width:1.0;" x1="154" x2="302" y1="539.625" y2="539.625"/><text fill="#000000" font-family="sans-serif" font-size="13" lengthAdjust="spacing" textLength="101" x="161" y="534.5591">draw(Canvas *)</text><polygon fill="#181818" points="11,579.625,1,583.625,11,587.625,7,583.625" style="stroke:#181818;stroke-width:1.0;"/><line style="stroke:#181818;stroke-width:1.0;stroke-dasharray:2.0,2.0;" x1="5" x2="65" y1="583.625" y2="583.625"/><!--SRC=[xLH1JyCW6BttLn0lwunbG2dGnNXm1o_pPE9b1qE1RPYkRLhQ9VvwcOjpfcsCNhoC0m6-zxttyaY-IjREAbl9me6hdRG5L5Lr1MG35Y_8Bv8Wp58SKyGmuMdCUB2AxaQBO0uE9E4qaChPJZeppbETIozaqSdcInXJYf58Ojyd2A4e5YGO5VqqDD3a3TLjtyyG_JS_zwrpPN4M12ASyOIJL10cKf885engdWBgDta_ZN5Fzis4Hud34LptyXgGq-Pdp1yjwLhkm-CN_BkNIpoNU2xn_1OpDD1Mjr4qFdvxAWEOOF9W2bDxZ0PxwxP0vRBOHEqklm6TgHjR5W316D9Wibm-FvxUFc2d6quWWXo4M-UgPZwRRJnJcq5LxcPvtXstgAhBLwCSz4KWz5ehnJEUhHaJCPMSuKmBRIXD14LcpOIX6ilfEm00]--></g></svg>