<?xml version="1.0" encoding="us-ascii" standalone="no"?><svg xmlns="http://www.w3.org/2000/svg" xmlns:xlink="http://www.w3.org/1999/xlink" contentStyleType="text/css" height="350px" preserveAspectRatio="none" style="width:1182px;height:350px;background:#FFFFFF;" version="1.1" viewBox="0 0 1182 350" width="1182px" zoomAndPan="magnify"><defs/><g><!--class C_0002100939564245740552--><g id="elem_C_0002100939564245740552"><rect codeLine="2" fill="#F1F1F1" height="145.7813" id="C_0002100939564245740552" rx="2.5" ry="2.5" style="stroke:#181818;stroke-width:0.5;" width="393" x="431.5" y="7"/><ellipse cx="588.25" cy="23" fill="#A9DCDF" rx="11" ry="11" style="stroke:#181818;stroke-width:1.0;"/><path d="M590.3281,24.8125 L590.7188,25.7969 L590.3281,25.7969 C589.875,25.7969 589.7656,25.8125 589.6094,25.9219 C589.3594,26.0781 589.2031,26.3594 589.2031,26.6563 C589.2031,26.9219 589.3438,27.1719 589.5625,27.3281 C589.7031,27.4531 589.9063,27.5 590.3281,27.5 L592.6875,27.5 C593.0469,27.5 593.2656,27.4688 593.4063,27.375 C593.6563,27.2344 593.8125,26.9375 593.8125,26.6563 C593.8125,26.375 593.6719,26.125 593.4531,25.9688 C593.2813,25.8281 593.125,25.7969 592.6563,25.7969 L589.2656,17.5938 L585.5938,17.5938 C585.1406,17.5938 585.0156,17.6094 584.8594,17.7031 C584.6094,17.875 584.4531,18.1563 584.4531,18.4375 C584.4531,18.7188 584.5938,18.9688 584.8125,19.1406 C584.9844,19.25 585.1563,19.2813 585.5938,19.2813 L586.6719,19.2813 L584.0313,25.7969 C583.6094,25.7969 583.4531,25.8125 583.2969,25.9219 C583.0469,26.0781 582.8906,26.3594 582.8906,26.6563 C582.8906,27.2188 583.2656,27.5 584.0156,27.5 L586.2813,27.5 C586.6406,27.5 586.8594,27.4688 586.9844,27.375 C587.25,27.2344 587.3906,26.9375 587.3906,26.6563 C587.3906,26.375 587.2656,26.125 587.0469,25.9531 C586.875,25.8281 586.7344,25.7969 586.2813,25.7969 L585.8906,25.7969 L586.2813,24.8125 L590.3281,24.8125 Z M589.625,23.1094 L586.9531,23.1094 L588.2969,19.8438 L589.625,23.1094 Z " fill="#000000"/><text fill="#000000" font-family="sans-serif" font-size="14" font-style="italic" lengthAdjust="spacing" textLength="71" x="608.75" y="27.8467">Employee</text><line style="stroke:#181818;stroke-width:0.5;" x1="432.5" x2="823.5" y1="39" y2="39"/><polygon fill="none" points="442.5,47.6484,446.5,51.6484,442.5,55.6484,438.5,51.6484" style="stroke:#B38D22;stroke-width:1.0;"/><text fill="#000000" font-family="sans-serif" font-size="14" lengthAdjust="spacing" textLength="128" x="451.5" y="55.9951">name : std::string</text><line style="stroke:#181818;stroke-width:0.5;" x1="432.5" x2="823.5" y1="63.2969" y2="63.2969"/><ellipse cx="442.5" cy="76.9453" fill="#84BE84" rx="3" ry="3" style="stroke:#038048;stroke-width:1.0;"/><text fill="#000000" font-family="sans-serif" font-size="14" lengthAdjust="spacing" textLength="244" x="451.5" y="80.292">Employee(std::string name) : void</text><ellipse cx="442.5" cy="93.2422" fill="#84BE84" rx="3" ry="3" style="stroke:#038048;stroke-width:1.0;"/><text fill="#000000" font-family="sans-serif" font-size="14" lengthAdjust="spacing" textLength="208" x="451.5" y="96.5889">getName() const : std::string</text><ellipse cx="442.5" cy="109.5391" fill="#84BE84" rx="3" ry="3" style="stroke:#038048;stroke-width:1.0;"/><text fill="#000000" font-family="sans-serif" font-size="14" lengthAdjust="spacing" textLength="236" x="451.5" y="112.8857">setName(std::string name) : void</text><ellipse cx="442.5" cy="125.8359" fill="#84BE84" rx="3" ry="3" style="stroke:#038048;stroke-width:1.0;"/><text fill="#000000" font-family="sans-serif" font-size="14" font-style="italic" lengthAdjust="spacing" textLength="175" x="451.5" y="129.1826">payExpenses() = 0 : void</text><ellipse cx="442.5" cy="142.1328" fill="#84BE84" rx="3" ry="3" style="stroke:#038048;stroke-width:1.0;"/><text fill="#000000" font-family="sans-serif" font-size="14" font-style="italic" lengthAdjust="spacing" textLength="367" x="451.5" y="145.4795">addSubordinate(Employee * subordinate) = 0 : void</text></g><!--class C_0000847500395624729827--><g id="elem_C_0000847500395624729827"><rect codeLine="11" fill="#F1F1F1" height="96.8906" id="C_0000847500395624729827" rx="2.5" ry="2.5" style="stroke:#181818;stroke-width:0.5;" width="366" x="7" y="238"/><ellipse cx="142.25" cy="254" fill="#ADD1B2" rx="11" ry="11" style="stroke:#181818;stroke-width:1.0;"/><path d="M144.5938,249.6719 C143.6563,249.2344 143.0625,249.0938 142.1875,249.0938 C139.5625,249.0938 137.5625,251.1719 137.5625,253.8906 L137.5625,255.0156 C137.5625,257.5938 139.6719,259.4844 142.5625,259.4844 C143.7813,259.4844 144.9375,259.1875 145.6875,258.6406 C146.2656,258.2344 146.5938,257.7813 146.5938,257.3906 C146.5938,256.9375 146.2031,256.5469 145.7344,256.5469 C145.5156,256.5469 145.3125,256.625 145.125,256.8125 C144.6719,257.2969 144.6719,257.2969 144.4844,257.3906 C144.0625,257.6563 143.375,257.7813 142.6094,257.7813 C140.5625,257.7813 139.2656,256.6875 139.2656,254.9844 L139.2656,253.8906 C139.2656,252.1094 140.5156,250.7969 142.25,250.7969 C142.8281,250.7969 143.4375,250.9531 143.9063,251.2031 C144.3906,251.4844 144.5625,251.7031 144.6563,252.1094 C144.7188,252.5156 144.75,252.6406 144.8906,252.7656 C145.0313,252.9063 145.2656,253.0156 145.4844,253.0156 C145.75,253.0156 146.0156,252.875 146.1875,252.6563 C146.2969,252.5 146.3281,252.3125 146.3281,251.8906 L146.3281,250.4688 C146.3281,250.0313 146.3125,249.9063 146.2188,249.75 C146.0625,249.4844 145.7813,249.3438 145.4844,249.3438 C145.1875,249.3438 144.9844,249.4375 144.7656,249.75 L144.5938,249.6719 Z " fill="#000000"/><text fill="#000000" font-family="sans-serif" font-size="14" lengthAdjust="spacing" textLength="87" x="162.75" y="258.8467">Salesperson</text><line style="stroke:#181818;stroke-width:0.5;" x1="8" x2="372" y1="270" y2="270"/><line style="stroke:#181818;stroke-width:0.5;" x1="8" x2="372" y1="278" y2="278"/><ellipse cx="18" cy="291.6484" fill="#84BE84" rx="3" ry="3" style="stroke:#038048;stroke-width:1.0;"/><text fill="#000000" font-family="sans-serif" font-size="14" lengthAdjust="spacing" textLength="259" x="27" y="294.9951">Salesperson(std::string name) : void</text><ellipse cx="18" cy="307.9453" fill="#84BE84" rx="3" ry="3" style="stroke:#038048;stroke-width:1.0;"/><text fill="#000000" font-family="sans-serif" font-size="14" lengthAdjust="spacing" textLength="147" x="27" y="311.292">payExpenses() : void</text><ellipse cx="18" cy="324.2422" fill="#84BE84" rx="3" ry="3" style="stroke:#038048;stroke-width:1.0;"/><text fill="#000000" font-family="sans-serif" font-size="14" lengthAdjust="spacing" textLength="340" x="27" y="327.5889">addSubordinate(Employee * subordinate) : void</text></g><!--class C_0001349669826127483764--><g id="elem_C_0001349669826127483764"><rect codeLine="17" fill="#F1F1F1" height="113.1875" id="C_0001349669826127483764" rx="2.5" ry="2.5" style="stroke:#181818;stroke-width:0.5;" width="366" x="408" y="230"/><ellipse cx="556.75" cy="246" fill="#ADD1B2" rx="11" ry="11" style="stroke:#181818;stroke-width:1.0;"/><path d="M559.0938,241.6719 C558.1563,241.2344 557.5625,241.0938 556.6875,241.0938 C554.0625,241.0938 552.0625,243.1719 552.0625,245.8906 L552.0625,247.0156 C552.0625,249.5938 554.1719,251.4844 557.0625,251.4844 C558.2813,251.4844 559.4375,251.1875 560.1875,250.6406 C560.7656,250.2344 561.0938,249.7813 561.0938,249.3906 C561.0938,248.9375 560.7031,248.5469 560.2344,248.5469 C560.0156,248.5469 559.8125,248.625 559.625,248.8125 C559.1719,249.2969 559.1719,249.2969 558.9844,249.3906 C558.5625,249.6563 557.875,249.7813 557.1094,249.7813 C555.0625,249.7813 553.7656,248.6875 553.7656,246.9844 L553.7656,245.8906 C553.7656,244.1094 555.0156,242.7969 556.75,242.7969 C557.3281,242.7969 557.9375,242.9531 558.4063,243.2031 C558.8906,243.4844 559.0625,243.7031 559.1563,244.1094 C559.2188,244.5156 559.25,244.6406 559.3906,244.7656 C559.5313,244.9063 559.7656,245.0156 559.9844,245.0156 C560.25,245.0156 560.5156,244.875 560.6875,244.6563 C560.7969,244.5 560.8281,244.3125 560.8281,243.8906 L560.8281,242.4688 C560.8281,242.0313 560.8125,241.9063 560.7188,241.75 C560.5625,241.4844 560.2813,241.3438 559.9844,241.3438 C559.6875,241.3438 559.4844,241.4375 559.2656,241.75 L559.0938,241.6719 Z " fill="#000000"/><text fill="#000000" font-family="sans-serif" font-size="14" lengthAdjust="spacing" textLength="60" x="577.25" y="250.8467">Director</text><line style="stroke:#181818;stroke-width:0.5;" x1="409" x2="773" y1="262" y2="262"/><polygon fill="none" points="419,270.6484,423,274.6484,419,278.6484,415,274.6484" style="stroke:#B38D22;stroke-width:1.0;"/><text fill="#000000" font-family="sans-serif" font-size="14" lengthAdjust="spacing" textLength="291" x="428" y="278.9951">subordinates : std::vector&lt;Employee *&gt;</text><line style="stroke:#181818;stroke-width:0.5;" x1="409" x2="773" y1="286.2969" y2="286.2969"/><ellipse cx="419" cy="299.9453" fill="#84BE84" rx="3" ry="3" style="stroke:#038048;stroke-width:1.0;"/><text fill="#000000" font-family="sans-serif" font-size="14" lengthAdjust="spacing" textLength="232" x="428" y="303.292">Director(std::string name) : void</text><ellipse cx="419" cy="316.2422" fill="#84BE84" rx="3" ry="3" style="stroke:#038048;stroke-width:1.0;"/><text fill="#000000" font-family="sans-serif" font-size="14" lengthAdjust="spacing" textLength="147" x="428" y="319.5889">payExpenses() : void</text><ellipse cx="419" cy="332.5391" fill="#84BE84" rx="3" ry="3" style="stroke:#038048;stroke-width:1.0;"/><text fill="#000000" font-family="sans-serif" font-size="14" lengthAdjust="spacing" textLength="340" x="428" y="335.8857">addSubordinate(Employee * subordinate) : void</text></g><!--class C_0000529256244384199117--><g id="elem_C_0000529256244384199117"><rect codeLine="24" fill="#F1F1F1" height="113.1875" id="C_0000529256244384199117" rx="2.5" ry="2.5" style="stroke:#181818;stroke-width:0.5;" width="366" x="809" y="230"/><ellipse cx="957.25" cy="246" fill="#ADD1B2" rx="11" ry="11" style="stroke:#181818;stroke-width:1.0;"/><path d="M959.5938,241.6719 C958.6563,241.2344 958.0625,241.0938 957.1875,241.0938 C954.5625,241.0938 952.5625,243.1719 952.5625,245.8906 L952.5625,247.0156 C952.5625,249.5938 954.6719,251.4844 957.5625,251.4844 C958.7813,251.4844 959.9375,251.1875 960.6875,250.6406 C961.2656,250.2344 961.5938,249.7813 961.5938,249.3906 C961.5938,248.9375 961.2031,248.5469 960.7344,248.5469 C960.5156,248.5469 960.3125,248.625 960.125,248.8125 C959.6719,249.2969 959.6719,249.2969 959.4844,249.3906 C959.0625,249.6563 958.375,249.7813 957.6094,249.7813 C955.5625,249.7813 954.2656,248.6875 954.2656,246.9844 L954.2656,245.8906 C954.2656,244.1094 955.5156,242.7969 957.25,242.7969 C957.8281,242.7969 958.4375,242.9531 958.9063,243.2031 C959.3906,243.4844 959.5625,243.7031 959.6563,244.1094 C959.7188,244.5156 959.75,244.6406 959.8906,244.7656 C960.0313,244.9063 960.2656,245.0156 960.4844,245.0156 C960.75,245.0156 961.0156,244.875 961.1875,244.6563 C961.2969,244.5 961.3281,244.3125 961.3281,243.8906 L961.3281,242.4688 C961.3281,242.0313 961.3125,241.9063 961.2188,241.75 C961.0625,241.4844 960.7813,241.3438 960.4844,241.3438 C960.1875,241.3438 959.9844,241.4375 959.7656,241.75 L959.5938,241.6719 Z " fill="#000000"/><text fill="#000000" font-family="sans-serif" font-size="14" lengthAdjust="spacing" textLength="61" x="977.75" y="250.8467">Manager</text><line style="stroke:#181818;stroke-width:0.5;" x1="810" x2="1174" y1="262" y2="262"/><polygon fill="none" points="820,270.6484,824,274.6484,820,278.6484,816,274.6484" style="stroke:#B38D22;stroke-width:1.0;"/><text fill="#000000" font-family="sans-serif" font-size="14" lengthAdjust="spacing" textLength="291" x="829" y="278.9951">subordinates : std::vector&lt;Employee *&gt;</text><line style="stroke:#181818;stroke-width:0.5;" x1="810" x2="1174" y1="286.2969" y2="286.2969"/><ellipse cx="820" cy="299.9453" fill="#84BE84" rx="3" ry="3" style="stroke:#038048;stroke-width:1.0;"/><text fill="#000000" font-family="sans-serif" font-size="14" lengthAdjust="spacing" textLength="233" x="829" y="303.292">Manager(std::string name) : void</text><ellipse cx="820" cy="316.2422" fill="#84BE84" rx="3" ry="3" style="stroke:#038048;stroke-width:1.0;"/><text fill="#000000" font-family="sans-serif" font-size="14" lengthAdjust="spacing" textLength="147" x="829" y="319.5889">payExpenses() : void</text><ellipse cx="820" cy="332.5391" fill="#84BE84" rx="3" ry="3" style="stroke:#038048;stroke-width:1.0;"/><text fill="#000000" font-family="sans-serif" font-size="14" lengthAdjust="spacing" textLength="340" x="829" y="335.8857">addSubordinate(Employee * subordinate) : void</text></g><!--link C_0000847500395624729827 to C_0002100939564245740552--><g id="link_C_0000847500395624729827_C_0002100939564245740552"><path codeLine="30" d="M303.641,237.866 C358.108,213.311 423.913,182.808 482.017,155.247 " fill="none" id="C_0000847500395624729827-to-C_0002100939564245740552" style="stroke:#181818;stroke-width:1.0;stroke-dasharray:7.0,7.0;"/><polygon fill="#181818" points="486.542,153.099,476.6962,153.345,482.0251,155.2432,480.1269,160.572,486.542,153.099" style="stroke:#181818;stroke-width:1.0;"/></g><!--reverse link C_0002100939564245740552 to C_0000847500395624729827--><g id="link_C_0002100939564245740552_C_0000847500395624729827"><path codeLine="31" d="M442.898,161.591 C386.954,187.42 328.002,215.181 281.052,237.866 " fill="none" id="C_0002100939564245740552-backto-C_0000847500395624729827" style="stroke:#181818;stroke-width:1.0;"/><polygon fill="none" points="440.239,155.108,461.334,153.099,446.097,167.824,440.239,155.108" style="stroke:#181818;stroke-width:1.0;"/></g><!--link C_0001349669826127483764 to C_0002100939564245740552--><g id="link_C_0001349669826127483764_C_0002100939564245740552"><path codeLine="32" d="M613.251,229.789 C618.597,207.716 623.576,181.965 627.173,158.15 " fill="none" id="C_0001349669826127483764-to-C_0002100939564245740552" style="stroke:#181818;stroke-width:1.0;stroke-dasharray:7.0,7.0;"/><polygon fill="#181818" points="627.919,153.099,622.648,161.4187,627.1891,158.0454,630.5623,162.5865,627.919,153.099" style="stroke:#181818;stroke-width:1.0;"/></g><!--link C_0001349669826127483764 to C_0002100939564245740552--><g id="link_C_0001349669826127483764_C_0002100939564245740552"><path codeLine="33" d="M618.036,229.93 C621.728,220.162 624.95,209.937 627,200 C629.751,186.664 631.152,172.308 631.716,158.34 " fill="none" id="C_0001349669826127483764-to-C_0002100939564245740552-1" style="stroke:#181818;stroke-width:1.0;"/><polygon fill="#181818" points="631.887,153.215,627.5884,162.0763,631.7199,158.2122,635.5839,162.3437,631.887,153.215" style="stroke:#181818;stroke-width:1.0;"/><polygon fill="none" points="635,187.0664,639,191.0664,635,195.0664,631,191.0664" style="stroke:#B38D22;stroke-width:1.0;"/><text fill="#000000" font-family="sans-serif" font-size="13" lengthAdjust="spacing" textLength="83" x="642" y="196.0669">subordinates</text></g><!--reverse link C_0002100939564245740552 to C_0001349669826127483764--><g id="link_C_0002100939564245740552_C_0001349669826127483764"><path codeLine="34" d="M598.663,172.993 C594.941,192.369 591.744,212.242 589.585,229.789 " fill="none" id="C_0002100939564245740552-backto-C_0001349669826127483764" style="stroke:#181818;stroke-width:1.0;"/><polygon fill="none" points="591.864,171.302,602.711,153.099,605.582,174.093,591.864,171.302" style="stroke:#181818;stroke-width:1.0;"/></g><!--link C_0000529256244384199117 to C_0002100939564245740552--><g id="link_C_0000529256244384199117_C_0002100939564245740552"><path codeLine="35" d="M905.287,229.951 C865.95,207.06 818.421,180.19 773.876,155.622 " fill="none" id="C_0000529256244384199117-to-C_0002100939564245740552" style="stroke:#181818;stroke-width:1.0;stroke-dasharray:7.0,7.0;"/><polygon fill="#181818" points="769.297,153.099,775.25,160.9452,773.6765,155.5116,779.1101,153.938,769.297,153.099" style="stroke:#181818;stroke-width:1.0;"/></g><!--link C_0000529256244384199117 to C_0002100939564245740552--><g id="link_C_0000529256244384199117_C_0002100939564245740552"><path codeLine="36" d="M935.504,229.904 C916.9,213.438 895.46,196.28 874,183 C858.278,173.271 841.465,164.092 824.285,155.53 " fill="none" id="C_0000529256244384199117-to-C_0002100939564245740552-1" style="stroke:#181818;stroke-width:1.0;"/><polygon fill="#181818" points="819.43,153.131,825.7278,160.7031,823.9129,155.3453,829.2708,153.5304,819.43,153.131" style="stroke:#181818;stroke-width:1.0;"/><polygon fill="none" points="904,187.0664,908,191.0664,904,195.0664,900,191.0664" style="stroke:#B38D22;stroke-width:1.0;"/><text fill="#000000" font-family="sans-serif" font-size="13" lengthAdjust="spacing" textLength="83" x="911" y="196.0669">subordinates</text></g><!--reverse link C_0002100939564245740552 to C_0000529256244384199117--><g id="link_C_0002100939564245740552_C_0000529256244384199117"><path codeLine="37" d="M761.661,163.131 C801.114,185.578 843.814,209.372 881.64,229.951 " fill="none" id="C_0002100939564245740552-backto-C_0000529256244384199117" style="stroke:#181818;stroke-width:1.0;"/><polygon fill="none" points="757.987,169.094,744.089,153.099,764.928,156.936,757.987,169.094" style="stroke:#181818;stroke-width:1.0;"/></g><!--SRC=[pLJ1Rfmm4Btp5QFD8RlTmjh6O5YbkRHHBqalaNgj3FOIAjOWxDqsIlFlCUcoi2rkScYbNf0yy-RvlPanFDEcvRc1sTMsgUfxAMV0DRp_WX0Y6A4qJAEO4XenYgA8UBp7kn3mu2rxghasOhss1QKgGF6jNC0QzdKfl6KXpISRc2yWhvKsDZx2UajzI3i97deXZx1i-FtLzqOgBRNbUmTe2iI5kDrbTIjAnOsSznBX3UWXV59zrbtuYx17Bw-urZ2xvPNKZMnrhOQ6eOIo2A6k8OGoaYQ47V2kTDUj4TKV6dPgie- -qjK1VbJ_eMnbRkfsa8v3ciQnbHHZmcWIifYEfK-aE-azpp_MVJOAwduY- -URBuRIoy7V3LUya2DxA28fwTfEmuJYDCNuT3A_fpjx1vh_nfrpYuBWqlradI_rueVlknVNEVUNBvkgydrtbJLzqeJNI9vQMESiNvOyLVMt9KyjeNV-KIhPMWe1tqfp1tOhLU7ljjLRsDj_GbahG44OKE_y-lhppJ7s33kUS1IWWC7ypfX6hrUhmZBjiY2ljwkgsl_y-4rRVxLR5TWa968ZyfnbBDl4SH9IpcASYKH8IgE48hc94qa5veid]--></g></svg>