<?xml version="1.0" encoding="us-ascii" standalone="no"?><svg xmlns="http://www.w3.org/2000/svg" xmlns:xlink="http://www.w3.org/1999/xlink" contentStyleType="text/css" height="955px" preserveAspectRatio="none" style="width:2723px;height:955px;background:#FFFFFF;" version="1.1" viewBox="0 0 2723 955" width="2723px" zoomAndPan="magnify"><defs/><g><!--class C_0001791364580297827811--><g id="elem_C_0001791364580297827811"><rect codeLine="2" fill="#F1F1F1" height="96.8906" id="C_0001791364580297827811" rx="2.5" ry="2.5" style="stroke:#181818;stroke-width:0.5;" width="336" x="905.1666" y="581"/><ellipse cx="1019.9166" cy="597" fill="#A9DCDF" rx="11" ry="11" style="stroke:#181818;stroke-width:1.0;"/><path d="M1021.9947,598.8125 L1022.3853,599.7969 L1021.9947,599.7969 C1021.5416,599.7969 1021.4322,599.8125 1021.276,599.9219 C1021.026,600.0781 1020.8697,600.3594 1020.8697,600.6563 C1020.8697,600.9219 1021.0103,601.1719 1021.2291,601.3281 C1021.3697,601.4531 1021.5728,601.5 1021.9947,601.5 L1024.3541,601.5 C1024.7135,601.5 1024.9322,601.4688 1025.0729,601.375 C1025.3229,601.2344 1025.4791,600.9375 1025.4791,600.6563 C1025.4791,600.375 1025.3385,600.125 1025.1197,599.9688 C1024.9479,599.8281 1024.7916,599.7969 1024.3229,599.7969 L1020.9322,591.5938 L1017.2603,591.5938 C1016.8072,591.5938 1016.6822,591.6094 1016.526,591.7031 C1016.276,591.875 1016.1197,592.1563 1016.1197,592.4375 C1016.1197,592.7188 1016.2603,592.9688 1016.4791,593.1406 C1016.651,593.25 1016.8228,593.2813 1017.2603,593.2813 L1018.3385,593.2813 L1015.6978,599.7969 C1015.276,599.7969 1015.1197,599.8125 1014.9635,599.9219 C1014.7135,600.0781 1014.5572,600.3594 1014.5572,600.6563 C1014.5572,601.2188 1014.9322,601.5 1015.6822,601.5 L1017.9478,601.5 C1018.3072,601.5 1018.526,601.4688 1018.651,601.375 C1018.9166,601.2344 1019.0572,600.9375 1019.0572,600.6563 C1019.0572,600.375 1018.9322,600.125 1018.7135,599.9531 C1018.5416,599.8281 1018.401,599.7969 1017.9478,599.7969 L1017.5572,599.7969 L1017.9478,598.8125 L1021.9947,598.8125 Z M1021.2916,597.1094 L1018.6197,597.1094 L1019.9635,593.8438 L1021.2916,597.1094 Z " fill="#000000"/><text fill="#000000" font-family="sans-serif" font-size="14" font-style="italic" lengthAdjust="spacing" textLength="98" x="1040.4166" y="601.8467">BaseEquation</text><line style="stroke:#181818;stroke-width:0.5;" x1="906.1666" x2="1240.1666" y1="613" y2="613"/><line style="stroke:#181818;stroke-width:0.5;" x1="906.1666" x2="1240.1666" y1="621" y2="621"/><ellipse cx="916.1666" cy="634.6484" fill="#84BE84" rx="3" ry="3" style="stroke:#038048;stroke-width:1.0;"/><text fill="#000000" font-family="sans-serif" font-size="14" font-style="italic" lengthAdjust="spacing" textLength="221" x="925.1666" y="637.9951">solve() = 0 : std::vector&lt;float&gt;</text><ellipse cx="916.1666" cy="650.9453" fill="#84BE84" rx="3" ry="3" style="stroke:#038048;stroke-width:1.0;"/><text fill="#000000" font-family="sans-serif" font-size="14" font-style="italic" lengthAdjust="spacing" textLength="310" x="925.1666" y="654.292">getEquationAsString() const = 0 : std::string</text><ellipse cx="916.1666" cy="667.2422" fill="#84BE84" rx="3" ry="3" style="stroke:#038048;stroke-width:1.0;"/><text fill="#000000" font-family="sans-serif" font-size="14" font-style="italic" lengthAdjust="spacing" textLength="184" x="925.1666" y="670.5889">degree() const = 0 : size_t</text></g><!--class C_0001773349468567606317--><g id="elem_C_0001773349468567606317"><rect codeLine="8" fill="#F1F1F1" height="162.0781" id="C_0001773349468567606317" rx="2.5" ry="2.5" style="stroke:#181818;stroke-width:0.5;" width="327" x="1098.6626" y="72"/><ellipse cx="1219.9126" cy="88" fill="#ADD1B2" rx="11" ry="11" style="stroke:#181818;stroke-width:1.0;"/><path d="M1222.2563,83.6719 C1221.3188,83.2344 1220.7251,83.0938 1219.8501,83.0938 C1217.2251,83.0938 1215.2251,85.1719 1215.2251,87.8906 L1215.2251,89.0156 C1215.2251,91.5938 1217.3345,93.4844 1220.2251,93.4844 C1221.4438,93.4844 1222.6001,93.1875 1223.3501,92.6406 C1223.9282,92.2344 1224.2563,91.7813 1224.2563,91.3906 C1224.2563,90.9375 1223.8657,90.5469 1223.397,90.5469 C1223.1782,90.5469 1222.9751,90.625 1222.7876,90.8125 C1222.3345,91.2969 1222.3345,91.2969 1222.147,91.3906 C1221.7251,91.6563 1221.0376,91.7813 1220.272,91.7813 C1218.2251,91.7813 1216.9282,90.6875 1216.9282,88.9844 L1216.9282,87.8906 C1216.9282,86.1094 1218.1782,84.7969 1219.9126,84.7969 C1220.4907,84.7969 1221.1001,84.9531 1221.5688,85.2031 C1222.0532,85.4844 1222.2251,85.7031 1222.3188,86.1094 C1222.3813,86.5156 1222.4126,86.6406 1222.5532,86.7656 C1222.6938,86.9063 1222.9282,87.0156 1223.147,87.0156 C1223.4126,87.0156 1223.6782,86.875 1223.8501,86.6563 C1223.9595,86.5 1223.9907,86.3125 1223.9907,85.8906 L1223.9907,84.4688 C1223.9907,84.0313 1223.9751,83.9063 1223.8813,83.75 C1223.7251,83.4844 1223.4438,83.3438 1223.147,83.3438 C1222.8501,83.3438 1222.647,83.4375 1222.4282,83.75 L1222.2563,83.6719 Z " fill="#000000"/><text fill="#000000" font-family="sans-serif" font-size="14" lengthAdjust="spacing" textLength="76" x="1240.4126" y="92.8467">FileReader</text><line style="stroke:#181818;stroke-width:0.5;" x1="1099.6626" x2="1424.6626" y1="104" y2="104"/><rect fill="none" height="6" style="stroke:#C82930;stroke-width:1.0;" width="6" x="1106.6626" y="114.6484"/><text fill="#000000" font-family="sans-serif" font-size="14" lengthAdjust="spacing" textLength="130" x="1118.6626" y="120.9951">file : std::ifstream</text><rect fill="none" height="6" style="stroke:#C82930;stroke-width:1.0;" width="6" x="1106.6626" y="130.9453"/><text fill="#000000" font-family="sans-serif" font-size="14" lengthAdjust="spacing" textLength="114" x="1118.6626" y="137.292">line : std::string</text><line style="stroke:#181818;stroke-width:0.5;" x1="1099.6626" x2="1424.6626" y1="144.5938" y2="144.5938"/><ellipse cx="1109.6626" cy="158.2422" fill="#84BE84" rx="3" ry="3" style="stroke:#038048;stroke-width:1.0;"/><text fill="#000000" font-family="sans-serif" font-size="14" lengthAdjust="spacing" textLength="301" x="1118.6626" y="161.5889">FileReader(const std::string &amp; path) : void</text><ellipse cx="1109.6626" cy="174.5391" fill="#84BE84" rx="3" ry="3" style="stroke:#038048;stroke-width:1.0;"/><text fill="#000000" font-family="sans-serif" font-size="14" lengthAdjust="spacing" textLength="140" x="1118.6626" y="177.8857">~FileReader() : void</text><ellipse cx="1109.6626" cy="190.8359" fill="#84BE84" rx="3" ry="3" style="stroke:#038048;stroke-width:1.0;"/><text fill="#000000" font-family="sans-serif" font-size="14" lengthAdjust="spacing" textLength="131" x="1118.6626" y="194.1826">next() : std::string</text><ellipse cx="1109.6626" cy="207.1328" fill="#84BE84" rx="3" ry="3" style="stroke:#038048;stroke-width:1.0;"/><text fill="#000000" font-family="sans-serif" font-size="14" lengthAdjust="spacing" textLength="136" x="1118.6626" y="210.4795">isEoF() const : bool</text><rect fill="#F24D5C" height="6" style="stroke:#C82930;stroke-width:1.0;" width="6" x="1106.6626" y="220.4297"/><text fill="#000000" font-family="sans-serif" font-size="14" lengthAdjust="spacing" textLength="149" x="1118.6626" y="226.7764">readNextLine() : void</text></g><!--class C_0000286653173360645625--><g id="elem_C_0000286653173360645625"><rect codeLine="18" fill="#F1F1F1" height="292.4531" id="C_0000286653173360645625" rx="2.5" ry="2.5" style="stroke:#181818;stroke-width:0.5;" width="800" x="1461.1626" y="7"/><ellipse cx="1821.4126" cy="23" fill="#ADD1B2" rx="11" ry="11" style="stroke:#181818;stroke-width:1.0;"/><path d="M1823.7563,18.6719 C1822.8188,18.2344 1822.2251,18.0938 1821.3501,18.0938 C1818.7251,18.0938 1816.7251,20.1719 1816.7251,22.8906 L1816.7251,24.0156 C1816.7251,26.5938 1818.8345,28.4844 1821.7251,28.4844 C1822.9438,28.4844 1824.1001,28.1875 1824.8501,27.6406 C1825.4282,27.2344 1825.7563,26.7813 1825.7563,26.3906 C1825.7563,25.9375 1825.3657,25.5469 1824.897,25.5469 C1824.6782,25.5469 1824.4751,25.625 1824.2876,25.8125 C1823.8345,26.2969 1823.8345,26.2969 1823.647,26.3906 C1823.2251,26.6563 1822.5376,26.7813 1821.772,26.7813 C1819.7251,26.7813 1818.4282,25.6875 1818.4282,23.9844 L1818.4282,22.8906 C1818.4282,21.1094 1819.6782,19.7969 1821.4126,19.7969 C1821.9907,19.7969 1822.6001,19.9531 1823.0688,20.2031 C1823.5532,20.4844 1823.7251,20.7031 1823.8188,21.1094 C1823.8813,21.5156 1823.9126,21.6406 1824.0532,21.7656 C1824.1938,21.9063 1824.4282,22.0156 1824.647,22.0156 C1824.9126,22.0156 1825.1782,21.875 1825.3501,21.6563 C1825.4595,21.5 1825.4907,21.3125 1825.4907,20.8906 L1825.4907,19.4688 C1825.4907,19.0313 1825.4751,18.9063 1825.3813,18.75 C1825.2251,18.4844 1824.9438,18.3438 1824.647,18.3438 C1824.3501,18.3438 1824.147,18.4375 1823.9282,18.75 L1823.7563,18.6719 Z " fill="#000000"/><text fill="#000000" font-family="sans-serif" font-size="14" lengthAdjust="spacing" textLength="71" x="1841.9126" y="27.8467">FileWriter</text><line style="stroke:#181818;stroke-width:0.5;" x1="1462.1626" x2="2260.1626" y1="39" y2="39"/><rect fill="none" height="6" style="stroke:#C82930;stroke-width:1.0;" width="6" x="1469.1626" y="49.6484"/><text fill="#000000" font-family="sans-serif" font-size="14" lengthAdjust="spacing" textLength="130" x="1481.1626" y="55.9951">file : std::ifstream</text><rect fill="none" height="6" style="stroke:#C82930;stroke-width:1.0;" width="6" x="1469.1626" y="65.9453"/><text fill="#000000" font-family="sans-serif" font-size="14" lengthAdjust="spacing" textLength="114" x="1481.1626" y="72.292">line : std::string</text><rect fill="none" height="6" style="stroke:#C82930;stroke-width:1.0;" width="6" x="1469.1626" y="82.2422"/><text fill="#000000" font-family="sans-serif" font-size="14" lengthAdjust="spacing" text-decoration="underline" textLength="193" x="1481.1626" y="88.5889">pathTo1 : const std::string</text><rect fill="none" height="6" style="stroke:#C82930;stroke-width:1.0;" width="6" x="1469.1626" y="98.5391"/><text fill="#000000" font-family="sans-serif" font-size="14" lengthAdjust="spacing" text-decoration="underline" textLength="192" x="1481.1626" y="104.8857">pathTo2 : const std::string</text><rect fill="none" height="6" style="stroke:#C82930;stroke-width:1.0;" width="6" x="1469.1626" y="114.8359"/><text fill="#000000" font-family="sans-serif" font-size="14" lengthAdjust="spacing" text-decoration="underline" textLength="193" x="1481.1626" y="121.1826">pathTo3 : const std::string</text><rect fill="none" height="6" style="stroke:#C82930;stroke-width:1.0;" width="6" x="1469.1626" y="131.1328"/><text fill="#000000" font-family="sans-serif" font-size="14" lengthAdjust="spacing" text-decoration="underline" textLength="192" x="1481.1626" y="137.4795">pathTo4 : const std::string</text><rect fill="none" height="6" style="stroke:#C82930;stroke-width:1.0;" width="6" x="1469.1626" y="147.4297"/><text fill="#000000" font-family="sans-serif" font-size="14" lengthAdjust="spacing" text-decoration="underline" textLength="203" x="1481.1626" y="153.7764">pathToInf : const std::string</text><rect fill="none" height="6" style="stroke:#C82930;stroke-width:1.0;" width="6" x="1469.1626" y="163.7266"/><text fill="#000000" font-family="sans-serif" font-size="14" lengthAdjust="spacing" text-decoration="underline" textLength="232" x="1481.1626" y="170.0732">pathToEmpty : const std::string</text><line style="stroke:#181818;stroke-width:0.5;" x1="1462.1626" x2="2260.1626" y1="177.375" y2="177.375"/><ellipse cx="1472.1626" cy="191.0234" fill="#84BE84" rx="3" ry="3" style="stroke:#038048;stroke-width:1.0;"/><text fill="#000000" font-family="sans-serif" font-size="14" lengthAdjust="spacing" textLength="328" x="1481.1626" y="194.3701">addEmpty(const std::string &amp; equation) : void</text><ellipse cx="1472.1626" cy="207.3203" fill="#84BE84" rx="3" ry="3" style="stroke:#038048;stroke-width:1.0;"/><text fill="#000000" font-family="sans-serif" font-size="14" lengthAdjust="spacing" textLength="580" x="1481.1626" y="210.667">addOne(const std::string &amp; equation, const std::vector&lt;float&gt; &amp; solutions) : void</text><ellipse cx="1472.1626" cy="223.6172" fill="#84BE84" rx="3" ry="3" style="stroke:#038048;stroke-width:1.0;"/><text fill="#000000" font-family="sans-serif" font-size="14" lengthAdjust="spacing" textLength="580" x="1481.1626" y="226.9639">addTwo(const std::string &amp; equation, const std::vector&lt;float&gt; &amp; solutions) : void</text><ellipse cx="1472.1626" cy="239.9141" fill="#84BE84" rx="3" ry="3" style="stroke:#038048;stroke-width:1.0;"/><text fill="#000000" font-family="sans-serif" font-size="14" lengthAdjust="spacing" textLength="593" x="1481.1626" y="243.2607">addThree(const std::string &amp; equation, const std::vector&lt;float&gt; &amp; solutions) : void</text><ellipse cx="1472.1626" cy="256.2109" fill="#84BE84" rx="3" ry="3" style="stroke:#038048;stroke-width:1.0;"/><text fill="#000000" font-family="sans-serif" font-size="14" lengthAdjust="spacing" textLength="582" x="1481.1626" y="259.5576">addFour(const std::string &amp; equation, const std::vector&lt;float&gt; &amp; solutions) : void</text><ellipse cx="1472.1626" cy="272.5078" fill="#84BE84" rx="3" ry="3" style="stroke:#038048;stroke-width:1.0;"/><text fill="#000000" font-family="sans-serif" font-size="14" lengthAdjust="spacing" textLength="570" x="1481.1626" y="275.8545">addInf(const std::string &amp; equation, const std::vector&lt;float&gt; &amp; solutions) : void</text><rect fill="#F24D5C" height="6" style="stroke:#C82930;stroke-width:1.0;" width="6" x="1469.1626" y="285.8047"/><text fill="#000000" font-family="sans-serif" font-size="14" lengthAdjust="spacing" textLength="774" x="1481.1626" y="292.1514">addToFile(const std::string &amp; path, const std::string &amp; equation, const std::vector&lt;float&gt; &amp; solutions) : void</text></g><!--class C_0001531731901804074813--><g id="elem_C_0001531731901804074813"><rect codeLine="36" fill="#F1F1F1" height="64.2969" id="C_0001531731901804074813" rx="2.5" ry="2.5" style="stroke:#181818;stroke-width:0.5;" width="661" x="402.6666" y="121"/><ellipse cx="652.9166" cy="137" fill="#A9DCDF" rx="11" ry="11" style="stroke:#181818;stroke-width:1.0;"/><path d="M654.9947,138.8125 L655.3854,139.7969 L654.9947,139.7969 C654.5416,139.7969 654.4322,139.8125 654.276,139.9219 C654.026,140.0781 653.8697,140.3594 653.8697,140.6563 C653.8697,140.9219 654.0104,141.1719 654.2291,141.3281 C654.3697,141.4531 654.5729,141.5 654.9947,141.5 L657.3541,141.5 C657.7135,141.5 657.9322,141.4688 658.0729,141.375 C658.3229,141.2344 658.4791,140.9375 658.4791,140.6563 C658.4791,140.375 658.3385,140.125 658.1197,139.9688 C657.9479,139.8281 657.7916,139.7969 657.3229,139.7969 L653.9322,131.5938 L650.2604,131.5938 C649.8072,131.5938 649.6822,131.6094 649.526,131.7031 C649.276,131.875 649.1197,132.1563 649.1197,132.4375 C649.1197,132.7188 649.2604,132.9688 649.4791,133.1406 C649.651,133.25 649.8229,133.2813 650.2604,133.2813 L651.3385,133.2813 L648.6979,139.7969 C648.276,139.7969 648.1197,139.8125 647.9635,139.9219 C647.7135,140.0781 647.5572,140.3594 647.5572,140.6563 C647.5572,141.2188 647.9322,141.5 648.6822,141.5 L650.9479,141.5 C651.3072,141.5 651.526,141.4688 651.651,141.375 C651.9166,141.2344 652.0572,140.9375 652.0572,140.6563 C652.0572,140.375 651.9322,140.125 651.7135,139.9531 C651.5416,139.8281 651.401,139.7969 650.9479,139.7969 L650.5572,139.7969 L650.9479,138.8125 L654.9947,138.8125 Z M654.2916,137.1094 L651.6197,137.1094 L652.9635,133.8438 L654.2916,137.1094 Z " fill="#000000"/><text fill="#000000" font-family="sans-serif" font-size="14" font-style="italic" lengthAdjust="spacing" textLength="152" x="673.4166" y="141.8467">BaseEquationCreator</text><line style="stroke:#181818;stroke-width:0.5;" x1="403.6666" x2="1062.6666" y1="153" y2="153"/><line style="stroke:#181818;stroke-width:0.5;" x1="403.6666" x2="1062.6666" y1="161" y2="161"/><ellipse cx="413.6666" cy="174.6484" fill="#84BE84" rx="3" ry="3" style="stroke:#038048;stroke-width:1.0;"/><text fill="#000000" font-family="sans-serif" font-size="14" font-style="italic" lengthAdjust="spacing" textLength="635" x="422.6666" y="177.9951">getEquation(const std::vector&lt;float&gt; &amp; coefficient) = 0 : std::unique_ptr&lt;BaseEquation&gt;</text></g><!--class C_0001125383498695120590--><g id="elem_C_0001125383498695120590"><rect codeLine="40" fill="#F1F1F1" height="162.0781" id="C_0001125383498695120590" rx="2.5" ry="2.5" style="stroke:#181818;stroke-width:0.5;" width="471" x="318.6666" y="762.5"/><ellipse cx="496.4166" cy="778.5" fill="#ADD1B2" rx="11" ry="11" style="stroke:#181818;stroke-width:1.0;"/><path d="M498.7604,774.1719 C497.8229,773.7344 497.2291,773.5938 496.3541,773.5938 C493.7291,773.5938 491.7291,775.6719 491.7291,778.3906 L491.7291,779.5156 C491.7291,782.0938 493.8385,783.9844 496.7291,783.9844 C497.9479,783.9844 499.1041,783.6875 499.8541,783.1406 C500.4322,782.7344 500.7604,782.2813 500.7604,781.8906 C500.7604,781.4375 500.3697,781.0469 499.901,781.0469 C499.6822,781.0469 499.4791,781.125 499.2916,781.3125 C498.8385,781.7969 498.8385,781.7969 498.651,781.8906 C498.2291,782.1563 497.5416,782.2813 496.776,782.2813 C494.7291,782.2813 493.4322,781.1875 493.4322,779.4844 L493.4322,778.3906 C493.4322,776.6094 494.6822,775.2969 496.4166,775.2969 C496.9947,775.2969 497.6041,775.4531 498.0729,775.7031 C498.5572,775.9844 498.7291,776.2031 498.8229,776.6094 C498.8854,777.0156 498.9166,777.1406 499.0572,777.2656 C499.1979,777.4063 499.4322,777.5156 499.651,777.5156 C499.9166,777.5156 500.1822,777.375 500.3541,777.1563 C500.4635,777 500.4947,776.8125 500.4947,776.3906 L500.4947,774.9688 C500.4947,774.5313 500.4791,774.4063 500.3854,774.25 C500.2291,773.9844 499.9479,773.8438 499.651,773.8438 C499.3541,773.8438 499.151,773.9375 498.9322,774.25 L498.7604,774.1719 Z " fill="#000000"/><text fill="#000000" font-family="sans-serif" font-size="14" lengthAdjust="spacing" textLength="107" x="516.9166" y="783.3467">LinearEquation</text><line style="stroke:#181818;stroke-width:0.5;" x1="319.6666" x2="788.6666" y1="794.5" y2="794.5"/><rect fill="none" height="6" style="stroke:#C82930;stroke-width:1.0;" width="6" x="326.6666" y="805.1484"/><text fill="#000000" font-family="sans-serif" font-size="14" lengthAdjust="spacing" textLength="55" x="338.6666" y="811.4951">a : float</text><rect fill="none" height="6" style="stroke:#C82930;stroke-width:1.0;" width="6" x="326.6666" y="821.4453"/><text fill="#000000" font-family="sans-serif" font-size="14" lengthAdjust="spacing" textLength="57" x="338.6666" y="827.792">b : float</text><line style="stroke:#181818;stroke-width:0.5;" x1="319.6666" x2="788.6666" y1="835.0938" y2="835.0938"/><ellipse cx="329.6666" cy="848.7422" fill="#84BE84" rx="3" ry="3" style="stroke:#038048;stroke-width:1.0;"/><text fill="#000000" font-family="sans-serif" font-size="14" lengthAdjust="spacing" textLength="262" x="338.6666" y="852.0889">LinearEquation(float a, float b) : void</text><ellipse cx="329.6666" cy="865.0391" fill="#84BE84" rx="3" ry="3" style="stroke:#038048;stroke-width:1.0;"/><text fill="#000000" font-family="sans-serif" font-size="14" lengthAdjust="spacing" textLength="445" x="338.6666" y="868.3857">LinearEquation(const std::vector&lt;float&gt; &amp; coefficients) : void</text><ellipse cx="329.6666" cy="881.3359" fill="#84BE84" rx="3" ry="3" style="stroke:#038048;stroke-width:1.0;"/><text fill="#000000" font-family="sans-serif" font-size="14" lengthAdjust="spacing" textLength="196" x="338.6666" y="884.6826">solve() : std::vector&lt;float&gt;</text><ellipse cx="329.6666" cy="897.6328" fill="#84BE84" rx="3" ry="3" style="stroke:#038048;stroke-width:1.0;"/><text fill="#000000" font-family="sans-serif" font-size="14" lengthAdjust="spacing" textLength="291" x="338.6666" y="900.9795">getEquationAsString() const : std::string</text><ellipse cx="329.6666" cy="913.9297" fill="#84BE84" rx="3" ry="3" style="stroke:#038048;stroke-width:1.0;"/><text fill="#000000" font-family="sans-serif" font-size="14" lengthAdjust="spacing" textLength="160" x="338.6666" y="917.2764">degree() const : size_t</text></g><!--class C_0000290827087332084076--><g id="elem_C_0000290827087332084076"><rect codeLine="50" fill="#F1F1F1" height="64.2969" id="C_0000290827087332084076" rx="2.5" ry="2.5" style="stroke:#181818;stroke-width:0.5;" width="644" x="72.1671" y="408"/><ellipse cx="308.9171" cy="424" fill="#ADD1B2" rx="11" ry="11" style="stroke:#181818;stroke-width:1.0;"/><path d="M311.2609,419.6719 C310.3234,419.2344 309.7296,419.0938 308.8546,419.0938 C306.2296,419.0938 304.2296,421.1719 304.2296,423.8906 L304.2296,425.0156 C304.2296,427.5938 306.339,429.4844 309.2296,429.4844 C310.4484,429.4844 311.6046,429.1875 312.3546,428.6406 C312.9327,428.2344 313.2609,427.7813 313.2609,427.3906 C313.2609,426.9375 312.8702,426.5469 312.4015,426.5469 C312.1827,426.5469 311.9796,426.625 311.7921,426.8125 C311.339,427.2969 311.339,427.2969 311.1515,427.3906 C310.7296,427.6563 310.0421,427.7813 309.2765,427.7813 C307.2296,427.7813 305.9327,426.6875 305.9327,424.9844 L305.9327,423.8906 C305.9327,422.1094 307.1827,420.7969 308.9171,420.7969 C309.4952,420.7969 310.1046,420.9531 310.5734,421.2031 C311.0577,421.4844 311.2296,421.7031 311.3234,422.1094 C311.3859,422.5156 311.4171,422.6406 311.5577,422.7656 C311.6984,422.9063 311.9327,423.0156 312.1515,423.0156 C312.4171,423.0156 312.6827,422.875 312.8546,422.6563 C312.964,422.5 312.9952,422.3125 312.9952,421.8906 L312.9952,420.4688 C312.9952,420.0313 312.9796,419.9063 312.8859,419.75 C312.7296,419.4844 312.4484,419.3438 312.1515,419.3438 C311.8546,419.3438 311.6515,419.4375 311.4327,419.75 L311.2609,419.6719 Z " fill="#000000"/><text fill="#000000" font-family="sans-serif" font-size="14" lengthAdjust="spacing" textLength="162" x="329.4171" y="428.8467">LinearEquationCreator</text><line style="stroke:#181818;stroke-width:0.5;" x1="73.1671" x2="715.1671" y1="440" y2="440"/><line style="stroke:#181818;stroke-width:0.5;" x1="73.1671" x2="715.1671" y1="448" y2="448"/><ellipse cx="83.1671" cy="461.6484" fill="#84BE84" rx="3" ry="3" style="stroke:#038048;stroke-width:1.0;"/><text fill="#000000" font-family="sans-serif" font-size="14" lengthAdjust="spacing" textLength="618" x="92.1671" y="464.9951">getEquation(const std::vector&lt;float&gt; &amp; coefficient) : std::unique_ptr&lt;BaseEquation&gt;</text></g><!--class C_0001944906352403911636--><g id="elem_C_0001944906352403911636"><rect codeLine="54" fill="#F1F1F1" height="178.375" id="C_0001944906352403911636" rx="2.5" ry="2.5" style="stroke:#181818;stroke-width:0.5;" width="496" x="825.1666" y="754.5"/><ellipse cx="1002.9166" cy="770.5" fill="#ADD1B2" rx="11" ry="11" style="stroke:#181818;stroke-width:1.0;"/><path d="M1005.2603,766.1719 C1004.3228,765.7344 1003.7291,765.5938 1002.8541,765.5938 C1000.2291,765.5938 998.2291,767.6719 998.2291,770.3906 L998.2291,771.5156 C998.2291,774.0938 1000.3385,775.9844 1003.2291,775.9844 C1004.4478,775.9844 1005.6041,775.6875 1006.3541,775.1406 C1006.9322,774.7344 1007.2603,774.2813 1007.2603,773.8906 C1007.2603,773.4375 1006.8697,773.0469 1006.401,773.0469 C1006.1822,773.0469 1005.9791,773.125 1005.7916,773.3125 C1005.3385,773.7969 1005.3385,773.7969 1005.151,773.8906 C1004.7291,774.1563 1004.0416,774.2813 1003.276,774.2813 C1001.2291,774.2813 999.9322,773.1875 999.9322,771.4844 L999.9322,770.3906 C999.9322,768.6094 1001.1822,767.2969 1002.9166,767.2969 C1003.4947,767.2969 1004.1041,767.4531 1004.5728,767.7031 C1005.0572,767.9844 1005.2291,768.2031 1005.3228,768.6094 C1005.3853,769.0156 1005.4166,769.1406 1005.5572,769.2656 C1005.6978,769.4063 1005.9322,769.5156 1006.151,769.5156 C1006.4166,769.5156 1006.6822,769.375 1006.8541,769.1563 C1006.9635,769 1006.9947,768.8125 1006.9947,768.3906 L1006.9947,766.9688 C1006.9947,766.5313 1006.9791,766.4063 1006.8853,766.25 C1006.7291,765.9844 1006.4478,765.8438 1006.151,765.8438 C1005.8541,765.8438 1005.651,765.9375 1005.4322,766.25 L1005.2603,766.1719 Z " fill="#000000"/><text fill="#000000" font-family="sans-serif" font-size="14" lengthAdjust="spacing" textLength="132" x="1023.4166" y="775.3467">QuadraticEquation</text><line style="stroke:#181818;stroke-width:0.5;" x1="826.1666" x2="1320.1666" y1="786.5" y2="786.5"/><rect fill="none" height="6" style="stroke:#C82930;stroke-width:1.0;" width="6" x="833.1666" y="797.1484"/><text fill="#000000" font-family="sans-serif" font-size="14" lengthAdjust="spacing" textLength="55" x="845.1666" y="803.4951">a : float</text><rect fill="none" height="6" style="stroke:#C82930;stroke-width:1.0;" width="6" x="833.1666" y="813.4453"/><text fill="#000000" font-family="sans-serif" font-size="14" lengthAdjust="spacing" textLength="57" x="845.1666" y="819.792">b : float</text><rect fill="none" height="6" style="stroke:#C82930;stroke-width:1.0;" width="6" x="833.1666" y="829.7422"/><text fill="#000000" font-family="sans-serif" font-size="14" lengthAdjust="spacing" textLength="55" x="845.1666" y="836.0889">c : float</text><line style="stroke:#181818;stroke-width:0.5;" x1="826.1666" x2="1320.1666" y1="843.3906" y2="843.3906"/><ellipse cx="836.1666" cy="857.0391" fill="#84BE84" rx="3" ry="3" style="stroke:#038048;stroke-width:1.0;"/><text fill="#000000" font-family="sans-serif" font-size="14" lengthAdjust="spacing" textLength="341" x="845.1666" y="860.3857">QuadraticEquation(float a, float b, float c) : void</text><ellipse cx="836.1666" cy="873.3359" fill="#84BE84" rx="3" ry="3" style="stroke:#038048;stroke-width:1.0;"/><text fill="#000000" font-family="sans-serif" font-size="14" lengthAdjust="spacing" textLength="470" x="845.1666" y="876.6826">QuadraticEquation(const std::vector&lt;float&gt; &amp; coefficients) : void</text><ellipse cx="836.1666" cy="889.6328" fill="#84BE84" rx="3" ry="3" style="stroke:#038048;stroke-width:1.0;"/><text fill="#000000" font-family="sans-serif" font-size="14" lengthAdjust="spacing" textLength="196" x="845.1666" y="892.9795">solve() : std::vector&lt;float&gt;</text><ellipse cx="836.1666" cy="905.9297" fill="#84BE84" rx="3" ry="3" style="stroke:#038048;stroke-width:1.0;"/><text fill="#000000" font-family="sans-serif" font-size="14" lengthAdjust="spacing" textLength="291" x="845.1666" y="909.2764">getEquationAsString() const : std::string</text><ellipse cx="836.1666" cy="922.2266" fill="#84BE84" rx="3" ry="3" style="stroke:#038048;stroke-width:1.0;"/><text fill="#000000" font-family="sans-serif" font-size="14" lengthAdjust="spacing" textLength="160" x="845.1666" y="925.5732">degree() const : size_t</text></g><!--class C_0001272971594470144461--><g id="elem_C_0001272971594470144461"><rect codeLine="65" fill="#F1F1F1" height="64.2969" id="C_0001272971594470144461" rx="2.5" ry="2.5" style="stroke:#181818;stroke-width:0.5;" width="644" x="751.1666" y="408"/><ellipse cx="975.4166" cy="424" fill="#ADD1B2" rx="11" ry="11" style="stroke:#181818;stroke-width:1.0;"/><path d="M977.7603,419.6719 C976.8228,419.2344 976.2291,419.0938 975.3541,419.0938 C972.7291,419.0938 970.7291,421.1719 970.7291,423.8906 L970.7291,425.0156 C970.7291,427.5938 972.8385,429.4844 975.7291,429.4844 C976.9478,429.4844 978.1041,429.1875 978.8541,428.6406 C979.4322,428.2344 979.7603,427.7813 979.7603,427.3906 C979.7603,426.9375 979.3697,426.5469 978.901,426.5469 C978.6822,426.5469 978.4791,426.625 978.2916,426.8125 C977.8385,427.2969 977.8385,427.2969 977.651,427.3906 C977.2291,427.6563 976.5416,427.7813 975.776,427.7813 C973.7291,427.7813 972.4322,426.6875 972.4322,424.9844 L972.4322,423.8906 C972.4322,422.1094 973.6822,420.7969 975.4166,420.7969 C975.9947,420.7969 976.6041,420.9531 977.0728,421.2031 C977.5572,421.4844 977.7291,421.7031 977.8228,422.1094 C977.8853,422.5156 977.9166,422.6406 978.0572,422.7656 C978.1978,422.9063 978.4322,423.0156 978.651,423.0156 C978.9166,423.0156 979.1822,422.875 979.3541,422.6563 C979.4635,422.5 979.4947,422.3125 979.4947,421.8906 L979.4947,420.4688 C979.4947,420.0313 979.4791,419.9063 979.3853,419.75 C979.2291,419.4844 978.9478,419.3438 978.651,419.3438 C978.3541,419.3438 978.151,419.4375 977.9322,419.75 L977.7603,419.6719 Z " fill="#000000"/><text fill="#000000" font-family="sans-serif" font-size="14" lengthAdjust="spacing" textLength="187" x="995.9166" y="428.8467">QuadraticEquationCreator</text><line style="stroke:#181818;stroke-width:0.5;" x1="752.1666" x2="1394.1666" y1="440" y2="440"/><line style="stroke:#181818;stroke-width:0.5;" x1="752.1666" x2="1394.1666" y1="448" y2="448"/><ellipse cx="762.1666" cy="461.6484" fill="#84BE84" rx="3" ry="3" style="stroke:#038048;stroke-width:1.0;"/><text fill="#000000" font-family="sans-serif" font-size="14" lengthAdjust="spacing" textLength="618" x="771.1666" y="464.9951">getEquation(const std::vector&lt;float&gt; &amp; coefficient) : std::unique_ptr&lt;BaseEquation&gt;</text></g><!--class C_0000291718224794728252--><g id="elem_C_0000291718224794728252"><rect codeLine="69" fill="#F1F1F1" height="210.9688" id="C_0000291718224794728252" rx="2.5" ry="2.5" style="stroke:#181818;stroke-width:0.5;" width="577" x="1356.6626" y="738"/><ellipse cx="1567.9126" cy="754" fill="#ADD1B2" rx="11" ry="11" style="stroke:#181818;stroke-width:1.0;"/><path d="M1570.2563,749.6719 C1569.3188,749.2344 1568.7251,749.0938 1567.8501,749.0938 C1565.2251,749.0938 1563.2251,751.1719 1563.2251,753.8906 L1563.2251,755.0156 C1563.2251,757.5938 1565.3345,759.4844 1568.2251,759.4844 C1569.4438,759.4844 1570.6001,759.1875 1571.3501,758.6406 C1571.9282,758.2344 1572.2563,757.7813 1572.2563,757.3906 C1572.2563,756.9375 1571.8657,756.5469 1571.397,756.5469 C1571.1782,756.5469 1570.9751,756.625 1570.7876,756.8125 C1570.3345,757.2969 1570.3345,757.2969 1570.147,757.3906 C1569.7251,757.6563 1569.0376,757.7813 1568.272,757.7813 C1566.2251,757.7813 1564.9282,756.6875 1564.9282,754.9844 L1564.9282,753.8906 C1564.9282,752.1094 1566.1782,750.7969 1567.9126,750.7969 C1568.4907,750.7969 1569.1001,750.9531 1569.5688,751.2031 C1570.0532,751.4844 1570.2251,751.7031 1570.3188,752.1094 C1570.3813,752.5156 1570.4126,752.6406 1570.5532,752.7656 C1570.6938,752.9063 1570.9282,753.0156 1571.147,753.0156 C1571.4126,753.0156 1571.6782,752.875 1571.8501,752.6563 C1571.9595,752.5 1571.9907,752.3125 1571.9907,751.8906 L1571.9907,750.4688 C1571.9907,750.0313 1571.9751,749.9063 1571.8813,749.75 C1571.7251,749.4844 1571.4438,749.3438 1571.147,749.3438 C1570.8501,749.3438 1570.647,749.4375 1570.4282,749.75 L1570.2563,749.6719 Z " fill="#000000"/><text fill="#000000" font-family="sans-serif" font-size="14" lengthAdjust="spacing" textLength="146" x="1588.4126" y="758.8467">BiQuadraticEquation</text><line style="stroke:#181818;stroke-width:0.5;" x1="1357.6626" x2="1932.6626" y1="770" y2="770"/><rect fill="none" height="6" style="stroke:#C82930;stroke-width:1.0;" width="6" x="1364.6626" y="780.6484"/><text fill="#000000" font-family="sans-serif" font-size="14" lengthAdjust="spacing" textLength="55" x="1376.6626" y="786.9951">a : float</text><rect fill="none" height="6" style="stroke:#C82930;stroke-width:1.0;" width="6" x="1364.6626" y="796.9453"/><text fill="#000000" font-family="sans-serif" font-size="14" lengthAdjust="spacing" textLength="57" x="1376.6626" y="803.292">b : float</text><rect fill="none" height="6" style="stroke:#C82930;stroke-width:1.0;" width="6" x="1364.6626" y="813.2422"/><text fill="#000000" font-family="sans-serif" font-size="14" lengthAdjust="spacing" textLength="55" x="1376.6626" y="819.5889">c : float</text><line style="stroke:#181818;stroke-width:0.5;" x1="1357.6626" x2="1932.6626" y1="826.8906" y2="826.8906"/><ellipse cx="1367.6626" cy="840.5391" fill="#84BE84" rx="3" ry="3" style="stroke:#038048;stroke-width:1.0;"/><text fill="#000000" font-family="sans-serif" font-size="14" lengthAdjust="spacing" textLength="355" x="1376.6626" y="843.8857">BiQuadraticEquation(float a, float b, float c) : void</text><ellipse cx="1367.6626" cy="856.8359" fill="#84BE84" rx="3" ry="3" style="stroke:#038048;stroke-width:1.0;"/><text fill="#000000" font-family="sans-serif" font-size="14" lengthAdjust="spacing" textLength="484" x="1376.6626" y="860.1826">BiQuadraticEquation(const std::vector&lt;float&gt; &amp; coefficients) : void</text><ellipse cx="1367.6626" cy="873.1328" fill="#84BE84" rx="3" ry="3" style="stroke:#038048;stroke-width:1.0;"/><text fill="#000000" font-family="sans-serif" font-size="14" lengthAdjust="spacing" textLength="196" x="1376.6626" y="876.4795">solve() : std::vector&lt;float&gt;</text><ellipse cx="1367.6626" cy="889.4297" fill="#84BE84" rx="3" ry="3" style="stroke:#038048;stroke-width:1.0;"/><text fill="#000000" font-family="sans-serif" font-size="14" lengthAdjust="spacing" textLength="291" x="1376.6626" y="892.7764">getEquationAsString() const : std::string</text><ellipse cx="1367.6626" cy="905.7266" fill="#84BE84" rx="3" ry="3" style="stroke:#038048;stroke-width:1.0;"/><text fill="#000000" font-family="sans-serif" font-size="14" lengthAdjust="spacing" textLength="160" x="1376.6626" y="909.0732">degree() const : size_t</text><rect fill="#F24D5C" height="6" style="stroke:#C82930;stroke-width:1.0;" width="6" x="1364.6626" y="919.0234"/><text fill="#000000" font-family="sans-serif" font-size="14" lengthAdjust="spacing" textLength="537" x="1376.6626" y="925.3701">processSingleSolution(std::vector&lt;float&gt; &amp; solutions) : std::vector&lt;float&gt;</text><rect fill="#F24D5C" height="6" style="stroke:#C82930;stroke-width:1.0;" width="6" x="1364.6626" y="935.3203"/><text fill="#000000" font-family="sans-serif" font-size="14" lengthAdjust="spacing" textLength="551" x="1376.6626" y="941.667">processMultipleSolution(std::vector&lt;float&gt; &amp; solutions) : std::vector&lt;float&gt;</text></g><!--class C_0000860449928865692712--><g id="elem_C_0000860449928865692712"><rect codeLine="82" fill="#F1F1F1" height="64.2969" id="C_0000860449928865692712" rx="2.5" ry="2.5" style="stroke:#181818;stroke-width:0.5;" width="644" x="1430.1626" y="408"/><ellipse cx="1647.4126" cy="424" fill="#ADD1B2" rx="11" ry="11" style="stroke:#181818;stroke-width:1.0;"/><path d="M1649.7563,419.6719 C1648.8188,419.2344 1648.2251,419.0938 1647.3501,419.0938 C1644.7251,419.0938 1642.7251,421.1719 1642.7251,423.8906 L1642.7251,425.0156 C1642.7251,427.5938 1644.8345,429.4844 1647.7251,429.4844 C1648.9438,429.4844 1650.1001,429.1875 1650.8501,428.6406 C1651.4282,428.2344 1651.7563,427.7813 1651.7563,427.3906 C1651.7563,426.9375 1651.3657,426.5469 1650.897,426.5469 C1650.6782,426.5469 1650.4751,426.625 1650.2876,426.8125 C1649.8345,427.2969 1649.8345,427.2969 1649.647,427.3906 C1649.2251,427.6563 1648.5376,427.7813 1647.772,427.7813 C1645.7251,427.7813 1644.4282,426.6875 1644.4282,424.9844 L1644.4282,423.8906 C1644.4282,422.1094 1645.6782,420.7969 1647.4126,420.7969 C1647.9907,420.7969 1648.6001,420.9531 1649.0688,421.2031 C1649.5532,421.4844 1649.7251,421.7031 1649.8188,422.1094 C1649.8813,422.5156 1649.9126,422.6406 1650.0532,422.7656 C1650.1938,422.9063 1650.4282,423.0156 1650.647,423.0156 C1650.9126,423.0156 1651.1782,422.875 1651.3501,422.6563 C1651.4595,422.5 1651.4907,422.3125 1651.4907,421.8906 L1651.4907,420.4688 C1651.4907,420.0313 1651.4751,419.9063 1651.3813,419.75 C1651.2251,419.4844 1650.9438,419.3438 1650.647,419.3438 C1650.3501,419.3438 1650.147,419.4375 1649.9282,419.75 L1649.7563,419.6719 Z " fill="#000000"/><text fill="#000000" font-family="sans-serif" font-size="14" lengthAdjust="spacing" textLength="201" x="1667.9126" y="428.8467">BiQuadraticEquationCreator</text><line style="stroke:#181818;stroke-width:0.5;" x1="1431.1626" x2="2073.1626" y1="440" y2="440"/><line style="stroke:#181818;stroke-width:0.5;" x1="1431.1626" x2="2073.1626" y1="448" y2="448"/><ellipse cx="1441.1626" cy="461.6484" fill="#84BE84" rx="3" ry="3" style="stroke:#038048;stroke-width:1.0;"/><text fill="#000000" font-family="sans-serif" font-size="14" lengthAdjust="spacing" textLength="618" x="1450.1626" y="464.9951">getEquation(const std::vector&lt;float&gt; &amp; coefficient) : std::unique_ptr&lt;BaseEquation&gt;</text></g><!--class C_0000546696313431489778--><g id="elem_C_0000546696313431489778"><rect codeLine="86" fill="#F1F1F1" height="162.0781" id="C_0000546696313431489778" rx="2.5" ry="2.5" style="stroke:#181818;stroke-width:0.5;" width="607" x="2109.6626" y="359"/><ellipse cx="2368.9126" cy="375" fill="#ADD1B2" rx="11" ry="11" style="stroke:#181818;stroke-width:1.0;"/><path d="M2371.2564,370.6719 C2370.3189,370.2344 2369.7251,370.0938 2368.8501,370.0938 C2366.2251,370.0938 2364.2251,372.1719 2364.2251,374.8906 L2364.2251,376.0156 C2364.2251,378.5938 2366.3345,380.4844 2369.2251,380.4844 C2370.4439,380.4844 2371.6001,380.1875 2372.3501,379.6406 C2372.9282,379.2344 2373.2564,378.7813 2373.2564,378.3906 C2373.2564,377.9375 2372.8657,377.5469 2372.397,377.5469 C2372.1782,377.5469 2371.9751,377.625 2371.7876,377.8125 C2371.3345,378.2969 2371.3345,378.2969 2371.147,378.3906 C2370.7251,378.6563 2370.0376,378.7813 2369.272,378.7813 C2367.2251,378.7813 2365.9282,377.6875 2365.9282,375.9844 L2365.9282,374.8906 C2365.9282,373.1094 2367.1782,371.7969 2368.9126,371.7969 C2369.4907,371.7969 2370.1001,371.9531 2370.5689,372.2031 C2371.0532,372.4844 2371.2251,372.7031 2371.3189,373.1094 C2371.3814,373.5156 2371.4126,373.6406 2371.5532,373.7656 C2371.6939,373.9063 2371.9282,374.0156 2372.147,374.0156 C2372.4126,374.0156 2372.6782,373.875 2372.8501,373.6563 C2372.9595,373.5 2372.9907,373.3125 2372.9907,372.8906 L2372.9907,371.4688 C2372.9907,371.0313 2372.9751,370.9063 2372.8814,370.75 C2372.7251,370.4844 2372.4439,370.3438 2372.147,370.3438 C2371.8501,370.3438 2371.647,370.4375 2371.4282,370.75 L2371.2564,370.6719 Z " fill="#000000"/><text fill="#000000" font-family="sans-serif" font-size="14" lengthAdjust="spacing" textLength="80" x="2389.4126" y="379.8467">Workspace</text><line style="stroke:#181818;stroke-width:0.5;" x1="2110.6626" x2="2715.6626" y1="391" y2="391"/><line style="stroke:#181818;stroke-width:0.5;" x1="2110.6626" x2="2715.6626" y1="399" y2="399"/><ellipse cx="2120.6626" cy="412.6484" fill="#84BE84" rx="3" ry="3" style="stroke:#038048;stroke-width:1.0;"/><text fill="#000000" font-family="sans-serif" font-size="14" lengthAdjust="spacing" textLength="153" x="2129.6626" y="415.9951">test_manually() : void</text><ellipse cx="2120.6626" cy="428.9453" fill="#84BE84" rx="3" ry="3" style="stroke:#038048;stroke-width:1.0;"/><text fill="#000000" font-family="sans-serif" font-size="14" lengthAdjust="spacing" textLength="285" x="2129.6626" y="432.292">test_file(const std::string &amp; path) : void</text><rect fill="#F24D5C" height="6" style="stroke:#C82930;stroke-width:1.0;" width="6" x="2117.6626" y="442.2422"/><text fill="#000000" font-family="sans-serif" font-size="14" lengthAdjust="spacing" textLength="130" x="2129.6626" y="448.5889">test_linear() : void</text><rect fill="#F24D5C" height="6" style="stroke:#C82930;stroke-width:1.0;" width="6" x="2117.6626" y="458.5391"/><text fill="#000000" font-family="sans-serif" font-size="14" lengthAdjust="spacing" textLength="157" x="2129.6626" y="464.8857">test_quadratic() : void</text><rect fill="#F24D5C" height="6" style="stroke:#C82930;stroke-width:1.0;" width="6" x="2117.6626" y="474.8359"/><text fill="#000000" font-family="sans-serif" font-size="14" lengthAdjust="spacing" textLength="171" x="2129.6626" y="481.1826">test_biquadratic() : void</text><rect fill="#F24D5C" height="6" style="stroke:#C82930;stroke-width:1.0;" width="6" x="2117.6626" y="491.1328"/><text fill="#000000" font-family="sans-serif" font-size="14" lengthAdjust="spacing" textLength="392" x="2129.6626" y="497.4795">getCoefficients(std::string &amp; line) : std::vector&lt;float&gt;</text><rect fill="#F24D5C" height="6" style="stroke:#C82930;stroke-width:1.0;" width="6" x="2117.6626" y="507.4297"/><text fill="#000000" font-family="sans-serif" font-size="14" lengthAdjust="spacing" textLength="581" x="2129.6626" y="513.7764">getEquation(std::vector&lt;float&gt; &amp; coefficients) : std::unique_ptr&lt;BaseEquation&gt;</text></g><!--link C_0001531731901804074813 to C_0001791364580297827811--><g id="link_C_0001531731901804074813_C_0001791364580297827811"><path codeLine="95" d="M545.6276,185.021 C365.8056,219.043 113.1766,279.544 54.1671,359 C11.2388,416.803 6,467.484 54.1671,521 C109.579,582.565 623.7196,611.449 899.7826,622.618 " fill="none" id="C_0001531731901804074813-to-C_0001791364580297827811" style="stroke:#181818;stroke-width:1.0;stroke-dasharray:7.0,7.0;"/><polygon fill="#181818" points="905.0436,622.83,896.212,618.4708,900.0477,622.6286,895.8898,626.4643,905.0436,622.83" style="stroke:#181818;stroke-width:1.0;"/></g><!--reverse link C_0001791364580297827811 to C_0001125383498695120590--><g id="link_C_0001791364580297827811_C_0001125383498695120590"><path codeLine="96" d="M936.1756,685.631 C894.7036,702.383 849.0516,720.887 807.1666,738 C787.8106,745.909 767.6336,754.186 747.4906,762.471 " fill="none" id="C_0001791364580297827811-backto-C_0001125383498695120590" style="stroke:#181818;stroke-width:1.0;"/><polygon fill="none" points="933.7416,679.064,954.9076,678.068,938.9826,692.046,933.7416,679.064" style="stroke:#181818;stroke-width:1.0;"/></g><!--link C_0000290827087332084076 to C_0001791364580297827811--><g id="link_C_0000290827087332084076_C_0001791364580297827811"><path codeLine="97" d="M506.6706,472.067 C613.7306,501.631 776.3696,546.542 899.9626,580.671 " fill="none" id="C_0000290827087332084076-to-C_0001791364580297827811" style="stroke:#181818;stroke-width:1.0;stroke-dasharray:7.0,7.0;"/><polygon fill="#181818" points="905.0796,582.084,897.4695,575.8321,900.2601,580.7527,895.3395,583.5433,905.0796,582.084" style="stroke:#181818;stroke-width:1.0;"/></g><!--reverse link C_0001531731901804074813 to C_0000290827087332084076--><g id="link_C_0001531731901804074813_C_0000290827087332084076"><path codeLine="98" d="M680.6306,198.168 C611.4056,256.366 491.3856,357.268 431.0456,407.996 " fill="none" id="C_0001531731901804074813-backto-C_0000290827087332084076" style="stroke:#181818;stroke-width:1.0;"/><polygon fill="none" points="676.4296,192.555,696.2426,185.043,685.4386,203.271,676.4296,192.555" style="stroke:#181818;stroke-width:1.0;"/></g><!--reverse link C_0001791364580297827811 to C_0001944906352403911636--><g id="link_C_0001791364580297827811_C_0001944906352403911636"><path codeLine="99" d="M1073.1626,698.092 C1073.1626,715.922 1073.1626,735.428 1073.1626,754.176 " fill="none" id="C_0001791364580297827811-backto-C_0001944906352403911636" style="stroke:#181818;stroke-width:1.0;"/><polygon fill="none" points="1066.1626,698.077,1073.1626,678.077,1080.1626,698.077,1066.1626,698.077" style="stroke:#181818;stroke-width:1.0;"/></g><!--link C_0001272971594470144461 to C_0001791364580297827811--><g id="link_C_0001272971594470144461_C_0001791364580297827811"><path codeLine="100" d="M1073.1626,472.383 C1073.1626,500.487 1073.1626,542.276 1073.1626,575.547 " fill="none" id="C_0001272971594470144461-to-C_0001791364580297827811" style="stroke:#181818;stroke-width:1.0;stroke-dasharray:7.0,7.0;"/><polygon fill="#181818" points="1073.1626,580.811,1077.1626,571.811,1073.1626,575.811,1069.1626,571.811,1073.1626,580.811" style="stroke:#181818;stroke-width:1.0;"/></g><!--reverse link C_0001531731901804074813 to C_0001272971594470144461--><g id="link_C_0001531731901804074813_C_0001272971594470144461"><path codeLine="101" d="M785.8586,198.168 C855.2876,256.366 975.6616,357.268 1036.1826,407.996 " fill="none" id="C_0001531731901804074813-backto-C_0001272971594470144461" style="stroke:#181818;stroke-width:1.0;"/><polygon fill="none" points="781.0306,203.255,770.2006,185.043,790.0246,192.526,781.0306,203.255" style="stroke:#181818;stroke-width:1.0;"/></g><!--reverse link C_0001791364580297827811 to C_0000291718224794728252--><g id="link_C_0001791364580297827811_C_0000291718224794728252"><path codeLine="102" d="M1220.5826,685.135 C1264.3626,701.362 1313.8626,719.707 1363.1926,737.993 " fill="none" id="C_0001791364580297827811-backto-C_0000291718224794728252" style="stroke:#181818;stroke-width:1.0;"/><polygon fill="none" points="1217.8526,691.591,1201.5326,678.077,1222.7226,678.464,1217.8526,691.591" style="stroke:#181818;stroke-width:1.0;"/></g><!--link C_0000860449928865692712 to C_0001791364580297827811--><g id="link_C_0000860449928865692712_C_0001791364580297827811"><path codeLine="103" d="M1639.6626,472.067 C1532.6026,501.631 1369.9626,546.542 1246.3726,580.671 " fill="none" id="C_0000860449928865692712-to-C_0001791364580297827811" style="stroke:#181818;stroke-width:1.0;stroke-dasharray:7.0,7.0;"/><polygon fill="#181818" points="1241.2526,582.084,1250.9919,583.5486,1246.0728,580.7554,1248.8661,575.8363,1241.2526,582.084" style="stroke:#181818;stroke-width:1.0;"/></g><!--reverse link C_0001531731901804074813 to C_0000860449928865692712--><g id="link_C_0001531731901804074813_C_0000860449928865692712"><path codeLine="104" d="M814.3186,193.71 C883.7116,226.221 987.0016,271.228 1081.1626,299 C1224.9926,341.416 1266.3726,328.436 1413.1626,359 C1484.5026,373.853 1563.7926,392.448 1627.7426,407.972 " fill="none" id="C_0001531731901804074813-backto-C_0000860449928865692712" style="stroke:#181818;stroke-width:1.0;"/><polygon fill="none" points="811.2086,199.983,796.1196,185.106,817.1926,187.326,811.2086,199.983" style="stroke:#181818;stroke-width:1.0;"/></g><!--link C_0000546696313431489778 to C_0001791364580297827811--><g id="link_C_0000546696313431489778_C_0001791364580297827811"><path codeLine="105" d="M2109.2626,517.878 C2103.5226,518.96 2097.8226,520.002 2092.1626,521 C1797.4726,573.005 1450.0826,603.082 1246.4926,617.593 " fill="none" id="C_0000546696313431489778-to-C_0001791364580297827811" style="stroke:#181818;stroke-width:1.0;stroke-dasharray:7.0,7.0;"/><polygon fill="#181818" points="1241.4126,617.954,1250.6753,621.3009,1246.3998,617.5969,1250.1039,613.3213,1241.4126,617.954" style="stroke:#181818;stroke-width:1.0;"/></g><!--SRC=[rLTTRzis57tNho3oi3f8v90IHL965c0Dac50sc5BiJu6j4GvsXJ94IbtNPhzzbqfiVNj2aiAR2-6h7juUBzuBYMNskGoCEZWhTJguhwG9ixI0oGrEh_161Fk4vTHJs37vyBXWX1BRjUC8T23zR05FQ8ZdIKRDJj4toEC5aYRSB7OgC1a-McKPDASjS0hPRPU_A2lJHwdArWQPAasJG9TMLehGxNAbUg2ux_KZR4UhI2HMgE3opXHloePghmP8tTTwbCcFCOPPYxXp_0nCmHuL3FDdZPi-8M-GsjfRW_1WKqMXzRHtmrq_JPLVvhgRpEaerXVP9UxC1PecMM9PUUm-3tWh-9KrHHs1BnRWZW22YNlB3i1K8UsbO6FUMoQ6S2EOCo3m5mN0gGUSxnc1WRCPGPa65xShStdmVZLSn7hQ07-C_Y-3toC6jPMZm08sgWeGRf5-U5JzkgKjsKVlJBfPLRahytvKngz9gLTnfwL_J7QqIt65-ytkNaVj84DWaTabqvyo0ZOUuxqKCuab3i9HIUXe22JSDMn6KG-rkhQKkHpo0saio5QrNaaFYO2Kyof86vNcFk8ZZ0tj7Qsft91fg8e3cALcfQ85sbyNwYRjSbFcwwUrLfJYfNC1wOASJnNWAWAvdl4mPwFMuhRDvTwqsQRLVuXUOoU7fRrqUW0fuNME5hRWJKuhFPEg8wKTqRIRXpP4fuhFijUxXv7qjOhFGnQ38CM2z1Z1mkeBMkhTSzSPk_V57joeNyfP9YNBJvGQvzI7wQcvr3i-eGmj-NjWBdqjaVOA_Vs8QZhrb_qVocz7VIxe1TDNmCS3dSkua4AEIQKKaPQgUsRltaZl8ttj09q9k54E0xbFkMES3odqxXTS-dl0EMKPXXQzXziXtMU1KhhQq0bwlfvHiw-Fa47_DbolIiI4wzVp3QvKGSotTSimJ0STDyHWddCTpXfbxvl_kQj-Z7B_z1h6QY6bnvbp8SRlajTGeNFkMXvsJUNNXgbpSsTJ0kP99yRr_lgVRJlEbLVXIfiKkd-hFFsVflShc4P3vaWP-UDNfwrTost62juCzkJpiZN4Zrw3PdFpyO_BqU_Aa-_sFRu_M5qzatORC35UhEXSJl5nu6vDohBB_LnQ19Cy758a4VFuulpE201eyTgxsRMcnzLgg3nLOW-nUOMmHbDLtPnbnoZZSerj1_2StTEhJTNLx-zsxshOBj_n9lZEKUpMsFMUd5oiWAcOZaFihkJ9Day_PII-ZkSWZaOaGYZC0ZuaYyZng3x96Ta6OfGKN2FOXKneMX8vE4_]--></g></svg>