<?xml version="1.0" encoding="us-ascii" standalone="no"?><svg xmlns="http://www.w3.org/2000/svg" xmlns:xlink="http://www.w3.org/1999/xlink" contentStyleType="text/css" height="1738px" preserveAspectRatio="none" style="width:1480px;height:1738px;background:#FFFFFF;" version="1.1" viewBox="0 0 1480 1738" width="1480px" zoomAndPan="magnify"><defs/><g><rect fill="#FFFFFF" height="1617.4531" style="stroke:#181818;stroke-width:1.0;" width="10" x="61" y="67.4297"/><rect fill="#FFFFFF" height="1582.3203" style="stroke:#181818;stroke-width:1.0;" width="10" x="270" y="96.5625"/><rect fill="#FFFFFF" height="25" style="stroke:#181818;stroke-width:1.0;" width="10" x="275" y="340.3594"/><rect fill="#FFFFFF" height="68.1328" style="stroke:#181818;stroke-width:1.0;" width="10" x="275" y="409.4922"/><rect fill="#FFFFFF" height="14" style="stroke:#181818;stroke-width:1.0;" width="10" x="515" y="173.9609"/><rect fill="#FFFFFF" height="86.1328" style="stroke:#181818;stroke-width:1.0;" width="10" x="515" y="217.0938"/><rect fill="#FFFFFF" height="28" style="stroke:#181818;stroke-width:1.0;" width="10" x="520" y="254.2266"/><rect fill="#FFFFFF" height="14" style="stroke:#181818;stroke-width:1.0;" width="10" x="653" y="443.625"/><rect fill="#FFFFFF" height="14" style="stroke:#181818;stroke-width:1.0;" width="10" x="801.5" y="513.7578"/><rect fill="#FFFFFF" height="14" style="stroke:#181818;stroke-width:1.0;" width="10" x="801.5" y="581.0234"/><rect fill="#FFFFFF" height="14" style="stroke:#181818;stroke-width:1.0;" width="10" x="801.5" y="727.4219"/><rect fill="#FFFFFF" height="14" style="stroke:#181818;stroke-width:1.0;" width="10" x="801.5" y="895.9531"/><rect fill="#FFFFFF" height="14" style="stroke:#181818;stroke-width:1.0;" width="10" x="801.5" y="1042.3516"/><rect fill="#FFFFFF" height="14" style="stroke:#181818;stroke-width:1.0;" width="10" x="801.5" y="1210.8828"/><rect fill="#FFFFFF" height="14" style="stroke:#181818;stroke-width:1.0;" width="10" x="801.5" y="1355.2813"/><rect fill="#FFFFFF" height="14" style="stroke:#181818;stroke-width:1.0;" width="10" x="801.5" y="1568.9453"/><rect fill="#FFFFFF" height="14" style="stroke:#181818;stroke-width:1.0;" width="10" x="801.5" y="1614.0781"/><rect fill="#FFFFFF" height="65.1328" style="stroke:#181818;stroke-width:1.0;" width="10" x="909.5" y="624.1563"/><rect fill="#FFFFFF" height="28" style="stroke:#181818;stroke-width:1.0;" width="10" x="914.5" y="661.2891"/><rect fill="#FFFFFF" height="65.1328" style="stroke:#181818;stroke-width:1.0;" width="10" x="909.5" y="770.5547"/><rect fill="#FFFFFF" height="28" style="stroke:#181818;stroke-width:1.0;" width="10" x="914.5" y="807.6875"/><rect fill="#FFFFFF" height="65.1328" style="stroke:#181818;stroke-width:1.0;" width="10" x="909.5" y="939.0859"/><rect fill="#FFFFFF" height="28" style="stroke:#181818;stroke-width:1.0;" width="10" x="914.5" y="976.2188"/><rect fill="#FFFFFF" height="65.1328" style="stroke:#181818;stroke-width:1.0;" width="10" x="909.5" y="1085.4844"/><rect fill="#FFFFFF" height="28" style="stroke:#181818;stroke-width:1.0;" width="10" x="914.5" y="1122.6172"/><rect fill="#FFFFFF" height="65.1328" style="stroke:#181818;stroke-width:1.0;" width="10" x="909.5" y="1254.0156"/><rect fill="#FFFFFF" height="28" style="stroke:#181818;stroke-width:1.0;" width="10" x="914.5" y="1291.1484"/><rect fill="#FFFFFF" height="65.1328" style="stroke:#181818;stroke-width:1.0;" width="10" x="909.5" y="1398.4141"/><rect fill="#FFFFFF" height="28" style="stroke:#181818;stroke-width:1.0;" width="10" x="914.5" y="1435.5469"/><rect fill="none" height="1560.3203" style="stroke:#000000;stroke-width:1.5;" width="1295.5" x="178" y="111.5625"/><rect fill="none" height="1514.3828" style="stroke:#000000;stroke-width:1.5;" width="1275.5" x="188" y="135.6953"/><rect fill="none" height="949.7891" style="stroke:#000000;stroke-width:1.5;" width="1255.5" x="198" y="542.7578"/><rect fill="none" height="627.8594" style="stroke:#000000;stroke-width:1.5;" width="1235.5" x="208" y="857.6875"/><rect fill="none" height="305.9297" style="stroke:#000000;stroke-width:1.5;" width="1215.5" x="218" y="1172.6172"/><rect fill="none" height="136.5313" style="stroke:#000000;stroke-width:1.5;" width="674" x="208" y="1506.5469"/><rect fill="none" height="105.3984" style="stroke:#000000;stroke-width:1.5;" width="654" x="218" y="1530.6797"/><line style="stroke:#181818;stroke-width:0.5;stroke-dasharray:5.0,5.0;" x1="66" x2="66" y1="36.2969" y2="1702.8828"/><line style="stroke:#181818;stroke-width:0.5;stroke-dasharray:5.0,5.0;" x1="275" x2="275" y1="36.2969" y2="1702.8828"/><line style="stroke:#181818;stroke-width:0.5;stroke-dasharray:5.0,5.0;" x1="520" x2="520" y1="36.2969" y2="1702.8828"/><line style="stroke:#181818;stroke-width:0.5;stroke-dasharray:5.0,5.0;" x1="658" x2="658" y1="36.2969" y2="1702.8828"/><line style="stroke:#181818;stroke-width:0.5;stroke-dasharray:5.0,5.0;" x1="806" x2="806" y1="36.2969" y2="1702.8828"/><line style="stroke:#181818;stroke-width:0.5;stroke-dasharray:5.0,5.0;" x1="914" x2="914" y1="36.2969" y2="1702.8828"/><rect fill="#E2E2F0" height="30.2969" rx="2.5" ry="2.5" style="stroke:#181818;stroke-width:0.5;" width="82" x="25" y="5"/><text fill="#000000" font-family="sans-serif" font-size="14" lengthAdjust="spacing" textLength="68" x="32" y="24.9951">main.cpp</text><rect fill="#E2E2F0" height="30.2969" rx="2.5" ry="2.5" style="stroke:#181818;stroke-width:0.5;" width="82" x="25" y="1701.8828"/><text fill="#000000" font-family="sans-serif" font-size="14" lengthAdjust="spacing" textLength="68" x="32" y="1721.8779">main.cpp</text><rect fill="#E2E2F0" height="30.2969" rx="2.5" ry="2.5" style="stroke:#181818;stroke-width:0.5;" width="94" x="228" y="5"/><text fill="#000000" font-family="sans-serif" font-size="14" lengthAdjust="spacing" textLength="80" x="235" y="24.9951">Workspace</text><rect fill="#E2E2F0" height="30.2969" rx="2.5" ry="2.5" style="stroke:#181818;stroke-width:0.5;" width="94" x="228" y="1701.8828"/><text fill="#000000" font-family="sans-serif" font-size="14" lengthAdjust="spacing" textLength="80" x="235" y="1721.8779">Workspace</text><rect fill="#E2E2F0" height="30.2969" rx="2.5" ry="2.5" style="stroke:#181818;stroke-width:0.5;" width="90" x="475" y="5"/><text fill="#000000" font-family="sans-serif" font-size="14" lengthAdjust="spacing" textLength="76" x="482" y="24.9951">FileReader</text><rect fill="#E2E2F0" height="30.2969" rx="2.5" ry="2.5" style="stroke:#181818;stroke-width:0.5;" width="90" x="475" y="1701.8828"/><text fill="#000000" font-family="sans-serif" font-size="14" lengthAdjust="spacing" textLength="76" x="482" y="1721.8779">FileReader</text><rect fill="#E2E2F0" height="30.2969" rx="2.5" ry="2.5" style="stroke:#181818;stroke-width:0.5;" width="166" x="575" y="5"/><text fill="#000000" font-family="sans-serif" font-size="14" lengthAdjust="spacing" textLength="152" x="582" y="24.9951">BaseEquationCreator</text><rect fill="#E2E2F0" height="30.2969" rx="2.5" ry="2.5" style="stroke:#181818;stroke-width:0.5;" width="166" x="575" y="1701.8828"/><text fill="#000000" font-family="sans-serif" font-size="14" lengthAdjust="spacing" textLength="152" x="582" y="1721.8779">BaseEquationCreator</text><rect fill="#E2E2F0" height="30.2969" rx="2.5" ry="2.5" style="stroke:#181818;stroke-width:0.5;" width="111" x="751" y="5"/><text fill="#000000" font-family="sans-serif" font-size="14" lengthAdjust="spacing" textLength="97" x="758" y="24.9951">BaseEquation</text><rect fill="#E2E2F0" height="30.2969" rx="2.5" ry="2.5" style="stroke:#181818;stroke-width:0.5;" width="111" x="751" y="1701.8828"/><text fill="#000000" font-family="sans-serif" font-size="14" lengthAdjust="spacing" textLength="97" x="758" y="1721.8779">BaseEquation</text><rect fill="#E2E2F0" height="30.2969" rx="2.5" ry="2.5" style="stroke:#181818;stroke-width:0.5;" width="85" x="872" y="5"/><text fill="#000000" font-family="sans-serif" font-size="14" lengthAdjust="spacing" textLength="71" x="879" y="24.9951">FileWriter</text><rect fill="#E2E2F0" height="30.2969" rx="2.5" ry="2.5" style="stroke:#181818;stroke-width:0.5;" width="85" x="872" y="1701.8828"/><text fill="#000000" font-family="sans-serif" font-size="14" lengthAdjust="spacing" textLength="71" x="879" y="1721.8779">FileWriter</text><rect fill="#FFFFFF" height="1617.4531" style="stroke:#181818;stroke-width:1.0;" width="10" x="61" y="67.4297"/><rect fill="#FFFFFF" height="1582.3203" style="stroke:#181818;stroke-width:1.0;" width="10" x="270" y="96.5625"/><rect fill="#FFFFFF" height="25" style="stroke:#181818;stroke-width:1.0;" width="10" x="275" y="340.3594"/><rect fill="#FFFFFF" height="68.1328" style="stroke:#181818;stroke-width:1.0;" width="10" x="275" y="409.4922"/><rect fill="#FFFFFF" height="14" style="stroke:#181818;stroke-width:1.0;" width="10" x="515" y="173.9609"/><rect fill="#FFFFFF" height="86.1328" style="stroke:#181818;stroke-width:1.0;" width="10" x="515" y="217.0938"/><rect fill="#FFFFFF" height="28" style="stroke:#181818;stroke-width:1.0;" width="10" x="520" y="254.2266"/><rect fill="#FFFFFF" height="14" style="stroke:#181818;stroke-width:1.0;" width="10" x="653" y="443.625"/><rect fill="#FFFFFF" height="14" style="stroke:#181818;stroke-width:1.0;" width="10" x="801.5" y="513.7578"/><rect fill="#FFFFFF" height="14" style="stroke:#181818;stroke-width:1.0;" width="10" x="801.5" y="581.0234"/><rect fill="#FFFFFF" height="14" style="stroke:#181818;stroke-width:1.0;" width="10" x="801.5" y="727.4219"/><rect fill="#FFFFFF" height="14" style="stroke:#181818;stroke-width:1.0;" width="10" x="801.5" y="895.9531"/><rect fill="#FFFFFF" height="14" style="stroke:#181818;stroke-width:1.0;" width="10" x="801.5" y="1042.3516"/><rect fill="#FFFFFF" height="14" style="stroke:#181818;stroke-width:1.0;" width="10" x="801.5" y="1210.8828"/><rect fill="#FFFFFF" height="14" style="stroke:#181818;stroke-width:1.0;" width="10" x="801.5" y="1355.2813"/><rect fill="#FFFFFF" height="14" style="stroke:#181818;stroke-width:1.0;" width="10" x="801.5" y="1568.9453"/><rect fill="#FFFFFF" height="14" style="stroke:#181818;stroke-width:1.0;" width="10" x="801.5" y="1614.0781"/><rect fill="#FFFFFF" height="65.1328" style="stroke:#181818;stroke-width:1.0;" width="10" x="909.5" y="624.1563"/><rect fill="#FFFFFF" height="28" style="stroke:#181818;stroke-width:1.0;" width="10" x="914.5" y="661.2891"/><rect fill="#FFFFFF" height="65.1328" style="stroke:#181818;stroke-width:1.0;" width="10" x="909.5" y="770.5547"/><rect fill="#FFFFFF" height="28" style="stroke:#181818;stroke-width:1.0;" width="10" x="914.5" y="807.6875"/><rect fill="#FFFFFF" height="65.1328" style="stroke:#181818;stroke-width:1.0;" width="10" x="909.5" y="939.0859"/><rect fill="#FFFFFF" height="28" style="stroke:#181818;stroke-width:1.0;" width="10" x="914.5" y="976.2188"/><rect fill="#FFFFFF" height="65.1328" style="stroke:#181818;stroke-width:1.0;" width="10" x="909.5" y="1085.4844"/><rect fill="#FFFFFF" height="28" style="stroke:#181818;stroke-width:1.0;" width="10" x="914.5" y="1122.6172"/><rect fill="#FFFFFF" height="65.1328" style="stroke:#181818;stroke-width:1.0;" width="10" x="909.5" y="1254.0156"/><rect fill="#FFFFFF" height="28" style="stroke:#181818;stroke-width:1.0;" width="10" x="914.5" y="1291.1484"/><rect fill="#FFFFFF" height="65.1328" style="stroke:#181818;stroke-width:1.0;" width="10" x="909.5" y="1398.4141"/><rect fill="#FFFFFF" height="28" style="stroke:#181818;stroke-width:1.0;" width="10" x="914.5" y="1435.5469"/><polygon fill="#181818" points="49,63.4297,59,67.4297,49,71.4297,53,67.4297" style="stroke:#181818;stroke-width:1.0;"/><line style="stroke:#181818;stroke-width:1.0;" x1="0" x2="55" y1="67.4297" y2="67.4297"/><text fill="#000000" font-family="sans-serif" font-size="13" lengthAdjust="spacing" textLength="42" x="7" y="62.3638">main()</text><polygon fill="#181818" points="258,92.5625,268,96.5625,258,100.5625,262,96.5625" style="stroke:#181818;stroke-width:1.0;"/><line style="stroke:#181818;stroke-width:1.0;" x1="71" x2="264" y1="96.5625" y2="96.5625"/><text fill="#000000" font-family="sans-serif" font-size="13" lengthAdjust="spacing" textLength="180" x="78" y="91.4966">test_file(const std::string &amp;)</text><path d="M178,111.5625 L246,111.5625 L246,118.6953 L236,128.6953 L178,128.6953 L178,111.5625 " fill="#EEEEEE" style="stroke:#000000;stroke-width:1.5;"/><rect fill="none" height="1560.3203" style="stroke:#000000;stroke-width:1.5;" width="1295.5" x="178" y="111.5625"/><text fill="#000000" font-family="sans-serif" font-size="13" font-weight="bold" lengthAdjust="spacing" textLength="23" x="193" y="124.6294">try</text><path d="M188,135.6953 L266,135.6953 L266,142.8281 L256,152.8281 L188,152.8281 L188,135.6953 " fill="#EEEEEE" style="stroke:#000000;stroke-width:1.5;"/><rect fill="none" height="1514.3828" style="stroke:#000000;stroke-width:1.5;" width="1275.5" x="188" y="135.6953"/><text fill="#000000" font-family="sans-serif" font-size="13" font-weight="bold" lengthAdjust="spacing" textLength="33" x="203" y="148.7622">loop</text><polygon fill="#181818" points="503,169.9609,513,173.9609,503,177.9609,507,173.9609" style="stroke:#181818;stroke-width:1.0;"/><line style="stroke:#181818;stroke-width:1.0;" x1="280" x2="509" y1="173.9609" y2="173.9609"/><text fill="#000000" font-family="sans-serif" font-size="13" font-weight="bold" lengthAdjust="spacing" textLength="6" x="287" y="168.895">[</text><text fill="#000000" font-family="sans-serif" font-size="13" lengthAdjust="spacing" textLength="43" x="293" y="168.895">isEoF()</text><text fill="#000000" font-family="sans-serif" font-size="13" font-weight="bold" lengthAdjust="spacing" textLength="6" x="336" y="168.895">]</text><polygon fill="#181818" points="291,183.9609,281,187.9609,291,191.9609,287,187.9609" style="stroke:#181818;stroke-width:1.0;"/><line style="stroke:#181818;stroke-width:1.0;stroke-dasharray:2.0,2.0;" x1="285" x2="519" y1="187.9609" y2="187.9609"/><polygon fill="#181818" points="503,213.0938,513,217.0938,503,221.0938,507,217.0938" style="stroke:#181818;stroke-width:1.0;"/><line style="stroke:#181818;stroke-width:1.0;" x1="280" x2="509" y1="217.0938" y2="217.0938"/><text fill="#000000" font-family="sans-serif" font-size="13" lengthAdjust="spacing" textLength="39" x="287" y="212.0278">next()</text><line style="stroke:#181818;stroke-width:1.0;" x1="530" x2="572" y1="246.2266" y2="246.2266"/><line style="stroke:#181818;stroke-width:1.0;" x1="572" x2="572" y1="246.2266" y2="259.2266"/><line style="stroke:#181818;stroke-width:1.0;" x1="531" x2="572" y1="259.2266" y2="259.2266"/><polygon fill="#181818" points="541,255.2266,531,259.2266,541,263.2266,537,259.2266" style="stroke:#181818;stroke-width:1.0;"/><text fill="#000000" font-family="sans-serif" font-size="13" lengthAdjust="spacing" textLength="95" x="537" y="241.1606">readNextLine()</text><polygon fill="#181818" points="291,299.2266,281,303.2266,291,307.2266,287,303.2266" style="stroke:#181818;stroke-width:1.0;"/><line style="stroke:#181818;stroke-width:1.0;stroke-dasharray:2.0,2.0;" x1="285" x2="519" y1="303.2266" y2="303.2266"/><line style="stroke:#181818;stroke-width:1.0;" x1="280" x2="327" y1="327.3594" y2="327.3594"/><line style="stroke:#181818;stroke-width:1.0;" x1="327" x2="327" y1="327.3594" y2="340.3594"/><line style="stroke:#181818;stroke-width:1.0;" x1="286" x2="327" y1="340.3594" y2="340.3594"/><polygon fill="#181818" points="296,336.3594,286,340.3594,296,344.3594,292,340.3594" style="stroke:#181818;stroke-width:1.0;"/><text fill="#000000" font-family="sans-serif" font-size="13" lengthAdjust="spacing" textLength="187" x="292" y="322.2935">getCoefficients(std::string &amp;)</text><line style="stroke:#181818;stroke-width:1.0;stroke-dasharray:2.0,2.0;" x1="285" x2="327" y1="364.3594" y2="364.3594"/><line style="stroke:#181818;stroke-width:1.0;stroke-dasharray:2.0,2.0;" x1="327" x2="327" y1="364.3594" y2="377.3594"/><line style="stroke:#181818;stroke-width:1.0;stroke-dasharray:2.0,2.0;" x1="280" x2="327" y1="377.3594" y2="377.3594"/><polygon fill="#181818" points="290,373.3594,280,377.3594,290,381.3594,286,377.3594" style="stroke:#181818;stroke-width:1.0;"/><line style="stroke:#181818;stroke-width:1.0;" x1="280" x2="327" y1="396.4922" y2="396.4922"/><line style="stroke:#181818;stroke-width:1.0;" x1="327" x2="327" y1="396.4922" y2="409.4922"/><line style="stroke:#181818;stroke-width:1.0;" x1="286" x2="327" y1="409.4922" y2="409.4922"/><polygon fill="#181818" points="296,405.4922,286,409.4922,296,413.4922,292,409.4922" style="stroke:#181818;stroke-width:1.0;"/><text fill="#000000" font-family="sans-serif" font-size="13" lengthAdjust="spacing" textLength="221" x="292" y="391.4263">getEquation(std::vector&lt;float&gt; &amp;)</text><polygon fill="#181818" points="641,439.625,651,443.625,641,447.625,645,443.625" style="stroke:#181818;stroke-width:1.0;"/><line style="stroke:#181818;stroke-width:1.0;" x1="285" x2="647" y1="443.625" y2="443.625"/><text fill="#000000" font-family="sans-serif" font-size="13" lengthAdjust="spacing" textLength="260" x="292" y="438.5591">getEquation(const std::vector&lt;float&gt; &amp;)</text><polygon fill="#181818" points="296,453.625,286,457.625,296,461.625,292,457.625" style="stroke:#181818;stroke-width:1.0;"/><line style="stroke:#181818;stroke-width:1.0;stroke-dasharray:2.0,2.0;" x1="290" x2="657" y1="457.625" y2="457.625"/><line style="stroke:#181818;stroke-width:1.0;stroke-dasharray:2.0,2.0;" x1="285" x2="327" y1="476.625" y2="476.625"/><line style="stroke:#181818;stroke-width:1.0;stroke-dasharray:2.0,2.0;" x1="327" x2="327" y1="476.625" y2="489.625"/><line style="stroke:#181818;stroke-width:1.0;stroke-dasharray:2.0,2.0;" x1="280" x2="327" y1="489.625" y2="489.625"/><polygon fill="#181818" points="290,485.625,280,489.625,290,493.625,286,489.625" style="stroke:#181818;stroke-width:1.0;"/><polygon fill="#181818" points="789.5,509.7578,799.5,513.7578,789.5,517.7578,793.5,513.7578" style="stroke:#181818;stroke-width:1.0;"/><line style="stroke:#181818;stroke-width:1.0;" x1="280" x2="795.5" y1="513.7578" y2="513.7578"/><text fill="#000000" font-family="sans-serif" font-size="13" lengthAdjust="spacing" textLength="44" x="287" y="508.6919">solve()</text><polygon fill="#181818" points="291,523.7578,281,527.7578,291,531.7578,287,527.7578" style="stroke:#181818;stroke-width:1.0;"/><line style="stroke:#181818;stroke-width:1.0;stroke-dasharray:2.0,2.0;" x1="285" x2="805.5" y1="527.7578" y2="527.7578"/><path d="M198,542.7578 L264,542.7578 L264,549.8906 L254,559.8906 L198,559.8906 L198,542.7578 " fill="#EEEEEE" style="stroke:#000000;stroke-width:1.5;"/><rect fill="none" height="949.7891" style="stroke:#000000;stroke-width:1.5;" width="1255.5" x="198" y="542.7578"/><text fill="#000000" font-family="sans-serif" font-size="13" font-weight="bold" lengthAdjust="spacing" textLength="21" x="213" y="555.8247">alt</text><polygon fill="#181818" points="789.5,577.0234,799.5,581.0234,789.5,585.0234,793.5,581.0234" style="stroke:#181818;stroke-width:1.0;"/><line style="stroke:#181818;stroke-width:1.0;" x1="280" x2="795.5" y1="581.0234" y2="581.0234"/><text fill="#000000" font-family="sans-serif" font-size="13" lengthAdjust="spacing" textLength="140" x="287" y="575.9575">getEquationAsString()</text><polygon fill="#181818" points="291,591.0234,281,595.0234,291,599.0234,287,595.0234" style="stroke:#181818;stroke-width:1.0;"/><line style="stroke:#181818;stroke-width:1.0;stroke-dasharray:2.0,2.0;" x1="285" x2="805.5" y1="595.0234" y2="595.0234"/><polygon fill="#181818" points="897.5,620.1563,907.5,624.1563,897.5,628.1563,901.5,624.1563" style="stroke:#181818;stroke-width:1.0;"/><line style="stroke:#181818;stroke-width:1.0;" x1="280" x2="903.5" y1="624.1563" y2="624.1563"/><text fill="#000000" font-family="sans-serif" font-size="13" lengthAdjust="spacing" textLength="195" x="287" y="619.0903">addEmpty(const std::string &amp;)</text><line style="stroke:#181818;stroke-width:1.0;" x1="924.5" x2="966.5" y1="653.2891" y2="653.2891"/><line style="stroke:#181818;stroke-width:1.0;" x1="966.5" x2="966.5" y1="653.2891" y2="666.2891"/><line style="stroke:#181818;stroke-width:1.0;" x1="925.5" x2="966.5" y1="666.2891" y2="666.2891"/><polygon fill="#181818" points="935.5,662.2891,925.5,666.2891,935.5,670.2891,931.5,666.2891" style="stroke:#181818;stroke-width:1.0;"/><text fill="#000000" font-family="sans-serif" font-size="13" lengthAdjust="spacing" textLength="490" x="931.5" y="648.2231">addToFile(const std::string &amp;,const std::string &amp;,const std::vector&lt;float&gt; &amp;)</text><line style="stroke:#000000;stroke-width:1.0;stroke-dasharray:2.0,2.0;" x1="198" x2="1453.5" y1="705.2891" y2="705.2891"/><polygon fill="#181818" points="789.5,723.4219,799.5,727.4219,789.5,731.4219,793.5,727.4219" style="stroke:#181818;stroke-width:1.0;"/><line style="stroke:#181818;stroke-width:1.0;" x1="280" x2="795.5" y1="727.4219" y2="727.4219"/><text fill="#000000" font-family="sans-serif" font-size="13" lengthAdjust="spacing" textLength="140" x="287" y="722.356">getEquationAsString()</text><polygon fill="#181818" points="291,737.4219,281,741.4219,291,745.4219,287,741.4219" style="stroke:#181818;stroke-width:1.0;"/><line style="stroke:#181818;stroke-width:1.0;stroke-dasharray:2.0,2.0;" x1="285" x2="805.5" y1="741.4219" y2="741.4219"/><polygon fill="#181818" points="897.5,766.5547,907.5,770.5547,897.5,774.5547,901.5,770.5547" style="stroke:#181818;stroke-width:1.0;"/><line style="stroke:#181818;stroke-width:1.0;" x1="280" x2="903.5" y1="770.5547" y2="770.5547"/><text fill="#000000" font-family="sans-serif" font-size="13" lengthAdjust="spacing" textLength="357" x="287" y="765.4888">addTwo(const std::string &amp;,const std::vector&lt;float&gt; &amp;)</text><line style="stroke:#181818;stroke-width:1.0;" x1="924.5" x2="966.5" y1="799.6875" y2="799.6875"/><line style="stroke:#181818;stroke-width:1.0;" x1="966.5" x2="966.5" y1="799.6875" y2="812.6875"/><line style="stroke:#181818;stroke-width:1.0;" x1="925.5" x2="966.5" y1="812.6875" y2="812.6875"/><polygon fill="#181818" points="935.5,808.6875,925.5,812.6875,935.5,816.6875,931.5,812.6875" style="stroke:#181818;stroke-width:1.0;"/><text fill="#000000" font-family="sans-serif" font-size="13" lengthAdjust="spacing" textLength="490" x="931.5" y="794.6216">addToFile(const std::string &amp;,const std::string &amp;,const std::vector&lt;float&gt; &amp;)</text><path d="M208,857.6875 L274,857.6875 L274,864.8203 L264,874.8203 L208,874.8203 L208,857.6875 " fill="#EEEEEE" style="stroke:#000000;stroke-width:1.5;"/><rect fill="none" height="627.8594" style="stroke:#000000;stroke-width:1.5;" width="1235.5" x="208" y="857.6875"/><text fill="#000000" font-family="sans-serif" font-size="13" font-weight="bold" lengthAdjust="spacing" textLength="21" x="223" y="870.7544">alt</text><polygon fill="#181818" points="789.5,891.9531,799.5,895.9531,789.5,899.9531,793.5,895.9531" style="stroke:#181818;stroke-width:1.0;"/><line style="stroke:#181818;stroke-width:1.0;" x1="280" x2="795.5" y1="895.9531" y2="895.9531"/><text fill="#000000" font-family="sans-serif" font-size="13" lengthAdjust="spacing" textLength="140" x="287" y="890.8872">getEquationAsString()</text><polygon fill="#181818" points="291,905.9531,281,909.9531,291,913.9531,287,909.9531" style="stroke:#181818;stroke-width:1.0;"/><line style="stroke:#181818;stroke-width:1.0;stroke-dasharray:2.0,2.0;" x1="285" x2="805.5" y1="909.9531" y2="909.9531"/><polygon fill="#181818" points="897.5,935.0859,907.5,939.0859,897.5,943.0859,901.5,939.0859" style="stroke:#181818;stroke-width:1.0;"/><line style="stroke:#181818;stroke-width:1.0;" x1="280" x2="903.5" y1="939.0859" y2="939.0859"/><text fill="#000000" font-family="sans-serif" font-size="13" lengthAdjust="spacing" textLength="367" x="287" y="934.02">addThree(const std::string &amp;,const std::vector&lt;float&gt; &amp;)</text><line style="stroke:#181818;stroke-width:1.0;" x1="924.5" x2="966.5" y1="968.2188" y2="968.2188"/><line style="stroke:#181818;stroke-width:1.0;" x1="966.5" x2="966.5" y1="968.2188" y2="981.2188"/><line style="stroke:#181818;stroke-width:1.0;" x1="925.5" x2="966.5" y1="981.2188" y2="981.2188"/><polygon fill="#181818" points="935.5,977.2188,925.5,981.2188,935.5,985.2188,931.5,981.2188" style="stroke:#181818;stroke-width:1.0;"/><text fill="#000000" font-family="sans-serif" font-size="13" lengthAdjust="spacing" textLength="490" x="931.5" y="963.1528">addToFile(const std::string &amp;,const std::string &amp;,const std::vector&lt;float&gt; &amp;)</text><line style="stroke:#000000;stroke-width:1.0;stroke-dasharray:2.0,2.0;" x1="208" x2="1443.5" y1="1020.2188" y2="1020.2188"/><polygon fill="#181818" points="789.5,1038.3516,799.5,1042.3516,789.5,1046.3516,793.5,1042.3516" style="stroke:#181818;stroke-width:1.0;"/><line style="stroke:#181818;stroke-width:1.0;" x1="280" x2="795.5" y1="1042.3516" y2="1042.3516"/><text fill="#000000" font-family="sans-serif" font-size="13" lengthAdjust="spacing" textLength="140" x="287" y="1037.2856">getEquationAsString()</text><polygon fill="#181818" points="291,1052.3516,281,1056.3516,291,1060.3516,287,1056.3516" style="stroke:#181818;stroke-width:1.0;"/><line style="stroke:#181818;stroke-width:1.0;stroke-dasharray:2.0,2.0;" x1="285" x2="805.5" y1="1056.3516" y2="1056.3516"/><polygon fill="#181818" points="897.5,1081.4844,907.5,1085.4844,897.5,1089.4844,901.5,1085.4844" style="stroke:#181818;stroke-width:1.0;"/><line style="stroke:#181818;stroke-width:1.0;" x1="280" x2="903.5" y1="1085.4844" y2="1085.4844"/><text fill="#000000" font-family="sans-serif" font-size="13" lengthAdjust="spacing" textLength="358" x="287" y="1080.4185">addFour(const std::string &amp;,const std::vector&lt;float&gt; &amp;)</text><line style="stroke:#181818;stroke-width:1.0;" x1="924.5" x2="966.5" y1="1114.6172" y2="1114.6172"/><line style="stroke:#181818;stroke-width:1.0;" x1="966.5" x2="966.5" y1="1114.6172" y2="1127.6172"/><line style="stroke:#181818;stroke-width:1.0;" x1="925.5" x2="966.5" y1="1127.6172" y2="1127.6172"/><polygon fill="#181818" points="935.5,1123.6172,925.5,1127.6172,935.5,1131.6172,931.5,1127.6172" style="stroke:#181818;stroke-width:1.0;"/><text fill="#000000" font-family="sans-serif" font-size="13" lengthAdjust="spacing" textLength="490" x="931.5" y="1109.5513">addToFile(const std::string &amp;,const std::string &amp;,const std::vector&lt;float&gt; &amp;)</text><path d="M218,1172.6172 L284,1172.6172 L284,1179.75 L274,1189.75 L218,1189.75 L218,1172.6172 " fill="#EEEEEE" style="stroke:#000000;stroke-width:1.5;"/><rect fill="none" height="305.9297" style="stroke:#000000;stroke-width:1.5;" width="1215.5" x="218" y="1172.6172"/><text fill="#000000" font-family="sans-serif" font-size="13" font-weight="bold" lengthAdjust="spacing" textLength="21" x="233" y="1185.6841">alt</text><polygon fill="#181818" points="789.5,1206.8828,799.5,1210.8828,789.5,1214.8828,793.5,1210.8828" style="stroke:#181818;stroke-width:1.0;"/><line style="stroke:#181818;stroke-width:1.0;" x1="280" x2="795.5" y1="1210.8828" y2="1210.8828"/><text fill="#000000" font-family="sans-serif" font-size="13" lengthAdjust="spacing" textLength="140" x="287" y="1205.8169">getEquationAsString()</text><polygon fill="#181818" points="291,1220.8828,281,1224.8828,291,1228.8828,287,1224.8828" style="stroke:#181818;stroke-width:1.0;"/><line style="stroke:#181818;stroke-width:1.0;stroke-dasharray:2.0,2.0;" x1="285" x2="805.5" y1="1224.8828" y2="1224.8828"/><polygon fill="#181818" points="897.5,1250.0156,907.5,1254.0156,897.5,1258.0156,901.5,1254.0156" style="stroke:#181818;stroke-width:1.0;"/><line style="stroke:#181818;stroke-width:1.0;" x1="280" x2="903.5" y1="1254.0156" y2="1254.0156"/><text fill="#000000" font-family="sans-serif" font-size="13" lengthAdjust="spacing" textLength="356" x="287" y="1248.9497">addOne(const std::string &amp;,const std::vector&lt;float&gt; &amp;)</text><line style="stroke:#181818;stroke-width:1.0;" x1="924.5" x2="966.5" y1="1283.1484" y2="1283.1484"/><line style="stroke:#181818;stroke-width:1.0;" x1="966.5" x2="966.5" y1="1283.1484" y2="1296.1484"/><line style="stroke:#181818;stroke-width:1.0;" x1="925.5" x2="966.5" y1="1296.1484" y2="1296.1484"/><polygon fill="#181818" points="935.5,1292.1484,925.5,1296.1484,935.5,1300.1484,931.5,1296.1484" style="stroke:#181818;stroke-width:1.0;"/><text fill="#000000" font-family="sans-serif" font-size="13" lengthAdjust="spacing" textLength="490" x="931.5" y="1278.0825">addToFile(const std::string &amp;,const std::string &amp;,const std::vector&lt;float&gt; &amp;)</text><polygon fill="#181818" points="789.5,1351.2813,799.5,1355.2813,789.5,1359.2813,793.5,1355.2813" style="stroke:#181818;stroke-width:1.0;"/><line style="stroke:#181818;stroke-width:1.0;" x1="280" x2="795.5" y1="1355.2813" y2="1355.2813"/><text fill="#000000" font-family="sans-serif" font-size="13" lengthAdjust="spacing" textLength="140" x="287" y="1350.2153">getEquationAsString()</text><polygon fill="#181818" points="291,1365.2813,281,1369.2813,291,1373.2813,287,1369.2813" style="stroke:#181818;stroke-width:1.0;"/><line style="stroke:#181818;stroke-width:1.0;stroke-dasharray:2.0,2.0;" x1="285" x2="805.5" y1="1369.2813" y2="1369.2813"/><polygon fill="#181818" points="897.5,1394.4141,907.5,1398.4141,897.5,1402.4141,901.5,1398.4141" style="stroke:#181818;stroke-width:1.0;"/><line style="stroke:#181818;stroke-width:1.0;" x1="280" x2="903.5" y1="1398.4141" y2="1398.4141"/><text fill="#000000" font-family="sans-serif" font-size="13" lengthAdjust="spacing" textLength="346" x="287" y="1393.3481">addInf(const std::string &amp;,const std::vector&lt;float&gt; &amp;)</text><line style="stroke:#181818;stroke-width:1.0;" x1="924.5" x2="966.5" y1="1427.5469" y2="1427.5469"/><line style="stroke:#181818;stroke-width:1.0;" x1="966.5" x2="966.5" y1="1427.5469" y2="1440.5469"/><line style="stroke:#181818;stroke-width:1.0;" x1="925.5" x2="966.5" y1="1440.5469" y2="1440.5469"/><polygon fill="#181818" points="935.5,1436.5469,925.5,1440.5469,935.5,1444.5469,931.5,1440.5469" style="stroke:#181818;stroke-width:1.0;"/><text fill="#000000" font-family="sans-serif" font-size="13" lengthAdjust="spacing" textLength="490" x="931.5" y="1422.481">addToFile(const std::string &amp;,const std::string &amp;,const std::vector&lt;float&gt; &amp;)</text><path d="M208,1506.5469 L274,1506.5469 L274,1513.6797 L264,1523.6797 L208,1523.6797 L208,1506.5469 " fill="#EEEEEE" style="stroke:#000000;stroke-width:1.5;"/><rect fill="none" height="136.5313" style="stroke:#000000;stroke-width:1.5;" width="674" x="208" y="1506.5469"/><text fill="#000000" font-family="sans-serif" font-size="13" font-weight="bold" lengthAdjust="spacing" textLength="21" x="223" y="1519.6138">alt</text><path d="M218,1530.6797 L284,1530.6797 L284,1537.8125 L274,1547.8125 L218,1547.8125 L218,1530.6797 " fill="#EEEEEE" style="stroke:#000000;stroke-width:1.5;"/><rect fill="none" height="105.3984" style="stroke:#000000;stroke-width:1.5;" width="654" x="218" y="1530.6797"/><text fill="#000000" font-family="sans-serif" font-size="13" font-weight="bold" lengthAdjust="spacing" textLength="21" x="233" y="1543.7466">alt</text><polygon fill="#181818" points="789.5,1564.9453,799.5,1568.9453,789.5,1572.9453,793.5,1568.9453" style="stroke:#181818;stroke-width:1.0;"/><line style="stroke:#181818;stroke-width:1.0;" x1="280" x2="795.5" y1="1568.9453" y2="1568.9453"/><text fill="#000000" font-family="sans-serif" font-size="13" lengthAdjust="spacing" textLength="140" x="287" y="1563.8794">getEquationAsString()</text><polygon fill="#181818" points="291,1578.9453,281,1582.9453,291,1586.9453,287,1582.9453" style="stroke:#181818;stroke-width:1.0;"/><line style="stroke:#181818;stroke-width:1.0;stroke-dasharray:2.0,2.0;" x1="285" x2="805.5" y1="1582.9453" y2="1582.9453"/><line style="stroke:#000000;stroke-width:1.0;stroke-dasharray:2.0,2.0;" x1="218" x2="872" y1="1591.9453" y2="1591.9453"/><polygon fill="#181818" points="789.5,1610.0781,799.5,1614.0781,789.5,1618.0781,793.5,1614.0781" style="stroke:#181818;stroke-width:1.0;"/><line style="stroke:#181818;stroke-width:1.0;" x1="280" x2="795.5" y1="1614.0781" y2="1614.0781"/><text fill="#000000" font-family="sans-serif" font-size="13" lengthAdjust="spacing" textLength="140" x="287" y="1609.0122">getEquationAsString()</text><polygon fill="#181818" points="291,1624.0781,281,1628.0781,291,1632.0781,287,1628.0781" style="stroke:#181818;stroke-width:1.0;"/><line style="stroke:#181818;stroke-width:1.0;stroke-dasharray:2.0,2.0;" x1="285" x2="805.5" y1="1628.0781" y2="1628.0781"/><line style="stroke:#000000;stroke-width:1.0;stroke-dasharray:2.0,2.0;" x1="178" x2="1473.5" y1="1658.0781" y2="1658.0781"/><text fill="#000000" font-family="sans-serif" font-size="11" font-weight="bold" lengthAdjust="spacing" textLength="190" x="183" y="1668.2886">[const std::runtime_error &amp;]</text><polygon fill="#181818" points="11,1680.8828,1,1684.8828,11,1688.8828,7,1684.8828" style="stroke:#181818;stroke-width:1.0;"/><line style="stroke:#181818;stroke-width:1.0;stroke-dasharray:2.0,2.0;" x1="5" x2="65" y1="1684.8828" y2="1684.8828"/><!--SRC=[xLXXJzim4FsUNs7n0Kf4GrmdjbiXf0tHQHBRf0sD3sX2RkAKRAcTsMuP_twcY2wGX2OK2QbBfLPgudlltUNTdPISAPD6QSw40JipbWelolCTm3GukVBj1w8GOOY28IKGKO86nBdi7zVU12Dm1zBRTrXaqWKpl1udBr9VIFLBvopY1Uumm7Y8aOr2CA13GgXJoxlIL0wocWpNvYf9CzwBfD06Q1EFHjgeL4p1Rabh1UzKoNaEZBfrCYdpnzB75lShPp5N_xH3Gf3L5s0QOe9z2qQSMdqFsYk2h7RNlNJTL9_ASM_VTN-uxXEvjLHLSFrdwkJ4l25o-oG4_sDAfcYd_5byPUl_sNASfO8tuccSwzjKiTh6KsvE94yIQpqkZEwrjd4zRvkCsY6lo-ZqzvoPL8hxR1OyCb8T9PbavhXPKe-QyJtJ_07nnBh2WXMwChJ5Ht3eG-e7FWaeH0qCNGvw8hmmKzR8hnLGHTBEPQrIs_HfrvQyE0674E4WfFvWIEY0K0YR38zIaAsrbjcYggjh2Af0MdPi6PbbvgNo2rPvfxyjk_MDaocjhmkLckBwyWSKuwMZa9rOGOW7OOCEBmVPx5aSdyvoSzjeyzRILa2lfJsNuvgDVx3csheXL26pr3KlFCCppRV7Q2_tpFcDxBt-K_hFpBHLGsi3BrqhpZitTQFfTUmqbdFLkQcRJQzYfY-YcqmRd-by57yKIUUZZJUSY5VVk_cqLJDgkzPtyL7TPGOA3b9pOT8Pl-9AIGLsbsUQlDMuFEhtwrzNbn0gpZXx7xZWofw9mKrgha6KCJ7jpsVP0LXmfMtzWEyXBt3spiw-VrfTMnvR_OEXvti4zAwDoVNey71gaUOJBvApmonRtF_qSoL_saxnx4r0uoIE8Z8XamHZYW96C9p4DEQ1BLhWymHJ7iIGxVy5]--></g></svg>