<?xml version="1.0" encoding="us-ascii" standalone="no"?><svg xmlns="http://www.w3.org/2000/svg" xmlns:xlink="http://www.w3.org/1999/xlink" contentStyleType="text/css" height="1276px" preserveAspectRatio="none" style="width:5967px;height:1276px;background:#FFFFFF;" version="1.1" viewBox="0 0 5967 1276" width="5967px" zoomAndPan="magnify"><defs/><g><!--class C_0002029504024862137028--><g id="elem_C_0002029504024862137028"><rect codeLine="2" fill="#F1F1F1" height="162.0781" id="C_0002029504024862137028" rx="2.5" ry="2.5" style="stroke:#181818;stroke-width:0.5;" width="328" x="2704.5" y="842"/><ellipse cx="2840.75" cy="858" fill="#A9DCDF" rx="11" ry="11" style="stroke:#181818;stroke-width:1.0;"/><path d="M2842.8281,859.8125 L2843.2188,860.7969 L2842.8281,860.7969 C2842.375,860.7969 2842.2656,860.8125 2842.1094,860.9219 C2841.8594,861.0781 2841.7031,861.3594 2841.7031,861.6563 C2841.7031,861.9219 2841.8438,862.1719 2842.0625,862.3281 C2842.2031,862.4531 2842.4063,862.5 2842.8281,862.5 L2845.1875,862.5 C2845.5469,862.5 2845.7656,862.4688 2845.9063,862.375 C2846.1563,862.2344 2846.3125,861.9375 2846.3125,861.6563 C2846.3125,861.375 2846.1719,861.125 2845.9531,860.9688 C2845.7813,860.8281 2845.625,860.7969 2845.1563,860.7969 L2841.7656,852.5938 L2838.0938,852.5938 C2837.6406,852.5938 2837.5156,852.6094 2837.3594,852.7031 C2837.1094,852.875 2836.9531,853.1563 2836.9531,853.4375 C2836.9531,853.7188 2837.0938,853.9688 2837.3125,854.1406 C2837.4844,854.25 2837.6563,854.2813 2838.0938,854.2813 L2839.1719,854.2813 L2836.5313,860.7969 C2836.1094,860.7969 2835.9531,860.8125 2835.7969,860.9219 C2835.5469,861.0781 2835.3906,861.3594 2835.3906,861.6563 C2835.3906,862.2188 2835.7656,862.5 2836.5156,862.5 L2838.7813,862.5 C2839.1406,862.5 2839.3594,862.4688 2839.4844,862.375 C2839.75,862.2344 2839.8906,861.9375 2839.8906,861.6563 C2839.8906,861.375 2839.7656,861.125 2839.5469,860.9531 C2839.375,860.8281 2839.2344,860.7969 2838.7813,860.7969 L2838.3906,860.7969 L2838.7813,859.8125 L2842.8281,859.8125 Z M2842.125,858.1094 L2839.4531,858.1094 L2840.7969,854.8438 L2842.125,858.1094 Z " fill="#000000"/><text fill="#000000" font-family="sans-serif" font-size="14" font-style="italic" lengthAdjust="spacing" textLength="47" x="2861.25" y="862.8467">Coffee</text><line style="stroke:#181818;stroke-width:0.5;" x1="2705.5" x2="3031.5" y1="874" y2="874"/><polygon fill="none" points="2715.5,882.6484,2719.5,886.6484,2715.5,890.6484,2711.5,886.6484" style="stroke:#B38D22;stroke-width:1.0;"/><text fill="#000000" font-family="sans-serif" font-size="14" lengthAdjust="spacing" textLength="171" x="2724.5" y="890.9951">componentsCost : float</text><polygon fill="none" points="2715.5,898.9453,2719.5,902.9453,2715.5,906.9453,2711.5,902.9453" style="stroke:#B38D22;stroke-width:1.0;"/><text fill="#000000" font-family="sans-serif" font-size="14" lengthAdjust="spacing" textLength="84" x="2724.5" y="907.292">price : float</text><line style="stroke:#181818;stroke-width:0.5;" x1="2705.5" x2="3031.5" y1="914.5938" y2="914.5938"/><ellipse cx="2715.5" cy="928.2422" fill="#84BE84" rx="3" ry="3" style="stroke:#038048;stroke-width:1.0;"/><text fill="#000000" font-family="sans-serif" font-size="14" lengthAdjust="spacing" textLength="252" x="2724.5" y="931.5889">getComponentsCost() const : float</text><ellipse cx="2715.5" cy="944.5391" fill="#84BE84" rx="3" ry="3" style="stroke:#038048;stroke-width:1.0;"/><text fill="#000000" font-family="sans-serif" font-size="14" lengthAdjust="spacing" textLength="162" x="2724.5" y="947.8857">getPrice() const : float</text><ellipse cx="2715.5" cy="960.8359" fill="#84BE84" rx="3" ry="3" style="stroke:#038048;stroke-width:1.0;"/><text fill="#000000" font-family="sans-serif" font-size="14" lengthAdjust="spacing" textLength="302" x="2724.5" y="964.1826">setComponentsCost(float newCost) : void</text><ellipse cx="2715.5" cy="977.1328" fill="#84BE84" rx="3" ry="3" style="stroke:#038048;stroke-width:1.0;"/><text fill="#000000" font-family="sans-serif" font-size="14" lengthAdjust="spacing" textLength="215" x="2724.5" y="980.4795">setPrice(float newPrice) : void</text><ellipse cx="2715.5" cy="993.4297" fill="#84BE84" rx="3" ry="3" style="stroke:#038048;stroke-width:1.0;"/><text fill="#000000" font-family="sans-serif" font-size="14" font-style="italic" lengthAdjust="spacing" textLength="230" x="2724.5" y="996.7764">getName() const = 0 : std::string</text></g><!--class C_0000209174374544492061--><g id="elem_C_0000209174374544492061"><rect codeLine="12" fill="#F1F1F1" height="585.7969" id="C_0000209174374544492061" rx="2.5" ry="2.5" style="stroke:#181818;stroke-width:0.5;" width="1471" x="2133" y="7"/><ellipse cx="2810.75" cy="23" fill="#A9DCDF" rx="11" ry="11" style="stroke:#181818;stroke-width:1.0;"/><path d="M2812.8281,24.8125 L2813.2188,25.7969 L2812.8281,25.7969 C2812.375,25.7969 2812.2656,25.8125 2812.1094,25.9219 C2811.8594,26.0781 2811.7031,26.3594 2811.7031,26.6563 C2811.7031,26.9219 2811.8438,27.1719 2812.0625,27.3281 C2812.2031,27.4531 2812.4063,27.5 2812.8281,27.5 L2815.1875,27.5 C2815.5469,27.5 2815.7656,27.4688 2815.9063,27.375 C2816.1563,27.2344 2816.3125,26.9375 2816.3125,26.6563 C2816.3125,26.375 2816.1719,26.125 2815.9531,25.9688 C2815.7813,25.8281 2815.625,25.7969 2815.1563,25.7969 L2811.7656,17.5938 L2808.0938,17.5938 C2807.6406,17.5938 2807.5156,17.6094 2807.3594,17.7031 C2807.1094,17.875 2806.9531,18.1563 2806.9531,18.4375 C2806.9531,18.7188 2807.0938,18.9688 2807.3125,19.1406 C2807.4844,19.25 2807.6563,19.2813 2808.0938,19.2813 L2809.1719,19.2813 L2806.5313,25.7969 C2806.1094,25.7969 2805.9531,25.8125 2805.7969,25.9219 C2805.5469,26.0781 2805.3906,26.3594 2805.3906,26.6563 C2805.3906,27.2188 2805.7656,27.5 2806.5156,27.5 L2808.7813,27.5 C2809.1406,27.5 2809.3594,27.4688 2809.4844,27.375 C2809.75,27.2344 2809.8906,26.9375 2809.8906,26.6563 C2809.8906,26.375 2809.7656,26.125 2809.5469,25.9531 C2809.375,25.8281 2809.2344,25.7969 2808.7813,25.7969 L2808.3906,25.7969 L2808.7813,24.8125 L2812.8281,24.8125 Z M2812.125,23.1094 L2809.4531,23.1094 L2810.7969,19.8438 L2812.125,23.1094 Z " fill="#000000"/><text fill="#000000" font-family="sans-serif" font-size="14" font-style="italic" lengthAdjust="spacing" textLength="107" x="2831.25" y="27.8467">CoffeeMachine</text><line style="stroke:#181818;stroke-width:0.5;" x1="2134" x2="3603" y1="39" y2="39"/><polygon fill="none" points="2144,47.6484,2148,51.6484,2144,55.6484,2140,51.6484" style="stroke:#B38D22;stroke-width:1.0;"/><text fill="#000000" font-family="sans-serif" font-size="14" lengthAdjust="spacing" textLength="158" x="2153" y="55.9951">americanoPrice : float</text><polygon fill="none" points="2144,63.9453,2148,67.9453,2144,71.9453,2140,67.9453" style="stroke:#B38D22;stroke-width:1.0;"/><text fill="#000000" font-family="sans-serif" font-size="14" lengthAdjust="spacing" textLength="248" x="2153" y="72.292">americanoComponentsCost : float</text><polygon fill="none" points="2144,80.2422,2148,84.2422,2144,88.2422,2140,84.2422" style="stroke:#B38D22;stroke-width:1.0;"/><text fill="#000000" font-family="sans-serif" font-size="14" lengthAdjust="spacing" textLength="165" x="2153" y="88.5889">cappuccinoPrice : float</text><polygon fill="none" points="2144,96.5391,2148,100.5391,2144,104.5391,2140,100.5391" style="stroke:#B38D22;stroke-width:1.0;"/><text fill="#000000" font-family="sans-serif" font-size="14" lengthAdjust="spacing" textLength="255" x="2153" y="104.8857">cappuccinoComponentsCost : float</text><polygon fill="none" points="2144,112.8359,2148,116.8359,2144,120.8359,2140,116.8359" style="stroke:#B38D22;stroke-width:1.0;"/><text fill="#000000" font-family="sans-serif" font-size="14" lengthAdjust="spacing" textLength="147" x="2153" y="121.1826">espressoPrice : float</text><polygon fill="none" points="2144,129.1328,2148,133.1328,2144,137.1328,2140,133.1328" style="stroke:#B38D22;stroke-width:1.0;"/><text fill="#000000" font-family="sans-serif" font-size="14" lengthAdjust="spacing" textLength="237" x="2153" y="137.4795">espressoComponentsCost : float</text><polygon fill="none" points="2144,145.4297,2148,149.4297,2144,153.4297,2140,149.4297" style="stroke:#B38D22;stroke-width:1.0;"/><text fill="#000000" font-family="sans-serif" font-size="14" lengthAdjust="spacing" textLength="118" x="2153" y="153.7764">lattePrice : float</text><polygon fill="none" points="2144,161.7266,2148,165.7266,2144,169.7266,2140,165.7266" style="stroke:#B38D22;stroke-width:1.0;"/><text fill="#000000" font-family="sans-serif" font-size="14" lengthAdjust="spacing" textLength="208" x="2153" y="170.0732">latteComponentsCost : float</text><polygon fill="none" points="2144,178.0234,2148,182.0234,2144,186.0234,2140,182.0234" style="stroke:#B38D22;stroke-width:1.0;"/><text fill="#000000" font-family="sans-serif" font-size="14" lengthAdjust="spacing" textLength="144" x="2153" y="186.3701">machinePrice : float</text><polygon fill="none" points="2144,194.3203,2148,198.3203,2144,202.3203,2140,198.3203" style="stroke:#B38D22;stroke-width:1.0;"/><text fill="#000000" font-family="sans-serif" font-size="14" lengthAdjust="spacing" textLength="174" x="2153" y="202.667">maintenanceCost : float</text><line style="stroke:#181818;stroke-width:0.5;" x1="2134" x2="3603" y1="209.9688" y2="209.9688"/><ellipse cx="2144" cy="223.6172" fill="#84BE84" rx="3" ry="3" style="stroke:#038048;stroke-width:1.0;"/><text fill="#000000" font-family="sans-serif" font-size="14" lengthAdjust="spacing" textLength="1445" x="2153" y="226.9639">CoffeeMachine(const std::pair&lt;float,float&gt; &amp; americanoCost, const std::pair&lt;float,float&gt; &amp; cappuccinoCost, const std::pair&lt;float,float&gt; &amp; espressoCost, const std::pair&lt;float,float&gt; &amp; latteCost) : void</text><ellipse cx="2144" cy="239.9141" fill="#84BE84" rx="3" ry="3" style="stroke:#038048;stroke-width:1.0;"/><text fill="#000000" font-family="sans-serif" font-size="14" font-style="italic" lengthAdjust="spacing" textLength="373" x="2153" y="243.2607">getAmericano() const = 0 : std::unique_ptr&lt;Coffee&gt;</text><ellipse cx="2144" cy="256.2109" fill="#84BE84" rx="3" ry="3" style="stroke:#038048;stroke-width:1.0;"/><text fill="#000000" font-family="sans-serif" font-size="14" font-style="italic" lengthAdjust="spacing" textLength="379" x="2153" y="259.5576">getCappuccino() const = 0 : std::unique_ptr&lt;Coffee&gt;</text><ellipse cx="2144" cy="272.5078" fill="#84BE84" rx="3" ry="3" style="stroke:#038048;stroke-width:1.0;"/><text fill="#000000" font-family="sans-serif" font-size="14" font-style="italic" lengthAdjust="spacing" textLength="358" x="2153" y="275.8545">getEspresso() const = 0 : std::unique_ptr&lt;Coffee&gt;</text><ellipse cx="2144" cy="288.8047" fill="#84BE84" rx="3" ry="3" style="stroke:#038048;stroke-width:1.0;"/><text fill="#000000" font-family="sans-serif" font-size="14" font-style="italic" lengthAdjust="spacing" textLength="331" x="2153" y="292.1514">getLatte() const = 0 : std::unique_ptr&lt;Coffee&gt;</text><ellipse cx="2144" cy="305.1016" fill="#84BE84" rx="3" ry="3" style="stroke:#038048;stroke-width:1.0;"/><text fill="#000000" font-family="sans-serif" font-size="14" lengthAdjust="spacing" textLength="292" x="2153" y="308.4482">setAmericanoPrice(float newPrice) : void</text><ellipse cx="2144" cy="321.3984" fill="#84BE84" rx="3" ry="3" style="stroke:#038048;stroke-width:1.0;"/><text fill="#000000" font-family="sans-serif" font-size="14" lengthAdjust="spacing" textLength="299" x="2153" y="324.7451">setCappuccinoPrice(float newPrice) : void</text><ellipse cx="2144" cy="337.6953" fill="#84BE84" rx="3" ry="3" style="stroke:#038048;stroke-width:1.0;"/><text fill="#000000" font-family="sans-serif" font-size="14" lengthAdjust="spacing" textLength="279" x="2153" y="341.042">setEspressoPrice(float newPrice) : void</text><ellipse cx="2144" cy="353.9922" fill="#84BE84" rx="3" ry="3" style="stroke:#038048;stroke-width:1.0;"/><text fill="#000000" font-family="sans-serif" font-size="14" lengthAdjust="spacing" textLength="254" x="2153" y="357.3389">setLattePrice(float newPrice) : void</text><ellipse cx="2144" cy="370.2891" fill="#84BE84" rx="3" ry="3" style="stroke:#038048;stroke-width:1.0;"/><text fill="#000000" font-family="sans-serif" font-size="14" lengthAdjust="spacing" textLength="379" x="2153" y="373.6357">setAmericanoComponentsCost(float newCost) : void</text><ellipse cx="2144" cy="386.5859" fill="#84BE84" rx="3" ry="3" style="stroke:#038048;stroke-width:1.0;"/><text fill="#000000" font-family="sans-serif" font-size="14" lengthAdjust="spacing" textLength="386" x="2153" y="389.9326">setCappuccinoComponentsCost(float newCost) : void</text><ellipse cx="2144" cy="402.8828" fill="#84BE84" rx="3" ry="3" style="stroke:#038048;stroke-width:1.0;"/><text fill="#000000" font-family="sans-serif" font-size="14" lengthAdjust="spacing" textLength="366" x="2153" y="406.2295">setEspressoComponentsCost(float newCost) : void</text><ellipse cx="2144" cy="419.1797" fill="#84BE84" rx="3" ry="3" style="stroke:#038048;stroke-width:1.0;"/><text fill="#000000" font-family="sans-serif" font-size="14" lengthAdjust="spacing" textLength="341" x="2153" y="422.5264">setLatteComponentsCost(float newCost) : void</text><ellipse cx="2144" cy="435.4766" fill="#84BE84" rx="3" ry="3" style="stroke:#038048;stroke-width:1.0;"/><text fill="#000000" font-family="sans-serif" font-size="14" lengthAdjust="spacing" textLength="239" x="2153" y="438.8232">getAmericanoPrice() const : float</text><ellipse cx="2144" cy="451.7734" fill="#84BE84" rx="3" ry="3" style="stroke:#038048;stroke-width:1.0;"/><text fill="#000000" font-family="sans-serif" font-size="14" lengthAdjust="spacing" textLength="246" x="2153" y="455.1201">getCappuccinoPrice() const : float</text><ellipse cx="2144" cy="468.0703" fill="#84BE84" rx="3" ry="3" style="stroke:#038048;stroke-width:1.0;"/><text fill="#000000" font-family="sans-serif" font-size="14" lengthAdjust="spacing" textLength="226" x="2153" y="471.417">getEspressoPrice() const : float</text><ellipse cx="2144" cy="484.3672" fill="#84BE84" rx="3" ry="3" style="stroke:#038048;stroke-width:1.0;"/><text fill="#000000" font-family="sans-serif" font-size="14" lengthAdjust="spacing" textLength="201" x="2153" y="487.7139">getLattePrice() const : float</text><ellipse cx="2144" cy="500.6641" fill="#84BE84" rx="3" ry="3" style="stroke:#038048;stroke-width:1.0;"/><text fill="#000000" font-family="sans-serif" font-size="14" lengthAdjust="spacing" textLength="329" x="2153" y="504.0107">getAmericanoComponentsCost() const : float</text><ellipse cx="2144" cy="516.9609" fill="#84BE84" rx="3" ry="3" style="stroke:#038048;stroke-width:1.0;"/><text fill="#000000" font-family="sans-serif" font-size="14" lengthAdjust="spacing" textLength="336" x="2153" y="520.3076">getCappuccinoComponentsCost() const : float</text><ellipse cx="2144" cy="533.2578" fill="#84BE84" rx="3" ry="3" style="stroke:#038048;stroke-width:1.0;"/><text fill="#000000" font-family="sans-serif" font-size="14" lengthAdjust="spacing" textLength="316" x="2153" y="536.6045">getEspressoComponentsCost() const : float</text><ellipse cx="2144" cy="549.5547" fill="#84BE84" rx="3" ry="3" style="stroke:#038048;stroke-width:1.0;"/><text fill="#000000" font-family="sans-serif" font-size="14" lengthAdjust="spacing" textLength="291" x="2153" y="552.9014">getLatteComponentsCost() const : float</text><ellipse cx="2144" cy="565.8516" fill="#84BE84" rx="3" ry="3" style="stroke:#038048;stroke-width:1.0;"/><text fill="#000000" font-family="sans-serif" font-size="14" lengthAdjust="spacing" textLength="727" x="2153" y="569.1982">getProfit(int americanoNumber, int cappuccinoNumber, int espressoNumber, int latteNumber) : float</text><rect fill="#F24D5C" height="6" style="stroke:#C82930;stroke-width:1.0;" width="6" x="2141" y="579.1484"/><text fill="#000000" font-family="sans-serif" font-size="14" lengthAdjust="spacing" textLength="452" x="2153" y="585.4951">computeSingleProfit(float price, float componentsCost) : float</text></g><!--class C_0001424193820633894510--><g id="elem_C_0001424193820633894510"><rect codeLine="48" fill="#F1F1F1" height="80.5938" id="C_0001424193820633894510" rx="2.5" ry="2.5" style="stroke:#181818;stroke-width:0.5;" width="395" x="749" y="1064"/><ellipse cx="903.75" cy="1080" fill="#ADD1B2" rx="11" ry="11" style="stroke:#181818;stroke-width:1.0;"/><path d="M906.0938,1075.6719 C905.1563,1075.2344 904.5625,1075.0938 903.6875,1075.0938 C901.0625,1075.0938 899.0625,1077.1719 899.0625,1079.8906 L899.0625,1081.0156 C899.0625,1083.5938 901.1719,1085.4844 904.0625,1085.4844 C905.2813,1085.4844 906.4375,1085.1875 907.1875,1084.6406 C907.7656,1084.2344 908.0938,1083.7813 908.0938,1083.3906 C908.0938,1082.9375 907.7031,1082.5469 907.2344,1082.5469 C907.0156,1082.5469 906.8125,1082.625 906.625,1082.8125 C906.1719,1083.2969 906.1719,1083.2969 905.9844,1083.3906 C905.5625,1083.6563 904.875,1083.7813 904.1094,1083.7813 C902.0625,1083.7813 900.7656,1082.6875 900.7656,1080.9844 L900.7656,1079.8906 C900.7656,1078.1094 902.0156,1076.7969 903.75,1076.7969 C904.3281,1076.7969 904.9375,1076.9531 905.4063,1077.2031 C905.8906,1077.4844 906.0625,1077.7031 906.1563,1078.1094 C906.2188,1078.5156 906.25,1078.6406 906.3906,1078.7656 C906.5313,1078.9063 906.7656,1079.0156 906.9844,1079.0156 C907.25,1079.0156 907.5156,1078.875 907.6875,1078.6563 C907.7969,1078.5 907.8281,1078.3125 907.8281,1077.8906 L907.8281,1076.4688 C907.8281,1076.0313 907.8125,1075.9063 907.7188,1075.75 C907.5625,1075.4844 907.2813,1075.3438 906.9844,1075.3438 C906.6875,1075.3438 906.4844,1075.4375 906.2656,1075.75 L906.0938,1075.6719 Z " fill="#000000"/><text fill="#000000" font-family="sans-serif" font-size="14" lengthAdjust="spacing" textLength="77" x="924.25" y="1084.8467">Americano</text><line style="stroke:#181818;stroke-width:0.5;" x1="750" x2="1143" y1="1096" y2="1096"/><line style="stroke:#181818;stroke-width:0.5;" x1="750" x2="1143" y1="1104" y2="1104"/><ellipse cx="760" cy="1117.6484" fill="#84BE84" rx="3" ry="3" style="stroke:#038048;stroke-width:1.0;"/><text fill="#000000" font-family="sans-serif" font-size="14" lengthAdjust="spacing" textLength="369" x="769" y="1120.9951">Americano(float componentsCost, float cost) : void</text><ellipse cx="760" cy="1133.9453" fill="#84BE84" rx="3" ry="3" style="stroke:#038048;stroke-width:1.0;"/><text fill="#000000" font-family="sans-serif" font-size="14" lengthAdjust="spacing" textLength="208" x="769" y="1137.292">getName() const : std::string</text></g><!--class C_0001094749075536405418--><g id="elem_C_0001094749075536405418"><rect codeLine="53" fill="#F1F1F1" height="64.2969" id="C_0001094749075536405418" rx="2.5" ry="2.5" style="stroke:#181818;stroke-width:0.5;" width="441" x="7" y="1205"/><ellipse cx="161.75" cy="1221" fill="#ADD1B2" rx="11" ry="11" style="stroke:#181818;stroke-width:1.0;"/><path d="M164.0938,1216.6719 C163.1563,1216.2344 162.5625,1216.0938 161.6875,1216.0938 C159.0625,1216.0938 157.0625,1218.1719 157.0625,1220.8906 L157.0625,1222.0156 C157.0625,1224.5938 159.1719,1226.4844 162.0625,1226.4844 C163.2813,1226.4844 164.4375,1226.1875 165.1875,1225.6406 C165.7656,1225.2344 166.0938,1224.7813 166.0938,1224.3906 C166.0938,1223.9375 165.7031,1223.5469 165.2344,1223.5469 C165.0156,1223.5469 164.8125,1223.625 164.625,1223.8125 C164.1719,1224.2969 164.1719,1224.2969 163.9844,1224.3906 C163.5625,1224.6563 162.875,1224.7813 162.1094,1224.7813 C160.0625,1224.7813 158.7656,1223.6875 158.7656,1221.9844 L158.7656,1220.8906 C158.7656,1219.1094 160.0156,1217.7969 161.75,1217.7969 C162.3281,1217.7969 162.9375,1217.9531 163.4063,1218.2031 C163.8906,1218.4844 164.0625,1218.7031 164.1563,1219.1094 C164.2188,1219.5156 164.25,1219.6406 164.3906,1219.7656 C164.5313,1219.9063 164.7656,1220.0156 164.9844,1220.0156 C165.25,1220.0156 165.5156,1219.875 165.6875,1219.6563 C165.7969,1219.5 165.8281,1219.3125 165.8281,1218.8906 L165.8281,1217.4688 C165.8281,1217.0313 165.8125,1216.9063 165.7188,1216.75 C165.5625,1216.4844 165.2813,1216.3438 164.9844,1216.3438 C164.6875,1216.3438 164.4844,1216.4375 164.2656,1216.75 L164.0938,1216.6719 Z " fill="#000000"/><text fill="#000000" font-family="sans-serif" font-size="14" lengthAdjust="spacing" textLength="123" x="182.25" y="1225.8467">AmericanoKeurig</text><line style="stroke:#181818;stroke-width:0.5;" x1="8" x2="447" y1="1237" y2="1237"/><line style="stroke:#181818;stroke-width:0.5;" x1="8" x2="447" y1="1245" y2="1245"/><ellipse cx="18" cy="1258.6484" fill="#84BE84" rx="3" ry="3" style="stroke:#038048;stroke-width:1.0;"/><text fill="#000000" font-family="sans-serif" font-size="14" lengthAdjust="spacing" textLength="415" x="27" y="1261.9951">AmericanoKeurig(float componentsCost, float cost) : void</text></g><!--class C_0002102556391679358599--><g id="elem_C_0002102556391679358599"><rect codeLine="57" fill="#F1F1F1" height="80.5938" id="C_0002102556391679358599" rx="2.5" ry="2.5" style="stroke:#181818;stroke-width:0.5;" width="402" x="2193.5" y="1064"/><ellipse cx="2348.25" cy="1080" fill="#ADD1B2" rx="11" ry="11" style="stroke:#181818;stroke-width:1.0;"/><path d="M2350.5938,1075.6719 C2349.6563,1075.2344 2349.0625,1075.0938 2348.1875,1075.0938 C2345.5625,1075.0938 2343.5625,1077.1719 2343.5625,1079.8906 L2343.5625,1081.0156 C2343.5625,1083.5938 2345.6719,1085.4844 2348.5625,1085.4844 C2349.7813,1085.4844 2350.9375,1085.1875 2351.6875,1084.6406 C2352.2656,1084.2344 2352.5938,1083.7813 2352.5938,1083.3906 C2352.5938,1082.9375 2352.2031,1082.5469 2351.7344,1082.5469 C2351.5156,1082.5469 2351.3125,1082.625 2351.125,1082.8125 C2350.6719,1083.2969 2350.6719,1083.2969 2350.4844,1083.3906 C2350.0625,1083.6563 2349.375,1083.7813 2348.6094,1083.7813 C2346.5625,1083.7813 2345.2656,1082.6875 2345.2656,1080.9844 L2345.2656,1079.8906 C2345.2656,1078.1094 2346.5156,1076.7969 2348.25,1076.7969 C2348.8281,1076.7969 2349.4375,1076.9531 2349.9063,1077.2031 C2350.3906,1077.4844 2350.5625,1077.7031 2350.6563,1078.1094 C2350.7188,1078.5156 2350.75,1078.6406 2350.8906,1078.7656 C2351.0313,1078.9063 2351.2656,1079.0156 2351.4844,1079.0156 C2351.75,1079.0156 2352.0156,1078.875 2352.1875,1078.6563 C2352.2969,1078.5 2352.3281,1078.3125 2352.3281,1077.8906 L2352.3281,1076.4688 C2352.3281,1076.0313 2352.3125,1075.9063 2352.2188,1075.75 C2352.0625,1075.4844 2351.7813,1075.3438 2351.4844,1075.3438 C2351.1875,1075.3438 2350.9844,1075.4375 2350.7656,1075.75 L2350.5938,1075.6719 Z " fill="#000000"/><text fill="#000000" font-family="sans-serif" font-size="14" lengthAdjust="spacing" textLength="84" x="2368.75" y="1084.8467">Cappuccino</text><line style="stroke:#181818;stroke-width:0.5;" x1="2194.5" x2="2594.5" y1="1096" y2="1096"/><line style="stroke:#181818;stroke-width:0.5;" x1="2194.5" x2="2594.5" y1="1104" y2="1104"/><ellipse cx="2204.5" cy="1117.6484" fill="#84BE84" rx="3" ry="3" style="stroke:#038048;stroke-width:1.0;"/><text fill="#000000" font-family="sans-serif" font-size="14" lengthAdjust="spacing" textLength="376" x="2213.5" y="1120.9951">Cappuccino(float componentsCost, float cost) : void</text><ellipse cx="2204.5" cy="1133.9453" fill="#84BE84" rx="3" ry="3" style="stroke:#038048;stroke-width:1.0;"/><text fill="#000000" font-family="sans-serif" font-size="14" lengthAdjust="spacing" textLength="208" x="2213.5" y="1137.292">getName() const : std::string</text></g><!--class C_0002245504944477283298--><g id="elem_C_0002245504944477283298"><rect codeLine="62" fill="#F1F1F1" height="64.2969" id="C_0002245504944477283298" rx="2.5" ry="2.5" style="stroke:#181818;stroke-width:0.5;" width="448" x="1441.5" y="1205"/><ellipse cx="1596.25" cy="1221" fill="#ADD1B2" rx="11" ry="11" style="stroke:#181818;stroke-width:1.0;"/><path d="M1598.5938,1216.6719 C1597.6563,1216.2344 1597.0625,1216.0938 1596.1875,1216.0938 C1593.5625,1216.0938 1591.5625,1218.1719 1591.5625,1220.8906 L1591.5625,1222.0156 C1591.5625,1224.5938 1593.6719,1226.4844 1596.5625,1226.4844 C1597.7813,1226.4844 1598.9375,1226.1875 1599.6875,1225.6406 C1600.2656,1225.2344 1600.5938,1224.7813 1600.5938,1224.3906 C1600.5938,1223.9375 1600.2031,1223.5469 1599.7344,1223.5469 C1599.5156,1223.5469 1599.3125,1223.625 1599.125,1223.8125 C1598.6719,1224.2969 1598.6719,1224.2969 1598.4844,1224.3906 C1598.0625,1224.6563 1597.375,1224.7813 1596.6094,1224.7813 C1594.5625,1224.7813 1593.2656,1223.6875 1593.2656,1221.9844 L1593.2656,1220.8906 C1593.2656,1219.1094 1594.5156,1217.7969 1596.25,1217.7969 C1596.8281,1217.7969 1597.4375,1217.9531 1597.9063,1218.2031 C1598.3906,1218.4844 1598.5625,1218.7031 1598.6563,1219.1094 C1598.7188,1219.5156 1598.75,1219.6406 1598.8906,1219.7656 C1599.0313,1219.9063 1599.2656,1220.0156 1599.4844,1220.0156 C1599.75,1220.0156 1600.0156,1219.875 1600.1875,1219.6563 C1600.2969,1219.5 1600.3281,1219.3125 1600.3281,1218.8906 L1600.3281,1217.4688 C1600.3281,1217.0313 1600.3125,1216.9063 1600.2188,1216.75 C1600.0625,1216.4844 1599.7813,1216.3438 1599.4844,1216.3438 C1599.1875,1216.3438 1598.9844,1216.4375 1598.7656,1216.75 L1598.5938,1216.6719 Z " fill="#000000"/><text fill="#000000" font-family="sans-serif" font-size="14" lengthAdjust="spacing" textLength="130" x="1616.75" y="1225.8467">CappuccinoKeurig</text><line style="stroke:#181818;stroke-width:0.5;" x1="1442.5" x2="1888.5" y1="1237" y2="1237"/><line style="stroke:#181818;stroke-width:0.5;" x1="1442.5" x2="1888.5" y1="1245" y2="1245"/><ellipse cx="1452.5" cy="1258.6484" fill="#84BE84" rx="3" ry="3" style="stroke:#038048;stroke-width:1.0;"/><text fill="#000000" font-family="sans-serif" font-size="14" lengthAdjust="spacing" textLength="422" x="1461.5" y="1261.9951">CappuccinoKeurig(float componentsCost, float cost) : void</text></g><!--class C_0001811296427559445634--><g id="elem_C_0001811296427559445634"><rect codeLine="66" fill="#F1F1F1" height="80.5938" id="C_0001811296427559445634" rx="2.5" ry="2.5" style="stroke:#181818;stroke-width:0.5;" width="382" x="3152.5" y="1064"/><ellipse cx="3307.25" cy="1080" fill="#ADD1B2" rx="11" ry="11" style="stroke:#181818;stroke-width:1.0;"/><path d="M3309.5938,1075.6719 C3308.6563,1075.2344 3308.0625,1075.0938 3307.1875,1075.0938 C3304.5625,1075.0938 3302.5625,1077.1719 3302.5625,1079.8906 L3302.5625,1081.0156 C3302.5625,1083.5938 3304.6719,1085.4844 3307.5625,1085.4844 C3308.7813,1085.4844 3309.9375,1085.1875 3310.6875,1084.6406 C3311.2656,1084.2344 3311.5938,1083.7813 3311.5938,1083.3906 C3311.5938,1082.9375 3311.2031,1082.5469 3310.7344,1082.5469 C3310.5156,1082.5469 3310.3125,1082.625 3310.125,1082.8125 C3309.6719,1083.2969 3309.6719,1083.2969 3309.4844,1083.3906 C3309.0625,1083.6563 3308.375,1083.7813 3307.6094,1083.7813 C3305.5625,1083.7813 3304.2656,1082.6875 3304.2656,1080.9844 L3304.2656,1079.8906 C3304.2656,1078.1094 3305.5156,1076.7969 3307.25,1076.7969 C3307.8281,1076.7969 3308.4375,1076.9531 3308.9063,1077.2031 C3309.3906,1077.4844 3309.5625,1077.7031 3309.6563,1078.1094 C3309.7188,1078.5156 3309.75,1078.6406 3309.8906,1078.7656 C3310.0313,1078.9063 3310.2656,1079.0156 3310.4844,1079.0156 C3310.75,1079.0156 3311.0156,1078.875 3311.1875,1078.6563 C3311.2969,1078.5 3311.3281,1078.3125 3311.3281,1077.8906 L3311.3281,1076.4688 C3311.3281,1076.0313 3311.3125,1075.9063 3311.2188,1075.75 C3311.0625,1075.4844 3310.7813,1075.3438 3310.4844,1075.3438 C3310.1875,1075.3438 3309.9844,1075.4375 3309.7656,1075.75 L3309.5938,1075.6719 Z " fill="#000000"/><text fill="#000000" font-family="sans-serif" font-size="14" lengthAdjust="spacing" textLength="64" x="3327.75" y="1084.8467">Espresso</text><line style="stroke:#181818;stroke-width:0.5;" x1="3153.5" x2="3533.5" y1="1096" y2="1096"/><line style="stroke:#181818;stroke-width:0.5;" x1="3153.5" x2="3533.5" y1="1104" y2="1104"/><ellipse cx="3163.5" cy="1117.6484" fill="#84BE84" rx="3" ry="3" style="stroke:#038048;stroke-width:1.0;"/><text fill="#000000" font-family="sans-serif" font-size="14" lengthAdjust="spacing" textLength="356" x="3172.5" y="1120.9951">Espresso(float componentsCost, float cost) : void</text><ellipse cx="3163.5" cy="1133.9453" fill="#84BE84" rx="3" ry="3" style="stroke:#038048;stroke-width:1.0;"/><text fill="#000000" font-family="sans-serif" font-size="14" lengthAdjust="spacing" textLength="208" x="3172.5" y="1137.292">getName() const : std::string</text></g><!--class C_0000412492101679171424--><g id="elem_C_0000412492101679171424"><rect codeLine="71" fill="#F1F1F1" height="64.2969" id="C_0000412492101679171424" rx="2.5" ry="2.5" style="stroke:#181818;stroke-width:0.5;" width="428" x="2896.5" y="1205"/><ellipse cx="3051.25" cy="1221" fill="#ADD1B2" rx="11" ry="11" style="stroke:#181818;stroke-width:1.0;"/><path d="M3053.5938,1216.6719 C3052.6563,1216.2344 3052.0625,1216.0938 3051.1875,1216.0938 C3048.5625,1216.0938 3046.5625,1218.1719 3046.5625,1220.8906 L3046.5625,1222.0156 C3046.5625,1224.5938 3048.6719,1226.4844 3051.5625,1226.4844 C3052.7813,1226.4844 3053.9375,1226.1875 3054.6875,1225.6406 C3055.2656,1225.2344 3055.5938,1224.7813 3055.5938,1224.3906 C3055.5938,1223.9375 3055.2031,1223.5469 3054.7344,1223.5469 C3054.5156,1223.5469 3054.3125,1223.625 3054.125,1223.8125 C3053.6719,1224.2969 3053.6719,1224.2969 3053.4844,1224.3906 C3053.0625,1224.6563 3052.375,1224.7813 3051.6094,1224.7813 C3049.5625,1224.7813 3048.2656,1223.6875 3048.2656,1221.9844 L3048.2656,1220.8906 C3048.2656,1219.1094 3049.5156,1217.7969 3051.25,1217.7969 C3051.8281,1217.7969 3052.4375,1217.9531 3052.9063,1218.2031 C3053.3906,1218.4844 3053.5625,1218.7031 3053.6563,1219.1094 C3053.7188,1219.5156 3053.75,1219.6406 3053.8906,1219.7656 C3054.0313,1219.9063 3054.2656,1220.0156 3054.4844,1220.0156 C3054.75,1220.0156 3055.0156,1219.875 3055.1875,1219.6563 C3055.2969,1219.5 3055.3281,1219.3125 3055.3281,1218.8906 L3055.3281,1217.4688 C3055.3281,1217.0313 3055.3125,1216.9063 3055.2188,1216.75 C3055.0625,1216.4844 3054.7813,1216.3438 3054.4844,1216.3438 C3054.1875,1216.3438 3053.9844,1216.4375 3053.7656,1216.75 L3053.5938,1216.6719 Z " fill="#000000"/><text fill="#000000" font-family="sans-serif" font-size="14" lengthAdjust="spacing" textLength="110" x="3071.75" y="1225.8467">EspressoKeurig</text><line style="stroke:#181818;stroke-width:0.5;" x1="2897.5" x2="3323.5" y1="1237" y2="1237"/><line style="stroke:#181818;stroke-width:0.5;" x1="2897.5" x2="3323.5" y1="1245" y2="1245"/><ellipse cx="2907.5" cy="1258.6484" fill="#84BE84" rx="3" ry="3" style="stroke:#038048;stroke-width:1.0;"/><text fill="#000000" font-family="sans-serif" font-size="14" lengthAdjust="spacing" textLength="402" x="2916.5" y="1261.9951">EspressoKeurig(float componentsCost, float cost) : void</text></g><!--class C_0001647160910280595340--><g id="elem_C_0001647160910280595340"><rect codeLine="75" fill="#F1F1F1" height="80.5938" id="C_0001647160910280595340" rx="2.5" ry="2.5" style="stroke:#181818;stroke-width:0.5;" width="357" x="4535" y="1064"/><ellipse cx="4689.75" cy="1080" fill="#ADD1B2" rx="11" ry="11" style="stroke:#181818;stroke-width:1.0;"/><path d="M4692.0938,1075.6719 C4691.1563,1075.2344 4690.5625,1075.0938 4689.6875,1075.0938 C4687.0625,1075.0938 4685.0625,1077.1719 4685.0625,1079.8906 L4685.0625,1081.0156 C4685.0625,1083.5938 4687.1719,1085.4844 4690.0625,1085.4844 C4691.2813,1085.4844 4692.4375,1085.1875 4693.1875,1084.6406 C4693.7656,1084.2344 4694.0938,1083.7813 4694.0938,1083.3906 C4694.0938,1082.9375 4693.7031,1082.5469 4693.2344,1082.5469 C4693.0156,1082.5469 4692.8125,1082.625 4692.625,1082.8125 C4692.1719,1083.2969 4692.1719,1083.2969 4691.9844,1083.3906 C4691.5625,1083.6563 4690.875,1083.7813 4690.1094,1083.7813 C4688.0625,1083.7813 4686.7656,1082.6875 4686.7656,1080.9844 L4686.7656,1079.8906 C4686.7656,1078.1094 4688.0156,1076.7969 4689.75,1076.7969 C4690.3281,1076.7969 4690.9375,1076.9531 4691.4063,1077.2031 C4691.8906,1077.4844 4692.0625,1077.7031 4692.1563,1078.1094 C4692.2188,1078.5156 4692.25,1078.6406 4692.3906,1078.7656 C4692.5313,1078.9063 4692.7656,1079.0156 4692.9844,1079.0156 C4693.25,1079.0156 4693.5156,1078.875 4693.6875,1078.6563 C4693.7969,1078.5 4693.8281,1078.3125 4693.8281,1077.8906 L4693.8281,1076.4688 C4693.8281,1076.0313 4693.8125,1075.9063 4693.7188,1075.75 C4693.5625,1075.4844 4693.2813,1075.3438 4692.9844,1075.3438 C4692.6875,1075.3438 4692.4844,1075.4375 4692.2656,1075.75 L4692.0938,1075.6719 Z " fill="#000000"/><text fill="#000000" font-family="sans-serif" font-size="14" lengthAdjust="spacing" textLength="39" x="4710.25" y="1084.8467">Latte</text><line style="stroke:#181818;stroke-width:0.5;" x1="4536" x2="4891" y1="1096" y2="1096"/><line style="stroke:#181818;stroke-width:0.5;" x1="4536" x2="4891" y1="1104" y2="1104"/><ellipse cx="4546" cy="1117.6484" fill="#84BE84" rx="3" ry="3" style="stroke:#038048;stroke-width:1.0;"/><text fill="#000000" font-family="sans-serif" font-size="14" lengthAdjust="spacing" textLength="331" x="4555" y="1120.9951">Latte(float componentsCost, float cost) : void</text><ellipse cx="4546" cy="1133.9453" fill="#84BE84" rx="3" ry="3" style="stroke:#038048;stroke-width:1.0;"/><text fill="#000000" font-family="sans-serif" font-size="14" lengthAdjust="spacing" textLength="208" x="4555" y="1137.292">getName() const : std::string</text></g><!--class C_0001012504285853700123--><g id="elem_C_0001012504285853700123"><rect codeLine="80" fill="#F1F1F1" height="64.2969" id="C_0001012504285853700123" rx="2.5" ry="2.5" style="stroke:#181818;stroke-width:0.5;" width="403" x="4292" y="1205"/><ellipse cx="4446.75" cy="1221" fill="#ADD1B2" rx="11" ry="11" style="stroke:#181818;stroke-width:1.0;"/><path d="M4449.0938,1216.6719 C4448.1563,1216.2344 4447.5625,1216.0938 4446.6875,1216.0938 C4444.0625,1216.0938 4442.0625,1218.1719 4442.0625,1220.8906 L4442.0625,1222.0156 C4442.0625,1224.5938 4444.1719,1226.4844 4447.0625,1226.4844 C4448.2813,1226.4844 4449.4375,1226.1875 4450.1875,1225.6406 C4450.7656,1225.2344 4451.0938,1224.7813 4451.0938,1224.3906 C4451.0938,1223.9375 4450.7031,1223.5469 4450.2344,1223.5469 C4450.0156,1223.5469 4449.8125,1223.625 4449.625,1223.8125 C4449.1719,1224.2969 4449.1719,1224.2969 4448.9844,1224.3906 C4448.5625,1224.6563 4447.875,1224.7813 4447.1094,1224.7813 C4445.0625,1224.7813 4443.7656,1223.6875 4443.7656,1221.9844 L4443.7656,1220.8906 C4443.7656,1219.1094 4445.0156,1217.7969 4446.75,1217.7969 C4447.3281,1217.7969 4447.9375,1217.9531 4448.4063,1218.2031 C4448.8906,1218.4844 4449.0625,1218.7031 4449.1563,1219.1094 C4449.2188,1219.5156 4449.25,1219.6406 4449.3906,1219.7656 C4449.5313,1219.9063 4449.7656,1220.0156 4449.9844,1220.0156 C4450.25,1220.0156 4450.5156,1219.875 4450.6875,1219.6563 C4450.7969,1219.5 4450.8281,1219.3125 4450.8281,1218.8906 L4450.8281,1217.4688 C4450.8281,1217.0313 4450.8125,1216.9063 4450.7188,1216.75 C4450.5625,1216.4844 4450.2813,1216.3438 4449.9844,1216.3438 C4449.6875,1216.3438 4449.4844,1216.4375 4449.2656,1216.75 L4449.0938,1216.6719 Z " fill="#000000"/><text fill="#000000" font-family="sans-serif" font-size="14" lengthAdjust="spacing" textLength="85" x="4467.25" y="1225.8467">LatteKeurig</text><line style="stroke:#181818;stroke-width:0.5;" x1="4293" x2="4694" y1="1237" y2="1237"/><line style="stroke:#181818;stroke-width:0.5;" x1="4293" x2="4694" y1="1245" y2="1245"/><ellipse cx="4303" cy="1258.6484" fill="#84BE84" rx="3" ry="3" style="stroke:#038048;stroke-width:1.0;"/><text fill="#000000" font-family="sans-serif" font-size="14" lengthAdjust="spacing" textLength="377" x="4312" y="1261.9951">LatteKeurig(float componentsCost, float cost) : void</text></g><!--class C_0000482778943363517579--><g id="elem_C_0000482778943363517579"><rect codeLine="84" fill="#F1F1F1" height="129.4844" id="C_0000482778943363517579" rx="2.5" ry="2.5" style="stroke:#181818;stroke-width:0.5;" width="1517" x="1333" y="653"/><ellipse cx="2010.25" cy="669" fill="#ADD1B2" rx="11" ry="11" style="stroke:#181818;stroke-width:1.0;"/><path d="M2012.5938,664.6719 C2011.6563,664.2344 2011.0625,664.0938 2010.1875,664.0938 C2007.5625,664.0938 2005.5625,666.1719 2005.5625,668.8906 L2005.5625,670.0156 C2005.5625,672.5938 2007.6719,674.4844 2010.5625,674.4844 C2011.7813,674.4844 2012.9375,674.1875 2013.6875,673.6406 C2014.2656,673.2344 2014.5938,672.7813 2014.5938,672.3906 C2014.5938,671.9375 2014.2031,671.5469 2013.7344,671.5469 C2013.5156,671.5469 2013.3125,671.625 2013.125,671.8125 C2012.6719,672.2969 2012.6719,672.2969 2012.4844,672.3906 C2012.0625,672.6563 2011.375,672.7813 2010.6094,672.7813 C2008.5625,672.7813 2007.2656,671.6875 2007.2656,669.9844 L2007.2656,668.8906 C2007.2656,667.1094 2008.5156,665.7969 2010.25,665.7969 C2010.8281,665.7969 2011.4375,665.9531 2011.9063,666.2031 C2012.3906,666.4844 2012.5625,666.7031 2012.6563,667.1094 C2012.7188,667.5156 2012.75,667.6406 2012.8906,667.7656 C2013.0313,667.9063 2013.2656,668.0156 2013.4844,668.0156 C2013.75,668.0156 2014.0156,667.875 2014.1875,667.6563 C2014.2969,667.5 2014.3281,667.3125 2014.3281,666.8906 L2014.3281,665.4688 C2014.3281,665.0313 2014.3125,664.9063 2014.2188,664.75 C2014.0625,664.4844 2013.7813,664.3438 2013.4844,664.3438 C2013.1875,664.3438 2012.9844,664.4375 2012.7656,664.75 L2012.5938,664.6719 Z " fill="#000000"/><text fill="#000000" font-family="sans-serif" font-size="14" lengthAdjust="spacing" textLength="154" x="2030.75" y="673.8467">CoffeeMachineKeurig</text><line style="stroke:#181818;stroke-width:0.5;" x1="1334" x2="2849" y1="685" y2="685"/><line style="stroke:#181818;stroke-width:0.5;" x1="1334" x2="2849" y1="693" y2="693"/><ellipse cx="1344" cy="706.6484" fill="#84BE84" rx="3" ry="3" style="stroke:#038048;stroke-width:1.0;"/><text fill="#000000" font-family="sans-serif" font-size="14" lengthAdjust="spacing" textLength="1491" x="1353" y="709.9951">CoffeeMachineKeurig(const std::pair&lt;float,float&gt; &amp; americanoCost, const std::pair&lt;float,float&gt; &amp; cappuccinoCost, const std::pair&lt;float,float&gt; &amp; espressoCost, const std::pair&lt;float,float&gt; &amp; latteCost) : void</text><ellipse cx="1344" cy="722.9453" fill="#84BE84" rx="3" ry="3" style="stroke:#038048;stroke-width:1.0;"/><text fill="#000000" font-family="sans-serif" font-size="14" lengthAdjust="spacing" textLength="350" x="1353" y="726.292">getAmericano() const : std::unique_ptr&lt;Coffee&gt;</text><ellipse cx="1344" cy="739.2422" fill="#84BE84" rx="3" ry="3" style="stroke:#038048;stroke-width:1.0;"/><text fill="#000000" font-family="sans-serif" font-size="14" lengthAdjust="spacing" textLength="357" x="1353" y="742.5889">getCappuccino() const : std::unique_ptr&lt;Coffee&gt;</text><ellipse cx="1344" cy="755.5391" fill="#84BE84" rx="3" ry="3" style="stroke:#038048;stroke-width:1.0;"/><text fill="#000000" font-family="sans-serif" font-size="14" lengthAdjust="spacing" textLength="337" x="1353" y="758.8857">getEspresso() const : std::unique_ptr&lt;Coffee&gt;</text><ellipse cx="1344" cy="771.8359" fill="#84BE84" rx="3" ry="3" style="stroke:#038048;stroke-width:1.0;"/><text fill="#000000" font-family="sans-serif" font-size="14" lengthAdjust="spacing" textLength="312" x="1353" y="775.1826">getLatte() const : std::unique_ptr&lt;Coffee&gt;</text></g><!--class C_0000745305784161364717--><g id="elem_C_0000745305784161364717"><rect codeLine="92" fill="#F1F1F1" height="64.2969" id="C_0000745305784161364717" rx="2.5" ry="2.5" style="stroke:#181818;stroke-width:0.5;" width="446" x="483.5" y="1205"/><ellipse cx="638.25" cy="1221" fill="#ADD1B2" rx="11" ry="11" style="stroke:#181818;stroke-width:1.0;"/><path d="M640.5938,1216.6719 C639.6563,1216.2344 639.0625,1216.0938 638.1875,1216.0938 C635.5625,1216.0938 633.5625,1218.1719 633.5625,1220.8906 L633.5625,1222.0156 C633.5625,1224.5938 635.6719,1226.4844 638.5625,1226.4844 C639.7813,1226.4844 640.9375,1226.1875 641.6875,1225.6406 C642.2656,1225.2344 642.5938,1224.7813 642.5938,1224.3906 C642.5938,1223.9375 642.2031,1223.5469 641.7344,1223.5469 C641.5156,1223.5469 641.3125,1223.625 641.125,1223.8125 C640.6719,1224.2969 640.6719,1224.2969 640.4844,1224.3906 C640.0625,1224.6563 639.375,1224.7813 638.6094,1224.7813 C636.5625,1224.7813 635.2656,1223.6875 635.2656,1221.9844 L635.2656,1220.8906 C635.2656,1219.1094 636.5156,1217.7969 638.25,1217.7969 C638.8281,1217.7969 639.4375,1217.9531 639.9063,1218.2031 C640.3906,1218.4844 640.5625,1218.7031 640.6563,1219.1094 C640.7188,1219.5156 640.75,1219.6406 640.8906,1219.7656 C641.0313,1219.9063 641.2656,1220.0156 641.4844,1220.0156 C641.75,1220.0156 642.0156,1219.875 642.1875,1219.6563 C642.2969,1219.5 642.3281,1219.3125 642.3281,1218.8906 L642.3281,1217.4688 C642.3281,1217.0313 642.3125,1216.9063 642.2188,1216.75 C642.0625,1216.4844 641.7813,1216.3438 641.4844,1216.3438 C641.1875,1216.3438 640.9844,1216.4375 640.7656,1216.75 L640.5938,1216.6719 Z " fill="#000000"/><text fill="#000000" font-family="sans-serif" font-size="14" lengthAdjust="spacing" textLength="128" x="658.75" y="1225.8467">AmericanoMelitta</text><line style="stroke:#181818;stroke-width:0.5;" x1="484.5" x2="928.5" y1="1237" y2="1237"/><line style="stroke:#181818;stroke-width:0.5;" x1="484.5" x2="928.5" y1="1245" y2="1245"/><ellipse cx="494.5" cy="1258.6484" fill="#84BE84" rx="3" ry="3" style="stroke:#038048;stroke-width:1.0;"/><text fill="#000000" font-family="sans-serif" font-size="14" lengthAdjust="spacing" textLength="420" x="503.5" y="1261.9951">AmericanoMelitta(float componentsCost, float cost) : void</text></g><!--class C_0002146626927355719010--><g id="elem_C_0002146626927355719010"><rect codeLine="96" fill="#F1F1F1" height="64.2969" id="C_0002146626927355719010" rx="2.5" ry="2.5" style="stroke:#181818;stroke-width:0.5;" width="453" x="1925" y="1205"/><ellipse cx="2079.75" cy="1221" fill="#ADD1B2" rx="11" ry="11" style="stroke:#181818;stroke-width:1.0;"/><path d="M2082.0938,1216.6719 C2081.1563,1216.2344 2080.5625,1216.0938 2079.6875,1216.0938 C2077.0625,1216.0938 2075.0625,1218.1719 2075.0625,1220.8906 L2075.0625,1222.0156 C2075.0625,1224.5938 2077.1719,1226.4844 2080.0625,1226.4844 C2081.2813,1226.4844 2082.4375,1226.1875 2083.1875,1225.6406 C2083.7656,1225.2344 2084.0938,1224.7813 2084.0938,1224.3906 C2084.0938,1223.9375 2083.7031,1223.5469 2083.2344,1223.5469 C2083.0156,1223.5469 2082.8125,1223.625 2082.625,1223.8125 C2082.1719,1224.2969 2082.1719,1224.2969 2081.9844,1224.3906 C2081.5625,1224.6563 2080.875,1224.7813 2080.1094,1224.7813 C2078.0625,1224.7813 2076.7656,1223.6875 2076.7656,1221.9844 L2076.7656,1220.8906 C2076.7656,1219.1094 2078.0156,1217.7969 2079.75,1217.7969 C2080.3281,1217.7969 2080.9375,1217.9531 2081.4063,1218.2031 C2081.8906,1218.4844 2082.0625,1218.7031 2082.1563,1219.1094 C2082.2188,1219.5156 2082.25,1219.6406 2082.3906,1219.7656 C2082.5313,1219.9063 2082.7656,1220.0156 2082.9844,1220.0156 C2083.25,1220.0156 2083.5156,1219.875 2083.6875,1219.6563 C2083.7969,1219.5 2083.8281,1219.3125 2083.8281,1218.8906 L2083.8281,1217.4688 C2083.8281,1217.0313 2083.8125,1216.9063 2083.7188,1216.75 C2083.5625,1216.4844 2083.2813,1216.3438 2082.9844,1216.3438 C2082.6875,1216.3438 2082.4844,1216.4375 2082.2656,1216.75 L2082.0938,1216.6719 Z " fill="#000000"/><text fill="#000000" font-family="sans-serif" font-size="14" lengthAdjust="spacing" textLength="135" x="2100.25" y="1225.8467">CappuccinoMelitta</text><line style="stroke:#181818;stroke-width:0.5;" x1="1926" x2="2377" y1="1237" y2="1237"/><line style="stroke:#181818;stroke-width:0.5;" x1="1926" x2="2377" y1="1245" y2="1245"/><ellipse cx="1936" cy="1258.6484" fill="#84BE84" rx="3" ry="3" style="stroke:#038048;stroke-width:1.0;"/><text fill="#000000" font-family="sans-serif" font-size="14" lengthAdjust="spacing" textLength="427" x="1945" y="1261.9951">CappuccinoMelitta(float componentsCost, float cost) : void</text></g><!--class C_0002027409854890813824--><g id="elem_C_0002027409854890813824"><rect codeLine="100" fill="#F1F1F1" height="64.2969" id="C_0002027409854890813824" rx="2.5" ry="2.5" style="stroke:#181818;stroke-width:0.5;" width="433" x="3360" y="1205"/><ellipse cx="3514.75" cy="1221" fill="#ADD1B2" rx="11" ry="11" style="stroke:#181818;stroke-width:1.0;"/><path d="M3517.0938,1216.6719 C3516.1563,1216.2344 3515.5625,1216.0938 3514.6875,1216.0938 C3512.0625,1216.0938 3510.0625,1218.1719 3510.0625,1220.8906 L3510.0625,1222.0156 C3510.0625,1224.5938 3512.1719,1226.4844 3515.0625,1226.4844 C3516.2813,1226.4844 3517.4375,1226.1875 3518.1875,1225.6406 C3518.7656,1225.2344 3519.0938,1224.7813 3519.0938,1224.3906 C3519.0938,1223.9375 3518.7031,1223.5469 3518.2344,1223.5469 C3518.0156,1223.5469 3517.8125,1223.625 3517.625,1223.8125 C3517.1719,1224.2969 3517.1719,1224.2969 3516.9844,1224.3906 C3516.5625,1224.6563 3515.875,1224.7813 3515.1094,1224.7813 C3513.0625,1224.7813 3511.7656,1223.6875 3511.7656,1221.9844 L3511.7656,1220.8906 C3511.7656,1219.1094 3513.0156,1217.7969 3514.75,1217.7969 C3515.3281,1217.7969 3515.9375,1217.9531 3516.4063,1218.2031 C3516.8906,1218.4844 3517.0625,1218.7031 3517.1563,1219.1094 C3517.2188,1219.5156 3517.25,1219.6406 3517.3906,1219.7656 C3517.5313,1219.9063 3517.7656,1220.0156 3517.9844,1220.0156 C3518.25,1220.0156 3518.5156,1219.875 3518.6875,1219.6563 C3518.7969,1219.5 3518.8281,1219.3125 3518.8281,1218.8906 L3518.8281,1217.4688 C3518.8281,1217.0313 3518.8125,1216.9063 3518.7188,1216.75 C3518.5625,1216.4844 3518.2813,1216.3438 3517.9844,1216.3438 C3517.6875,1216.3438 3517.4844,1216.4375 3517.2656,1216.75 L3517.0938,1216.6719 Z " fill="#000000"/><text fill="#000000" font-family="sans-serif" font-size="14" lengthAdjust="spacing" textLength="115" x="3535.25" y="1225.8467">EspressoMelitta</text><line style="stroke:#181818;stroke-width:0.5;" x1="3361" x2="3792" y1="1237" y2="1237"/><line style="stroke:#181818;stroke-width:0.5;" x1="3361" x2="3792" y1="1245" y2="1245"/><ellipse cx="3371" cy="1258.6484" fill="#84BE84" rx="3" ry="3" style="stroke:#038048;stroke-width:1.0;"/><text fill="#000000" font-family="sans-serif" font-size="14" lengthAdjust="spacing" textLength="407" x="3380" y="1261.9951">EspressoMelitta(float componentsCost, float cost) : void</text></g><!--class C_0000655499548338025037--><g id="elem_C_0000655499548338025037"><rect codeLine="104" fill="#F1F1F1" height="64.2969" id="C_0000655499548338025037" rx="2.5" ry="2.5" style="stroke:#181818;stroke-width:0.5;" width="408" x="4730.5" y="1205"/><ellipse cx="4885.25" cy="1221" fill="#ADD1B2" rx="11" ry="11" style="stroke:#181818;stroke-width:1.0;"/><path d="M4887.5938,1216.6719 C4886.6563,1216.2344 4886.0625,1216.0938 4885.1875,1216.0938 C4882.5625,1216.0938 4880.5625,1218.1719 4880.5625,1220.8906 L4880.5625,1222.0156 C4880.5625,1224.5938 4882.6719,1226.4844 4885.5625,1226.4844 C4886.7813,1226.4844 4887.9375,1226.1875 4888.6875,1225.6406 C4889.2656,1225.2344 4889.5938,1224.7813 4889.5938,1224.3906 C4889.5938,1223.9375 4889.2031,1223.5469 4888.7344,1223.5469 C4888.5156,1223.5469 4888.3125,1223.625 4888.125,1223.8125 C4887.6719,1224.2969 4887.6719,1224.2969 4887.4844,1224.3906 C4887.0625,1224.6563 4886.375,1224.7813 4885.6094,1224.7813 C4883.5625,1224.7813 4882.2656,1223.6875 4882.2656,1221.9844 L4882.2656,1220.8906 C4882.2656,1219.1094 4883.5156,1217.7969 4885.25,1217.7969 C4885.8281,1217.7969 4886.4375,1217.9531 4886.9063,1218.2031 C4887.3906,1218.4844 4887.5625,1218.7031 4887.6563,1219.1094 C4887.7188,1219.5156 4887.75,1219.6406 4887.8906,1219.7656 C4888.0313,1219.9063 4888.2656,1220.0156 4888.4844,1220.0156 C4888.75,1220.0156 4889.0156,1219.875 4889.1875,1219.6563 C4889.2969,1219.5 4889.3281,1219.3125 4889.3281,1218.8906 L4889.3281,1217.4688 C4889.3281,1217.0313 4889.3125,1216.9063 4889.2188,1216.75 C4889.0625,1216.4844 4888.7813,1216.3438 4888.4844,1216.3438 C4888.1875,1216.3438 4887.9844,1216.4375 4887.7656,1216.75 L4887.5938,1216.6719 Z " fill="#000000"/><text fill="#000000" font-family="sans-serif" font-size="14" lengthAdjust="spacing" textLength="90" x="4905.75" y="1225.8467">LatteMelitta</text><line style="stroke:#181818;stroke-width:0.5;" x1="4731.5" x2="5137.5" y1="1237" y2="1237"/><line style="stroke:#181818;stroke-width:0.5;" x1="4731.5" x2="5137.5" y1="1245" y2="1245"/><ellipse cx="4741.5" cy="1258.6484" fill="#84BE84" rx="3" ry="3" style="stroke:#038048;stroke-width:1.0;"/><text fill="#000000" font-family="sans-serif" font-size="14" lengthAdjust="spacing" textLength="382" x="4750.5" y="1261.9951">LatteMelitta(float componentsCost, float cost) : void</text></g><!--class C_0002209599525799584600--><g id="elem_C_0002209599525799584600"><rect codeLine="108" fill="#F1F1F1" height="129.4844" id="C_0002209599525799584600" rx="2.5" ry="2.5" style="stroke:#181818;stroke-width:0.5;" width="1522" x="2885.5" y="653"/><ellipse cx="3562.75" cy="669" fill="#ADD1B2" rx="11" ry="11" style="stroke:#181818;stroke-width:1.0;"/><path d="M3565.0938,664.6719 C3564.1563,664.2344 3563.5625,664.0938 3562.6875,664.0938 C3560.0625,664.0938 3558.0625,666.1719 3558.0625,668.8906 L3558.0625,670.0156 C3558.0625,672.5938 3560.1719,674.4844 3563.0625,674.4844 C3564.2813,674.4844 3565.4375,674.1875 3566.1875,673.6406 C3566.7656,673.2344 3567.0938,672.7813 3567.0938,672.3906 C3567.0938,671.9375 3566.7031,671.5469 3566.2344,671.5469 C3566.0156,671.5469 3565.8125,671.625 3565.625,671.8125 C3565.1719,672.2969 3565.1719,672.2969 3564.9844,672.3906 C3564.5625,672.6563 3563.875,672.7813 3563.1094,672.7813 C3561.0625,672.7813 3559.7656,671.6875 3559.7656,669.9844 L3559.7656,668.8906 C3559.7656,667.1094 3561.0156,665.7969 3562.75,665.7969 C3563.3281,665.7969 3563.9375,665.9531 3564.4063,666.2031 C3564.8906,666.4844 3565.0625,666.7031 3565.1563,667.1094 C3565.2188,667.5156 3565.25,667.6406 3565.3906,667.7656 C3565.5313,667.9063 3565.7656,668.0156 3565.9844,668.0156 C3566.25,668.0156 3566.5156,667.875 3566.6875,667.6563 C3566.7969,667.5 3566.8281,667.3125 3566.8281,666.8906 L3566.8281,665.4688 C3566.8281,665.0313 3566.8125,664.9063 3566.7188,664.75 C3566.5625,664.4844 3566.2813,664.3438 3565.9844,664.3438 C3565.6875,664.3438 3565.4844,664.4375 3565.2656,664.75 L3565.0938,664.6719 Z " fill="#000000"/><text fill="#000000" font-family="sans-serif" font-size="14" lengthAdjust="spacing" textLength="159" x="3583.25" y="673.8467">CoffeeMachineMelitta</text><line style="stroke:#181818;stroke-width:0.5;" x1="2886.5" x2="4406.5" y1="685" y2="685"/><line style="stroke:#181818;stroke-width:0.5;" x1="2886.5" x2="4406.5" y1="693" y2="693"/><ellipse cx="2896.5" cy="706.6484" fill="#84BE84" rx="3" ry="3" style="stroke:#038048;stroke-width:1.0;"/><text fill="#000000" font-family="sans-serif" font-size="14" lengthAdjust="spacing" textLength="1496" x="2905.5" y="709.9951">CoffeeMachineMelitta(const std::pair&lt;float,float&gt; &amp; americanoCost, const std::pair&lt;float,float&gt; &amp; cappuccinoCost, const std::pair&lt;float,float&gt; &amp; espressoCost, const std::pair&lt;float,float&gt; &amp; latteCost) : void</text><ellipse cx="2896.5" cy="722.9453" fill="#84BE84" rx="3" ry="3" style="stroke:#038048;stroke-width:1.0;"/><text fill="#000000" font-family="sans-serif" font-size="14" lengthAdjust="spacing" textLength="350" x="2905.5" y="726.292">getAmericano() const : std::unique_ptr&lt;Coffee&gt;</text><ellipse cx="2896.5" cy="739.2422" fill="#84BE84" rx="3" ry="3" style="stroke:#038048;stroke-width:1.0;"/><text fill="#000000" font-family="sans-serif" font-size="14" lengthAdjust="spacing" textLength="357" x="2905.5" y="742.5889">getCappuccino() const : std::unique_ptr&lt;Coffee&gt;</text><ellipse cx="2896.5" cy="755.5391" fill="#84BE84" rx="3" ry="3" style="stroke:#038048;stroke-width:1.0;"/><text fill="#000000" font-family="sans-serif" font-size="14" lengthAdjust="spacing" textLength="337" x="2905.5" y="758.8857">getEspresso() const : std::unique_ptr&lt;Coffee&gt;</text><ellipse cx="2896.5" cy="771.8359" fill="#84BE84" rx="3" ry="3" style="stroke:#038048;stroke-width:1.0;"/><text fill="#000000" font-family="sans-serif" font-size="14" lengthAdjust="spacing" textLength="312" x="2905.5" y="775.1826">getLatte() const : std::unique_ptr&lt;Coffee&gt;</text></g><!--class C_0000028048956718749290--><g id="elem_C_0000028048956718749290"><rect codeLine="116" fill="#F1F1F1" height="64.2969" id="C_0000028048956718749290" rx="2.5" ry="2.5" style="stroke:#181818;stroke-width:0.5;" width="441" x="965" y="1205"/><ellipse cx="1119.75" cy="1221" fill="#ADD1B2" rx="11" ry="11" style="stroke:#181818;stroke-width:1.0;"/><path d="M1122.0938,1216.6719 C1121.1563,1216.2344 1120.5625,1216.0938 1119.6875,1216.0938 C1117.0625,1216.0938 1115.0625,1218.1719 1115.0625,1220.8906 L1115.0625,1222.0156 C1115.0625,1224.5938 1117.1719,1226.4844 1120.0625,1226.4844 C1121.2813,1226.4844 1122.4375,1226.1875 1123.1875,1225.6406 C1123.7656,1225.2344 1124.0938,1224.7813 1124.0938,1224.3906 C1124.0938,1223.9375 1123.7031,1223.5469 1123.2344,1223.5469 C1123.0156,1223.5469 1122.8125,1223.625 1122.625,1223.8125 C1122.1719,1224.2969 1122.1719,1224.2969 1121.9844,1224.3906 C1121.5625,1224.6563 1120.875,1224.7813 1120.1094,1224.7813 C1118.0625,1224.7813 1116.7656,1223.6875 1116.7656,1221.9844 L1116.7656,1220.8906 C1116.7656,1219.1094 1118.0156,1217.7969 1119.75,1217.7969 C1120.3281,1217.7969 1120.9375,1217.9531 1121.4063,1218.2031 C1121.8906,1218.4844 1122.0625,1218.7031 1122.1563,1219.1094 C1122.2188,1219.5156 1122.25,1219.6406 1122.3906,1219.7656 C1122.5313,1219.9063 1122.7656,1220.0156 1122.9844,1220.0156 C1123.25,1220.0156 1123.5156,1219.875 1123.6875,1219.6563 C1123.7969,1219.5 1123.8281,1219.3125 1123.8281,1218.8906 L1123.8281,1217.4688 C1123.8281,1217.0313 1123.8125,1216.9063 1123.7188,1216.75 C1123.5625,1216.4844 1123.2813,1216.3438 1122.9844,1216.3438 C1122.6875,1216.3438 1122.4844,1216.4375 1122.2656,1216.75 L1122.0938,1216.6719 Z " fill="#000000"/><text fill="#000000" font-family="sans-serif" font-size="14" lengthAdjust="spacing" textLength="123" x="1140.25" y="1225.8467">AmericanoNestle</text><line style="stroke:#181818;stroke-width:0.5;" x1="966" x2="1405" y1="1237" y2="1237"/><line style="stroke:#181818;stroke-width:0.5;" x1="966" x2="1405" y1="1245" y2="1245"/><ellipse cx="976" cy="1258.6484" fill="#84BE84" rx="3" ry="3" style="stroke:#038048;stroke-width:1.0;"/><text fill="#000000" font-family="sans-serif" font-size="14" lengthAdjust="spacing" textLength="415" x="985" y="1261.9951">AmericanoNestle(float componentsCost, float cost) : void</text></g><!--class C_0001792009431623735922--><g id="elem_C_0001792009431623735922"><rect codeLine="120" fill="#F1F1F1" height="64.2969" id="C_0001792009431623735922" rx="2.5" ry="2.5" style="stroke:#181818;stroke-width:0.5;" width="448" x="2413.5" y="1205"/><ellipse cx="2568.25" cy="1221" fill="#ADD1B2" rx="11" ry="11" style="stroke:#181818;stroke-width:1.0;"/><path d="M2570.5938,1216.6719 C2569.6563,1216.2344 2569.0625,1216.0938 2568.1875,1216.0938 C2565.5625,1216.0938 2563.5625,1218.1719 2563.5625,1220.8906 L2563.5625,1222.0156 C2563.5625,1224.5938 2565.6719,1226.4844 2568.5625,1226.4844 C2569.7813,1226.4844 2570.9375,1226.1875 2571.6875,1225.6406 C2572.2656,1225.2344 2572.5938,1224.7813 2572.5938,1224.3906 C2572.5938,1223.9375 2572.2031,1223.5469 2571.7344,1223.5469 C2571.5156,1223.5469 2571.3125,1223.625 2571.125,1223.8125 C2570.6719,1224.2969 2570.6719,1224.2969 2570.4844,1224.3906 C2570.0625,1224.6563 2569.375,1224.7813 2568.6094,1224.7813 C2566.5625,1224.7813 2565.2656,1223.6875 2565.2656,1221.9844 L2565.2656,1220.8906 C2565.2656,1219.1094 2566.5156,1217.7969 2568.25,1217.7969 C2568.8281,1217.7969 2569.4375,1217.9531 2569.9063,1218.2031 C2570.3906,1218.4844 2570.5625,1218.7031 2570.6563,1219.1094 C2570.7188,1219.5156 2570.75,1219.6406 2570.8906,1219.7656 C2571.0313,1219.9063 2571.2656,1220.0156 2571.4844,1220.0156 C2571.75,1220.0156 2572.0156,1219.875 2572.1875,1219.6563 C2572.2969,1219.5 2572.3281,1219.3125 2572.3281,1218.8906 L2572.3281,1217.4688 C2572.3281,1217.0313 2572.3125,1216.9063 2572.2188,1216.75 C2572.0625,1216.4844 2571.7813,1216.3438 2571.4844,1216.3438 C2571.1875,1216.3438 2570.9844,1216.4375 2570.7656,1216.75 L2570.5938,1216.6719 Z " fill="#000000"/><text fill="#000000" font-family="sans-serif" font-size="14" lengthAdjust="spacing" textLength="130" x="2588.75" y="1225.8467">CappuccinoNestle</text><line style="stroke:#181818;stroke-width:0.5;" x1="2414.5" x2="2860.5" y1="1237" y2="1237"/><line style="stroke:#181818;stroke-width:0.5;" x1="2414.5" x2="2860.5" y1="1245" y2="1245"/><ellipse cx="2424.5" cy="1258.6484" fill="#84BE84" rx="3" ry="3" style="stroke:#038048;stroke-width:1.0;"/><text fill="#000000" font-family="sans-serif" font-size="14" lengthAdjust="spacing" textLength="422" x="2433.5" y="1261.9951">CappuccinoNestle(float componentsCost, float cost) : void</text></g><!--class C_0000620326405289502470--><g id="elem_C_0000620326405289502470"><rect codeLine="124" fill="#F1F1F1" height="64.2969" id="C_0000620326405289502470" rx="2.5" ry="2.5" style="stroke:#181818;stroke-width:0.5;" width="428" x="3828.5" y="1205"/><ellipse cx="3983.25" cy="1221" fill="#ADD1B2" rx="11" ry="11" style="stroke:#181818;stroke-width:1.0;"/><path d="M3985.5938,1216.6719 C3984.6563,1216.2344 3984.0625,1216.0938 3983.1875,1216.0938 C3980.5625,1216.0938 3978.5625,1218.1719 3978.5625,1220.8906 L3978.5625,1222.0156 C3978.5625,1224.5938 3980.6719,1226.4844 3983.5625,1226.4844 C3984.7813,1226.4844 3985.9375,1226.1875 3986.6875,1225.6406 C3987.2656,1225.2344 3987.5938,1224.7813 3987.5938,1224.3906 C3987.5938,1223.9375 3987.2031,1223.5469 3986.7344,1223.5469 C3986.5156,1223.5469 3986.3125,1223.625 3986.125,1223.8125 C3985.6719,1224.2969 3985.6719,1224.2969 3985.4844,1224.3906 C3985.0625,1224.6563 3984.375,1224.7813 3983.6094,1224.7813 C3981.5625,1224.7813 3980.2656,1223.6875 3980.2656,1221.9844 L3980.2656,1220.8906 C3980.2656,1219.1094 3981.5156,1217.7969 3983.25,1217.7969 C3983.8281,1217.7969 3984.4375,1217.9531 3984.9063,1218.2031 C3985.3906,1218.4844 3985.5625,1218.7031 3985.6563,1219.1094 C3985.7188,1219.5156 3985.75,1219.6406 3985.8906,1219.7656 C3986.0313,1219.9063 3986.2656,1220.0156 3986.4844,1220.0156 C3986.75,1220.0156 3987.0156,1219.875 3987.1875,1219.6563 C3987.2969,1219.5 3987.3281,1219.3125 3987.3281,1218.8906 L3987.3281,1217.4688 C3987.3281,1217.0313 3987.3125,1216.9063 3987.2188,1216.75 C3987.0625,1216.4844 3986.7813,1216.3438 3986.4844,1216.3438 C3986.1875,1216.3438 3985.9844,1216.4375 3985.7656,1216.75 L3985.5938,1216.6719 Z " fill="#000000"/><text fill="#000000" font-family="sans-serif" font-size="14" lengthAdjust="spacing" textLength="110" x="4003.75" y="1225.8467">EspressoNestle</text><line style="stroke:#181818;stroke-width:0.5;" x1="3829.5" x2="4255.5" y1="1237" y2="1237"/><line style="stroke:#181818;stroke-width:0.5;" x1="3829.5" x2="4255.5" y1="1245" y2="1245"/><ellipse cx="3839.5" cy="1258.6484" fill="#84BE84" rx="3" ry="3" style="stroke:#038048;stroke-width:1.0;"/><text fill="#000000" font-family="sans-serif" font-size="14" lengthAdjust="spacing" textLength="402" x="3848.5" y="1261.9951">EspressoNestle(float componentsCost, float cost) : void</text></g><!--class C_0002195641298291654614--><g id="elem_C_0002195641298291654614"><rect codeLine="128" fill="#F1F1F1" height="64.2969" id="C_0002195641298291654614" rx="2.5" ry="2.5" style="stroke:#181818;stroke-width:0.5;" width="403" x="5174" y="1205"/><ellipse cx="5328.75" cy="1221" fill="#ADD1B2" rx="11" ry="11" style="stroke:#181818;stroke-width:1.0;"/><path d="M5331.0938,1216.6719 C5330.1563,1216.2344 5329.5625,1216.0938 5328.6875,1216.0938 C5326.0625,1216.0938 5324.0625,1218.1719 5324.0625,1220.8906 L5324.0625,1222.0156 C5324.0625,1224.5938 5326.1719,1226.4844 5329.0625,1226.4844 C5330.2813,1226.4844 5331.4375,1226.1875 5332.1875,1225.6406 C5332.7656,1225.2344 5333.0938,1224.7813 5333.0938,1224.3906 C5333.0938,1223.9375 5332.7031,1223.5469 5332.2344,1223.5469 C5332.0156,1223.5469 5331.8125,1223.625 5331.625,1223.8125 C5331.1719,1224.2969 5331.1719,1224.2969 5330.9844,1224.3906 C5330.5625,1224.6563 5329.875,1224.7813 5329.1094,1224.7813 C5327.0625,1224.7813 5325.7656,1223.6875 5325.7656,1221.9844 L5325.7656,1220.8906 C5325.7656,1219.1094 5327.0156,1217.7969 5328.75,1217.7969 C5329.3281,1217.7969 5329.9375,1217.9531 5330.4063,1218.2031 C5330.8906,1218.4844 5331.0625,1218.7031 5331.1563,1219.1094 C5331.2188,1219.5156 5331.25,1219.6406 5331.3906,1219.7656 C5331.5313,1219.9063 5331.7656,1220.0156 5331.9844,1220.0156 C5332.25,1220.0156 5332.5156,1219.875 5332.6875,1219.6563 C5332.7969,1219.5 5332.8281,1219.3125 5332.8281,1218.8906 L5332.8281,1217.4688 C5332.8281,1217.0313 5332.8125,1216.9063 5332.7188,1216.75 C5332.5625,1216.4844 5332.2813,1216.3438 5331.9844,1216.3438 C5331.6875,1216.3438 5331.4844,1216.4375 5331.2656,1216.75 L5331.0938,1216.6719 Z " fill="#000000"/><text fill="#000000" font-family="sans-serif" font-size="14" lengthAdjust="spacing" textLength="85" x="5349.25" y="1225.8467">LatteNestle</text><line style="stroke:#181818;stroke-width:0.5;" x1="5175" x2="5576" y1="1237" y2="1237"/><line style="stroke:#181818;stroke-width:0.5;" x1="5175" x2="5576" y1="1245" y2="1245"/><ellipse cx="5185" cy="1258.6484" fill="#84BE84" rx="3" ry="3" style="stroke:#038048;stroke-width:1.0;"/><text fill="#000000" font-family="sans-serif" font-size="14" lengthAdjust="spacing" textLength="377" x="5194" y="1261.9951">LatteNestle(float componentsCost, float cost) : void</text></g><!--class C_0000344833212758266178--><g id="elem_C_0000344833212758266178"><rect codeLine="132" fill="#F1F1F1" height="129.4844" id="C_0000344833212758266178" rx="2.5" ry="2.5" style="stroke:#181818;stroke-width:0.5;" width="1517" x="4443" y="653"/><ellipse cx="5120.25" cy="669" fill="#ADD1B2" rx="11" ry="11" style="stroke:#181818;stroke-width:1.0;"/><path d="M5122.5938,664.6719 C5121.6563,664.2344 5121.0625,664.0938 5120.1875,664.0938 C5117.5625,664.0938 5115.5625,666.1719 5115.5625,668.8906 L5115.5625,670.0156 C5115.5625,672.5938 5117.6719,674.4844 5120.5625,674.4844 C5121.7813,674.4844 5122.9375,674.1875 5123.6875,673.6406 C5124.2656,673.2344 5124.5938,672.7813 5124.5938,672.3906 C5124.5938,671.9375 5124.2031,671.5469 5123.7344,671.5469 C5123.5156,671.5469 5123.3125,671.625 5123.125,671.8125 C5122.6719,672.2969 5122.6719,672.2969 5122.4844,672.3906 C5122.0625,672.6563 5121.375,672.7813 5120.6094,672.7813 C5118.5625,672.7813 5117.2656,671.6875 5117.2656,669.9844 L5117.2656,668.8906 C5117.2656,667.1094 5118.5156,665.7969 5120.25,665.7969 C5120.8281,665.7969 5121.4375,665.9531 5121.9063,666.2031 C5122.3906,666.4844 5122.5625,666.7031 5122.6563,667.1094 C5122.7188,667.5156 5122.75,667.6406 5122.8906,667.7656 C5123.0313,667.9063 5123.2656,668.0156 5123.4844,668.0156 C5123.75,668.0156 5124.0156,667.875 5124.1875,667.6563 C5124.2969,667.5 5124.3281,667.3125 5124.3281,666.8906 L5124.3281,665.4688 C5124.3281,665.0313 5124.3125,664.9063 5124.2188,664.75 C5124.0625,664.4844 5123.7813,664.3438 5123.4844,664.3438 C5123.1875,664.3438 5122.9844,664.4375 5122.7656,664.75 L5122.5938,664.6719 Z " fill="#000000"/><text fill="#000000" font-family="sans-serif" font-size="14" lengthAdjust="spacing" textLength="154" x="5140.75" y="673.8467">CoffeeMachineNestle</text><line style="stroke:#181818;stroke-width:0.5;" x1="4444" x2="5959" y1="685" y2="685"/><line style="stroke:#181818;stroke-width:0.5;" x1="4444" x2="5959" y1="693" y2="693"/><ellipse cx="4454" cy="706.6484" fill="#84BE84" rx="3" ry="3" style="stroke:#038048;stroke-width:1.0;"/><text fill="#000000" font-family="sans-serif" font-size="14" lengthAdjust="spacing" textLength="1491" x="4463" y="709.9951">CoffeeMachineNestle(const std::pair&lt;float,float&gt; &amp; americanoCost, const std::pair&lt;float,float&gt; &amp; cappuccinoCost, const std::pair&lt;float,float&gt; &amp; espressoCost, const std::pair&lt;float,float&gt; &amp; latteCost) : void</text><ellipse cx="4454" cy="722.9453" fill="#84BE84" rx="3" ry="3" style="stroke:#038048;stroke-width:1.0;"/><text fill="#000000" font-family="sans-serif" font-size="14" lengthAdjust="spacing" textLength="350" x="4463" y="726.292">getAmericano() const : std::unique_ptr&lt;Coffee&gt;</text><ellipse cx="4454" cy="739.2422" fill="#84BE84" rx="3" ry="3" style="stroke:#038048;stroke-width:1.0;"/><text fill="#000000" font-family="sans-serif" font-size="14" lengthAdjust="spacing" textLength="357" x="4463" y="742.5889">getCappuccino() const : std::unique_ptr&lt;Coffee&gt;</text><ellipse cx="4454" cy="755.5391" fill="#84BE84" rx="3" ry="3" style="stroke:#038048;stroke-width:1.0;"/><text fill="#000000" font-family="sans-serif" font-size="14" lengthAdjust="spacing" textLength="337" x="4463" y="758.8857">getEspresso() const : std::unique_ptr&lt;Coffee&gt;</text><ellipse cx="4454" cy="771.8359" fill="#84BE84" rx="3" ry="3" style="stroke:#038048;stroke-width:1.0;"/><text fill="#000000" font-family="sans-serif" font-size="14" lengthAdjust="spacing" textLength="312" x="4463" y="775.1826">getLatte() const : std::unique_ptr&lt;Coffee&gt;</text></g><!--class C_0002180082101712686293--><g id="elem_C_0002180082101712686293"><rect codeLine="140" fill="#F1F1F1" height="80.5938" id="C_0002180082101712686293" rx="2.5" ry="2.5" style="stroke:#181818;stroke-width:0.5;" width="424" x="3639.5" y="259.5"/><ellipse cx="3804.25" cy="275.5" fill="#ADD1B2" rx="11" ry="11" style="stroke:#181818;stroke-width:1.0;"/><path d="M3806.5938,271.1719 C3805.6563,270.7344 3805.0625,270.5938 3804.1875,270.5938 C3801.5625,270.5938 3799.5625,272.6719 3799.5625,275.3906 L3799.5625,276.5156 C3799.5625,279.0938 3801.6719,280.9844 3804.5625,280.9844 C3805.7813,280.9844 3806.9375,280.6875 3807.6875,280.1406 C3808.2656,279.7344 3808.5938,279.2813 3808.5938,278.8906 C3808.5938,278.4375 3808.2031,278.0469 3807.7344,278.0469 C3807.5156,278.0469 3807.3125,278.125 3807.125,278.3125 C3806.6719,278.7969 3806.6719,278.7969 3806.4844,278.8906 C3806.0625,279.1563 3805.375,279.2813 3804.6094,279.2813 C3802.5625,279.2813 3801.2656,278.1875 3801.2656,276.4844 L3801.2656,275.3906 C3801.2656,273.6094 3802.5156,272.2969 3804.25,272.2969 C3804.8281,272.2969 3805.4375,272.4531 3805.9063,272.7031 C3806.3906,272.9844 3806.5625,273.2031 3806.6563,273.6094 C3806.7188,274.0156 3806.75,274.1406 3806.8906,274.2656 C3807.0313,274.4063 3807.2656,274.5156 3807.4844,274.5156 C3807.75,274.5156 3808.0156,274.375 3808.1875,274.1563 C3808.2969,274 3808.3281,273.8125 3808.3281,273.3906 L3808.3281,271.9688 C3808.3281,271.5313 3808.3125,271.4063 3808.2188,271.25 C3808.0625,270.9844 3807.7813,270.8438 3807.4844,270.8438 C3807.1875,270.8438 3806.9844,270.9375 3806.7656,271.25 L3806.5938,271.1719 Z " fill="#000000"/><text fill="#000000" font-family="sans-serif" font-size="14" lengthAdjust="spacing" textLength="86" x="3824.75" y="280.3467">CoffeeShop</text><line style="stroke:#181818;stroke-width:0.5;" x1="3640.5" x2="4062.5" y1="291.5" y2="291.5"/><line style="stroke:#181818;stroke-width:0.5;" x1="3640.5" x2="4062.5" y1="299.5" y2="299.5"/><ellipse cx="3650.5" cy="313.1484" fill="#84BE84" rx="3" ry="3" style="stroke:#038048;stroke-width:1.0;"/><text fill="#000000" font-family="sans-serif" font-size="14" lengthAdjust="spacing" textLength="88" x="3659.5" y="316.4951">start() : void</text><rect fill="#F24D5C" height="6" style="stroke:#C82930;stroke-width:1.0;" width="6" x="3647.5" y="326.4453"/><text fill="#000000" font-family="sans-serif" font-size="14" lengthAdjust="spacing" textLength="398" x="3659.5" y="332.792">process_machine&lt;machineType&gt;(float a, float b) : void</text></g><!--link C_0000209174374544492061 to C_0002029504024862137028--><g id="link_C_0000209174374544492061_C_0002029504024862137028"><path codeLine="144" d="M2132.97,379.653 C1784.63,433.616 1421.66,520.085 1315.5,653 C1279.72,697.798 1276.82,739.678 1315.5,782 C1407.46,882.626 2316.13,911.575 2699.38,919.344 " fill="none" id="C_0000209174374544492061-to-C_0002029504024862137028" style="stroke:#181818;stroke-width:1.0;stroke-dasharray:7.0,7.0;"/><polygon fill="#181818" points="2704.43,919.446,2695.5118,915.2668,2699.431,919.346,2695.3518,923.2652,2704.43,919.446" style="stroke:#181818;stroke-width:1.0;"/></g><!--reverse link C_0002029504024862137028 to C_0001424193820633894510--><g id="link_C_0002029504024862137028_C_0001424193820633894510"><path codeLine="145" d="M2684.12,941.22 C2321.29,975.105 1517.53,1050.17 1144.2,1085.037 " fill="none" id="C_0002029504024862137028-backto-C_0001424193820633894510" style="stroke:#181818;stroke-width:1.0;"/><polygon fill="none" points="2683.65,934.233,2704.22,939.343,2684.95,948.172,2683.65,934.233" style="stroke:#181818;stroke-width:1.0;"/></g><!--reverse link C_0001424193820633894510 to C_0001094749075536405418--><g id="link_C_0001424193820633894510_C_0001094749075536405418"><path codeLine="146" d="M728.713,1145.029 C622.746,1164.262 497.222,1187.045 398.3,1204.9995 " fill="none" id="C_0001424193820633894510-backto-C_0001094749075536405418" style="stroke:#181818;stroke-width:1.0;"/><polygon fill="none" points="727.674,1138.103,748.603,1141.419,730.175,1151.878,727.674,1138.103" style="stroke:#181818;stroke-width:1.0;"/></g><!--reverse link C_0002029504024862137028 to C_0002102556391679358599--><g id="link_C_0002029504024862137028_C_0002102556391679358599"><path codeLine="147" d="M2685.43,993.328 C2622.32,1017.228 2553.81,1043.169 2499.14,1063.872 " fill="none" id="C_0002029504024862137028-backto-C_0002102556391679358599" style="stroke:#181818;stroke-width:1.0;"/><polygon fill="none" points="2683.2,986.688,2704.38,986.151,2688.16,999.78,2683.2,986.688" style="stroke:#181818;stroke-width:1.0;"/></g><!--reverse link C_0002102556391679358599 to C_0002245504944477283298--><g id="link_C_0002102556391679358599_C_0002245504944477283298"><path codeLine="148" d="M2173.56,1145.051 C2066.17,1164.275 1939,1187.0401 1838.75,1204.9854 " fill="none" id="C_0002102556391679358599-backto-C_0002245504944477283298" style="stroke:#181818;stroke-width:1.0;"/><polygon fill="none" points="2172.45,1138.139,2193.37,1141.505,2174.91,1151.92,2172.45,1138.139" style="stroke:#181818;stroke-width:1.0;"/></g><!--reverse link C_0002029504024862137028 to C_0001811296427559445634--><g id="link_C_0002029504024862137028_C_0001811296427559445634"><path codeLine="149" d="M3051.67,993.22 C3115.08,1017.18 3183.94,1043.203 3238.84,1063.95 " fill="none" id="C_0002029504024862137028-backto-C_0001811296427559445634" style="stroke:#181818;stroke-width:1.0;"/><polygon fill="none" points="3048.87,999.643,3032.63,986.025,3053.82,986.547,3048.87,999.643" style="stroke:#181818;stroke-width:1.0;"/></g><!--reverse link C_0001811296427559445634 to C_0000412492101679171424--><g id="link_C_0001811296427559445634_C_0000412492101679171424"><path codeLine="150" d="M3255.22,1154.946 C3225.27,1171.7196 3192.67,1189.9756 3166.01,1204.9078 " fill="none" id="C_0001811296427559445634-backto-C_0000412492101679171424" style="stroke:#181818;stroke-width:1.0;"/><polygon fill="none" points="3252.09,1148.674,3272.96,1145.008,3258.93,1160.889,3252.09,1148.674" style="stroke:#181818;stroke-width:1.0;"/></g><!--reverse link C_0002029504024862137028 to C_0001647160910280595340--><g id="link_C_0002029504024862137028_C_0001647160910280595340"><path codeLine="151" d="M3052.59,941.91 C3407.83,976.471 4183.76,1051.961 4534.74,1086.109 " fill="none" id="C_0002029504024862137028-backto-C_0001647160910280595340" style="stroke:#181818;stroke-width:1.0;"/><polygon fill="none" points="3051.86,948.873,3032.64,939.969,3053.22,934.938,3051.86,948.873" style="stroke:#181818;stroke-width:1.0;"/></g><!--reverse link C_0001647160910280595340 to C_0001012504285853700123--><g id="link_C_0001647160910280595340_C_0001012504285853700123"><path codeLine="152" d="M4629.35,1155.419 C4601.29,1172.0622 4570.85,1190.1158 4545.92,1204.9078 " fill="none" id="C_0001647160910280595340-backto-C_0001012504285853700123" style="stroke:#181818;stroke-width:1.0;"/><polygon fill="none" points="4626.12,1149.192,4646.9,1145.008,4633.27,1161.233,4626.12,1149.192" style="stroke:#181818;stroke-width:1.0;"/></g><!--link C_0000482778943363517579 to C_0002029504024862137028--><g id="link_C_0000482778943363517579_C_0002029504024862137028"><path codeLine="153" d="M2334.15,782.052 C2452.72,813.104 2592.48,849.71 2699.33,877.693 " fill="none" id="C_0000482778943363517579-to-C_0002029504024862137028" style="stroke:#181818;stroke-width:1.0;stroke-dasharray:7.0,7.0;"/><polygon fill="#181818" points="2704.39,879.019,2696.7025,872.8625,2699.5543,877.7479,2694.6688,880.5997,2704.39,879.019" style="stroke:#181818;stroke-width:1.0;"/></g><!--reverse link C_0000209174374544492061 to C_0000482778943363517579--><g id="link_C_0000209174374544492061_C_0000482778943363517579"><path codeLine="154" d="M2304.27,602.722 C2270.25,620.915 2238.5,637.89 2210.46,652.888 " fill="none" id="C_0000209174374544492061-backto-C_0000482778943363517579" style="stroke:#181818;stroke-width:1.0;"/><polygon fill="none" points="2301.32,596.36,2322.26,593.102,2307.92,608.706,2301.32,596.36" style="stroke:#181818;stroke-width:1.0;"/></g><!--reverse link C_0001424193820633894510 to C_0000745305784161364717--><g id="link_C_0001424193820633894510_C_0000745305784161364717"><path codeLine="155" d="M855.999,1154.71 C825.032,1171.5481 791.272,1189.9055 763.681,1204.9078 " fill="none" id="C_0001424193820633894510-backto-C_0000745305784161364717" style="stroke:#181818;stroke-width:1.0;"/><polygon fill="none" points="852.926,1148.413,873.841,1145.008,859.614,1160.712,852.926,1148.413" style="stroke:#181818;stroke-width:1.0;"/></g><!--reverse link C_0002102556391679358599 to C_0002146626927355719010--><g id="link_C_0002102556391679358599_C_0002146626927355719010"><path codeLine="156" d="M2303.31,1154.474 C2271.83,1171.3765 2237.46,1189.8354 2209.4,1204.9078 " fill="none" id="C_0002102556391679358599-backto-C_0002146626927355719010" style="stroke:#181818;stroke-width:1.0;"/><polygon fill="none" points="2300,1148.304,2320.93,1145.008,2306.62,1160.638,2300,1148.304" style="stroke:#181818;stroke-width:1.0;"/></g><!--reverse link C_0001811296427559445634 to C_0002027409854890813824--><g id="link_C_0001811296427559445634_C_0002027409854890813824"><path codeLine="157" d="M3431.78,1154.946 C3461.73,1171.7196 3494.33,1189.9756 3520.99,1204.9078 " fill="none" id="C_0001811296427559445634-backto-C_0002027409854890813824" style="stroke:#181818;stroke-width:1.0;"/><polygon fill="none" points="3428.07,1160.889,3414.04,1145.008,3434.91,1148.674,3428.07,1160.889" style="stroke:#181818;stroke-width:1.0;"/></g><!--reverse link C_0001647160910280595340 to C_0000655499548338025037--><g id="link_C_0001647160910280595340_C_0000655499548338025037"><path codeLine="158" d="M4797.64,1155.183 C4825.93,1171.891 4856.68,1190.0457 4881.85,1204.9078 " fill="none" id="C_0001647160910280595340-backto-C_0000655499548338025037" style="stroke:#181818;stroke-width:1.0;"/><polygon fill="none" points="4794.07,1161.205,4780.41,1145.008,4801.19,1149.15,4794.07,1161.205" style="stroke:#181818;stroke-width:1.0;"/></g><!--link C_0002209599525799584600 to C_0002029504024862137028--><g id="link_C_0002209599525799584600_C_0002029504024862137028"><path codeLine="159" d="M3403.54,782.052 C3284.71,813.133 3144.61,849.777 3037.59,877.771 " fill="none" id="C_0002209599525799584600-to-C_0002029504024862137028" style="stroke:#181818;stroke-width:1.0;stroke-dasharray:7.0,7.0;"/><polygon fill="#181818" points="3032.52,879.097,3042.2412,880.6777,3037.3557,877.8259,3040.2075,872.9405,3032.52,879.097" style="stroke:#181818;stroke-width:1.0;"/></g><!--reverse link C_0000209174374544492061 to C_0002209599525799584600--><g id="link_C_0000209174374544492061_C_0002209599525799584600"><path codeLine="160" d="M3433.46,602.722 C3467.52,620.915 3499.31,637.89 3527.39,652.888 " fill="none" id="C_0000209174374544492061-backto-C_0002209599525799584600" style="stroke:#181818;stroke-width:1.0;"/><polygon fill="none" points="3429.79,608.698,3415.44,593.102,3436.38,596.349,3429.79,608.698" style="stroke:#181818;stroke-width:1.0;"/></g><!--reverse link C_0001424193820633894510 to C_0000028048956718749290--><g id="link_C_0001424193820633894510_C_0000028048956718749290"><path codeLine="161" d="M1036.62,1154.71 C1067.46,1171.5481 1101.08,1189.9055 1128.56,1204.9078 " fill="none" id="C_0001424193820633894510-backto-C_0000028048956718749290" style="stroke:#181818;stroke-width:1.0;"/><polygon fill="none" points="1033.06,1160.737,1018.86,1145.008,1039.76,1148.449,1033.06,1160.737" style="stroke:#181818;stroke-width:1.0;"/></g><!--reverse link C_0002102556391679358599 to C_0001792009431623735922--><g id="link_C_0002102556391679358599_C_0001792009431623735922"><path codeLine="162" d="M2485.69,1154.474 C2517.17,1171.3765 2551.54,1189.8354 2579.6,1204.9078 " fill="none" id="C_0002102556391679358599-backto-C_0001792009431623735922" style="stroke:#181818;stroke-width:1.0;"/><polygon fill="none" points="2482.38,1160.638,2468.07,1145.008,2489,1148.304,2482.38,1160.638" style="stroke:#181818;stroke-width:1.0;"/></g><!--reverse link C_0001811296427559445634 to C_0000620326405289502470--><g id="link_C_0001811296427559445634_C_0000620326405289502470"><path codeLine="163" d="M3554.21,1144.838 C3657.42,1164.107 3779.91,1186.9759 3876.39,1204.988 " fill="none" id="C_0001811296427559445634-backto-C_0000620326405289502470" style="stroke:#181818;stroke-width:1.0;"/><polygon fill="none" points="3552.88,1151.711,3534.5,1141.16,3555.45,1137.949,3552.88,1151.711" style="stroke:#181818;stroke-width:1.0;"/></g><!--reverse link C_0001647160910280595340 to C_0002195641298291654614--><g id="link_C_0001647160910280595340_C_0002195641298291654614"><path codeLine="164" d="M4911.85,1144.602 C5009.79,1163.907 5126.28,1186.8714 5218,1204.9517 " fill="none" id="C_0001647160910280595340-backto-C_0002195641298291654614" style="stroke:#181818;stroke-width:1.0;"/><polygon fill="none" points="4910.48,1151.465,4892.21,1140.729,4913.19,1137.73,4910.48,1151.465" style="stroke:#181818;stroke-width:1.0;"/></g><!--link C_0000344833212758266178 to C_0002029504024862137028--><g id="link_C_0000344833212758266178_C_0002029504024862137028"><path codeLine="165" d="M4473.32,782.017 C3968.55,826.046 3335.64,881.253 3038,907.215 " fill="none" id="C_0000344833212758266178-to-C_0002029504024862137028" style="stroke:#181818;stroke-width:1.0;stroke-dasharray:7.0,7.0;"/><polygon fill="#181818" points="3032.77,907.671,3042.0889,910.8583,3037.7504,907.2282,3041.3804,902.8897,3032.77,907.671" style="stroke:#181818;stroke-width:1.0;"/></g><!--reverse link C_0000209174374544492061 to C_0000344833212758266178--><g id="link_C_0000209174374544492061_C_0000344833212758266178"><path codeLine="166" d="M3623.65,593.325 C3974.62,670.299 4074.72,625.559 4425.5,653 C4431.23,653.448 4436.98,653.899 4442.75,654.352 " fill="none" id="C_0000209174374544492061-backto-C_0000344833212758266178" style="stroke:#181818;stroke-width:1.0;"/><polygon fill="none" points="3622.02,600.133,3604.02,588.951,3625.06,586.468,3622.02,600.133" style="stroke:#181818;stroke-width:1.0;"/></g><!--SRC=[xLZRRkCs47ttLmWRe9kWYSFx9KW3B8n57ve41RReQo3BjAF2bbIBpgBOvjzBIRP4YbGYE07Q0lkIm9mXUNXcU6QeU5xgRPpewCCiNowL-X35PJHx000WW2G5120Y68AO0oGcyS5xo2FwDlbnfVGitnHvfZ9Tpl9Idvv5IPwLEhgAbkiyrhNBhziqKRwbz2RNXYXJNwjVPyRpAKyNjMEpH6klVxOEtmvOdwDgk_juq-tsKmICMwaNLrV69yrMavF4sRJ5Sr9KYxO_dpi6zdpTnSbZcbcq6LOav0HpGWaX4W46UxG5F2hQdFLE6w0rn29EjzVr_kVrtvleXyYSnW2Bixn2Unwzuft4HR5BadIakogBhIhBSSxhM6lbXAR7_AS3r13zkopzSwSU2hszRiv_qvy-Qx4VD__p_Z37pRwjJZToQfMIxM5VpCqwozjplUfwECAhZZNQLxq-TRapygBDhFmPEULpcqCZ9zmsUJJ6U-Nn71AOFi4X7vVPa8T5QSWynENBW4Ou3_0t276KukRBL9-ccUxautwtcQljULGDTYfXZnx4m1whxtmpSDPkSL59w4whBqPFrsg_MHF1MaJF6x_8LTfk_adin3GmFXlGwCIDTCWmD5NP2U0F3qrRjrdH6nkQi6balJTb4nisLHPdYNBSdoV9EYxBw4ERNbrzWGGHAB4mPGDZ8Gc5OEyzPAwAIoV2eI1qeUbTCwTgkXNJn_YBsctJbOKKICA919nIp0YW10e7gMzsa3RBZSVR0khkcTNCG80ePLX2nYMcWaffOmcOwvBSrPvtfwrRkyyRGeIQjagQve1p932I3cy1iulrQE8EccE5K42892F81CbiQ1WYJWXzSmMbBRdlJjfXvJvbW41aEYa8glX1Nbq26sV0RECych1QUIss6E6GcUREDCA0Ieg9UpLzSuMYQJ7UdQfwMVzAGcHo1mcJugPVDx-mUoKzSulm-EjezxL-u0JYtEWKnWnJo2cNRk0yizSgxu7zZnlcS9VyGgCPRejVdk3rmI-xkutliAzV1kxKEjKwjc9i7ZeOK2u8P11Nbu0xCVRDJXtOh_UcGk1XGf0mXfX475FAeGHk5GsONOqz7jGX3ZuaW3W1Kb0Y913Gb717mm9cMyEE1rH7sWyQevH8QNOpROGfZW2xGVFDhLAy8M3slVO9CkzcKvWfCYeWgI0Ck37ppPvM7A1z5ul_Y5ZSgrAlxQydLMqq6KuPXy9qXqWwCGwO7QrebdkJLFGHGIuHCAqgXWnX8mSI8QTa-cPNAOw6T8Y1Hn530AEgOqQ62808TodopRPE70sdZd4V2u8c5AQvaWAPrfaI1btDyisjIXmVAlj2U-HWKaaIWgOb5OWno9tUEM3sD68FxBj4_BiIqGnyUSmBEzq40ABgupb4J30aiPjkdhcARgdZRVL5PC_EHR7D4uFyOVyclzx__-slGjtiyp4-fE3Soh_1ZxVJwStm9_F1B-NNVrzS33_f1n_prhJ0-th4Rg6dyE0Zs9eMU9MEELlW1JduTkocXHvqOtOBlC06trusa_wpQF3zyNgqGpbY7yr_yeo8TgYB7XEsGACxWlzGCpg2o53NEDYSlPN8K3yuXiX0Yp62o50VC2QH0zLw196XmZfOmTwSaO6YEVduiyhKDjPg4NrDzMDaT3PRNUmsw_FeIMtBDCyYCCLJClbuU_lxNJjMkxM_89s2AOzE7xKkoglBovLPQJUVcd9_kLu_DNygFVv39NfgZ95OB1T9mkTylcHCO19p1kSBiL26M460MZAXo0B6P_y0]--></g></svg>