<?xml version="1.0" encoding="us-ascii" standalone="no"?><svg xmlns="http://www.w3.org/2000/svg" xmlns:xlink="http://www.w3.org/1999/xlink" contentStyleType="text/css" height="1241px" preserveAspectRatio="none" style="width:515px;height:1241px;background:#FFFFFF;" version="1.1" viewBox="0 0 515 1241" width="515px" zoomAndPan="magnify"><defs/><g><rect fill="#FFFFFF" height="1120.4531" style="stroke:#181818;stroke-width:1.0;" width="10" x="61" y="67.4297"/><rect fill="#FFFFFF" height="1077.3203" style="stroke:#181818;stroke-width:1.0;" width="10" x="162" y="96.5625"/><rect fill="#FFFFFF" height="1040.1875" style="stroke:#181818;stroke-width:1.0;" width="10" x="167" y="133.6953"/><rect fill="#FFFFFF" height="14" style="stroke:#181818;stroke-width:1.0;" width="10" x="370" y="167.8281"/><rect fill="#FFFFFF" height="14" style="stroke:#181818;stroke-width:1.0;" width="10" x="370" y="210.9609"/><rect fill="#FFFFFF" height="14" style="stroke:#181818;stroke-width:1.0;" width="10" x="370" y="254.0938"/><rect fill="#FFFFFF" height="14" style="stroke:#181818;stroke-width:1.0;" width="10" x="370" y="297.2266"/><rect fill="#FFFFFF" height="14" style="stroke:#181818;stroke-width:1.0;" width="10" x="370" y="685.4219"/><rect fill="#FFFFFF" height="14" style="stroke:#181818;stroke-width:1.0;" width="10" x="370" y="728.5547"/><rect fill="#FFFFFF" height="14" style="stroke:#181818;stroke-width:1.0;" width="10" x="370" y="771.6875"/><rect fill="#FFFFFF" height="14" style="stroke:#181818;stroke-width:1.0;" width="10" x="370" y="814.8203"/><rect fill="#FFFFFF" height="14" style="stroke:#181818;stroke-width:1.0;" width="10" x="472.5" y="340.3594"/><rect fill="#FFFFFF" height="14" style="stroke:#181818;stroke-width:1.0;" width="10" x="472.5" y="383.4922"/><rect fill="#FFFFFF" height="14" style="stroke:#181818;stroke-width:1.0;" width="10" x="472.5" y="426.625"/><rect fill="#FFFFFF" height="14" style="stroke:#181818;stroke-width:1.0;" width="10" x="472.5" y="469.7578"/><rect fill="#FFFFFF" height="14" style="stroke:#181818;stroke-width:1.0;" width="10" x="472.5" y="512.8906"/><rect fill="#FFFFFF" height="14" style="stroke:#181818;stroke-width:1.0;" width="10" x="472.5" y="556.0234"/><rect fill="#FFFFFF" height="14" style="stroke:#181818;stroke-width:1.0;" width="10" x="472.5" y="599.1563"/><rect fill="#FFFFFF" height="14" style="stroke:#181818;stroke-width:1.0;" width="10" x="472.5" y="642.2891"/><rect fill="#FFFFFF" height="14" style="stroke:#181818;stroke-width:1.0;" width="10" x="472.5" y="857.9531"/><rect fill="#FFFFFF" height="14" style="stroke:#181818;stroke-width:1.0;" width="10" x="472.5" y="901.0859"/><rect fill="#FFFFFF" height="14" style="stroke:#181818;stroke-width:1.0;" width="10" x="472.5" y="944.2188"/><rect fill="#FFFFFF" height="14" style="stroke:#181818;stroke-width:1.0;" width="10" x="472.5" y="987.3516"/><rect fill="#FFFFFF" height="14" style="stroke:#181818;stroke-width:1.0;" width="10" x="472.5" y="1030.4844"/><rect fill="#FFFFFF" height="14" style="stroke:#181818;stroke-width:1.0;" width="10" x="472.5" y="1073.6172"/><rect fill="#FFFFFF" height="14" style="stroke:#181818;stroke-width:1.0;" width="10" x="472.5" y="1116.75"/><rect fill="#FFFFFF" height="14" style="stroke:#181818;stroke-width:1.0;" width="10" x="472.5" y="1159.8828"/><line style="stroke:#181818;stroke-width:0.5;stroke-dasharray:5.0,5.0;" x1="66" x2="66" y1="36.2969" y2="1205.8828"/><line style="stroke:#181818;stroke-width:0.5;stroke-dasharray:5.0,5.0;" x1="167" x2="167" y1="36.2969" y2="1205.8828"/><line style="stroke:#181818;stroke-width:0.5;stroke-dasharray:5.0,5.0;" x1="375" x2="375" y1="36.2969" y2="1205.8828"/><line style="stroke:#181818;stroke-width:0.5;stroke-dasharray:5.0,5.0;" x1="477" x2="477" y1="36.2969" y2="1205.8828"/><rect fill="#E2E2F0" height="30.2969" rx="2.5" ry="2.5" style="stroke:#181818;stroke-width:0.5;" width="82" x="25" y="5"/><text fill="#000000" font-family="sans-serif" font-size="14" lengthAdjust="spacing" textLength="68" x="32" y="24.9951">main.cpp</text><rect fill="#E2E2F0" height="30.2969" rx="2.5" ry="2.5" style="stroke:#181818;stroke-width:0.5;" width="82" x="25" y="1204.8828"/><text fill="#000000" font-family="sans-serif" font-size="14" lengthAdjust="spacing" textLength="68" x="32" y="1224.8779">main.cpp</text><rect fill="#E2E2F0" height="30.2969" rx="2.5" ry="2.5" style="stroke:#181818;stroke-width:0.5;" width="100" x="117" y="5"/><text fill="#000000" font-family="sans-serif" font-size="14" lengthAdjust="spacing" textLength="86" x="124" y="24.9951">CoffeeShop</text><rect fill="#E2E2F0" height="30.2969" rx="2.5" ry="2.5" style="stroke:#181818;stroke-width:0.5;" width="100" x="117" y="1204.8828"/><text fill="#000000" font-family="sans-serif" font-size="14" lengthAdjust="spacing" textLength="86" x="124" y="1224.8779">CoffeeShop</text><rect fill="#E2E2F0" height="30.2969" rx="2.5" ry="2.5" style="stroke:#181818;stroke-width:0.5;" width="122" x="314" y="5"/><text fill="#000000" font-family="sans-serif" font-size="14" lengthAdjust="spacing" textLength="108" x="321" y="24.9951">CoffeeMachine</text><rect fill="#E2E2F0" height="30.2969" rx="2.5" ry="2.5" style="stroke:#181818;stroke-width:0.5;" width="122" x="314" y="1204.8828"/><text fill="#000000" font-family="sans-serif" font-size="14" lengthAdjust="spacing" textLength="108" x="321" y="1224.8779">CoffeeMachine</text><rect fill="#E2E2F0" height="30.2969" rx="2.5" ry="2.5" style="stroke:#181818;stroke-width:0.5;" width="63" x="446" y="5"/><text fill="#000000" font-family="sans-serif" font-size="14" lengthAdjust="spacing" textLength="49" x="453" y="24.9951">Coffee</text><rect fill="#E2E2F0" height="30.2969" rx="2.5" ry="2.5" style="stroke:#181818;stroke-width:0.5;" width="63" x="446" y="1204.8828"/><text fill="#000000" font-family="sans-serif" font-size="14" lengthAdjust="spacing" textLength="49" x="453" y="1224.8779">Coffee</text><rect fill="#FFFFFF" height="1120.4531" style="stroke:#181818;stroke-width:1.0;" width="10" x="61" y="67.4297"/><rect fill="#FFFFFF" height="1077.3203" style="stroke:#181818;stroke-width:1.0;" width="10" x="162" y="96.5625"/><rect fill="#FFFFFF" height="1040.1875" style="stroke:#181818;stroke-width:1.0;" width="10" x="167" y="133.6953"/><rect fill="#FFFFFF" height="14" style="stroke:#181818;stroke-width:1.0;" width="10" x="370" y="167.8281"/><rect fill="#FFFFFF" height="14" style="stroke:#181818;stroke-width:1.0;" width="10" x="370" y="210.9609"/><rect fill="#FFFFFF" height="14" style="stroke:#181818;stroke-width:1.0;" width="10" x="370" y="254.0938"/><rect fill="#FFFFFF" height="14" style="stroke:#181818;stroke-width:1.0;" width="10" x="370" y="297.2266"/><rect fill="#FFFFFF" height="14" style="stroke:#181818;stroke-width:1.0;" width="10" x="370" y="685.4219"/><rect fill="#FFFFFF" height="14" style="stroke:#181818;stroke-width:1.0;" width="10" x="370" y="728.5547"/><rect fill="#FFFFFF" height="14" style="stroke:#181818;stroke-width:1.0;" width="10" x="370" y="771.6875"/><rect fill="#FFFFFF" height="14" style="stroke:#181818;stroke-width:1.0;" width="10" x="370" y="814.8203"/><rect fill="#FFFFFF" height="14" style="stroke:#181818;stroke-width:1.0;" width="10" x="472.5" y="340.3594"/><rect fill="#FFFFFF" height="14" style="stroke:#181818;stroke-width:1.0;" width="10" x="472.5" y="383.4922"/><rect fill="#FFFFFF" height="14" style="stroke:#181818;stroke-width:1.0;" width="10" x="472.5" y="426.625"/><rect fill="#FFFFFF" height="14" style="stroke:#181818;stroke-width:1.0;" width="10" x="472.5" y="469.7578"/><rect fill="#FFFFFF" height="14" style="stroke:#181818;stroke-width:1.0;" width="10" x="472.5" y="512.8906"/><rect fill="#FFFFFF" height="14" style="stroke:#181818;stroke-width:1.0;" width="10" x="472.5" y="556.0234"/><rect fill="#FFFFFF" height="14" style="stroke:#181818;stroke-width:1.0;" width="10" x="472.5" y="599.1563"/><rect fill="#FFFFFF" height="14" style="stroke:#181818;stroke-width:1.0;" width="10" x="472.5" y="642.2891"/><rect fill="#FFFFFF" height="14" style="stroke:#181818;stroke-width:1.0;" width="10" x="472.5" y="857.9531"/><rect fill="#FFFFFF" height="14" style="stroke:#181818;stroke-width:1.0;" width="10" x="472.5" y="901.0859"/><rect fill="#FFFFFF" height="14" style="stroke:#181818;stroke-width:1.0;" width="10" x="472.5" y="944.2188"/><rect fill="#FFFFFF" height="14" style="stroke:#181818;stroke-width:1.0;" width="10" x="472.5" y="987.3516"/><rect fill="#FFFFFF" height="14" style="stroke:#181818;stroke-width:1.0;" width="10" x="472.5" y="1030.4844"/><rect fill="#FFFFFF" height="14" style="stroke:#181818;stroke-width:1.0;" width="10" x="472.5" y="1073.6172"/><rect fill="#FFFFFF" height="14" style="stroke:#181818;stroke-width:1.0;" width="10" x="472.5" y="1116.75"/><rect fill="#FFFFFF" height="14" style="stroke:#181818;stroke-width:1.0;" width="10" x="472.5" y="1159.8828"/><polygon fill="#181818" points="49,63.4297,59,67.4297,49,71.4297,53,67.4297" style="stroke:#181818;stroke-width:1.0;"/><line style="stroke:#181818;stroke-width:1.0;" x1="0" x2="55" y1="67.4297" y2="67.4297"/><text fill="#000000" font-family="sans-serif" font-size="13" lengthAdjust="spacing" textLength="42" x="7" y="62.3638">main()</text><polygon fill="#181818" points="150,92.5625,160,96.5625,150,100.5625,154,96.5625" style="stroke:#181818;stroke-width:1.0;"/><line style="stroke:#181818;stroke-width:1.0;" x1="71" x2="156" y1="96.5625" y2="96.5625"/><text fill="#000000" font-family="sans-serif" font-size="13" lengthAdjust="spacing" textLength="40" x="78" y="91.4966">start()</text><line style="stroke:#181818;stroke-width:1.0;" x1="172" x2="219" y1="120.6953" y2="120.6953"/><line style="stroke:#181818;stroke-width:1.0;" x1="219" x2="219" y1="120.6953" y2="133.6953"/><line style="stroke:#181818;stroke-width:1.0;" x1="178" x2="219" y1="133.6953" y2="133.6953"/><polygon fill="#181818" points="188,129.6953,178,133.6953,188,137.6953,184,133.6953" style="stroke:#181818;stroke-width:1.0;"/><text fill="#000000" font-family="sans-serif" font-size="13" lengthAdjust="spacing" textLength="184" x="184" y="115.6294">process_machine(float,float)</text><polygon fill="#181818" points="358,163.8281,368,167.8281,358,171.8281,362,167.8281" style="stroke:#181818;stroke-width:1.0;"/><line style="stroke:#181818;stroke-width:1.0;" x1="177" x2="364" y1="167.8281" y2="167.8281"/><text fill="#000000" font-family="sans-serif" font-size="13" lengthAdjust="spacing" textLength="100" x="184" y="162.7622">getAmericano()</text><polygon fill="#181818" points="188,177.8281,178,181.8281,188,185.8281,184,181.8281" style="stroke:#181818;stroke-width:1.0;"/><line style="stroke:#181818;stroke-width:1.0;stroke-dasharray:2.0,2.0;" x1="182" x2="374" y1="181.8281" y2="181.8281"/><polygon fill="#181818" points="358,206.9609,368,210.9609,358,214.9609,362,210.9609" style="stroke:#181818;stroke-width:1.0;"/><line style="stroke:#181818;stroke-width:1.0;" x1="177" x2="364" y1="210.9609" y2="210.9609"/><text fill="#000000" font-family="sans-serif" font-size="13" lengthAdjust="spacing" textLength="105" x="184" y="205.895">getCappuccino()</text><polygon fill="#181818" points="188,220.9609,178,224.9609,188,228.9609,184,224.9609" style="stroke:#181818;stroke-width:1.0;"/><line style="stroke:#181818;stroke-width:1.0;stroke-dasharray:2.0,2.0;" x1="182" x2="374" y1="224.9609" y2="224.9609"/><polygon fill="#181818" points="358,250.0938,368,254.0938,358,258.0938,362,254.0938" style="stroke:#181818;stroke-width:1.0;"/><line style="stroke:#181818;stroke-width:1.0;" x1="177" x2="364" y1="254.0938" y2="254.0938"/><text fill="#000000" font-family="sans-serif" font-size="13" lengthAdjust="spacing" textLength="89" x="184" y="249.0278">getEspresso()</text><polygon fill="#181818" points="188,264.0938,178,268.0938,188,272.0938,184,268.0938" style="stroke:#181818;stroke-width:1.0;"/><line style="stroke:#181818;stroke-width:1.0;stroke-dasharray:2.0,2.0;" x1="182" x2="374" y1="268.0938" y2="268.0938"/><polygon fill="#181818" points="358,293.2266,368,297.2266,358,301.2266,362,297.2266" style="stroke:#181818;stroke-width:1.0;"/><line style="stroke:#181818;stroke-width:1.0;" x1="177" x2="364" y1="297.2266" y2="297.2266"/><text fill="#000000" font-family="sans-serif" font-size="13" lengthAdjust="spacing" textLength="64" x="184" y="292.1606">getLatte()</text><polygon fill="#181818" points="188,307.2266,178,311.2266,188,315.2266,184,311.2266" style="stroke:#181818;stroke-width:1.0;"/><line style="stroke:#181818;stroke-width:1.0;stroke-dasharray:2.0,2.0;" x1="182" x2="374" y1="311.2266" y2="311.2266"/><polygon fill="#181818" points="460.5,336.3594,470.5,340.3594,460.5,344.3594,464.5,340.3594" style="stroke:#181818;stroke-width:1.0;"/><line style="stroke:#181818;stroke-width:1.0;" x1="177" x2="466.5" y1="340.3594" y2="340.3594"/><text fill="#000000" font-family="sans-serif" font-size="13" lengthAdjust="spacing" textLength="62" x="184" y="335.2935">getPrice()</text><polygon fill="#181818" points="188,350.3594,178,354.3594,188,358.3594,184,354.3594" style="stroke:#181818;stroke-width:1.0;"/><line style="stroke:#181818;stroke-width:1.0;stroke-dasharray:2.0,2.0;" x1="182" x2="476.5" y1="354.3594" y2="354.3594"/><polygon fill="#181818" points="460.5,379.4922,470.5,383.4922,460.5,387.4922,464.5,383.4922" style="stroke:#181818;stroke-width:1.0;"/><line style="stroke:#181818;stroke-width:1.0;" x1="177" x2="466.5" y1="383.4922" y2="383.4922"/><text fill="#000000" font-family="sans-serif" font-size="13" lengthAdjust="spacing" textLength="142" x="184" y="378.4263">getComponentsCost()</text><polygon fill="#181818" points="188,393.4922,178,397.4922,188,401.4922,184,397.4922" style="stroke:#181818;stroke-width:1.0;"/><line style="stroke:#181818;stroke-width:1.0;stroke-dasharray:2.0,2.0;" x1="182" x2="476.5" y1="397.4922" y2="397.4922"/><polygon fill="#181818" points="460.5,422.625,470.5,426.625,460.5,430.625,464.5,426.625" style="stroke:#181818;stroke-width:1.0;"/><line style="stroke:#181818;stroke-width:1.0;" x1="177" x2="466.5" y1="426.625" y2="426.625"/><text fill="#000000" font-family="sans-serif" font-size="13" lengthAdjust="spacing" textLength="62" x="184" y="421.5591">getPrice()</text><polygon fill="#181818" points="188,436.625,178,440.625,188,444.625,184,440.625" style="stroke:#181818;stroke-width:1.0;"/><line style="stroke:#181818;stroke-width:1.0;stroke-dasharray:2.0,2.0;" x1="182" x2="476.5" y1="440.625" y2="440.625"/><polygon fill="#181818" points="460.5,465.7578,470.5,469.7578,460.5,473.7578,464.5,469.7578" style="stroke:#181818;stroke-width:1.0;"/><line style="stroke:#181818;stroke-width:1.0;" x1="177" x2="466.5" y1="469.7578" y2="469.7578"/><text fill="#000000" font-family="sans-serif" font-size="13" lengthAdjust="spacing" textLength="142" x="184" y="464.6919">getComponentsCost()</text><polygon fill="#181818" points="188,479.7578,178,483.7578,188,487.7578,184,483.7578" style="stroke:#181818;stroke-width:1.0;"/><line style="stroke:#181818;stroke-width:1.0;stroke-dasharray:2.0,2.0;" x1="182" x2="476.5" y1="483.7578" y2="483.7578"/><polygon fill="#181818" points="460.5,508.8906,470.5,512.8906,460.5,516.8906,464.5,512.8906" style="stroke:#181818;stroke-width:1.0;"/><line style="stroke:#181818;stroke-width:1.0;" x1="177" x2="466.5" y1="512.8906" y2="512.8906"/><text fill="#000000" font-family="sans-serif" font-size="13" lengthAdjust="spacing" textLength="62" x="184" y="507.8247">getPrice()</text><polygon fill="#181818" points="188,522.8906,178,526.8906,188,530.8906,184,526.8906" style="stroke:#181818;stroke-width:1.0;"/><line style="stroke:#181818;stroke-width:1.0;stroke-dasharray:2.0,2.0;" x1="182" x2="476.5" y1="526.8906" y2="526.8906"/><polygon fill="#181818" points="460.5,552.0234,470.5,556.0234,460.5,560.0234,464.5,556.0234" style="stroke:#181818;stroke-width:1.0;"/><line style="stroke:#181818;stroke-width:1.0;" x1="177" x2="466.5" y1="556.0234" y2="556.0234"/><text fill="#000000" font-family="sans-serif" font-size="13" lengthAdjust="spacing" textLength="142" x="184" y="550.9575">getComponentsCost()</text><polygon fill="#181818" points="188,566.0234,178,570.0234,188,574.0234,184,570.0234" style="stroke:#181818;stroke-width:1.0;"/><line style="stroke:#181818;stroke-width:1.0;stroke-dasharray:2.0,2.0;" x1="182" x2="476.5" y1="570.0234" y2="570.0234"/><polygon fill="#181818" points="460.5,595.1563,470.5,599.1563,460.5,603.1563,464.5,599.1563" style="stroke:#181818;stroke-width:1.0;"/><line style="stroke:#181818;stroke-width:1.0;" x1="177" x2="466.5" y1="599.1563" y2="599.1563"/><text fill="#000000" font-family="sans-serif" font-size="13" lengthAdjust="spacing" textLength="62" x="184" y="594.0903">getPrice()</text><polygon fill="#181818" points="188,609.1563,178,613.1563,188,617.1563,184,613.1563" style="stroke:#181818;stroke-width:1.0;"/><line style="stroke:#181818;stroke-width:1.0;stroke-dasharray:2.0,2.0;" x1="182" x2="476.5" y1="613.1563" y2="613.1563"/><polygon fill="#181818" points="460.5,638.2891,470.5,642.2891,460.5,646.2891,464.5,642.2891" style="stroke:#181818;stroke-width:1.0;"/><line style="stroke:#181818;stroke-width:1.0;" x1="177" x2="466.5" y1="642.2891" y2="642.2891"/><text fill="#000000" font-family="sans-serif" font-size="13" lengthAdjust="spacing" textLength="142" x="184" y="637.2231">getComponentsCost()</text><polygon fill="#181818" points="188,652.2891,178,656.2891,188,660.2891,184,656.2891" style="stroke:#181818;stroke-width:1.0;"/><line style="stroke:#181818;stroke-width:1.0;stroke-dasharray:2.0,2.0;" x1="182" x2="476.5" y1="656.2891" y2="656.2891"/><polygon fill="#181818" points="358,681.4219,368,685.4219,358,689.4219,362,685.4219" style="stroke:#181818;stroke-width:1.0;"/><line style="stroke:#181818;stroke-width:1.0;" x1="177" x2="364" y1="685.4219" y2="685.4219"/><text fill="#000000" font-family="sans-serif" font-size="13" lengthAdjust="spacing" textLength="100" x="184" y="680.356">getAmericano()</text><polygon fill="#181818" points="188,695.4219,178,699.4219,188,703.4219,184,699.4219" style="stroke:#181818;stroke-width:1.0;"/><line style="stroke:#181818;stroke-width:1.0;stroke-dasharray:2.0,2.0;" x1="182" x2="374" y1="699.4219" y2="699.4219"/><polygon fill="#181818" points="358,724.5547,368,728.5547,358,732.5547,362,728.5547" style="stroke:#181818;stroke-width:1.0;"/><line style="stroke:#181818;stroke-width:1.0;" x1="177" x2="364" y1="728.5547" y2="728.5547"/><text fill="#000000" font-family="sans-serif" font-size="13" lengthAdjust="spacing" textLength="105" x="184" y="723.4888">getCappuccino()</text><polygon fill="#181818" points="188,738.5547,178,742.5547,188,746.5547,184,742.5547" style="stroke:#181818;stroke-width:1.0;"/><line style="stroke:#181818;stroke-width:1.0;stroke-dasharray:2.0,2.0;" x1="182" x2="374" y1="742.5547" y2="742.5547"/><polygon fill="#181818" points="358,767.6875,368,771.6875,358,775.6875,362,771.6875" style="stroke:#181818;stroke-width:1.0;"/><line style="stroke:#181818;stroke-width:1.0;" x1="177" x2="364" y1="771.6875" y2="771.6875"/><text fill="#000000" font-family="sans-serif" font-size="13" lengthAdjust="spacing" textLength="89" x="184" y="766.6216">getEspresso()</text><polygon fill="#181818" points="188,781.6875,178,785.6875,188,789.6875,184,785.6875" style="stroke:#181818;stroke-width:1.0;"/><line style="stroke:#181818;stroke-width:1.0;stroke-dasharray:2.0,2.0;" x1="182" x2="374" y1="785.6875" y2="785.6875"/><polygon fill="#181818" points="358,810.8203,368,814.8203,358,818.8203,362,814.8203" style="stroke:#181818;stroke-width:1.0;"/><line style="stroke:#181818;stroke-width:1.0;" x1="177" x2="364" y1="814.8203" y2="814.8203"/><text fill="#000000" font-family="sans-serif" font-size="13" lengthAdjust="spacing" textLength="64" x="184" y="809.7544">getLatte()</text><polygon fill="#181818" points="188,824.8203,178,828.8203,188,832.8203,184,828.8203" style="stroke:#181818;stroke-width:1.0;"/><line style="stroke:#181818;stroke-width:1.0;stroke-dasharray:2.0,2.0;" x1="182" x2="374" y1="828.8203" y2="828.8203"/><polygon fill="#181818" points="460.5,853.9531,470.5,857.9531,460.5,861.9531,464.5,857.9531" style="stroke:#181818;stroke-width:1.0;"/><line style="stroke:#181818;stroke-width:1.0;" x1="177" x2="466.5" y1="857.9531" y2="857.9531"/><text fill="#000000" font-family="sans-serif" font-size="13" lengthAdjust="spacing" textLength="62" x="184" y="852.8872">getPrice()</text><polygon fill="#181818" points="188,867.9531,178,871.9531,188,875.9531,184,871.9531" style="stroke:#181818;stroke-width:1.0;"/><line style="stroke:#181818;stroke-width:1.0;stroke-dasharray:2.0,2.0;" x1="182" x2="476.5" y1="871.9531" y2="871.9531"/><polygon fill="#181818" points="460.5,897.0859,470.5,901.0859,460.5,905.0859,464.5,901.0859" style="stroke:#181818;stroke-width:1.0;"/><line style="stroke:#181818;stroke-width:1.0;" x1="177" x2="466.5" y1="901.0859" y2="901.0859"/><text fill="#000000" font-family="sans-serif" font-size="13" lengthAdjust="spacing" textLength="142" x="184" y="896.02">getComponentsCost()</text><polygon fill="#181818" points="188,911.0859,178,915.0859,188,919.0859,184,915.0859" style="stroke:#181818;stroke-width:1.0;"/><line style="stroke:#181818;stroke-width:1.0;stroke-dasharray:2.0,2.0;" x1="182" x2="476.5" y1="915.0859" y2="915.0859"/><polygon fill="#181818" points="460.5,940.2188,470.5,944.2188,460.5,948.2188,464.5,944.2188" style="stroke:#181818;stroke-width:1.0;"/><line style="stroke:#181818;stroke-width:1.0;" x1="177" x2="466.5" y1="944.2188" y2="944.2188"/><text fill="#000000" font-family="sans-serif" font-size="13" lengthAdjust="spacing" textLength="62" x="184" y="939.1528">getPrice()</text><polygon fill="#181818" points="188,954.2188,178,958.2188,188,962.2188,184,958.2188" style="stroke:#181818;stroke-width:1.0;"/><line style="stroke:#181818;stroke-width:1.0;stroke-dasharray:2.0,2.0;" x1="182" x2="476.5" y1="958.2188" y2="958.2188"/><polygon fill="#181818" points="460.5,983.3516,470.5,987.3516,460.5,991.3516,464.5,987.3516" style="stroke:#181818;stroke-width:1.0;"/><line style="stroke:#181818;stroke-width:1.0;" x1="177" x2="466.5" y1="987.3516" y2="987.3516"/><text fill="#000000" font-family="sans-serif" font-size="13" lengthAdjust="spacing" textLength="142" x="184" y="982.2856">getComponentsCost()</text><polygon fill="#181818" points="188,997.3516,178,1001.3516,188,1005.3516,184,1001.3516" style="stroke:#181818;stroke-width:1.0;"/><line style="stroke:#181818;stroke-width:1.0;stroke-dasharray:2.0,2.0;" x1="182" x2="476.5" y1="1001.3516" y2="1001.3516"/><polygon fill="#181818" points="460.5,1026.4844,470.5,1030.4844,460.5,1034.4844,464.5,1030.4844" style="stroke:#181818;stroke-width:1.0;"/><line style="stroke:#181818;stroke-width:1.0;" x1="177" x2="466.5" y1="1030.4844" y2="1030.4844"/><text fill="#000000" font-family="sans-serif" font-size="13" lengthAdjust="spacing" textLength="62" x="184" y="1025.4185">getPrice()</text><polygon fill="#181818" points="188,1040.4844,178,1044.4844,188,1048.4844,184,1044.4844" style="stroke:#181818;stroke-width:1.0;"/><line style="stroke:#181818;stroke-width:1.0;stroke-dasharray:2.0,2.0;" x1="182" x2="476.5" y1="1044.4844" y2="1044.4844"/><polygon fill="#181818" points="460.5,1069.6172,470.5,1073.6172,460.5,1077.6172,464.5,1073.6172" style="stroke:#181818;stroke-width:1.0;"/><line style="stroke:#181818;stroke-width:1.0;" x1="177" x2="466.5" y1="1073.6172" y2="1073.6172"/><text fill="#000000" font-family="sans-serif" font-size="13" lengthAdjust="spacing" textLength="142" x="184" y="1068.5513">getComponentsCost()</text><polygon fill="#181818" points="188,1083.6172,178,1087.6172,188,1091.6172,184,1087.6172" style="stroke:#181818;stroke-width:1.0;"/><line style="stroke:#181818;stroke-width:1.0;stroke-dasharray:2.0,2.0;" x1="182" x2="476.5" y1="1087.6172" y2="1087.6172"/><polygon fill="#181818" points="460.5,1112.75,470.5,1116.75,460.5,1120.75,464.5,1116.75" style="stroke:#181818;stroke-width:1.0;"/><line style="stroke:#181818;stroke-width:1.0;" x1="177" x2="466.5" y1="1116.75" y2="1116.75"/><text fill="#000000" font-family="sans-serif" font-size="13" lengthAdjust="spacing" textLength="62" x="184" y="1111.6841">getPrice()</text><polygon fill="#181818" points="188,1126.75,178,1130.75,188,1134.75,184,1130.75" style="stroke:#181818;stroke-width:1.0;"/><line style="stroke:#181818;stroke-width:1.0;stroke-dasharray:2.0,2.0;" x1="182" x2="476.5" y1="1130.75" y2="1130.75"/><polygon fill="#181818" points="460.5,1155.8828,470.5,1159.8828,460.5,1163.8828,464.5,1159.8828" style="stroke:#181818;stroke-width:1.0;"/><line style="stroke:#181818;stroke-width:1.0;" x1="177" x2="466.5" y1="1159.8828" y2="1159.8828"/><text fill="#000000" font-family="sans-serif" font-size="13" lengthAdjust="spacing" textLength="142" x="184" y="1154.8169">getComponentsCost()</text><polygon fill="#181818" points="178,1169.8828,168,1173.8828,178,1177.8828,174,1173.8828" style="stroke:#181818;stroke-width:1.0;"/><line style="stroke:#181818;stroke-width:1.0;stroke-dasharray:2.0,2.0;" x1="172" x2="476.5" y1="1173.8828" y2="1173.8828"/><polygon fill="#181818" points="11,1183.8828,1,1187.8828,11,1191.8828,7,1187.8828" style="stroke:#181818;stroke-width:1.0;"/><line style="stroke:#181818;stroke-width:1.0;stroke-dasharray:2.0,2.0;" x1="5" x2="65" y1="1187.8828" y2="1187.8828"/><!--SRC=[xLXTQzim57tthn1zQGgr8yco9PSnAARi9ON1e2zzA8ei9ngs96mb-_lJ6be2bjjqZ8qC-K5Wwzvpxj6nFf3bWrD2MQuTkEYvqfcmzWBm4THFq3yCKWoB71U4LeJaXC7aCVqysmbkm2-GnLN2XLDxxkGyZZschatRIlbjQux8CM8-4IE8AC8bAt6L9xF4BqK5adnHe_Daawfc2K8WRnFOmGWvZayz5rkbvQBj37VNp-qfh86nk3yW7Nc1OOKeoIaf224LXYLwlzf0agzs8zrjBmSbk3PJh-PuGbZf6yEIDF94vDzIK7DhTqAeCvPmDzh1_pNdAs35dPF_kFh0t3bQGo2k2aWW9XuGvHHYTi8KdoOTv7xrKsOgTvuZWFCXkN-s-jhqrcYftLYRqPsjZ6X2D26Q44tukpBYGIeUfFxpWrHSYE9k44s89aGJeWalo9EOKt02CO-VqdJ-Ad2oEmLYaiilKil1npJWXt9R83gkD-ckxwx1NWwZCXh0BCz8ShbQFTo_VdiEUtr3HGOp2XPRv-nuirnkFD9kdGdJBxjkVsXIEvZlKhZCTmBMj8qGT4tNRLcod71QedN36ab8mGYKRSaaQH2_-Wa0]--></g></svg>