<?xml version="1.0" encoding="us-ascii" standalone="no"?><svg xmlns="http://www.w3.org/2000/svg" xmlns:xlink="http://www.w3.org/1999/xlink" contentStyleType="text/css" height="614px" preserveAspectRatio="none" style="width:2146px;height:614px;background:#FFFFFF;" version="1.1" viewBox="0 0 2146 614" width="2146px" zoomAndPan="magnify"><defs/><g><!--class C_0002029504024862137028--><g id="elem_C_0002029504024862137028"><rect codeLine="2" fill="#F1F1F1" height="162.0781" id="C_0002029504024862137028" rx="2.5" ry="2.5" style="stroke:#181818;stroke-width:0.5;" width="328" x="687.5" y="305"/><ellipse cx="823.75" cy="321" fill="#A9DCDF" rx="11" ry="11" style="stroke:#181818;stroke-width:1.0;"/><path d="M825.8281,322.8125 L826.2188,323.7969 L825.8281,323.7969 C825.375,323.7969 825.2656,323.8125 825.1094,323.9219 C824.8594,324.0781 824.7031,324.3594 824.7031,324.6563 C824.7031,324.9219 824.8438,325.1719 825.0625,325.3281 C825.2031,325.4531 825.4063,325.5 825.8281,325.5 L828.1875,325.5 C828.5469,325.5 828.7656,325.4688 828.9063,325.375 C829.1563,325.2344 829.3125,324.9375 829.3125,324.6563 C829.3125,324.375 829.1719,324.125 828.9531,323.9688 C828.7813,323.8281 828.625,323.7969 828.1563,323.7969 L824.7656,315.5938 L821.0938,315.5938 C820.6406,315.5938 820.5156,315.6094 820.3594,315.7031 C820.1094,315.875 819.9531,316.1563 819.9531,316.4375 C819.9531,316.7188 820.0938,316.9688 820.3125,317.1406 C820.4844,317.25 820.6563,317.2813 821.0938,317.2813 L822.1719,317.2813 L819.5313,323.7969 C819.1094,323.7969 818.9531,323.8125 818.7969,323.9219 C818.5469,324.0781 818.3906,324.3594 818.3906,324.6563 C818.3906,325.2188 818.7656,325.5 819.5156,325.5 L821.7813,325.5 C822.1406,325.5 822.3594,325.4688 822.4844,325.375 C822.75,325.2344 822.8906,324.9375 822.8906,324.6563 C822.8906,324.375 822.7656,324.125 822.5469,323.9531 C822.375,323.8281 822.2344,323.7969 821.7813,323.7969 L821.3906,323.7969 L821.7813,322.8125 L825.8281,322.8125 Z M825.125,321.1094 L822.4531,321.1094 L823.7969,317.8438 L825.125,321.1094 Z " fill="#000000"/><text fill="#000000" font-family="sans-serif" font-size="14" font-style="italic" lengthAdjust="spacing" textLength="47" x="844.25" y="325.8467">Coffee</text><line style="stroke:#181818;stroke-width:0.5;" x1="688.5" x2="1014.5" y1="337" y2="337"/><polygon fill="none" points="698.5,345.6484,702.5,349.6484,698.5,353.6484,694.5,349.6484" style="stroke:#B38D22;stroke-width:1.0;"/><text fill="#000000" font-family="sans-serif" font-size="14" lengthAdjust="spacing" textLength="171" x="707.5" y="353.9951">componentsCost : float</text><polygon fill="none" points="698.5,361.9453,702.5,365.9453,698.5,369.9453,694.5,365.9453" style="stroke:#B38D22;stroke-width:1.0;"/><text fill="#000000" font-family="sans-serif" font-size="14" lengthAdjust="spacing" textLength="84" x="707.5" y="370.292">price : float</text><line style="stroke:#181818;stroke-width:0.5;" x1="688.5" x2="1014.5" y1="377.5938" y2="377.5938"/><ellipse cx="698.5" cy="391.2422" fill="#84BE84" rx="3" ry="3" style="stroke:#038048;stroke-width:1.0;"/><text fill="#000000" font-family="sans-serif" font-size="14" lengthAdjust="spacing" textLength="252" x="707.5" y="394.5889">getComponentsCost() const : float</text><ellipse cx="698.5" cy="407.5391" fill="#84BE84" rx="3" ry="3" style="stroke:#038048;stroke-width:1.0;"/><text fill="#000000" font-family="sans-serif" font-size="14" lengthAdjust="spacing" textLength="162" x="707.5" y="410.8857">getPrice() const : float</text><ellipse cx="698.5" cy="423.8359" fill="#84BE84" rx="3" ry="3" style="stroke:#038048;stroke-width:1.0;"/><text fill="#000000" font-family="sans-serif" font-size="14" lengthAdjust="spacing" textLength="302" x="707.5" y="427.1826">setComponentsCost(float newCost) : void</text><ellipse cx="698.5" cy="440.1328" fill="#84BE84" rx="3" ry="3" style="stroke:#038048;stroke-width:1.0;"/><text fill="#000000" font-family="sans-serif" font-size="14" lengthAdjust="spacing" textLength="215" x="707.5" y="443.4795">setPrice(float newPrice) : void</text><ellipse cx="698.5" cy="456.4297" fill="#84BE84" rx="3" ry="3" style="stroke:#038048;stroke-width:1.0;"/><text fill="#000000" font-family="sans-serif" font-size="14" font-style="italic" lengthAdjust="spacing" textLength="230" x="707.5" y="459.7764">getName() const = 0 : std::string</text></g><!--class C_0000209174374544492061--><g id="elem_C_0000209174374544492061"><rect codeLine="12" fill="#F1F1F1" height="96.8906" id="C_0000209174374544492061" rx="2.5" ry="2.5" style="stroke:#181818;stroke-width:0.5;" width="326" x="688.5" y="7"/><ellipse cx="793.75" cy="23" fill="#A9DCDF" rx="11" ry="11" style="stroke:#181818;stroke-width:1.0;"/><path d="M795.8281,24.8125 L796.2188,25.7969 L795.8281,25.7969 C795.375,25.7969 795.2656,25.8125 795.1094,25.9219 C794.8594,26.0781 794.7031,26.3594 794.7031,26.6563 C794.7031,26.9219 794.8438,27.1719 795.0625,27.3281 C795.2031,27.4531 795.4063,27.5 795.8281,27.5 L798.1875,27.5 C798.5469,27.5 798.7656,27.4688 798.9063,27.375 C799.1563,27.2344 799.3125,26.9375 799.3125,26.6563 C799.3125,26.375 799.1719,26.125 798.9531,25.9688 C798.7813,25.8281 798.625,25.7969 798.1563,25.7969 L794.7656,17.5938 L791.0938,17.5938 C790.6406,17.5938 790.5156,17.6094 790.3594,17.7031 C790.1094,17.875 789.9531,18.1563 789.9531,18.4375 C789.9531,18.7188 790.0938,18.9688 790.3125,19.1406 C790.4844,19.25 790.6563,19.2813 791.0938,19.2813 L792.1719,19.2813 L789.5313,25.7969 C789.1094,25.7969 788.9531,25.8125 788.7969,25.9219 C788.5469,26.0781 788.3906,26.3594 788.3906,26.6563 C788.3906,27.2188 788.7656,27.5 789.5156,27.5 L791.7813,27.5 C792.1406,27.5 792.3594,27.4688 792.4844,27.375 C792.75,27.2344 792.8906,26.9375 792.8906,26.6563 C792.8906,26.375 792.7656,26.125 792.5469,25.9531 C792.375,25.8281 792.2344,25.7969 791.7813,25.7969 L791.3906,25.7969 L791.7813,24.8125 L795.8281,24.8125 Z M795.125,23.1094 L792.4531,23.1094 L793.7969,19.8438 L795.125,23.1094 Z " fill="#000000"/><text fill="#000000" font-family="sans-serif" font-size="14" font-style="italic" lengthAdjust="spacing" textLength="107" x="814.25" y="27.8467">CoffeeMachine</text><line style="stroke:#181818;stroke-width:0.5;" x1="689.5" x2="1013.5" y1="39" y2="39"/><polygon fill="none" points="699.5,47.6484,703.5,51.6484,699.5,55.6484,695.5,51.6484" style="stroke:#B38D22;stroke-width:1.0;"/><text fill="#000000" font-family="sans-serif" font-size="14" lengthAdjust="spacing" textLength="171" x="708.5" y="55.9951">componentsCost : float</text><polygon fill="none" points="699.5,63.9453,703.5,67.9453,699.5,71.9453,695.5,67.9453" style="stroke:#B38D22;stroke-width:1.0;"/><text fill="#000000" font-family="sans-serif" font-size="14" lengthAdjust="spacing" textLength="130" x="708.5" y="72.292">coffeePrice : float</text><line style="stroke:#181818;stroke-width:0.5;" x1="689.5" x2="1013.5" y1="79.5938" y2="79.5938"/><ellipse cx="699.5" cy="93.2422" fill="#84BE84" rx="3" ry="3" style="stroke:#038048;stroke-width:1.0;"/><text fill="#000000" font-family="sans-serif" font-size="14" font-style="italic" lengthAdjust="spacing" textLength="300" x="708.5" y="96.5889">getCoffee() = 0 : std::unique_ptr&lt;Coffee&gt;</text></g><!--class C_0001424193820633894510--><g id="elem_C_0001424193820633894510"><rect codeLine="18" fill="#F1F1F1" height="80.5938" id="C_0001424193820633894510" rx="2.5" ry="2.5" style="stroke:#181818;stroke-width:0.5;" width="395" x="7" y="527"/><ellipse cx="161.75" cy="543" fill="#ADD1B2" rx="11" ry="11" style="stroke:#181818;stroke-width:1.0;"/><path d="M164.0938,538.6719 C163.1563,538.2344 162.5625,538.0938 161.6875,538.0938 C159.0625,538.0938 157.0625,540.1719 157.0625,542.8906 L157.0625,544.0156 C157.0625,546.5938 159.1719,548.4844 162.0625,548.4844 C163.2813,548.4844 164.4375,548.1875 165.1875,547.6406 C165.7656,547.2344 166.0938,546.7813 166.0938,546.3906 C166.0938,545.9375 165.7031,545.5469 165.2344,545.5469 C165.0156,545.5469 164.8125,545.625 164.625,545.8125 C164.1719,546.2969 164.1719,546.2969 163.9844,546.3906 C163.5625,546.6563 162.875,546.7813 162.1094,546.7813 C160.0625,546.7813 158.7656,545.6875 158.7656,543.9844 L158.7656,542.8906 C158.7656,541.1094 160.0156,539.7969 161.75,539.7969 C162.3281,539.7969 162.9375,539.9531 163.4063,540.2031 C163.8906,540.4844 164.0625,540.7031 164.1563,541.1094 C164.2188,541.5156 164.25,541.6406 164.3906,541.7656 C164.5313,541.9063 164.7656,542.0156 164.9844,542.0156 C165.25,542.0156 165.5156,541.875 165.6875,541.6563 C165.7969,541.5 165.8281,541.3125 165.8281,540.8906 L165.8281,539.4688 C165.8281,539.0313 165.8125,538.9063 165.7188,538.75 C165.5625,538.4844 165.2813,538.3438 164.9844,538.3438 C164.6875,538.3438 164.4844,538.4375 164.2656,538.75 L164.0938,538.6719 Z " fill="#000000"/><text fill="#000000" font-family="sans-serif" font-size="14" lengthAdjust="spacing" textLength="77" x="182.25" y="547.8467">Americano</text><line style="stroke:#181818;stroke-width:0.5;" x1="8" x2="401" y1="559" y2="559"/><line style="stroke:#181818;stroke-width:0.5;" x1="8" x2="401" y1="567" y2="567"/><ellipse cx="18" cy="580.6484" fill="#84BE84" rx="3" ry="3" style="stroke:#038048;stroke-width:1.0;"/><text fill="#000000" font-family="sans-serif" font-size="14" lengthAdjust="spacing" textLength="369" x="27" y="583.9951">Americano(float componentsCost, float cost) : void</text><ellipse cx="18" cy="596.9453" fill="#84BE84" rx="3" ry="3" style="stroke:#038048;stroke-width:1.0;"/><text fill="#000000" font-family="sans-serif" font-size="14" lengthAdjust="spacing" textLength="208" x="27" y="600.292">getName() const : std::string</text></g><!--class C_0001485860819496825022--><g id="elem_C_0001485860819496825022"><rect codeLine="23" fill="#F1F1F1" height="80.5938" id="C_0001485860819496825022" rx="2.5" ry="2.5" style="stroke:#181818;stroke-width:0.5;" width="506" x="53.5" y="164"/><ellipse cx="234.25" cy="180" fill="#ADD1B2" rx="11" ry="11" style="stroke:#181818;stroke-width:1.0;"/><path d="M236.5938,175.6719 C235.6563,175.2344 235.0625,175.0938 234.1875,175.0938 C231.5625,175.0938 229.5625,177.1719 229.5625,179.8906 L229.5625,181.0156 C229.5625,183.5938 231.6719,185.4844 234.5625,185.4844 C235.7813,185.4844 236.9375,185.1875 237.6875,184.6406 C238.2656,184.2344 238.5938,183.7813 238.5938,183.3906 C238.5938,182.9375 238.2031,182.5469 237.7344,182.5469 C237.5156,182.5469 237.3125,182.625 237.125,182.8125 C236.6719,183.2969 236.6719,183.2969 236.4844,183.3906 C236.0625,183.6563 235.375,183.7813 234.6094,183.7813 C232.5625,183.7813 231.2656,182.6875 231.2656,180.9844 L231.2656,179.8906 C231.2656,178.1094 232.5156,176.7969 234.25,176.7969 C234.8281,176.7969 235.4375,176.9531 235.9063,177.2031 C236.3906,177.4844 236.5625,177.7031 236.6563,178.1094 C236.7188,178.5156 236.75,178.6406 236.8906,178.7656 C237.0313,178.9063 237.2656,179.0156 237.4844,179.0156 C237.75,179.0156 238.0156,178.875 238.1875,178.6563 C238.2969,178.5 238.3281,178.3125 238.3281,177.8906 L238.3281,176.4688 C238.3281,176.0313 238.3125,175.9063 238.2188,175.75 C238.0625,175.4844 237.7813,175.3438 237.4844,175.3438 C237.1875,175.3438 236.9844,175.4375 236.7656,175.75 L236.5938,175.6719 Z " fill="#000000"/><text fill="#000000" font-family="sans-serif" font-size="14" lengthAdjust="spacing" textLength="136" x="254.75" y="184.8467">AmericanoMachine</text><line style="stroke:#181818;stroke-width:0.5;" x1="54.5" x2="558.5" y1="196" y2="196"/><line style="stroke:#181818;stroke-width:0.5;" x1="54.5" x2="558.5" y1="204" y2="204"/><ellipse cx="64.5" cy="217.6484" fill="#84BE84" rx="3" ry="3" style="stroke:#038048;stroke-width:1.0;"/><text fill="#000000" font-family="sans-serif" font-size="14" lengthAdjust="spacing" textLength="480" x="73.5" y="220.9951">AmericanoMachine(float componentsCost, float coffeePrice) : void</text><ellipse cx="64.5" cy="233.9453" fill="#84BE84" rx="3" ry="3" style="stroke:#038048;stroke-width:1.0;"/><text fill="#000000" font-family="sans-serif" font-size="14" lengthAdjust="spacing" textLength="278" x="73.5" y="237.292">getCoffee() : std::unique_ptr&lt;Coffee&gt;</text></g><!--class C_0002102556391679358599--><g id="elem_C_0002102556391679358599"><rect codeLine="28" fill="#F1F1F1" height="80.5938" id="C_0002102556391679358599" rx="2.5" ry="2.5" style="stroke:#181818;stroke-width:0.5;" width="402" x="437.5" y="527"/><ellipse cx="592.25" cy="543" fill="#ADD1B2" rx="11" ry="11" style="stroke:#181818;stroke-width:1.0;"/><path d="M594.5938,538.6719 C593.6563,538.2344 593.0625,538.0938 592.1875,538.0938 C589.5625,538.0938 587.5625,540.1719 587.5625,542.8906 L587.5625,544.0156 C587.5625,546.5938 589.6719,548.4844 592.5625,548.4844 C593.7813,548.4844 594.9375,548.1875 595.6875,547.6406 C596.2656,547.2344 596.5938,546.7813 596.5938,546.3906 C596.5938,545.9375 596.2031,545.5469 595.7344,545.5469 C595.5156,545.5469 595.3125,545.625 595.125,545.8125 C594.6719,546.2969 594.6719,546.2969 594.4844,546.3906 C594.0625,546.6563 593.375,546.7813 592.6094,546.7813 C590.5625,546.7813 589.2656,545.6875 589.2656,543.9844 L589.2656,542.8906 C589.2656,541.1094 590.5156,539.7969 592.25,539.7969 C592.8281,539.7969 593.4375,539.9531 593.9063,540.2031 C594.3906,540.4844 594.5625,540.7031 594.6563,541.1094 C594.7188,541.5156 594.75,541.6406 594.8906,541.7656 C595.0313,541.9063 595.2656,542.0156 595.4844,542.0156 C595.75,542.0156 596.0156,541.875 596.1875,541.6563 C596.2969,541.5 596.3281,541.3125 596.3281,540.8906 L596.3281,539.4688 C596.3281,539.0313 596.3125,538.9063 596.2188,538.75 C596.0625,538.4844 595.7813,538.3438 595.4844,538.3438 C595.1875,538.3438 594.9844,538.4375 594.7656,538.75 L594.5938,538.6719 Z " fill="#000000"/><text fill="#000000" font-family="sans-serif" font-size="14" lengthAdjust="spacing" textLength="84" x="612.75" y="547.8467">Cappuccino</text><line style="stroke:#181818;stroke-width:0.5;" x1="438.5" x2="838.5" y1="559" y2="559"/><line style="stroke:#181818;stroke-width:0.5;" x1="438.5" x2="838.5" y1="567" y2="567"/><ellipse cx="448.5" cy="580.6484" fill="#84BE84" rx="3" ry="3" style="stroke:#038048;stroke-width:1.0;"/><text fill="#000000" font-family="sans-serif" font-size="14" lengthAdjust="spacing" textLength="376" x="457.5" y="583.9951">Cappuccino(float componentsCost, float cost) : void</text><ellipse cx="448.5" cy="596.9453" fill="#84BE84" rx="3" ry="3" style="stroke:#038048;stroke-width:1.0;"/><text fill="#000000" font-family="sans-serif" font-size="14" lengthAdjust="spacing" textLength="208" x="457.5" y="600.292">getName() const : std::string</text></g><!--class C_0001931416682087605452--><g id="elem_C_0001931416682087605452"><rect codeLine="33" fill="#F1F1F1" height="80.5938" id="C_0001931416682087605452" rx="2.5" ry="2.5" style="stroke:#181818;stroke-width:0.5;" width="513" x="595" y="164"/><ellipse cx="775.75" cy="180" fill="#ADD1B2" rx="11" ry="11" style="stroke:#181818;stroke-width:1.0;"/><path d="M778.0938,175.6719 C777.1563,175.2344 776.5625,175.0938 775.6875,175.0938 C773.0625,175.0938 771.0625,177.1719 771.0625,179.8906 L771.0625,181.0156 C771.0625,183.5938 773.1719,185.4844 776.0625,185.4844 C777.2813,185.4844 778.4375,185.1875 779.1875,184.6406 C779.7656,184.2344 780.0938,183.7813 780.0938,183.3906 C780.0938,182.9375 779.7031,182.5469 779.2344,182.5469 C779.0156,182.5469 778.8125,182.625 778.625,182.8125 C778.1719,183.2969 778.1719,183.2969 777.9844,183.3906 C777.5625,183.6563 776.875,183.7813 776.1094,183.7813 C774.0625,183.7813 772.7656,182.6875 772.7656,180.9844 L772.7656,179.8906 C772.7656,178.1094 774.0156,176.7969 775.75,176.7969 C776.3281,176.7969 776.9375,176.9531 777.4063,177.2031 C777.8906,177.4844 778.0625,177.7031 778.1563,178.1094 C778.2188,178.5156 778.25,178.6406 778.3906,178.7656 C778.5313,178.9063 778.7656,179.0156 778.9844,179.0156 C779.25,179.0156 779.5156,178.875 779.6875,178.6563 C779.7969,178.5 779.8281,178.3125 779.8281,177.8906 L779.8281,176.4688 C779.8281,176.0313 779.8125,175.9063 779.7188,175.75 C779.5625,175.4844 779.2813,175.3438 778.9844,175.3438 C778.6875,175.3438 778.4844,175.4375 778.2656,175.75 L778.0938,175.6719 Z " fill="#000000"/><text fill="#000000" font-family="sans-serif" font-size="14" lengthAdjust="spacing" textLength="143" x="796.25" y="184.8467">CappuccinoMachine</text><line style="stroke:#181818;stroke-width:0.5;" x1="596" x2="1107" y1="196" y2="196"/><line style="stroke:#181818;stroke-width:0.5;" x1="596" x2="1107" y1="204" y2="204"/><ellipse cx="606" cy="217.6484" fill="#84BE84" rx="3" ry="3" style="stroke:#038048;stroke-width:1.0;"/><text fill="#000000" font-family="sans-serif" font-size="14" lengthAdjust="spacing" textLength="487" x="615" y="220.9951">CappuccinoMachine(float componentsCost, float coffeePrice) : void</text><ellipse cx="606" cy="233.9453" fill="#84BE84" rx="3" ry="3" style="stroke:#038048;stroke-width:1.0;"/><text fill="#000000" font-family="sans-serif" font-size="14" lengthAdjust="spacing" textLength="278" x="615" y="237.292">getCoffee() : std::unique_ptr&lt;Coffee&gt;</text></g><!--class C_0001811296427559445634--><g id="elem_C_0001811296427559445634"><rect codeLine="38" fill="#F1F1F1" height="80.5938" id="C_0001811296427559445634" rx="2.5" ry="2.5" style="stroke:#181818;stroke-width:0.5;" width="382" x="874.5" y="527"/><ellipse cx="1029.25" cy="543" fill="#ADD1B2" rx="11" ry="11" style="stroke:#181818;stroke-width:1.0;"/><path d="M1031.5938,538.6719 C1030.6563,538.2344 1030.0625,538.0938 1029.1875,538.0938 C1026.5625,538.0938 1024.5625,540.1719 1024.5625,542.8906 L1024.5625,544.0156 C1024.5625,546.5938 1026.6719,548.4844 1029.5625,548.4844 C1030.7813,548.4844 1031.9375,548.1875 1032.6875,547.6406 C1033.2656,547.2344 1033.5938,546.7813 1033.5938,546.3906 C1033.5938,545.9375 1033.2031,545.5469 1032.7344,545.5469 C1032.5156,545.5469 1032.3125,545.625 1032.125,545.8125 C1031.6719,546.2969 1031.6719,546.2969 1031.4844,546.3906 C1031.0625,546.6563 1030.375,546.7813 1029.6094,546.7813 C1027.5625,546.7813 1026.2656,545.6875 1026.2656,543.9844 L1026.2656,542.8906 C1026.2656,541.1094 1027.5156,539.7969 1029.25,539.7969 C1029.8281,539.7969 1030.4375,539.9531 1030.9063,540.2031 C1031.3906,540.4844 1031.5625,540.7031 1031.6563,541.1094 C1031.7188,541.5156 1031.75,541.6406 1031.8906,541.7656 C1032.0313,541.9063 1032.2656,542.0156 1032.4844,542.0156 C1032.75,542.0156 1033.0156,541.875 1033.1875,541.6563 C1033.2969,541.5 1033.3281,541.3125 1033.3281,540.8906 L1033.3281,539.4688 C1033.3281,539.0313 1033.3125,538.9063 1033.2188,538.75 C1033.0625,538.4844 1032.7813,538.3438 1032.4844,538.3438 C1032.1875,538.3438 1031.9844,538.4375 1031.7656,538.75 L1031.5938,538.6719 Z " fill="#000000"/><text fill="#000000" font-family="sans-serif" font-size="14" lengthAdjust="spacing" textLength="64" x="1049.75" y="547.8467">Espresso</text><line style="stroke:#181818;stroke-width:0.5;" x1="875.5" x2="1255.5" y1="559" y2="559"/><line style="stroke:#181818;stroke-width:0.5;" x1="875.5" x2="1255.5" y1="567" y2="567"/><ellipse cx="885.5" cy="580.6484" fill="#84BE84" rx="3" ry="3" style="stroke:#038048;stroke-width:1.0;"/><text fill="#000000" font-family="sans-serif" font-size="14" lengthAdjust="spacing" textLength="356" x="894.5" y="583.9951">Espresso(float componentsCost, float cost) : void</text><ellipse cx="885.5" cy="596.9453" fill="#84BE84" rx="3" ry="3" style="stroke:#038048;stroke-width:1.0;"/><text fill="#000000" font-family="sans-serif" font-size="14" lengthAdjust="spacing" textLength="208" x="894.5" y="600.292">getName() const : std::string</text></g><!--class C_0000172541214815633971--><g id="elem_C_0000172541214815633971"><rect codeLine="43" fill="#F1F1F1" height="80.5938" id="C_0000172541214815633971" rx="2.5" ry="2.5" style="stroke:#181818;stroke-width:0.5;" width="493" x="1143" y="164"/><ellipse cx="1323.75" cy="180" fill="#ADD1B2" rx="11" ry="11" style="stroke:#181818;stroke-width:1.0;"/><path d="M1326.0938,175.6719 C1325.1563,175.2344 1324.5625,175.0938 1323.6875,175.0938 C1321.0625,175.0938 1319.0625,177.1719 1319.0625,179.8906 L1319.0625,181.0156 C1319.0625,183.5938 1321.1719,185.4844 1324.0625,185.4844 C1325.2813,185.4844 1326.4375,185.1875 1327.1875,184.6406 C1327.7656,184.2344 1328.0938,183.7813 1328.0938,183.3906 C1328.0938,182.9375 1327.7031,182.5469 1327.2344,182.5469 C1327.0156,182.5469 1326.8125,182.625 1326.625,182.8125 C1326.1719,183.2969 1326.1719,183.2969 1325.9844,183.3906 C1325.5625,183.6563 1324.875,183.7813 1324.1094,183.7813 C1322.0625,183.7813 1320.7656,182.6875 1320.7656,180.9844 L1320.7656,179.8906 C1320.7656,178.1094 1322.0156,176.7969 1323.75,176.7969 C1324.3281,176.7969 1324.9375,176.9531 1325.4063,177.2031 C1325.8906,177.4844 1326.0625,177.7031 1326.1563,178.1094 C1326.2188,178.5156 1326.25,178.6406 1326.3906,178.7656 C1326.5313,178.9063 1326.7656,179.0156 1326.9844,179.0156 C1327.25,179.0156 1327.5156,178.875 1327.6875,178.6563 C1327.7969,178.5 1327.8281,178.3125 1327.8281,177.8906 L1327.8281,176.4688 C1327.8281,176.0313 1327.8125,175.9063 1327.7188,175.75 C1327.5625,175.4844 1327.2813,175.3438 1326.9844,175.3438 C1326.6875,175.3438 1326.4844,175.4375 1326.2656,175.75 L1326.0938,175.6719 Z " fill="#000000"/><text fill="#000000" font-family="sans-serif" font-size="14" lengthAdjust="spacing" textLength="123" x="1344.25" y="184.8467">EspressoMachine</text><line style="stroke:#181818;stroke-width:0.5;" x1="1144" x2="1635" y1="196" y2="196"/><line style="stroke:#181818;stroke-width:0.5;" x1="1144" x2="1635" y1="204" y2="204"/><ellipse cx="1154" cy="217.6484" fill="#84BE84" rx="3" ry="3" style="stroke:#038048;stroke-width:1.0;"/><text fill="#000000" font-family="sans-serif" font-size="14" lengthAdjust="spacing" textLength="467" x="1163" y="220.9951">EspressoMachine(float componentsCost, float coffeePrice) : void</text><ellipse cx="1154" cy="233.9453" fill="#84BE84" rx="3" ry="3" style="stroke:#038048;stroke-width:1.0;"/><text fill="#000000" font-family="sans-serif" font-size="14" lengthAdjust="spacing" textLength="278" x="1163" y="237.292">getCoffee() : std::unique_ptr&lt;Coffee&gt;</text></g><!--class C_0001647160910280595340--><g id="elem_C_0001647160910280595340"><rect codeLine="48" fill="#F1F1F1" height="80.5938" id="C_0001647160910280595340" rx="2.5" ry="2.5" style="stroke:#181818;stroke-width:0.5;" width="357" x="1292" y="527"/><ellipse cx="1446.75" cy="543" fill="#ADD1B2" rx="11" ry="11" style="stroke:#181818;stroke-width:1.0;"/><path d="M1449.0938,538.6719 C1448.1563,538.2344 1447.5625,538.0938 1446.6875,538.0938 C1444.0625,538.0938 1442.0625,540.1719 1442.0625,542.8906 L1442.0625,544.0156 C1442.0625,546.5938 1444.1719,548.4844 1447.0625,548.4844 C1448.2813,548.4844 1449.4375,548.1875 1450.1875,547.6406 C1450.7656,547.2344 1451.0938,546.7813 1451.0938,546.3906 C1451.0938,545.9375 1450.7031,545.5469 1450.2344,545.5469 C1450.0156,545.5469 1449.8125,545.625 1449.625,545.8125 C1449.1719,546.2969 1449.1719,546.2969 1448.9844,546.3906 C1448.5625,546.6563 1447.875,546.7813 1447.1094,546.7813 C1445.0625,546.7813 1443.7656,545.6875 1443.7656,543.9844 L1443.7656,542.8906 C1443.7656,541.1094 1445.0156,539.7969 1446.75,539.7969 C1447.3281,539.7969 1447.9375,539.9531 1448.4063,540.2031 C1448.8906,540.4844 1449.0625,540.7031 1449.1563,541.1094 C1449.2188,541.5156 1449.25,541.6406 1449.3906,541.7656 C1449.5313,541.9063 1449.7656,542.0156 1449.9844,542.0156 C1450.25,542.0156 1450.5156,541.875 1450.6875,541.6563 C1450.7969,541.5 1450.8281,541.3125 1450.8281,540.8906 L1450.8281,539.4688 C1450.8281,539.0313 1450.8125,538.9063 1450.7188,538.75 C1450.5625,538.4844 1450.2813,538.3438 1449.9844,538.3438 C1449.6875,538.3438 1449.4844,538.4375 1449.2656,538.75 L1449.0938,538.6719 Z " fill="#000000"/><text fill="#000000" font-family="sans-serif" font-size="14" lengthAdjust="spacing" textLength="39" x="1467.25" y="547.8467">Latte</text><line style="stroke:#181818;stroke-width:0.5;" x1="1293" x2="1648" y1="559" y2="559"/><line style="stroke:#181818;stroke-width:0.5;" x1="1293" x2="1648" y1="567" y2="567"/><ellipse cx="1303" cy="580.6484" fill="#84BE84" rx="3" ry="3" style="stroke:#038048;stroke-width:1.0;"/><text fill="#000000" font-family="sans-serif" font-size="14" lengthAdjust="spacing" textLength="331" x="1312" y="583.9951">Latte(float componentsCost, float cost) : void</text><ellipse cx="1303" cy="596.9453" fill="#84BE84" rx="3" ry="3" style="stroke:#038048;stroke-width:1.0;"/><text fill="#000000" font-family="sans-serif" font-size="14" lengthAdjust="spacing" textLength="208" x="1312" y="600.292">getName() const : std::string</text></g><!--class C_0000756671596664238501--><g id="elem_C_0000756671596664238501"><rect codeLine="53" fill="#F1F1F1" height="80.5938" id="C_0000756671596664238501" rx="2.5" ry="2.5" style="stroke:#181818;stroke-width:0.5;" width="468" x="1671.5" y="164"/><ellipse cx="1852.25" cy="180" fill="#ADD1B2" rx="11" ry="11" style="stroke:#181818;stroke-width:1.0;"/><path d="M1854.5938,175.6719 C1853.6563,175.2344 1853.0625,175.0938 1852.1875,175.0938 C1849.5625,175.0938 1847.5625,177.1719 1847.5625,179.8906 L1847.5625,181.0156 C1847.5625,183.5938 1849.6719,185.4844 1852.5625,185.4844 C1853.7813,185.4844 1854.9375,185.1875 1855.6875,184.6406 C1856.2656,184.2344 1856.5938,183.7813 1856.5938,183.3906 C1856.5938,182.9375 1856.2031,182.5469 1855.7344,182.5469 C1855.5156,182.5469 1855.3125,182.625 1855.125,182.8125 C1854.6719,183.2969 1854.6719,183.2969 1854.4844,183.3906 C1854.0625,183.6563 1853.375,183.7813 1852.6094,183.7813 C1850.5625,183.7813 1849.2656,182.6875 1849.2656,180.9844 L1849.2656,179.8906 C1849.2656,178.1094 1850.5156,176.7969 1852.25,176.7969 C1852.8281,176.7969 1853.4375,176.9531 1853.9063,177.2031 C1854.3906,177.4844 1854.5625,177.7031 1854.6563,178.1094 C1854.7188,178.5156 1854.75,178.6406 1854.8906,178.7656 C1855.0313,178.9063 1855.2656,179.0156 1855.4844,179.0156 C1855.75,179.0156 1856.0156,178.875 1856.1875,178.6563 C1856.2969,178.5 1856.3281,178.3125 1856.3281,177.8906 L1856.3281,176.4688 C1856.3281,176.0313 1856.3125,175.9063 1856.2188,175.75 C1856.0625,175.4844 1855.7813,175.3438 1855.4844,175.3438 C1855.1875,175.3438 1854.9844,175.4375 1854.7656,175.75 L1854.5938,175.6719 Z " fill="#000000"/><text fill="#000000" font-family="sans-serif" font-size="14" lengthAdjust="spacing" textLength="98" x="1872.75" y="184.8467">LatteMachine</text><line style="stroke:#181818;stroke-width:0.5;" x1="1672.5" x2="2138.5" y1="196" y2="196"/><line style="stroke:#181818;stroke-width:0.5;" x1="1672.5" x2="2138.5" y1="204" y2="204"/><ellipse cx="1682.5" cy="217.6484" fill="#84BE84" rx="3" ry="3" style="stroke:#038048;stroke-width:1.0;"/><text fill="#000000" font-family="sans-serif" font-size="14" lengthAdjust="spacing" textLength="442" x="1691.5" y="220.9951">LatteMachine(float componentsCost, float coffeePrice) : void</text><ellipse cx="1682.5" cy="233.9453" fill="#84BE84" rx="3" ry="3" style="stroke:#038048;stroke-width:1.0;"/><text fill="#000000" font-family="sans-serif" font-size="14" lengthAdjust="spacing" textLength="278" x="1691.5" y="237.292">getCoffee() : std::unique_ptr&lt;Coffee&gt;</text></g><!--class C_0002180082101712686293--><g id="elem_C_0002180082101712686293"><rect codeLine="58" fill="#F1F1F1" height="64.2969" id="C_0002180082101712686293" rx="2.5" ry="2.5" style="stroke:#181818;stroke-width:0.5;" width="118" x="1049.5" y="23.5"/><ellipse cx="1064.5" cy="39.5" fill="#ADD1B2" rx="11" ry="11" style="stroke:#181818;stroke-width:1.0;"/><path d="M1066.8438,35.1719 C1065.9063,34.7344 1065.3125,34.5938 1064.4375,34.5938 C1061.8125,34.5938 1059.8125,36.6719 1059.8125,39.3906 L1059.8125,40.5156 C1059.8125,43.0938 1061.9219,44.9844 1064.8125,44.9844 C1066.0313,44.9844 1067.1875,44.6875 1067.9375,44.1406 C1068.5156,43.7344 1068.8438,43.2813 1068.8438,42.8906 C1068.8438,42.4375 1068.4531,42.0469 1067.9844,42.0469 C1067.7656,42.0469 1067.5625,42.125 1067.375,42.3125 C1066.9219,42.7969 1066.9219,42.7969 1066.7344,42.8906 C1066.3125,43.1563 1065.625,43.2813 1064.8594,43.2813 C1062.8125,43.2813 1061.5156,42.1875 1061.5156,40.4844 L1061.5156,39.3906 C1061.5156,37.6094 1062.7656,36.2969 1064.5,36.2969 C1065.0781,36.2969 1065.6875,36.4531 1066.1563,36.7031 C1066.6406,36.9844 1066.8125,37.2031 1066.9063,37.6094 C1066.9688,38.0156 1067,38.1406 1067.1406,38.2656 C1067.2813,38.4063 1067.5156,38.5156 1067.7344,38.5156 C1068,38.5156 1068.2656,38.375 1068.4375,38.1563 C1068.5469,38 1068.5781,37.8125 1068.5781,37.3906 L1068.5781,35.9688 C1068.5781,35.5313 1068.5625,35.4063 1068.4688,35.25 C1068.3125,34.9844 1068.0313,34.8438 1067.7344,34.8438 C1067.4375,34.8438 1067.2344,34.9375 1067.0156,35.25 L1066.8438,35.1719 Z " fill="#000000"/><text fill="#000000" font-family="sans-serif" font-size="14" lengthAdjust="spacing" textLength="86" x="1078.5" y="44.3467">CoffeeShop</text><line style="stroke:#181818;stroke-width:0.5;" x1="1050.5" x2="1166.5" y1="55.5" y2="55.5"/><line style="stroke:#181818;stroke-width:0.5;" x1="1050.5" x2="1166.5" y1="63.5" y2="63.5"/><ellipse cx="1060.5" cy="77.1484" fill="#84BE84" rx="3" ry="3" style="stroke:#038048;stroke-width:1.0;"/><text fill="#000000" font-family="sans-serif" font-size="14" lengthAdjust="spacing" textLength="88" x="1069.5" y="80.4951">start() : void</text></g><!--link C_0000209174374544492061 to C_0002029504024862137028--><g id="link_C_0000209174374544492061_C_0002029504024862137028"><path codeLine="61" d="M688.245,66.613 C462.482,82.288 77.8061,115.755 35.5,164 C11.7647,191.067 12.296,217.476 35.5,245 C116.564,341.156 468.105,371.271 682.456,380.701 " fill="none" id="C_0000209174374544492061-to-C_0002029504024862137028" style="stroke:#181818;stroke-width:1.0;stroke-dasharray:7.0,7.0;"/><polygon fill="#181818" points="687.493,380.92,678.6752,376.5329,682.4977,380.7029,678.3278,384.5254,687.493,380.92" style="stroke:#181818;stroke-width:1.0;"/></g><!--reverse link C_0002029504024862137028 to C_0001424193820633894510--><g id="link_C_0002029504024862137028_C_0001424193820633894510"><path codeLine="62" d="M668.009,437.907 C566.178,466.158 441.413,500.772 346.988,526.9689 " fill="none" id="C_0002029504024862137028-backto-C_0001424193820633894510" style="stroke:#181818;stroke-width:1.0;"/><polygon fill="none" points="666.255,431.129,687.398,432.527,669.997,444.62,666.255,431.129" style="stroke:#181818;stroke-width:1.0;"/></g><!--link C_0001485860819496825022 to C_0002029504024862137028--><g id="link_C_0001485860819496825022_C_0002029504024862137028"><path codeLine="63" d="M426.44,245.003 C501.571,269.748 599.53,302.012 682.47,329.329 " fill="none" id="C_0001485860819496825022-to-C_0002029504024862137028" style="stroke:#181818;stroke-width:1.0;stroke-dasharray:7.0,7.0;"/><polygon fill="#181818" points="687.409,330.955,680.1124,324.3399,682.66,329.3906,677.6093,331.9382,687.409,330.955" style="stroke:#181818;stroke-width:1.0;"/></g><!--reverse link C_0000209174374544492061 to C_0001485860819496825022--><g id="link_C_0000209174374544492061_C_0001485860819496825022"><path codeLine="64" d="M668.795,105.78 C598.551,124.727 519.345,146.091 452.946,164 " fill="none" id="C_0000209174374544492061-backto-C_0001485860819496825022" style="stroke:#181818;stroke-width:1.0;"/><polygon fill="none" points="667.218,98.955,688.351,100.505,670.864,112.472,667.218,98.955" style="stroke:#181818;stroke-width:1.0;"/></g><!--reverse link C_0002029504024862137028 to C_0002102556391679358599--><g id="link_C_0002029504024862137028_C_0002102556391679358599"><path codeLine="65" d="M741.169,479.979 C721.548,496.514 702.101,512.9019 685.496,526.8953 " fill="none" id="C_0002029504024862137028-backto-C_0002102556391679358599" style="stroke:#181818;stroke-width:1.0;"/><polygon fill="none" points="736.72,474.574,756.524,467.038,745.742,485.279,736.72,474.574" style="stroke:#181818;stroke-width:1.0;"/></g><!--link C_0001931416682087605452 to C_0002029504024862137028--><g id="link_C_0001931416682087605452_C_0002029504024862137028"><path codeLine="66" d="M851.5,245.337 C851.5,261.386 851.5,280.558 851.5,299.479 " fill="none" id="C_0001931416682087605452-to-C_0002029504024862137028" style="stroke:#181818;stroke-width:1.0;stroke-dasharray:7.0,7.0;"/><polygon fill="#181818" points="851.5,304.807,855.5,295.807,851.5,299.807,847.5,295.807,851.5,304.807" style="stroke:#181818;stroke-width:1.0;"/></g><!--reverse link C_0000209174374544492061 to C_0001931416682087605452--><g id="link_C_0000209174374544492061_C_0001931416682087605452"><path codeLine="67" d="M851.5,124.337 C851.5,137.876 851.5,151.673 851.5,163.876 " fill="none" id="C_0000209174374544492061-backto-C_0001931416682087605452" style="stroke:#181818;stroke-width:1.0;"/><polygon fill="none" points="844.5,124.227,851.5,104.227,858.5,124.227,844.5,124.227" style="stroke:#181818;stroke-width:1.0;"/></g><!--reverse link C_0002029504024862137028 to C_0001811296427559445634--><g id="link_C_0002029504024862137028_C_0001811296427559445634"><path codeLine="68" d="M962.349,479.979 C982.062,496.514 1001.6,512.9019 1018.28,526.8953 " fill="none" id="C_0002029504024862137028-backto-C_0001811296427559445634" style="stroke:#181818;stroke-width:1.0;"/><polygon fill="none" points="957.746,485.254,946.922,467.038,966.743,474.528,957.746,485.254" style="stroke:#181818;stroke-width:1.0;"/></g><!--link C_0000172541214815633971 to C_0002029504024862137028--><g id="link_C_0000172541214815633971_C_0002029504024862137028"><path codeLine="69" d="M1271.1,245.003 C1197.54,269.546 1101.81,301.484 1020.37,328.657 " fill="none" id="C_0000172541214815633971-to-C_0002029504024862137028" style="stroke:#181818;stroke-width:1.0;stroke-dasharray:7.0,7.0;"/><polygon fill="#181818" points="1015.52,330.276,1025.3239,331.2158,1020.262,328.6906,1022.7872,323.6286,1015.52,330.276" style="stroke:#181818;stroke-width:1.0;"/></g><!--reverse link C_0000209174374544492061 to C_0000172541214815633971--><g id="link_C_0000209174374544492061_C_0000172541214815633971"><path codeLine="70" d="M1034.34,106.457 C1102.98,125.214 1180,146.257 1244.72,163.942 " fill="none" id="C_0000209174374544492061-backto-C_0000172541214815633971" style="stroke:#181818;stroke-width:1.0;"/><polygon fill="none" points="1032.19,113.128,1014.74,101.104,1035.88,99.623,1032.19,113.128" style="stroke:#181818;stroke-width:1.0;"/></g><!--reverse link C_0002029504024862137028 to C_0001647160910280595340--><g id="link_C_0002029504024862137028_C_0001647160910280595340"><path codeLine="71" d="M1034.98,440.206 C1130.92,468.027 1246.34,501.498 1334.25,526.9904 " fill="none" id="C_0002029504024862137028-backto-C_0001647160910280595340" style="stroke:#181818;stroke-width:1.0;"/><polygon fill="none" points="1033.01,446.925,1015.76,434.631,1036.91,433.479,1033.01,446.925" style="stroke:#181818;stroke-width:1.0;"/></g><!--link C_0000756671596664238501 to C_0002029504024862137028--><g id="link_C_0000756671596664238501_C_0002029504024862137028"><path codeLine="72" d="M1673.54,245.003 C1476.28,278.597 1197.65,326.049 1020.8,356.167 " fill="none" id="C_0000756671596664238501-to-C_0002029504024862137028" style="stroke:#181818;stroke-width:1.0;stroke-dasharray:7.0,7.0;"/><polygon fill="#181818" points="1015.86,357.009,1025.3985,359.462,1020.7908,356.1803,1024.0726,351.5726,1015.86,357.009" style="stroke:#181818;stroke-width:1.0;"/></g><!--reverse link C_0000209174374544492061 to C_0000756671596664238501--><g id="link_C_0000209174374544492061_C_0000756671596664238501"><path codeLine="73" d="M1034.63,104.109 C1309.01,151.613 1384.86,129.998 1653.5,164 C1659.43,164.751 1665.44,165.532 1671.49,166.339 " fill="none" id="C_0000209174374544492061-backto-C_0000756671596664238501" style="stroke:#181818;stroke-width:1.0;"/><polygon fill="none" points="1033.01,110.931,1014.52,100.567,1035.43,97.143,1033.01,110.931" style="stroke:#181818;stroke-width:1.0;"/></g><!--SRC=[lPLTJzim58Rl-oiik00q6lpzKJ6agPfs0nFIfDqYDt7RJ6sInIvSCFxxdBHDapeHI21kAZdlwV6JzyIlzSowKiSEd4pp-ToO4w0jc3v02374Ya4ACPKS8o8WbYEzhnwg0C-ZBmlZflcwo3EJEJlDhJk_076UMGScOBxAjQjBxiiqDg5YWp_N0iZCKxMwy9MFUPhKXTiMZLulcuBdFUiBgBRxgTU7tRu2wCkiIoOJNvDcYz5ftDcquJajggRDykNWmCwlEnqlqwnbctT58K69e8nIgZ3awCYsdWflsn7ljhidRh5kilJlnZmKhhpUoZV3t75TS7z47w-qjU3aszfuGMVv0HjHJ94YqjCG8XLb2EwgX-Hgr4sZtHIwD9TW_xGzkEDXT0SHCWOE8ogPv50YHHMNc46CkwY1t47TzNk5k76l0zvCPNWYpGjCTL5iuZXjkumHn8nneX0NYZ39b6gZzyWL-g7Jnzjyw1twh0YYY7iFeHGSCigwFeTo5_QpZFvkYz9Os_wO9K9OSOe5OufIxoZja8ToHRxly_4cxpk7OO44PXHX_yqYZq6KG6tG7haD-ba6tshdsjy5fm9nds4-xo5JZD1kL8Ho1Lqt-NXhwxQXhu9nBX1JdFin4ybWrzTGRX0_BHxg1x-MUT6E1mcXz2c01CBSNwgATECXa2jiwtJfpXkGbz7WBHD5DyDt- -2LVlrlF1w-90Opz_ND-X3RcuKn_mR6leWTpAjtC_P4v5jyxCcdmGF_NiQ-Z7aBOyyf7pmyxsRiEQ-ZinycCwLs9W5FgLi2VnAonNYpNbs2HrFQDCy0Z4X4HsUtjx_lccTrMRD2B8AH0ETBvmexkRfQ-4wRMUJFzTLgzRZz6HTb_iV4Bl8YaCayYMCn4xEvdokXMd0qIsHY_9maXMREfQ49qXV_0G00]--></g></svg>