<?xml version="1.0" encoding="us-ascii" standalone="no"?><svg xmlns="http://www.w3.org/2000/svg" xmlns:xlink="http://www.w3.org/1999/xlink" contentStyleType="text/css" height="508px" preserveAspectRatio="none" style="width:428px;height:508px;background:#FFFFFF;" version="1.1" viewBox="0 0 428 508" width="428px" zoomAndPan="magnify"><defs/><g><rect fill="#FFFFFF" height="388.1953" style="stroke:#181818;stroke-width:1.0;" width="10" x="61" y="67.4297"/><rect fill="#FFFFFF" height="345.0625" style="stroke:#181818;stroke-width:1.0;" width="10" x="162" y="96.5625"/><rect fill="#FFFFFF" height="14" style="stroke:#181818;stroke-width:1.0;" width="10" x="283" y="125.6953"/><rect fill="#FFFFFF" height="14" style="stroke:#181818;stroke-width:1.0;" width="10" x="283" y="168.8281"/><rect fill="#FFFFFF" height="14" style="stroke:#181818;stroke-width:1.0;" width="10" x="283" y="211.9609"/><rect fill="#FFFFFF" height="14" style="stroke:#181818;stroke-width:1.0;" width="10" x="283" y="255.0938"/><rect fill="#FFFFFF" height="14" style="stroke:#181818;stroke-width:1.0;" width="10" x="385.5" y="298.2266"/><rect fill="#FFFFFF" height="14" style="stroke:#181818;stroke-width:1.0;" width="10" x="385.5" y="341.3594"/><rect fill="#FFFFFF" height="14" style="stroke:#181818;stroke-width:1.0;" width="10" x="385.5" y="384.4922"/><rect fill="#FFFFFF" height="14" style="stroke:#181818;stroke-width:1.0;" width="10" x="385.5" y="427.625"/><line style="stroke:#181818;stroke-width:0.5;stroke-dasharray:5.0,5.0;" x1="66" x2="66" y1="36.2969" y2="473.625"/><line style="stroke:#181818;stroke-width:0.5;stroke-dasharray:5.0,5.0;" x1="167" x2="167" y1="36.2969" y2="473.625"/><line style="stroke:#181818;stroke-width:0.5;stroke-dasharray:5.0,5.0;" x1="288" x2="288" y1="36.2969" y2="473.625"/><line style="stroke:#181818;stroke-width:0.5;stroke-dasharray:5.0,5.0;" x1="390" x2="390" y1="36.2969" y2="473.625"/><rect fill="#E2E2F0" height="30.2969" rx="2.5" ry="2.5" style="stroke:#181818;stroke-width:0.5;" width="82" x="25" y="5"/><text fill="#000000" font-family="sans-serif" font-size="14" lengthAdjust="spacing" textLength="68" x="32" y="24.9951">main.cpp</text><rect fill="#E2E2F0" height="30.2969" rx="2.5" ry="2.5" style="stroke:#181818;stroke-width:0.5;" width="82" x="25" y="472.625"/><text fill="#000000" font-family="sans-serif" font-size="14" lengthAdjust="spacing" textLength="68" x="32" y="492.6201">main.cpp</text><rect fill="#E2E2F0" height="30.2969" rx="2.5" ry="2.5" style="stroke:#181818;stroke-width:0.5;" width="100" x="117" y="5"/><text fill="#000000" font-family="sans-serif" font-size="14" lengthAdjust="spacing" textLength="86" x="124" y="24.9951">CoffeeShop</text><rect fill="#E2E2F0" height="30.2969" rx="2.5" ry="2.5" style="stroke:#181818;stroke-width:0.5;" width="100" x="117" y="472.625"/><text fill="#000000" font-family="sans-serif" font-size="14" lengthAdjust="spacing" textLength="86" x="124" y="492.6201">CoffeeShop</text><rect fill="#E2E2F0" height="30.2969" rx="2.5" ry="2.5" style="stroke:#181818;stroke-width:0.5;" width="122" x="227" y="5"/><text fill="#000000" font-family="sans-serif" font-size="14" lengthAdjust="spacing" textLength="108" x="234" y="24.9951">CoffeeMachine</text><rect fill="#E2E2F0" height="30.2969" rx="2.5" ry="2.5" style="stroke:#181818;stroke-width:0.5;" width="122" x="227" y="472.625"/><text fill="#000000" font-family="sans-serif" font-size="14" lengthAdjust="spacing" textLength="108" x="234" y="492.6201">CoffeeMachine</text><rect fill="#E2E2F0" height="30.2969" rx="2.5" ry="2.5" style="stroke:#181818;stroke-width:0.5;" width="63" x="359" y="5"/><text fill="#000000" font-family="sans-serif" font-size="14" lengthAdjust="spacing" textLength="49" x="366" y="24.9951">Coffee</text><rect fill="#E2E2F0" height="30.2969" rx="2.5" ry="2.5" style="stroke:#181818;stroke-width:0.5;" width="63" x="359" y="472.625"/><text fill="#000000" font-family="sans-serif" font-size="14" lengthAdjust="spacing" textLength="49" x="366" y="492.6201">Coffee</text><rect fill="#FFFFFF" height="388.1953" style="stroke:#181818;stroke-width:1.0;" width="10" x="61" y="67.4297"/><rect fill="#FFFFFF" height="345.0625" style="stroke:#181818;stroke-width:1.0;" width="10" x="162" y="96.5625"/><rect fill="#FFFFFF" height="14" style="stroke:#181818;stroke-width:1.0;" width="10" x="283" y="125.6953"/><rect fill="#FFFFFF" height="14" style="stroke:#181818;stroke-width:1.0;" width="10" x="283" y="168.8281"/><rect fill="#FFFFFF" height="14" style="stroke:#181818;stroke-width:1.0;" width="10" x="283" y="211.9609"/><rect fill="#FFFFFF" height="14" style="stroke:#181818;stroke-width:1.0;" width="10" x="283" y="255.0938"/><rect fill="#FFFFFF" height="14" style="stroke:#181818;stroke-width:1.0;" width="10" x="385.5" y="298.2266"/><rect fill="#FFFFFF" height="14" style="stroke:#181818;stroke-width:1.0;" width="10" x="385.5" y="341.3594"/><rect fill="#FFFFFF" height="14" style="stroke:#181818;stroke-width:1.0;" width="10" x="385.5" y="384.4922"/><rect fill="#FFFFFF" height="14" style="stroke:#181818;stroke-width:1.0;" width="10" x="385.5" y="427.625"/><polygon fill="#181818" points="49,63.4297,59,67.4297,49,71.4297,53,67.4297" style="stroke:#181818;stroke-width:1.0;"/><line style="stroke:#181818;stroke-width:1.0;" x1="0" x2="55" y1="67.4297" y2="67.4297"/><text fill="#000000" font-family="sans-serif" font-size="13" lengthAdjust="spacing" textLength="42" x="7" y="62.3638">main()</text><polygon fill="#181818" points="150,92.5625,160,96.5625,150,100.5625,154,96.5625" style="stroke:#181818;stroke-width:1.0;"/><line style="stroke:#181818;stroke-width:1.0;" x1="71" x2="156" y1="96.5625" y2="96.5625"/><text fill="#000000" font-family="sans-serif" font-size="13" lengthAdjust="spacing" textLength="40" x="78" y="91.4966">start()</text><polygon fill="#181818" points="271,121.6953,281,125.6953,271,129.6953,275,125.6953" style="stroke:#181818;stroke-width:1.0;"/><line style="stroke:#181818;stroke-width:1.0;" x1="172" x2="277" y1="125.6953" y2="125.6953"/><text fill="#000000" font-family="sans-serif" font-size="13" lengthAdjust="spacing" textLength="74" x="179" y="120.6294">getCoffee()</text><polygon fill="#181818" points="183,135.6953,173,139.6953,183,143.6953,179,139.6953" style="stroke:#181818;stroke-width:1.0;"/><line style="stroke:#181818;stroke-width:1.0;stroke-dasharray:2.0,2.0;" x1="177" x2="287" y1="139.6953" y2="139.6953"/><polygon fill="#181818" points="271,164.8281,281,168.8281,271,172.8281,275,168.8281" style="stroke:#181818;stroke-width:1.0;"/><line style="stroke:#181818;stroke-width:1.0;" x1="172" x2="277" y1="168.8281" y2="168.8281"/><text fill="#000000" font-family="sans-serif" font-size="13" lengthAdjust="spacing" textLength="74" x="179" y="163.7622">getCoffee()</text><polygon fill="#181818" points="183,178.8281,173,182.8281,183,186.8281,179,182.8281" style="stroke:#181818;stroke-width:1.0;"/><line style="stroke:#181818;stroke-width:1.0;stroke-dasharray:2.0,2.0;" x1="177" x2="287" y1="182.8281" y2="182.8281"/><polygon fill="#181818" points="271,207.9609,281,211.9609,271,215.9609,275,211.9609" style="stroke:#181818;stroke-width:1.0;"/><line style="stroke:#181818;stroke-width:1.0;" x1="172" x2="277" y1="211.9609" y2="211.9609"/><text fill="#000000" font-family="sans-serif" font-size="13" lengthAdjust="spacing" textLength="74" x="179" y="206.895">getCoffee()</text><polygon fill="#181818" points="183,221.9609,173,225.9609,183,229.9609,179,225.9609" style="stroke:#181818;stroke-width:1.0;"/><line style="stroke:#181818;stroke-width:1.0;stroke-dasharray:2.0,2.0;" x1="177" x2="287" y1="225.9609" y2="225.9609"/><polygon fill="#181818" points="271,251.0938,281,255.0938,271,259.0938,275,255.0938" style="stroke:#181818;stroke-width:1.0;"/><line style="stroke:#181818;stroke-width:1.0;" x1="172" x2="277" y1="255.0938" y2="255.0938"/><text fill="#000000" font-family="sans-serif" font-size="13" lengthAdjust="spacing" textLength="74" x="179" y="250.0278">getCoffee()</text><polygon fill="#181818" points="183,265.0938,173,269.0938,183,273.0938,179,269.0938" style="stroke:#181818;stroke-width:1.0;"/><line style="stroke:#181818;stroke-width:1.0;stroke-dasharray:2.0,2.0;" x1="177" x2="287" y1="269.0938" y2="269.0938"/><polygon fill="#181818" points="373.5,294.2266,383.5,298.2266,373.5,302.2266,377.5,298.2266" style="stroke:#181818;stroke-width:1.0;"/><line style="stroke:#181818;stroke-width:1.0;" x1="172" x2="379.5" y1="298.2266" y2="298.2266"/><text fill="#000000" font-family="sans-serif" font-size="13" lengthAdjust="spacing" textLength="69" x="179" y="293.1606">getName()</text><polygon fill="#181818" points="183,308.2266,173,312.2266,183,316.2266,179,312.2266" style="stroke:#181818;stroke-width:1.0;"/><line style="stroke:#181818;stroke-width:1.0;stroke-dasharray:2.0,2.0;" x1="177" x2="389.5" y1="312.2266" y2="312.2266"/><polygon fill="#181818" points="373.5,337.3594,383.5,341.3594,373.5,345.3594,377.5,341.3594" style="stroke:#181818;stroke-width:1.0;"/><line style="stroke:#181818;stroke-width:1.0;" x1="172" x2="379.5" y1="341.3594" y2="341.3594"/><text fill="#000000" font-family="sans-serif" font-size="13" lengthAdjust="spacing" textLength="69" x="179" y="336.2935">getName()</text><polygon fill="#181818" points="183,351.3594,173,355.3594,183,359.3594,179,355.3594" style="stroke:#181818;stroke-width:1.0;"/><line style="stroke:#181818;stroke-width:1.0;stroke-dasharray:2.0,2.0;" x1="177" x2="389.5" y1="355.3594" y2="355.3594"/><polygon fill="#181818" points="373.5,380.4922,383.5,384.4922,373.5,388.4922,377.5,384.4922" style="stroke:#181818;stroke-width:1.0;"/><line style="stroke:#181818;stroke-width:1.0;" x1="172" x2="379.5" y1="384.4922" y2="384.4922"/><text fill="#000000" font-family="sans-serif" font-size="13" lengthAdjust="spacing" textLength="69" x="179" y="379.4263">getName()</text><polygon fill="#181818" points="183,394.4922,173,398.4922,183,402.4922,179,398.4922" style="stroke:#181818;stroke-width:1.0;"/><line style="stroke:#181818;stroke-width:1.0;stroke-dasharray:2.0,2.0;" x1="177" x2="389.5" y1="398.4922" y2="398.4922"/><polygon fill="#181818" points="373.5,423.625,383.5,427.625,373.5,431.625,377.5,427.625" style="stroke:#181818;stroke-width:1.0;"/><line style="stroke:#181818;stroke-width:1.0;" x1="172" x2="379.5" y1="427.625" y2="427.625"/><text fill="#000000" font-family="sans-serif" font-size="13" lengthAdjust="spacing" textLength="69" x="179" y="422.5591">getName()</text><polygon fill="#181818" points="178,437.625,168,441.625,178,445.625,174,441.625" style="stroke:#181818;stroke-width:1.0;"/><line style="stroke:#181818;stroke-width:1.0;stroke-dasharray:2.0,2.0;" x1="172" x2="389.5" y1="441.625" y2="441.625"/><polygon fill="#181818" points="11,451.625,1,455.625,11,459.625,7,455.625" style="stroke:#181818;stroke-width:1.0;"/><line style="stroke:#181818;stroke-width:1.0;stroke-dasharray:2.0,2.0;" x1="5" x2="65" y1="455.625" y2="455.625"/><!--SRC=[xPKxRuCm58LtVeML9ObKoBKnjecgBXcw95qgTSbGESO4Abu29_txTHirGiBqfOum867VUyvthdH58rkJgxoHbK6pKkPLe9fcXcI7DizWdn03vn3Ia3CS2s0yylR-tUWbMgDtaSNIayhaPsdqk4xJjzxKQQhrOrRtp0aM089Wm1mJ9XY9Gs_K-1FAqMIXEcFD1bGk0mVLJgeihtHlAWHYpAqxZIYbCG66lL7pwxI6JHRigCt5P3YoCHENaFz5V2_HFrIUy2Vyl-0xTgQtnK3Y22WGQWLno868x_CwcYvv7sGvJ3jkuP3vLTe9VeB_9_X1ZKDdV-lxup_CmIewQhpvlQvqQsiIz9gR3Ab2LaV_L1OtwApRBgyh144OK6- -tJxjhcSVPTSl70KGSBJ8Z6cwzMfrj4gdGw3gSbKKvylBRzhwHIiJs4iaaZHHYX_u8MLCX5HQeaCY4arf92Zeb0bD4ooNRm00]--></g></svg>